<?xml version="1.0" encoding="UTF-8" standalone="no"?>
<svg
   version="1.1"
   viewBox="0 0 392.69196 314.03668"
   id="svg3"
   sodipodi:docname="lasercut.svg"
   width="392.69196"
   height="314.03668"
   inkscape:version="1.4.2 (ebf0e940, 2025-05-08)"
   xmlns:inkscape="http://www.inkscape.org/namespaces/inkscape"
   xmlns:sodipodi="http://sodipodi.sourceforge.net/DTD/sodipodi-0.dtd"
   xmlns="http://www.w3.org/2000/svg"
   xmlns:svg="http://www.w3.org/2000/svg">
  <defs
     id="defs3" />
  <sodipodi:namedview
     id="namedview3"
     pagecolor="#ffffff"
     bordercolor="#000000"
     borderopacity="0.25"
     inkscape:showpageshadow="2"
     inkscape:pageopacity="0.0"
     inkscape:pagecheckerboard="0"
     inkscape:deskcolor="#d1d1d1"
     showgrid="false"
     inkscape:zoom="0.70200383"
     inkscape:cx="-165.24126"
     inkscape:cy="1.4244936"
     inkscape:window-width="1680"
     inkscape:window-height="921"
     inkscape:window-x="0"
     inkscape:window-y="565"
     inkscape:window-maximized="1"
     inkscape:current-layer="svg3" />
  <g
     id="g3"
     transform="translate(0,-83.497182)">
    <path
       d="m 248.50464,100.86979 0.45314,17.09827 c -0.0292,2.96718 -0.013,5.93369 -6.1e-4,8.90094 0.0163,14.78043 -3.99268,24.2407 -11.68969,36.6919 -1.12736,1.82439 -2.2429,3.65558 -3.35669,5.48828 -3.29961,5.40608 -6.66781,10.76917 -10.19336,16.03125 l -1.55542,2.32422 c -4.9887,5.78663 -8.57351,5.17422 -16.71411,5.98828 v 36 l 10,3 c 2.45313,0.8988 4.89414,1.83154 7.32031,2.80078 l 2.04767,0.81322 c 1.47399,0.58588 2.94723,1.17363 4.4198,1.76307 3.29129,1.31728 6.58637,2.62498 9.88119,3.93338 1.82055,0.72301 3.64092,1.44647 5.46112,2.17035 10.87567,4.32295 21.77231,8.59237 32.66751,12.86579 21.27225,8.3451 42.54024,16.70145 63.77515,25.1412 1.91064,0.7593 3.82128,1.51858 5.73193,2.27783 l 2.7742,1.1027 c 5.04655,2.00253 10.10098,3.98226 15.16791,5.93261 2.85581,1.10006 5.70765,2.21015 8.55905,3.32157 1.87007,0.72382 3.74612,1.43209 5.62238,2.13971 l 3.30615,1.29248 2.81934,1.07763 c 3.56069,1.99072 5.6364,4.74791 7.44629,8.36768 0.42045,4.1156 0.42028,7.84421 -1,11.75 -5.22943,5.8831 -12.88882,8.65317 -20.06641,11.44531 l -2.9411,1.16704 c -2.09091,0.82867 -4.18324,1.6538 -6.27683,2.47569 -4.48003,1.75879 -8.95321,3.53474 -13.42701,5.30931 -2.31849,0.91934 -4.63735,1.83773 -6.95658,2.75522 -11.57163,4.57895 -23.11054,9.23725 -34.64457,13.90993 -1.96433,0.79492 -3.92868,1.58976 -5.89307,2.38452 -8.85294,3.58257 -17.70353,7.17091 -26.55225,10.76392 -16.44093,6.67522 -32.89346,13.32009 -49.36718,19.91406 l -2.67453,1.07138 c -2.4857,0.99544 -4.97189,1.98962 -7.45829,2.98331 l -2.24809,0.90043 c -15.22905,6.07776 -27.20983,3.03971 -41.68159,-3.08012 -1.59668,-0.65078 -3.19435,-1.29909 -4.79297,-1.94507 -3.97023,-1.61176 -7.92674,-3.25424 -11.87885,-4.90985 -3.02725,-1.26578 -6.06245,-2.51197 -9.09772,-3.75836 -4.53912,-1.86907 -9.07128,-3.75414 -13.60156,-5.64453 -10.96527,-4.56463 -21.98864,-8.98736 -33.003875,-13.42969 l -3.330872,-1.34381 c -10.438799,-4.2113 -20.879281,-8.41842 -31.320008,-12.62494 -5.920966,-2.38561 -11.841354,-4.77265 -17.761443,-7.16043 -3.314627,-1.33633 -6.629967,-2.67088 -9.945343,-4.00534 C 19.319871,329.38769 19.319871,329.38769 11.1823,325.96715 L 8.0094477,324.6378 c -3.975309,-1.93196 -5.565617,-3.25306 -7.56152305,-7.24487 -0.86326,-4.93753 -0.528057,-8.76022 1.43750005,-13.375 2.364325,-2.42199 3.488307,-3.21472 6.46875,-4.48438 l 2.4489743,-1.04638 c 4.889566,-2.02299 9.791453,-4.01083 14.707276,-5.96924 l 1.867248,-0.74542 c 24.606392,-9.8207 49.291543,-19.44427 73.955537,-29.11911 8.04737,-3.15674 16.0945,-6.31411 24.14108,-9.47287 2.38795,-0.93736 4.77597,-1.87454 7.16406,-2.81153 10.98515,-4.31068 21.96959,-8.62199 32.91895,-13.02295 l 2.22263,-0.89303 c 3.22861,-1.29863 6.45482,-2.60264 9.67825,-3.9141 l 3.20068,-1.29443 2.69678,-1.09912 c 2.09229,-0.75244 2.09229,-0.75244 4.09229,-0.75244 v -36 h -7 c -2.29297,-0.69922 -2.29297,-0.69922 -4.1875,-1.6875 l -1.91797,-0.94922 c -4.00289,-2.88043 -6.54076,-7.22774 -9.06641,-11.39062 l -1.75293,-2.88135 -1.8252,-3.02881 -1.87988,-3.10693 c -15.74057,-26.09319 -15.84781,-69.20794 -15.84781,-69.20794 z m -86.05672,15.52314 c -0.3459,20.94871 -0.3459,20.94871 8.18751,37.375 0.78123,1.22628 1.55794,2.45547 2.33007,3.6875 1.47014,2.33418 2.97582,4.63676 4.51954,6.92285 1.64538,2.52701 2.97276,5.02241 4.31836,7.70996 2.0486,3.24669 4.04491,4.16444 7.71484,5.21094 6.69872,0.96379 12.79147,1.24391 18.92969,-1.90625 7.93068,-7.48372 12.69079,-18.78532 17.29614,-28.49487 1.70386,-3.50513 1.70386,-3.50513 4.70386,-8.50513 v -22 z m 43.00001,132 -0.0111,2.51666 c -0.0379,7.82798 -0.0947,15.65555 -0.17286,23.48324 -0.0395,4.0243 -0.0717,8.04838 -0.0871,12.07285 -0.0152,3.88414 -0.0496,7.76768 -0.0973,11.65155 -0.0148,1.48149 -0.0227,2.96308 -0.0236,4.44465 -0.002,2.07617 -0.0294,4.15067 -0.0622,6.22656 l -0.0269,3.57989 c -0.62771,3.65825 -1.63253,4.76616 -4.51898,7.0246 -2.41683,1.31861 -4.78457,2.51087 -7.28125,3.65234 l -2.17623,1.0205 c -2.34372,1.09656 -4.69295,2.1807 -7.04252,3.26466 -1.62234,0.75592 -3.24433,1.5126 -4.86597,2.27002 -4.09347,1.90959 -8.1915,3.80914 -12.29071,5.70636 -3.5722,1.6557 -7.13935,3.32215 -10.70661,4.98846 -19.63654,9.16178 -19.63654,9.16178 -26.63672,12.09766 v 2 c 5.61501,2.27514 11.23026,4.54968 16.84571,6.82373 1.90045,0.7697 3.80084,1.53955 5.70117,2.30957 l 2.76562,1.12061 2.77161,1.12353 c 1.85606,0.75075 3.71308,1.49911 5.57105,2.24512 4.63631,1.86302 9.25411,3.75674 13.8468,5.7251 l 2.68414,1.1289 c 1.65791,0.69795 3.31033,1.40914 4.95545,2.13672 8.64684,3.6003 15.84539,3.24557 24.49151,-0.20311 l 2.73413,-1.15236 2.95533,-1.19594 c 3.19109,-1.29598 6.37153,-2.61621 9.55249,-3.93687 2.24952,-0.91897 4.49969,-1.83634 6.75048,-2.7522 5.72021,-2.33197 11.4322,-4.68337 17.14209,-7.04046 4.8229,-1.9879 9.65237,-3.95957 14.48243,-5.93 5.31141,-2.16793 10.62212,-4.33748 15.92895,-6.5166 16.93624,-6.95318 33.91461,-13.80105 50.90064,-20.63159 12.35518,-4.97353 24.66485,-10.03975 36.92041,-15.25415 -2.51597,-1.67731 -4.54363,-2.71119 -7.31714,-3.80567 l -2.6738,-1.06106 -2.92703,-1.1489 -3.08866,-1.22189 c -3.39228,-1.34092 -6.78655,-2.67673 -10.18087,-4.01248 -2.39032,-0.94359 -4.78054,-1.88744 -7.17066,-2.83154 -19.29592,-7.61753 -38.60582,-15.19974 -57.91821,-22.77539 -11.63659,-4.56569 -23.26783,-9.14433 -34.8877,-13.75245 l -3.42259,-1.35702 c -5.37035,-2.12984 -10.73976,-4.26203 -16.10792,-6.39737 -1.89216,-0.75118 -3.78433,-1.50232 -5.67652,-2.25342 l -2.62674,-1.04754 c -3.40687,-1.61112 -3.40687,-1.61112 -7.00216,-2.33527 z m -23.09009,1.57861 -2.6743,1.06154 -2.95827,1.18016 -3.09682,1.23033 c -2.23405,0.88764 -4.46781,1.776 -6.70134,2.66497 -6.06303,2.41274 -12.12853,4.81927 -18.19403,7.2258 l -1.90684,0.75671 c -13.82259,5.48496 -27.66059,10.93046 -41.50332,16.36438 l -3.46902,1.36194 c -6.948379,2.72768 -13.897307,5.45396 -20.846527,8.1795 -3.661475,1.43607 -7.322873,2.87234 -10.984253,4.30866 -14.524354,5.69761 -29.049398,11.39347 -43.575195,17.0874 3.119751,2.56705 6.196845,4.05548 9.939209,5.55615 l 3.633407,1.46713 c 1.307766,0.52104 2.615593,1.04192 3.923477,1.56266 1.353394,0.54374 2.706586,1.08799 4.059586,1.63272 3.565227,1.43367 7.133352,2.85999 10.702072,4.28494 2.878212,1.15062 5.754364,2.30634 8.6304,3.46239 3.472803,1.39584 6.946473,2.78951 10.420442,4.18245 l 1.95703,0.78471 1.911241,0.76567 1.876743,0.75207 c 1.809783,0.72108 3.623879,1.4313 5.438031,2.14132 2.35845,0.94637 4.697804,1.94164 7.016235,2.98221 6.764272,3.14438 6.764272,3.14438 13.929142,2.62651 1.35322,-0.62629 2.68462,-1.30148 3.99267,-2.01734 l 2.2491,-1.08519 c 2.42144,-1.17952 4.80627,-2.41897 7.19621,-3.6609 1.69012,-0.83614 3.38264,-1.66745 5.0774,-2.49414 3.54272,-1.7325 7.0741,-3.48568 10.59985,-5.25244 8.09154,-4.02856 16.32207,-7.75633 24.54474,-11.50754 4.12259,-1.88325 8.23762,-3.78279 12.35224,-5.68338 l 2.14741,-0.98888 c 3.16081,-1.45851 6.28915,-2.95401 9.40337,-4.51112 v -58 c -1.80356,0 -3.43379,0.91923 -5.09009,1.57861 z"
       fill="#000000"
       id="path1"
       sodipodi:nodetypes="cccccccccccccsccscccccccccccscccccccccccccccssccccccccccsscccccccccccccccccccccccccccccccccccccccccccccsscccccccccccccccccccccccccccccccccccsccscccccccsscccccccccccccccccc" />
    <path
       d="m 321.44793,85.392931 c 2.80922,2.979481 3.00936,4.466178 2.9375,8.5625 -1.06273,3.896656 -1.89946,4.874935 -4.9375,7.437499 -2.28315,1.2296 -4.52357,2.36163 -6.875,3.4375 -10.16845,4.73283 -15.04762,10.02484 -19.125,20.5625 -2.95893,10.7179 0.93678,21.7079 5.8164,31.26953 5.2378,12.08323 4.94119,27.54177 0.51172,39.80078 -6.20206,13.68102 -15.92399,23.85542 -30.01562,29.30469 -4.79587,1.60755 -8.64811,2.51313 -13.5625,0.875 -2.24753,-1.60537 -2.89456,-2.61238 -3.75,-5.25 -0.4375,-3.4375 -0.4375,-3.4375 0,-7 3.46389,-4.14764 6.98669,-6.18221 11.875,-8.375 8.72591,-4.14861 13.72355,-8.51625 17.39844,-17.51172 4.2309,-12.306 0.032,-23.0625 -4.39844,-34.73828 -5.10068,-13.81602 -5.42166,-27.63865 0.3789,-41.33594 7.24237,-14.090043 18.3238,-22.533029 32.94141,-28.285153 4.44585,-1.195055 6.64678,-0.719461 10.80469,1.246094 z"
       fill="#000000"
       id="path3" />
  </g>
</svg>
