<?xml version="1.0" encoding="UTF-8"?>
<svg version="1.1" xmlns="http://www.w3.org/2000/svg" viewBox="0 0 512 512">
<path d="M0 0 C0.93719732 -0.00644889 1.87439463 -0.01289778 2.83999187 -0.0195421 C3.86633981 -0.01644489 4.89268775 -0.01334769 5.95013714 -0.01015663 C7.04300791 -0.01468774 8.13587868 -0.01921886 9.26186675 -0.02388728 C12.9367826 -0.03658308 16.61155123 -0.03490755 20.28648663 -0.03325844 C22.91608147 -0.03924046 25.54567455 -0.04604524 28.17526531 -0.05361366 C34.58463849 -0.07023025 40.99397488 -0.07572352 47.4033678 -0.07683842 C52.61345842 -0.07778864 57.82353691 -0.08189763 63.0336237 -0.08823967 C77.80499524 -0.10585434 92.57633771 -0.11507826 107.34771983 -0.11357872 C108.54234103 -0.11345885 108.54234103 -0.11345885 109.761096 -0.11333656 C110.95717587 -0.11321392 110.95717587 -0.11321392 112.17741897 -0.1130888 C125.0990722 -0.11227597 138.02060884 -0.13141229 150.94222835 -0.1596133 C164.2098727 -0.18834099 177.4774602 -0.20215364 190.74513644 -0.20042574 C198.19399099 -0.19976177 205.64272334 -0.20525706 213.09154987 -0.22678185 C219.43407208 -0.24499223 225.77641671 -0.24934231 232.11895374 -0.235763 C235.35434289 -0.22923228 238.58932055 -0.23129252 241.82469082 -0.2464695 C245.33434109 -0.26186766 248.84309455 -0.25264853 252.35272503 -0.23720741 C253.3723808 -0.24749454 254.39203658 -0.25778167 255.44259101 -0.26838052 C261.6166234 -0.20829058 265.28733528 0.64546366 270.34190655 4.25726891 C274.88631004 9.46585445 275.46042905 15.73871529 275.50303936 22.37347984 C275.5126469 23.58533958 275.52225445 24.79719933 275.53215313 26.04578209 C275.53852795 27.99898369 275.53852795 27.99898369 275.54503155 29.99164391 C275.54785892 30.65984406 275.5506863 31.3280442 275.55359936 32.01649284 C275.56855445 35.55411227 275.57780655 39.09169133 275.58214092 42.62933922 C275.5876137 46.26164405 275.61162662 49.89357179 275.64011288 53.52575874 C275.65884859 56.33811035 275.66395067 59.15037319 275.6654768 61.96278191 C275.66992958 63.94622214 275.68852231 65.92961463 275.7074461 67.91296959 C275.6886952 75.56346386 275.61727331 83.23053739 270.5880003 89.41351891 C269.99116436 89.85695641 269.39432842 90.30039391 268.77940655 90.75726891 C268.17999249 91.22133141 267.58057842 91.68539391 266.9630003 92.16351891 C263.35890827 94.59519545 260.70102376 94.37254987 256.36534405 94.35492516 C255.68009655 94.35351021 254.99484905 94.35209526 254.28883648 94.35063744 C252.09814894 94.34503565 249.90756325 94.33248297 247.71690655 94.31976891 C246.23253302 94.31475413 244.7481579 94.31019118 243.26378155 94.30609703 C239.62312339 94.29506568 235.98252491 94.2777999 232.34190655 94.25726891 C232.39427471 95.5261898 232.44664288 96.7951107 232.50059795 98.10248375 C232.68428754 102.89910321 232.79734294 107.69542745 232.89122295 112.49457359 C232.94091426 114.55467885 233.00869783 116.61444298 233.09630108 118.67328453 C233.70223472 133.30123537 231.91081306 143.12917877 223.64940166 155.3150692 C221.74451253 158.14465921 220.04540083 161.07583097 218.3145628 164.01508141 C217.01426819 166.13937224 215.71082485 168.26173859 214.40440655 170.38226891 C212.94079625 172.7712649 211.48067668 175.16238039 210.02159405 177.55414391 C209.64683437 178.16813042 209.2720747 178.78211693 208.88595867 179.41470909 C203.36382714 188.48091698 197.98002076 197.63041789 192.58629131 206.77338219 C192.00517086 207.7563427 192.00517086 207.7563427 191.4123106 208.759161 C190.36367854 210.53297869 189.31695476 212.30792412 188.27037334 214.0829525 C186.34190655 217.25726891 186.34190655 217.25726891 184.12437725 220.20404625 C181.93103171 223.96106301 181.85798583 226.38132236 181.87315655 230.71039391 C181.86610699 231.41065697 181.85905743 232.11092003 181.85179424 232.83240318 C181.82257881 235.79958481 181.83881763 238.76609124 181.85118389 241.73334312 C181.86753031 256.51377343 177.85850141 265.9740373 170.16148663 278.42523766 C169.03412886 280.24962685 167.91859092 282.08082414 166.80479717 283.91351891 C163.50518862 289.31959639 160.1369914 294.68269161 156.6114378 299.94476891 C156.09814922 300.71176109 155.58486065 301.47875328 155.05601788 302.26898766 C150.06731941 308.05562209 146.48251325 307.44320824 138.34190655 308.25726891 C138.34190655 320.13726891 138.34190655 332.01726891 138.34190655 344.25726891 C143.29190655 345.74226891 143.29190655 345.74226891 148.34190655 347.25726891 C150.7950407 348.15606724 153.23605475 349.08880693 155.66221905 350.05805016 C156.33794964 350.32641182 157.01368023 350.59477348 157.7098875 350.87126732 C159.18387616 351.45714624 160.65712021 352.04490131 162.12968731 352.6343441 C165.42098079 353.95161786 168.71605658 355.25931592 172.01088238 356.56772423 C173.83143303 357.29072811 175.6518015 358.01419086 177.47200298 358.73807335 C188.34766984 363.06102357 199.24431439 367.33043813 210.13951397 371.60385704 C231.41176174 379.94896434 252.67974591 388.30531361 273.91466045 396.74506187 C275.82529753 397.50435799 277.73594191 398.26363571 279.64659405 399.02289391 C280.56208019 399.38678215 281.47756634 399.75067039 282.42079449 400.12558556 C287.4673392 402.12811589 292.52176515 404.10784539 297.5887022 406.05820274 C300.44450913 407.15825638 303.29635117 408.26835469 306.14775372 409.37976646 C308.01781503 410.10359109 309.89387327 410.81186368 311.7701292 411.51947594 C312.86115948 411.94599449 313.95218975 412.37251305 315.07628155 412.81195641 C316.00666241 413.16757652 316.93704327 413.52319664 317.89561749 413.88959312 C321.45630997 415.88031162 323.53202228 418.63750037 325.34190655 422.25726891 C325.76236039 426.37286522 325.76219352 430.10147973 324.34190655 434.00726891 C319.11247972 439.89037408 311.45308812 442.66043907 304.2755003 445.45258141 C303.30493694 445.83770393 302.33437359 446.22282646 301.33439922 446.61961937 C299.24348568 447.44829374 297.15116184 448.27341688 295.05757427 449.09531212 C290.5775376 450.85410364 286.10436127 452.63005127 281.63055706 454.40462303 C279.31206696 455.32395712 276.99320514 456.2423543 274.67398357 457.15984154 C263.1023511 461.73878597 251.5634365 466.39708738 240.02940655 471.06976891 C238.06508286 471.86468794 236.10072752 472.65952875 234.13634014 473.45429039 C225.2833991 477.03686328 216.43280512 480.62519949 207.58409405 484.21820641 C191.14315628 490.89343162 174.69063267 497.53829541 158.21690655 504.13226891 C157.33431164 504.48582451 156.45171673 504.83938011 155.54237652 505.20364952 C153.05668242 506.19908896 150.57048796 507.19326647 148.08409405 508.18695641 C147.34222347 508.48410042 146.6003529 508.78124443 145.8360014 509.08739281 C130.60694648 515.16515394 118.62616631 512.12709636 104.15440655 506.00726891 C102.55773365 505.3564949 100.96005557 504.70818225 99.3614378 504.06220055 C95.39121641 502.4504367 91.43470249 500.80795879 87.48259258 499.15234947 C84.45534595 497.88657318 81.42014382 496.64038421 78.3848753 495.39398766 C73.84575488 493.52491811 69.31358841 491.63985049 64.7833128 489.74945641 C53.81801035 485.18482766 42.79464746 480.76210373 31.77940655 476.31976891 C30.68021893 475.87631126 29.5810313 475.43285362 28.44853497 474.97595787 C18.00973605 470.76465813 7.56925405 466.55753722 -2.87147236 462.35101891 C-8.79243857 459.96541006 -14.71282716 457.57837211 -20.63291645 455.190588 C-23.94754285 453.85425958 -27.26288338 452.51971458 -30.57825947 451.18524742 C-47.7861475 444.25203357 -47.7861475 444.25203357 -55.92371845 440.83148766 C-56.97075947 440.39280357 -58.01780048 439.95411949 -59.09657001 439.50214195 C-63.07187932 437.57018407 -64.66218733 436.24908116 -66.65809345 432.25726891 C-67.52135342 427.31974461 -67.18614963 423.49705298 -65.22059345 418.88226891 C-62.85626752 416.46027649 -61.73228586 415.66754583 -58.75184345 414.39789391 C-57.94368183 414.05258629 -57.13552021 413.70727867 -56.30286884 413.35150719 C-51.41330255 411.32851853 -46.51141558 409.34068357 -41.59559345 407.38226891 C-40.97940144 407.13627953 -40.36320942 406.89029015 -39.72834492 406.63684654 C-15.12195275 396.81614572 9.56319854 387.19257543 34.22719097 377.51773643 C42.27456706 374.36100066 50.32169335 371.20363025 58.36827374 368.04486656 C60.7562222 367.10750769 63.14424236 366.17033148 65.53233624 365.23334312 C76.51748155 360.9226585 87.50192268 356.61135276 98.45128155 352.21039391 C99.18474804 351.91569206 99.91821453 351.62099022 100.67390728 351.31735802 C103.90251538 350.01873046 107.12872952 348.71471863 110.35216045 347.403265 C111.40838604 346.97610191 112.46461163 346.54893883 113.55284405 346.10883141 C114.44278057 345.74612144 115.33271709 345.38341148 116.24962139 345.00971031 C118.34190655 344.25726891 118.34190655 344.25726891 120.34190655 344.25726891 C120.34190655 332.37726891 120.34190655 320.49726891 120.34190655 308.25726891 C118.03190655 308.25726891 115.72190655 308.25726891 113.34190655 308.25726891 C111.0489378 307.55805016 111.0489378 307.55805016 109.15440655 306.56976891 C108.20501202 306.09990562 108.20501202 306.09990562 107.2364378 305.62055016 C103.23355015 302.74012172 100.69567877 298.39281489 98.17003155 294.22992516 C97.59156475 293.27908043 97.01309795 292.3282357 96.41710186 291.3485775 C95.81478741 290.34907066 95.21247295 289.34956383 94.59190655 288.31976891 C93.97154522 287.29448082 93.35118389 286.26919273 92.71202374 285.21283531 C76.97144851 259.11964677 76.97144851 259.11964677 77.5255003 250.31586266 C78.36948651 230.03691434 74.93460157 217.22677836 63.08168316 200.62758446 C58.55802752 194.27252781 54.66222854 187.57308166 50.7414732 180.83557701 C48.76691803 177.44984405 46.76442944 174.0807505 44.76378155 170.71039391 C44.19528233 169.75071205 44.19528233 169.75071205 43.61529827 168.77164268 C39.71621491 162.19135344 35.77744708 155.63493781 31.81724834 149.09125328 C31.38065899 148.36744469 30.94406963 147.64363609 30.4942503 146.89789391 C29.93725445 145.97798668 29.93725445 145.97798668 29.36900616 145.03949547 C27.28299937 141.41984974 26.09098431 138.92142793 26.11485577 134.67230797 C26.11500683 133.77167625 26.11515789 132.87104454 26.11531353 131.94312096 C26.1256361 130.97944603 26.13595867 130.0157711 26.14659405 129.02289391 C26.14942394 128.02973167 26.15225384 127.03656944 26.15516949 126.01331139 C26.16635511 122.84450746 26.19145692 119.67598725 26.21690655 116.50726891 C26.22693843 114.35753341 26.23606392 112.20779347 26.2442503 110.05805016 C26.26628914 104.79102644 26.29975071 99.52416795 26.34190655 94.25726891 C25.43424541 94.27821617 24.52658428 94.29916344 23.59141827 94.32074547 C20.20313013 94.38917823 16.81558304 94.43919186 13.42686749 94.47699547 C11.96418403 94.49703223 10.50157989 94.52426994 9.03917217 94.55902672 C6.92894645 94.60790116 4.81978519 94.6303155 2.70909405 94.64789391 C1.44178448 94.66884117 0.17447491 94.68978844 -1.13123798 94.71137047 C-6.3196176 94.04333876 -9.32714069 91.62519258 -12.90809345 87.94476891 C-17.63517497 80.68532229 -16.96478505 72.70479368 -16.9588747 64.32758141 C-16.96276916 62.9690901 -16.96710535 61.6106 -16.97185993 60.25211143 C-16.97929421 57.41280727 -16.97905151 54.57362751 -16.97376728 51.73431969 C-16.9679796 48.11773201 -16.98489973 44.50165765 -17.00811195 40.88515472 C-17.02293235 38.08136644 -17.02370974 35.27769938 -17.02060223 32.47387886 C-17.02135684 30.49931896 -17.03516185 28.52477772 -17.04928303 26.55026817 C-17.00671302 18.22588774 -16.6911292 10.91246583 -11.22059345 4.31976891 C-7.45969509 1.29270437 -4.84738622 0.0084436 0 0 Z M1.34190655 18.25726891 C1.34190655 37.39726891 1.34190655 56.53726891 1.34190655 76.25726891 C85.82190655 76.25726891 170.30190655 76.25726891 257.34190655 76.25726891 C257.34190655 57.11726891 257.34190655 37.97726891 257.34190655 18.25726891 C251.73190655 18.25726891 246.12190655 18.25726891 240.34190655 18.25726891 C240.3161253 19.65461266 240.29034405 21.05195641 240.26378155 22.49164391 C240.20749871 24.33021673 240.15015141 26.16875719 240.09190655 28.00726891 C240.07772686 28.92765953 240.06354717 29.84805016 240.0489378 30.79633141 C239.80246783 37.59890245 239.80246783 37.59890245 237.51378155 40.87055016 C234.32070565 42.90929466 232.04739931 42.7204555 228.34190655 42.25726891 C225.15687085 40.4971176 224.50893683 39.75835974 223.34190655 36.25726891 C223.19698531 34.85061964 223.09561723 33.43915561 223.0255003 32.02680016 C222.9626585 30.82313805 222.9626585 30.82313805 222.89854717 29.59515953 C222.85923077 28.76178062 222.81991436 27.92840172 222.77940655 27.06976891 C222.73622295 26.22478844 222.69303936 25.37980797 222.64854717 24.50922203 C222.54259137 22.42542457 222.44175635 20.34136787 222.34190655 18.25726891 C217.06190655 18.25726891 211.78190655 18.25726891 206.34190655 18.25726891 C206.3161253 19.65461266 206.29034405 21.05195641 206.26378155 22.49164391 C206.20749871 24.33021673 206.15015141 26.16875719 206.09190655 28.00726891 C206.07772686 28.92765953 206.06354717 29.84805016 206.0489378 30.79633141 C205.80233918 37.6024532 205.80233918 37.6024532 203.5098753 40.86273766 C200.24905907 42.96023566 198.13212624 42.85572465 194.34190655 42.25726891 C191.48403152 40.20160441 189.64065703 38.58690849 188.84947491 35.06561852 C188.62637837 32.51561743 188.5465846 30.00429801 188.52940655 27.44476891 C188.50426983 26.56111656 188.47913311 25.67746422 188.45323467 24.76703453 C188.39460097 22.59758756 188.36533269 20.42738164 188.34190655 18.25726891 C183.06190655 18.25726891 177.78190655 18.25726891 172.34190655 18.25726891 C172.3161253 19.65461266 172.29034405 21.05195641 172.26378155 22.49164391 C172.20749871 24.33021673 172.15015141 26.16875719 172.09190655 28.00726891 C172.07772686 28.92765953 172.06354717 29.84805016 172.0489378 30.79633141 C171.80282911 37.58893119 171.80282911 37.58893119 169.54503155 40.86273766 C167.24468467 42.31880829 166.04042182 42.82503944 163.34190655 42.81976891 C162.68190655 42.84168297 162.02190655 42.86359703 161.34190655 42.88617516 C158.02670773 41.84370053 157.07999271 40.23468608 155.34190655 37.25726891 C154.73312249 33.98869563 154.64635548 30.7636786 154.59190655 27.44476891 C154.56225811 26.56111656 154.53260967 25.67746422 154.5020628 24.76703453 C154.43170265 22.59759672 154.38450047 20.42742943 154.34190655 18.25726891 C149.06190655 18.25726891 143.78190655 18.25726891 138.34190655 18.25726891 C138.28132061 19.58242516 138.22073467 20.90758141 138.1583128 22.27289391 C138.0738869 24.01769572 137.98923993 25.76248685 137.90440655 27.50726891 C137.86509014 28.37996422 137.82577374 29.25265953 137.78526592 30.15180016 C137.74337139 30.99613609 137.70147686 31.84047203 137.6583128 32.71039391 C137.60332623 33.87296715 137.60332623 33.87296715 137.54722881 35.05902672 C137.34084995 37.26858114 137.12347127 39.17576344 136.34190655 41.25726891 C133.66546698 42.14941543 132.08806277 42.39267101 129.34190655 42.38226891 C128.32096905 42.38613609 128.32096905 42.38613609 127.27940655 42.39008141 C125.34190655 42.25726891 125.34190655 42.25726891 122.34190655 41.25726891 C121.29466076 38.46818726 121.1654155 35.66860108 121.0255003 32.71039391 C120.98360577 31.86605797 120.94171124 31.02172203 120.89854717 30.15180016 C120.85923077 29.27910484 120.81991436 28.40640953 120.77940655 27.50726891 C120.73622295 26.61910484 120.69303936 25.73094078 120.64854717 24.81586266 C120.5427716 22.62983419 120.44186395 20.44357114 120.34190655 18.25726891 C115.06190655 18.25726891 109.78190655 18.25726891 104.34190655 18.25726891 C104.3161253 19.57082359 104.29034405 20.88437828 104.26378155 22.23773766 C104.20748826 23.97344741 104.1501412 25.7091232 104.09190655 27.44476891 C104.07772686 28.30908531 104.06354717 29.17340172 104.0489378 30.06390953 C103.89075721 34.19242277 103.66092714 36.71077277 101.54503155 40.33539391 C99.21651604 42.36665211 98.37543573 42.92049155 95.34190655 42.81976891 C94.68190655 42.82105797 94.02190655 42.82234703 93.34190655 42.82367516 C90.21812776 41.93901124 89.20314188 40.95606013 87.34190655 38.25726891 C86.70999134 34.84711884 86.64523897 31.46902817 86.59190655 28.00726891 C86.56225811 27.07140953 86.53260967 26.13555016 86.5020628 25.17133141 C86.43152526 22.86710509 86.38443263 20.56218235 86.34190655 18.25726891 C81.06190655 18.25726891 75.78190655 18.25726891 70.34190655 18.25726891 C70.32772686 19.57082359 70.31354717 20.88437828 70.2989378 22.23773766 C70.25202667 23.97344942 70.20377934 25.70912542 70.15440655 27.44476891 C70.14570538 28.74124352 70.14570538 28.74124352 70.13682842 30.06390953 C69.98235605 34.54360833 69.7878694 36.66764017 67.01378155 40.33539391 C64.34190655 42.25726891 64.34190655 42.25726891 60.77940655 42.81976891 C57.34190655 42.25726891 57.34190655 42.25726891 55.1739378 40.86273766 C52.34352887 36.83740129 52.66602256 32.81807198 52.59190655 28.00726891 C52.56225811 27.07140953 52.53260967 26.13555016 52.5020628 25.17133141 C52.43152526 22.86710509 52.38443263 20.56218235 52.34190655 18.25726891 C47.06190655 18.25726891 41.78190655 18.25726891 36.34190655 18.25726891 C36.30452374 19.49863609 36.26714092 20.74000328 36.2286253 22.01898766 C36.16294704 23.66094402 36.09650034 25.30286977 36.02940655 26.94476891 C36.00684795 27.76139 35.98428936 28.57801109 35.96104717 29.41937828 C35.75140001 34.12690995 35.39209614 37.43888341 32.34190655 41.25726891 C29.25016903 42.80313766 26.74761102 42.55086412 23.34190655 42.25726891 C21.16221905 40.87836266 21.16221905 40.87836266 19.34190655 38.25726891 C18.70808232 34.8475363 18.64523739 31.4689255 18.59190655 28.00726891 C18.56225811 27.07140953 18.53260967 26.13555016 18.5020628 25.17133141 C18.43152526 22.86710509 18.38443263 20.56218235 18.34190655 18.25726891 C12.73190655 18.25726891 7.12190655 18.25726891 1.34190655 18.25726891 Z M44.34190655 94.25726891 C44.34190655 105.47726891 44.34190655 116.69726891 44.34190655 128.25726891 C47.05022686 128.29465172 49.75854717 128.33203453 52.5489378 128.37055016 C55.17019539 128.41675356 57.7913095 128.46799144 60.41246319 128.51972008 C62.23496574 128.55298631 64.05757174 128.58101297 65.88023663 128.60370445 C68.49941904 128.63721972 71.11765203 128.68953242 73.7364378 128.74555016 C74.55215755 128.75194008 75.36787731 128.75833 76.20831585 128.76491356 C81.89891871 128.91301549 81.89891871 128.91301549 84.03042889 130.56944847 C86.14272617 133.28789242 86.16462277 135.8888771 86.34190655 139.25726891 C85.71690655 141.56976891 85.71690655 141.56976891 84.34190655 143.25726891 C80.491352 145.15868177 77.21378702 145.55001164 72.9473753 145.67133141 C71.74532452 145.71000328 70.54327374 145.74867516 69.30479717 145.78851891 C68.05891827 145.81945641 66.81303936 145.85039391 65.52940655 145.88226891 C64.2641917 145.92094078 62.99897686 145.95961266 61.69542217 145.99945641 C58.57772803 146.09357547 55.46003741 146.17921251 52.34190655 146.25726891 C53.84209146 150.3606455 55.85506392 154.02819934 58.0958128 157.76117516 C58.46904171 158.38917519 58.84227062 159.01717522 59.2268095 159.66420555 C60.44904911 161.71824559 61.67659503 163.76905547 62.90440655 165.81976891 C63.75339497 167.24364482 64.60218832 168.66763707 65.45079327 170.09174156 C71.96618346 181.01238216 78.54852931 191.89249287 85.17222881 202.74774742 C85.83923809 203.84143639 86.50624737 204.93512535 87.19346905 206.06195641 C87.77950909 207.02085777 88.36554913 207.97975914 88.96934795 208.96771812 C90.34190655 211.25726891 90.34190655 211.25726891 91.34190655 213.25726891 C100.95400168 213.93422473 110.55775813 214.44663892 120.18860817 214.75982189 C124.66395552 214.91031849 129.12286927 215.11326555 133.58873272 215.44501305 C152.02710448 217.4759025 152.02710448 217.4759025 169.02680492 212.02560616 C175.84161271 205.48257714 179.46721952 196.36904946 182.89882183 187.74374962 C184.70567944 183.37839661 186.97284587 179.52672761 189.54503155 175.58148766 C190.24527453 174.43852041 190.94207152 173.29343252 191.6348753 172.14594078 C192.60360577 170.5613607 192.60360577 170.5613607 193.59190655 168.94476891 C194.29133207 167.79580621 194.99054861 166.64671627 195.6895628 165.49750328 C198.52987356 160.8351576 201.38184409 156.18662835 204.32628155 151.58930016 C206.5144366 148.62110087 206.5144366 148.62110087 206.34190655 146.25726891 C205.27559505 146.24918205 204.20928356 146.2410952 203.1106596 146.23276329 C193.06098416 146.15527389 183.01144363 146.06752742 172.96194458 145.96974182 C167.79541299 145.91979901 162.62890164 145.87346867 157.46226788 145.83539391 C152.47605509 145.79851581 147.49001253 145.75214877 142.50394535 145.6992054 C140.60179601 145.68067491 138.6996102 145.66556198 136.7974062 145.65392494 C134.1327818 145.63703958 131.46854607 145.60799886 128.80406475 145.57611656 C128.01787762 145.57395638 127.23169048 145.57179619 126.4216795 145.56957054 C122.31049642 145.50674273 118.99748772 145.20856516 115.34190655 143.25726891 C113.40440655 141.06976891 113.40440655 141.06976891 112.34190655 138.25726891 C113.05820311 134.41531463 113.55637777 132.04279768 116.34190655 129.25726891 C119.4443462 129.0391542 122.46005478 128.94579862 125.56505108 128.93842125 C126.52119305 128.92837563 127.47733501 128.91833 128.46245098 128.90797997 C131.6332007 128.87700811 134.80386546 128.860074 137.97471905 128.84320641 C140.16905232 128.82450602 142.36337833 128.80493347 144.55769634 128.7845211 C150.34119164 128.73307461 156.12471028 128.69351599 161.9083128 128.65637779 C167.80680965 128.61641645 173.70520833 128.56528831 179.6036253 128.51508141 C191.18299047 128.41817391 202.76239573 128.33484829 214.34190655 128.25726891 C214.34190655 117.03726891 214.34190655 105.81726891 214.34190655 94.25726891 C158.24190655 94.25726891 102.14190655 94.25726891 44.34190655 94.25726891 Z M95.34190655 231.25726891 C94.99599939 252.20598118 94.99599939 252.20598118 103.52940655 268.63226891 C104.3106421 269.85855324 105.08734745 271.08773548 105.85948467 272.31976891 C107.32962007 274.6539464 108.83530106 276.95653121 110.37901592 279.24262047 C112.02439928 281.76963461 113.35177608 284.26503289 114.6973753 286.95258141 C116.74597692 290.19927434 118.74229194 291.11701753 122.41221905 292.16351891 C129.11094105 293.12731178 135.20368983 293.40743016 141.34190655 290.25726891 C149.27259234 282.77354702 154.03269814 271.47195421 158.63804913 261.76239586 C160.34190655 258.25726891 160.34190655 258.25726891 163.34190655 253.25726891 C163.34190655 245.99726891 163.34190655 238.73726891 163.34190655 231.25726891 C140.90190655 231.25726891 118.46190655 231.25726891 95.34190655 231.25726891 Z M138.34190655 363.25726891 C138.33826092 364.08776756 138.33461529 364.91826622 138.33085918 365.7739315 C138.29298725 373.60191339 138.23614398 381.4294783 138.15800381 389.25716591 C138.11849988 393.2814681 138.08632598 397.30555054 138.07091045 401.33002281 C138.05576265 405.21416131 138.02135169 409.09769578 137.97359753 412.98156548 C137.95876413 414.46306418 137.9508644 415.94464912 137.9500227 417.42622185 C137.94765694 419.50239461 137.92061448 421.57689268 137.88780499 423.65277672 C137.87448132 425.42482475 137.87448132 425.42482475 137.86088848 427.23267174 C137.23317982 430.89092207 136.2283599 431.99882975 133.34190655 434.25726891 C130.92507599 435.57587998 128.55734334 436.76814032 126.06065655 437.90961266 C125.34250271 438.2463752 124.62434887 438.58313774 123.88443279 438.93010521 C121.54071279 440.02666721 119.19147806 441.1108092 116.84190655 442.19476891 C115.21956926 442.95069491 113.597583 443.70737471 111.97593975 444.46478844 C107.88247487 446.37437597 103.78444025 448.27393388 99.6852293 450.1711483 C96.11303231 451.82684714 92.54587923 453.49329825 88.9786253 455.15961266 C69.34208118 464.32138968 69.34208118 464.32138968 62.34190655 467.25726891 C62.34190655 467.91726891 62.34190655 468.57726891 62.34190655 469.25726891 C67.95691322 471.53240824 73.572161 473.8069512 79.18760967 476.08099937 C81.08806272 476.85070203 82.98845575 477.6205529 84.88878155 478.39056969 C86.25776592 478.94526939 86.25776592 478.94526939 87.65440655 479.51117516 C88.56903667 479.88194176 89.4836668 480.25270836 90.42601299 480.63471031 C92.28206832 481.38545959 94.13909237 482.13381819 95.99705791 482.8798275 C100.63336665 484.74285241 105.25117339 486.63657243 109.84385967 488.60492516 C110.72962688 488.97746422 111.6153941 489.35000328 112.52800274 489.73383141 C114.18590635 490.43178047 115.83832979 491.14297446 117.48344707 491.87055016 C126.13028867 495.47084554 133.32884383 495.11611825 141.97496319 491.66744041 C142.87722637 491.28716194 143.77948956 490.90688347 144.70909405 490.51508141 C146.17197857 489.92309204 146.17197857 489.92309204 147.66441631 489.3191433 C150.85551379 488.02316113 154.03595116 486.70292574 157.21690655 485.38226891 C159.46642972 484.46330263 161.716603 483.54592626 163.96739483 482.63007164 C169.68760158 480.29809782 175.39958963 477.94669552 181.10948467 475.58960533 C185.93238056 473.60170891 190.76185436 471.63004305 195.59190655 469.65961266 C200.90331761 467.49168114 206.21402817 465.32212825 211.52086163 463.14301109 C228.45709923 456.1898259 245.43546983 449.3419608 262.42149639 442.5114193 C274.77668167 437.53789115 287.08634515 432.47166771 299.34190655 427.25726891 C296.82594285 425.57995977 294.79827617 424.5460792 292.02476788 423.45160484 C291.14241467 423.10145317 290.26006145 422.7513015 289.35097027 422.39053917 C288.38504955 422.01140373 287.41912884 421.6322683 286.4239378 421.24164391 C285.40468212 420.83841911 284.38542645 420.43519432 283.33528423 420.0197506 C279.94300216 418.67882592 276.54872707 417.34302431 273.15440655 416.00726891 C270.76408523 415.06368268 268.37386886 414.11983057 265.98375225 413.17572594 C246.68783135 405.55820106 227.37792712 397.97599333 208.06553936 390.40033531 C196.42894689 385.83464577 184.79771104 381.25600515 173.17784405 376.64789391 C172.04838863 376.20007561 170.91893322 375.75225731 169.75525188 375.29086876 C164.3849008 373.16102559 159.01549354 371.02884108 153.64732647 368.89349937 C151.75517024 368.14232228 149.86299987 367.3911808 147.9708128 366.64008141 C147.10398876 366.2943911 146.23716473 365.94870079 145.3440733 365.59253502 C141.9371972 363.98141785 141.9371972 363.98141785 138.34190655 363.25726891 Z M115.25181866 364.83588219 C114.36929928 365.18618996 113.4867799 365.53649773 112.57751751 365.89742088 C111.60128933 366.28687386 110.62506115 366.67632683 109.6192503 367.07758141 C108.59730068 367.48359077 107.57535107 367.88960014 106.52243328 368.30791283 C104.28838192 369.19555084 102.05461541 370.08390605 99.82109356 370.9728756 C93.75806313 373.38562254 87.69256414 375.79214827 81.6270628 378.19867516 C80.99780392 378.44839262 80.36854504 378.69811008 79.7202177 378.95539474 C65.89762969 384.44034695 52.05963251 389.88584565 38.21690655 395.31976891 C37.07212841 395.7692086 35.92735027 396.2186483 34.74788189 396.68170738 C27.79950295 399.40939069 20.85057521 402.13567306 13.90135479 404.86121178 C10.23988018 406.29728484 6.57848242 407.73355373 2.91710186 409.16986656 C-11.60725229 414.86748098 -26.13229572 420.56333586 -40.65809345 426.25726891 C-37.53834166 428.82432384 -34.46124777 430.31275477 -30.71888447 431.81342125 C-29.51985996 432.297575 -28.32083546 432.78172874 -27.08547688 433.28055382 C-25.77771143 433.80158933 -24.46988408 434.32246949 -23.1619997 434.84320641 C-21.80860595 435.38695277 -20.455414 435.93120164 -19.10241413 436.47592735 C-15.53718727 437.90959965 -11.96906178 439.33591895 -8.40034199 440.76086998 C-5.52212967 441.91149404 -2.64597772 443.0672128 0.23005867 444.22326279 C3.70286165 445.61910032 7.17653159 447.01277299 10.6505003 448.40570641 C11.29631998 448.66466068 11.94213966 448.92361496 12.60752964 449.19041634 C13.23823935 449.44308895 13.86894905 449.69576157 14.51877117 449.95609093 C15.13809615 450.20427417 15.75742113 450.45245741 16.39551353 450.70816135 C18.2052969 451.42923902 20.01939254 452.13946325 21.83354473 452.84947777 C24.19199509 453.79584695 26.53134895 454.79111896 28.84978008 455.83168602 C35.61405612 458.97606758 35.61405612 458.97606758 42.77891827 458.45819664 C44.1321455 457.83191301 45.46353988 457.15671839 46.77159405 456.44086266 C47.51379696 456.08275002 48.25599987 455.72463737 49.02069378 455.35567284 C51.44213463 454.17614858 53.82696601 452.93669852 56.21690655 451.69476891 C57.90702345 450.85862719 59.59954083 450.02732194 61.29429913 449.20062828 C64.83702625 447.46812501 68.36839917 445.71495486 71.89415264 443.94818687 C79.98568802 439.91963212 88.21621841 436.19185593 96.43889141 432.44064903 C100.5614811 430.55739784 104.676506 428.65785534 108.7911253 426.75726891 C109.4997723 426.43093971 110.2084193 426.10461052 110.93854046 425.76839256 C114.09934957 424.30988043 117.22768775 422.81437831 120.34190655 421.25726891 C120.34190655 402.11726891 120.34190655 382.97726891 120.34190655 363.25726891 C118.5383519 363.25726891 116.90811937 364.17649698 115.25181866 364.83588219 Z " fill="#000000" transform="translate(126.65809345245361,-0.25726890563964844)"/>
<path d="M0 0 C2.50160818 1.87620613 3.61945652 3.23891303 5 6 C5.40611959 9.65507628 5.36441064 11.44100945 3.33203125 14.55859375 C0.72588216 17.28697429 -1.07739661 18.07058568 -4.625 19.25 C-13.76753466 22.80418829 -20.94366548 29.0055191 -25 38 C-28.76398615 50.08160591 -25.09092083 61.10179427 -20.7265625 72.37109375 C-15.3864988 86.31363487 -14.91716429 101.17373248 -21 115 C-26.70632373 126.35210291 -34.97317602 133.77513918 -46.125 139.5625 C-46.78169678 139.90949951 -47.43839355 140.25649902 -48.11499023 140.61401367 C-52.95198681 142.97000364 -56.62530746 143.49428991 -62 143 C-64.99380345 141.00413103 -66.63808488 139.61740829 -67.44140625 136.02734375 C-67.63086586 132.75763765 -67.44731988 130.56595216 -65.39453125 127.96875 C-62.52889702 125.61266574 -59.47312923 124.09439352 -56.125 122.5625 C-46.45973707 118.0638733 -40.6348314 112.64981258 -36.6875 102.6875 C-34.5111555 91.01437949 -37.13176446 80.95597576 -42.125 70.3125 C-47.74049315 58.15296758 -47.28370504 44.49413971 -43 32 C-37.39490923 17.87948286 -28.29939843 8.7212144 -14.83984375 1.90625 C-10.06739524 -0.14315135 -5.14956842 -0.94273595 0 0 Z " fill="#000000" transform="translate(443,115)"/>
<path d="M0 0 C2.80922504 2.97948111 3.00936529 4.46617837 2.9375 8.5625 C1.87477564 12.45915598 1.0380406 13.43743528 -2 16 C-4.28314444 17.22959707 -6.52356489 18.36163107 -8.875 19.4375 C-19.043446 24.17032962 -23.92261258 29.46233641 -28 40 C-30.95892803 50.71789486 -27.06321936 61.70789726 -22.18359375 71.26953125 C-16.9457983 83.35276235 -17.24240982 98.81129971 -21.671875 111.0703125 C-27.87393747 124.75133266 -37.59586683 134.9257253 -51.6875 140.375 C-56.48336486 141.98255247 -60.33560394 142.88813202 -65.25 141.25 C-67.49752294 139.64462647 -68.14455592 138.63761924 -69 136 C-69.4375 132.5625 -69.4375 132.5625 -69 129 C-65.53611064 124.85236339 -62.01330839 122.81778604 -57.125 120.625 C-48.39908747 116.47639225 -43.40144404 112.10875215 -39.7265625 103.11328125 C-35.49566248 90.80727634 -39.69453321 80.05077903 -44.125 68.375 C-49.22568039 54.55898381 -49.54666017 40.73635018 -43.74609375 27.0390625 C-36.50373078 12.94901575 -25.42229568 4.50602999 -10.8046875 -1.24609375 C-6.35883614 -2.4411485 -4.15790359 -1.96555443 0 0 Z " fill="#000000" transform="translate(381,200)"/>
</svg>
