<svg width="111" height="111" viewBox="0 0 111 111" fill="none" xmlns="http://www.w3.org/2000/svg">
<path d="M0.971249 -4.80951e-06L1.9425 -4.76705e-06L1.9425 50.6437L8.695 57.3962C12.4089 61.1101 15.4614 64.1487 15.4706 64.1487C15.4845 64.1487 15.4937 62.1924 15.4937 59.8059L15.4937 55.4584L11.6272 51.5919L7.76075 47.7207L7.77 28.6334C7.77462 18.1392 7.77925 9.0835 7.77925 8.51C7.78387 7.9365 7.77462 5.79512 7.76537 3.74625L7.74687 0.0231205L8.70887 0.00924553L9.66625 -4.42944e-06L9.6755 11.1092C9.68012 17.2235 9.6755 22.3804 9.67087 22.57L9.66162 22.9169L13.5466 26.8019L17.4362 30.6869L17.4362 43.1281L26.7787 52.4706L36.1212 61.8131L42.624 61.8362L49.1221 61.8594L49.1221 68.2881C49.1221 71.8262 49.136 74.7539 49.1545 74.8001C49.173 74.8417 53.3817 79.0736 58.5062 84.1981L67.8256 93.5175L80.2669 93.5175L84.1519 97.4025L88.0369 101.288L111 101.288L111 103.23L63.2654 103.23L59.385 99.345L55.5046 95.46L51.1571 95.46C48.7614 95.46 46.805 95.4692 46.805 95.4831C46.805 95.497 49.8436 98.5495 53.5575 102.259L60.31 109.011L60.532 109.016C60.6522 109.02 71.9557 109.03 85.655 109.034C99.3542 109.044 110.658 109.048 110.778 109.053L111 109.058L111 111L59.5469 111L55.6619 107.115L51.7769 103.23L7.76999 103.23L7.77 59.2231L3.885 55.3381L-3.6796e-06 51.4531L-1.43051e-06 -4.85196e-06L0.971249 -4.80951e-06ZM17.1495 54.3576L24.6281 61.8362L28.9987 61.827L33.3694 61.8131L24.4292 52.8776L15.4937 43.9375L15.4937 31.5194L12.6401 28.6657C11.0676 27.0932 9.75875 25.8075 9.731 25.8075C9.68937 25.8075 9.6755 28.4946 9.67087 36.3432L9.67087 46.879L17.1495 54.3576ZM9.72174 101.264C9.75412 101.278 18.7821 101.283 29.785 101.278L49.7881 101.264L46.8975 98.3645L44.0069 95.46L15.4937 95.46L15.4937 66.9469L12.6124 64.0655C11.0306 62.4837 9.72175 61.1887 9.70325 61.1887C9.68475 61.1887 9.67087 70.2029 9.66625 81.215C9.66624 97.2314 9.67549 101.25 9.72174 101.264ZM17.4732 92.0837C17.4917 92.0837 18.8006 90.7887 20.387 89.2024L23.2637 86.3256L23.2637 63.2237L20.3639 60.3331C18.7729 58.7421 17.4594 57.4425 17.4501 57.4425C17.4455 57.4425 17.4362 65.2356 17.4362 74.7631C17.4362 84.2906 17.4501 92.0837 17.4732 92.0837ZM36.2369 93.5082L53.5159 93.5082L53.4326 93.4065C53.3864 93.3556 52.0914 92.0514 50.5512 90.5112L47.7531 87.7131L36.3294 87.6992C30.044 87.6946 24.8362 87.6992 24.7484 87.7177C24.6189 87.7362 24.1379 88.1987 21.7837 90.5482C20.2344 92.093 18.9671 93.3926 18.9671 93.4342C18.9625 93.5082 19.9569 93.5129 36.2369 93.5082ZM26.2284 74.9389C26.788 75.4939 27.2551 75.9425 27.2597 75.9332C27.269 75.9286 27.4771 75.554 27.7269 75.11C27.9766 74.666 28.3142 74.0601 28.4807 73.7687C28.6472 73.4774 28.8461 73.1212 28.9201 72.9825C28.9987 72.8437 29.1976 72.4876 29.3595 72.1962C29.526 71.9049 29.7202 71.5487 29.7989 71.41C29.8729 71.2712 30.0024 71.04 30.0856 70.9012C30.1689 70.7625 30.562 70.0549 30.9644 69.3287C31.3667 68.6026 31.8015 67.8256 31.9356 67.5944C32.0651 67.3677 32.2547 67.0347 32.3519 66.8544C32.4444 66.6786 32.6664 66.2809 32.8375 65.9756C33.4757 64.8517 34.04 63.825 34.04 63.8019C34.04 63.788 32.0512 63.7787 29.6231 63.7787L25.2062 63.7787L25.2062 73.926L26.2284 74.9389ZM25.2386 85.692L25.2617 85.7937L29.7202 85.7937C32.7589 85.7891 34.1834 85.7752 34.2065 85.7429C34.2204 85.7151 33.2537 84.7115 32.0559 83.5136C27.2135 78.6574 25.2941 76.7519 25.2525 76.738C25.2016 76.7195 25.1877 85.4931 25.2386 85.692ZM38.1239 71.4655L45.8106 63.7787L36.3016 63.7787L36.186 63.9776C36.1212 64.084 35.9131 64.454 35.7189 64.7962C35.1269 65.8692 34.9002 66.2716 34.3776 67.2012C34.0955 67.6961 33.6977 68.4176 33.485 68.7969C33.2722 69.1807 32.7727 70.0734 32.375 70.7856C30.8765 73.4496 30.5527 74.0277 30.4186 74.2775C30.3446 74.4162 30.2059 74.666 30.1087 74.8325C29.4659 75.9517 29.3271 76.2015 28.8692 77.0479L28.6842 77.3901L29.5584 78.2689L30.4371 79.1522L38.1239 71.4655ZM32.7219 81.437L33.5821 82.288L34.1926 81.9411C34.5302 81.7515 35.187 81.3815 35.6587 81.1225C36.1305 80.8589 36.6577 80.5629 36.8381 80.4565C37.0139 80.3547 37.2359 80.2299 37.3237 80.179C37.4116 80.1327 37.7122 79.9616 37.9944 79.8044C38.2719 79.6471 38.7112 79.4066 38.9656 79.2725C39.22 79.1384 39.4559 79.0089 39.4882 78.9811C39.5206 78.958 39.6362 78.8886 39.7426 78.8331C39.849 78.7776 40.2375 78.5602 40.6075 78.3475C40.9775 78.1347 41.4122 77.8896 41.5787 77.8017C41.7452 77.7139 42.18 77.4734 42.55 77.2606C42.92 77.0525 43.3131 76.8305 43.4287 76.7657C43.5444 76.7056 43.8866 76.5114 44.1919 76.3356C44.8902 75.9425 45.8476 75.4106 46.2731 75.1794C46.8882 74.851 47.0732 74.74 47.1241 74.6752C47.1657 74.629 47.1796 73.3802 47.175 69.93C47.175 67.3539 47.1657 65.2356 47.1519 65.2217C47.1195 65.1847 31.8662 80.4426 31.8662 80.5166C31.8662 80.5536 32.2501 80.9652 32.7219 81.437ZM36.0565 84.767L37.0555 85.7706L42.0782 85.7845C44.8394 85.7891 47.1149 85.7799 47.138 85.7567C47.1796 85.7151 47.1981 76.9646 47.1565 76.9276C47.1472 76.9137 47.0779 76.9461 47.0039 76.997C46.9345 77.0479 46.6246 77.2236 46.3194 77.3855C45.6349 77.7555 44.437 78.4261 43.8311 78.7776C43.5814 78.921 43.3686 79.0412 43.3547 79.0412C43.3455 79.0412 42.957 79.2586 42.4899 79.5222C41.4909 80.0911 40.1311 80.8496 39.775 81.0439C39.6362 81.1179 39.405 81.2474 39.2662 81.3306C39.1275 81.4092 38.8639 81.5572 38.6881 81.6544C38.2719 81.8764 37.3284 82.4082 36.7919 82.7181C36.5606 82.8522 36.3525 82.9679 36.3247 82.9771C36.1906 83.0234 35.0575 83.694 35.0575 83.7264C35.0575 83.7495 35.5061 84.2166 36.0565 84.767ZM56.5869 93.795L64.0562 101.264L74.629 101.278C83.0974 101.288 85.1971 101.278 85.1832 101.232C85.174 101.2 83.879 99.8861 82.3019 98.3183L79.4344 95.46L67.0209 95.46L58.0946 86.5337C53.1829 81.6266 49.1545 77.6075 49.1406 77.6075C49.1267 77.6075 49.1175 79.5685 49.1175 81.9689L49.1175 86.3256L56.5869 93.795Z" fill="black"/>
</svg>
