<?xml version="1.0" encoding="utf-8"?>
<!-- Uploaded to: SVG Repo, www.svgrepo.com, Generator: SVG Repo Mixer Tools -->
<svg stroke="black" width="800px" fill="none" height="800px" viewBox="0 0 32 32" version="1.1" xmlns="http://www.w3.org/2000/svg">
<title>tentacle</title>
<path d="M20.431 12.59c-0.050-0.072-0.133-0.137-0.247-0.189-1.81-1.231-4.572-0.060-3.605 2.967 2.388 7.48 15.122 1.144 12.463-6.96-1.634-4.979-4.952-7.125-9.438-7.179v0.001c-5.768-0.069-12.316 3.334-14.868 8.309-3.62 7.056-1.787 13.838 2.186 20.99l11.89-0c0.046 0.002 0.092 0.003 0.14 0.001 0.009-0 0.018-0.001 0.027-0.001l3.358-0c-0.654-0.219-1.303-0.492-1.94-0.814 0.629-1.060 0.147-2.771-1.445-2.728-0.704 0.019-1.191 0.369-1.461 0.842-0.051-0.841-0.621-1.63-1.709-1.601-0.028 0.001-0.055 0.002-0.082 0.004 1.163-0.906 0.816-3.241-1.041-3.191-0.513 0.014-0.91 0.204-1.193 0.488 0.253-0.797-0.107-1.8-1.078-1.93 1.829-0.475 1.681-3.539-0.444-3.482-0.289 0.008-0.541 0.071-0.756 0.176 0.531-0.618 0.456-1.698-0.227-2.147 0.111 0.017 0.228 0.025 0.352 0.021 2.212-0.058 2.281-3.387 0.207-3.538 0.018-0.043 0.036-0.086 0.054-0.129 0.436-0.216 0.639-0.695 0.609-1.149 0.050-0.078 0.101-0.156 0.154-0.234 0.255 0.199 0.592 0.318 1.012 0.307 1.529-0.040 1.963-1.75 1.304-2.698 0.262-0.197 0.539-0.389 0.832-0.575 0.101-0.064 0.203-0.124 0.308-0.182 0.133 0.689 0.655 1.28 1.568 1.255 1.231-0.032 1.752-1.147 1.565-2.075 0.643-0.024 1.282 0.028 1.885 0.144-0.242 0.826 0.191 1.862 1.3 1.832 0.62-0.016 1.028-0.354 1.226-0.791 0.157 0.118 0.301 0.243 0.429 0.374 0.051 0.331 0.23 0.636 0.536 0.797 0.014 0.034 0.026 0.068 0.038 0.102 0.048 0.139 0.085 0.283 0.114 0.431-1.43 0.057-1.507 2.16-0.229 2.366-0.043 0.122-0.091 0.242-0.143 0.362-0.263 0.198-0.411 0.506-0.443 0.825-0.131 0.203-0.277 0.398-0.435 0.584-0.118-0.311-0.395-0.552-0.833-0.54-0.966 0.026-1.153 1.238-0.563 1.691-0.203 0.112-0.416 0.211-0.638 0.293-0.254 0.094-0.511 0.171-0.765 0.219 0.104-0.402-0.11-0.892-0.645-0.877-0.461 0.012-0.683 0.386-0.67 0.743-0.261-0.132-0.503-0.342-0.718-0.654 0.689-0.203 0.629-1.363-0.179-1.356 0.113-0.243 0.302-0.461 0.542-0.637 0.151 0.123 0.419 0.209 0.803 0.204 0.784-0.010 1.083-0.385 0.898-0.666 0.002 0 0.004 0 0.005 0-0.003-0.003-0.007-0.006-0.010-0.009z"></path>
</svg>