<svg width="122" height="80" viewBox="0 0 122 80" fill="none" xmlns="http://www.w3.org/2000/svg">
<mask id="path-1-inside-1_101_740" fill="white">
<path d="M0 0H86V71H47C21.0426 71 0 49.9574 0 24V0Z"/>
</mask>
<path d="M0 0H86V71H47C21.0426 71 0 49.9574 0 24V0Z" fill="white"/>
<path d="M0 0H86H0ZM86 73H47C19.938 73 -2 51.062 -2 24H2C2 48.8528 22.1472 69 47 69H86V73ZM47 73C19.938 73 -2 51.062 -2 24V0H2V24C2 48.8528 22.1472 69 47 69V73ZM86 0V71V0Z" fill="black" mask="url(#path-1-inside-1_101_740)"/>
<path d="M58.9999 79.0001L59.707 79.7072L61.1212 78.293L60.4141 77.5859L58.9999 79.0001ZM60.4337 77.5859L59.7266 76.8788L58.3123 78.293L59.0195 79.0001L60.4337 77.5859ZM60.4336 79L59.7265 79.7071L60.0194 80L60.4336 80L60.4336 79ZM62 80L63 80L63 78L62 78L62 80ZM50.9999 71.0001L58.9999 79.0001L60.4141 77.5859L52.4141 69.5859L50.9999 71.0001ZM59.0195 79.0001L59.7265 79.7071L61.1407 78.2929L60.4337 77.5859L59.0195 79.0001ZM60.4336 80L62 80L62 78L60.4336 78L60.4336 80Z" fill="black"/>
<path d="M93 80H94V78H93V80ZM60 80H93V78H60V80Z" fill="black"/>
<mask id="mask0_101_740" style="mask-type:alpha" maskUnits="userSpaceOnUse" x="2" y="0" width="120" height="70">
<mask id="path-5-inside-2_101_740" fill="white">
<path d="M122 47C122 21.0426 100.957 0 75 0H2V23C2 48.9574 23.0426 70 49 70H122V47Z"/>
</mask>
<path d="M122 47C122 21.0426 100.957 0 75 0H2V23C2 48.9574 23.0426 70 49 70H122V47Z" fill="#D9D9D9"/>
<path d="M122 0H2H122ZM0 23C0 50.062 21.938 72 49 72H122V68H49C24.1472 68 4 47.8528 4 23H0ZM122 70V0V70ZM0 0V23C0 50.062 21.938 72 49 72V68C24.1472 68 4 47.8528 4 23V0H0Z" fill="#EB8317" mask="url(#path-5-inside-2_101_740)"/>
</mask>
<g mask="url(#mask0_101_740)">
<path d="M-22.2738 30.522C-26.5116 32.5514 -30.6315 37.5932 -32.7582 43.0698C-33.6121 45.2444 -34.4751 47.7466 -35.1011 49.755C-35.4138 50.7585 -35.6712 51.6507 -35.8392 52.3236C-35.9225 52.6573 -35.9885 52.9557 -36.0271 53.1943C-36.046 53.3114 -36.0624 53.4383 -36.067 53.5594C-36.0693 53.6198 -36.0696 53.6993 -36.0599 53.7867C-36.0546 53.8344 -36.043 53.9204 -36.0096 54.0231C-36.0059 54.0675 -36.0024 54.1371 -36.0008 54.2362C-35.9971 54.4668 -36.0048 54.7932 -36.0246 55.1995C-36.0642 56.0079 -36.1498 57.0821 -36.2729 58.2353C-36.7986 62.9597 -36.6331 72.1235 -36.0298 76.5617L-36.0285 76.5715L-36.0284 76.5715C-35.0756 83.0981 -34.1162 86.226 -31.3232 91.5693C-29.8434 94.4004 -28.5557 96.4892 -27.0619 98.2759C-25.5633 100.068 -23.8866 101.522 -21.6644 103.116M-22.2738 30.522L31.1442 31.8766C30.5155 32.4149 29.7725 32.942 28.9913 33.417C27.3582 34.4101 25.4174 35.2601 23.8814 35.4367L23.8743 35.4375C22.737 35.56 21.9849 35.6299 21.112 35.5194C20.2694 35.4127 19.3413 35.1408 17.8224 34.6788L17.8144 34.6762C16.1094 34.1418 13.8061 32.8379 11.1329 30.9711L11.1283 30.9678C5.67083 27.1103 1.35406 24.4968 -2.45138 22.6616C-4.03452 21.9306 -6.08013 21.1426 -7.91221 20.5299C-8.82852 20.2234 -9.68075 19.9644 -10.3861 19.7796C-11.1112 19.5897 -11.6083 19.4981 -11.8567 19.4869C-12.3379 19.4727 -13.653 19.2951 -14.7082 19.1303L-14.7163 19.1291L-14.7243 19.1277C-15.8142 18.9393 -17.5469 18.9262 -19.3964 19.0735C-21.2328 19.2196 -23.0843 19.5156 -24.4027 19.9C-25.448 20.2208 -26.9913 20.8263 -28.4765 21.4853C-29.9765 22.1508 -31.3331 22.8339 -32.0288 23.2951C-36.1601 26.0408 -40.9945 31.1431 -44.2191 36.1804C-44.9528 37.3689 -46.0811 39.3787 -47.0523 41.1929C-47.5378 42.0999 -47.9795 42.9493 -48.3089 43.6142C-48.474 43.9473 -48.6076 44.2275 -48.7036 44.4423C-48.7861 44.6267 -48.8214 44.7209 -48.8323 44.7503C-48.8341 44.755 -48.8352 44.758 -48.8358 44.7595C-48.8558 44.8487 -48.8827 44.9282 -48.8964 44.9685C-48.9209 45.0405 -48.9514 45.123 -48.9849 45.21C-49.0521 45.385 -49.1426 45.6085 -49.2469 45.8616C-49.3675 46.1541 -49.5125 46.5004 -49.6686 46.8731C-49.7812 47.1421 -49.8996 47.4249 -50.0186 47.711L-50.0214 47.7175C-54.507 58.2808 -56.5065 72.5277 -55.1578 84.4956L-56.1514 84.608L-55.1578 84.4961C-53.6532 97.7943 -46.7144 112.282 -37.5478 121.29M-22.2738 30.522C-22.2737 30.5219 -22.2736 30.5219 -22.2734 30.5218L-21.8416 31.4237L-22.2738 30.522ZM-21.6644 103.116C-21.6639 103.117 -21.6634 103.117 -21.6629 103.117L-21.08 102.305L-21.6655 103.115C-21.6651 103.116 -21.6648 103.116 -21.6644 103.116ZM-21.6644 103.116C-20.9225 103.652 -20.325 104.141 -19.9119 104.541C-19.7045 104.742 -19.5606 104.904 -19.4709 105.026C-19.4283 105.083 -19.4073 105.119 -19.3986 105.135M-19.3986 105.135L-19.4049 105.11L-19.4105 105.079C-19.4048 105.11 -19.3983 105.13 -19.3952 105.139C-19.3941 105.143 -19.3934 105.144 -19.3935 105.144C-19.3936 105.144 -19.3944 105.143 -19.3962 105.139C-19.3968 105.138 -19.3977 105.137 -19.3986 105.135ZM-19.3986 105.135L-19.3974 105.14C-19.3975 105.139 -19.3974 105.14 -19.3973 105.14C-19.3964 105.145 -19.389 105.183 -19.3811 105.267C-19.373 105.354 -19.3665 105.468 -19.3624 105.61C-19.3543 105.893 -19.3568 106.256 -19.3695 106.683C-19.3949 107.535 -19.4597 108.603 -19.5501 109.716C-19.7321 111.958 -20.0098 114.286 -20.254 115.365M-20.254 115.365C-20.2534 115.363 -20.2528 115.36 -20.2522 115.358L-19.2805 115.594L-20.2557 115.372C-20.2551 115.37 -20.2546 115.368 -20.254 115.365ZM-20.254 115.365C-20.8478 117.807 -21.6575 121.479 -22.0375 123.329L-22.0377 123.33C-22.2383 124.312 -22.8803 126.522 -23.5207 128.542C-23.8381 129.543 -24.1487 130.478 -24.3948 131.166C-24.4336 131.275 -24.4704 131.376 -24.505 131.469M-24.505 131.469C-24.3905 131.532 -24.2878 131.584 -24.1976 131.627C-24.053 131.696 -23.9745 131.722 -23.9485 131.729C-23.9465 131.73 -23.9455 131.73 -23.9456 131.73C-23.9456 131.73 -23.9755 131.723 -24.0267 131.721C-24.0778 131.719 -24.2382 131.72 -24.425 131.817C-24.5607 131.888 -24.6444 131.973 -24.6757 132.006C-24.7142 132.047 -24.739 132.081 -24.7501 132.097C-24.7672 132.122 -24.7759 132.138 -24.7759 132.138C-24.7759 132.138 -24.7752 132.136 -24.7737 132.134C-24.7626 132.113 -24.7379 132.061 -24.6985 131.967C-24.6458 131.841 -24.5807 131.674 -24.505 131.469ZM-24.505 131.469C-24.7485 131.337 -25.0458 131.16 -25.3928 130.941C-26.4057 130.301 -27.7457 129.357 -29.2073 128.26C-32.1331 126.066 -35.4707 123.319 -37.5478 121.29M-37.5478 121.29C-37.5474 121.291 -37.547 121.291 -37.5467 121.292L-38.2476 122.005L-37.5489 121.289C-37.5485 121.29 -37.5482 121.29 -37.5478 121.29ZM-36.0165 53.9674C-36.0168 53.9675 -36.0158 53.9757 -36.0129 53.9902C-36.0148 53.9744 -36.0162 53.9673 -36.0165 53.9674Z" fill="white" stroke="black" stroke-width="2"/>
<path d="M6.06503 61.7263L6.06825 61.7239C11.3716 57.7938 14.6226 51.7063 15.9227 43.0011C16.1833 41.2443 16.5014 36.6098 16.6259 32.7511C16.8408 25.1377 17.3544 21.4111 18.7891 18.5716C20.3879 15.3736 23.3425 13.35 27.1317 12.6074C23.9052 11.8231 20.0934 12.553 17.4013 14.549L17.4013 14.549L17.3959 14.5529C14.1203 16.9477 12.321 20.8015 11.1516 28.7853L11.1517 28.7853L11.1508 28.7911C10.0468 36.0341 9.29397 39.6514 8.20652 41.9351L8.20658 41.9351L8.2015 41.9455C7.69443 42.9795 7.21169 44.0986 7.11117 44.374L7.08681 44.4408L7.05324 44.5034C6.95483 44.6871 6.83163 44.8913 6.69851 45.0715C6.63217 45.1614 6.55252 45.2601 6.46205 45.3517C6.42143 45.3928 6.36401 45.4476 6.2909 45.5037C6.24856 45.7483 6.15272 45.9536 6.09219 46.0751C5.97741 46.3056 5.82093 46.5506 5.64862 46.7928C5.30115 47.2814 4.82377 47.8503 4.2947 48.4237C3.24233 49.5642 1.89699 50.8177 0.795672 51.5796L0.790742 51.583C-3.00551 54.1759 -7.2566 54.8429 -12.5037 53.8019L-12.5123 53.8001L-12.521 53.7983C-13.3395 53.6207 -14.1454 53.4713 -14.6561 53.3815C-14.6811 53.4259 -14.7082 53.4758 -14.7372 53.5316C-14.9593 53.9591 -15.2247 54.5968 -15.4779 55.3594L-15.4778 55.3594L-15.4822 55.3719C-16.9767 59.6823 -18.5582 63.7335 -19.6821 65.9237C-19.7218 66.0026 -19.759 66.0792 -19.7936 66.1528C-18.9551 66.3085 -17.8223 66.4683 -16.5862 66.6041C-14.7668 66.804 -12.8184 66.942 -11.4259 66.9437C-7.14211 66.9426 -3.77728 66.3698 -0.479322 65.0568L-0.479348 65.0568L-0.468585 65.0526C0.260499 64.7721 1.01529 64.4992 1.65552 64.2852C2.24227 64.0891 2.80775 63.9164 3.15837 63.8548C3.34147 63.8119 3.502 63.7621 3.6129 63.7182C3.63198 63.6952 3.64955 63.6754 3.66411 63.6594C3.72891 63.5882 3.80391 63.517 3.87381 63.4535C4.01767 63.3228 4.20931 63.1627 4.42578 62.9882C4.86245 62.6362 5.4474 62.1879 6.06503 61.7263Z" fill="white" stroke="black" stroke-width="2"/>
</g>
</svg>
