<svg width="175" height="70" viewBox="0 0 175 70" fill="none" xmlns="http://www.w3.org/2000/svg">
<mask id="mask0_101_756" style="mask-type:alpha" maskUnits="userSpaceOnUse" x="55" y="0" width="120" height="70">
<mask id="path-1-inside-1_101_756" fill="white">
<path d="M175 47C175 21.0426 153.957 0 128 0H55V23C55 48.9574 76.0426 70 102 70H175V47Z"/>
</mask>
<path d="M175 47C175 21.0426 153.957 0 128 0H55V23C55 48.9574 76.0426 70 102 70H175V47Z" fill="#D9D9D9"/>
<path d="M175 0H55H175ZM53 23C53 50.062 74.938 72 102 72H175V68H102C77.1472 68 57 47.8528 57 23H53ZM175 70V0V70ZM53 0V23C53 50.062 74.938 72 102 72V68C77.1472 68 57 47.8528 57 23V0H53Z" fill="#EB8317" mask="url(#path-1-inside-1_101_756)"/>
</mask>
<g mask="url(#mask0_101_756)">
</g>
<mask id="mask1_101_756" style="mask-type:alpha" maskUnits="userSpaceOnUse" x="0" y="0" width="175" height="70">
<mask id="path-3-inside-2_101_756" fill="white">
<path d="M175 47C175 21.0426 153.957 0 128 0H0V23C0 48.9574 21.0426 70 47 70H175V47Z"/>
</mask>
<path d="M175 47C175 21.0426 153.957 0 128 0H0V23C0 48.9574 21.0426 70 47 70H175V47Z" fill="#D9D9D9"/>
<path d="M175 0H0H175ZM-2 23C-2 50.062 19.938 72 47 72H175V68H47C22.1472 68 2 47.8528 2 23H-2ZM175 70V0V70ZM-2 0V23C-2 50.062 19.938 72 47 72V68C22.1472 68 2 47.8528 2 23V0H-2Z" fill="#EB8317" mask="url(#path-3-inside-2_101_756)"/>
</mask>
<g mask="url(#mask1_101_756)">
<path d="M30.7262 30.522C26.4884 32.5514 22.3685 37.5932 20.2418 43.0698C19.3879 45.2444 18.5249 47.7466 17.8989 49.755C17.5862 50.7585 17.3288 51.6507 17.1608 52.3236C17.0775 52.6573 17.0115 52.9557 16.9729 53.1943C16.954 53.3114 16.9376 53.4383 16.933 53.5594C16.9307 53.6198 16.9304 53.6993 16.9401 53.7867C16.9454 53.8344 16.957 53.9204 16.9904 54.0231C16.9941 54.0675 16.9976 54.1371 16.9992 54.2362C17.0029 54.4668 16.9952 54.7932 16.9754 55.1995C16.9358 56.0079 16.8502 57.0821 16.7271 58.2353C16.2014 62.9597 16.3669 72.1235 16.9702 76.5617L16.9715 76.5715L16.9716 76.5715C17.9244 83.0981 18.8838 86.226 21.6768 91.5693C23.1566 94.4004 24.4443 96.4892 25.9381 98.2759C27.4367 100.068 29.1134 101.522 31.3356 103.116M30.7262 30.522L84.1442 31.8766C83.5155 32.4149 82.7725 32.942 81.9913 33.417C80.3582 34.4101 78.4174 35.2601 76.8814 35.4367L76.8743 35.4375C75.737 35.56 74.9849 35.6299 74.112 35.5194C73.2694 35.4127 72.3413 35.1408 70.8224 34.6788L70.8144 34.6762C69.1094 34.1418 66.8061 32.8379 64.1329 30.9711L64.1283 30.9678C58.6708 27.1103 54.3541 24.4968 50.5486 22.6616C48.9655 21.9306 46.9199 21.1426 45.0878 20.5299C44.1715 20.2234 43.3193 19.9644 42.6139 19.7796C41.8888 19.5897 41.3917 19.4981 41.1433 19.4869C40.6621 19.4727 39.347 19.2951 38.2918 19.1303L38.2837 19.1291L38.2757 19.1277C37.1858 18.9393 35.4531 18.9262 33.6036 19.0735C31.7672 19.2196 29.9157 19.5156 28.5973 19.9C27.552 20.2208 26.0087 20.8263 24.5235 21.4853C23.0235 22.1508 21.6669 22.8339 20.9712 23.2951C16.8399 26.0408 12.0055 31.1431 8.78091 36.1804C8.04722 37.3689 6.91891 39.3787 5.94766 41.1929C5.46216 42.0999 5.02055 42.9493 4.69108 43.6142C4.52599 43.9473 4.39235 44.2275 4.29637 44.4423C4.21394 44.6267 4.17865 44.7209 4.16766 44.7503C4.16592 44.755 4.16478 44.758 4.16417 44.7595C4.14423 44.8487 4.1173 44.9282 4.1036 44.9685C4.07912 45.0405 4.04856 45.123 4.01514 45.21C3.94791 45.385 3.85741 45.6085 3.75308 45.8616C3.6325 46.1541 3.48748 46.5004 3.33144 46.8731C3.2188 47.1421 3.10042 47.4249 2.98137 47.711L2.97857 47.7175C-1.50704 58.2808 -3.50646 72.5277 -2.15784 84.4956L-3.15141 84.608L-2.1578 84.4961C-0.653228 97.7943 6.28563 112.282 15.4522 121.29M30.7262 30.522C30.7263 30.5219 30.7264 30.5219 30.7266 30.5218L31.1584 31.4237L30.7262 30.522ZM31.3356 103.116C31.3361 103.117 31.3366 103.117 31.3371 103.117L31.92 102.305L31.3345 103.115C31.3349 103.116 31.3352 103.116 31.3356 103.116ZM31.3356 103.116C32.0775 103.652 32.675 104.141 33.0881 104.541C33.2955 104.742 33.4394 104.904 33.5291 105.026C33.5717 105.083 33.5927 105.119 33.6014 105.135M33.6014 105.135L33.5951 105.11L33.5895 105.079C33.5952 105.11 33.6017 105.13 33.6048 105.139C33.6059 105.143 33.6066 105.144 33.6065 105.144C33.6064 105.144 33.6056 105.143 33.6038 105.139C33.6032 105.138 33.6023 105.137 33.6014 105.135ZM33.6014 105.135L33.6026 105.14C33.6025 105.139 33.6026 105.14 33.6027 105.14C33.6036 105.145 33.611 105.183 33.6189 105.267C33.627 105.354 33.6335 105.468 33.6376 105.61C33.6457 105.893 33.6432 106.256 33.6305 106.683C33.6051 107.535 33.5403 108.603 33.4499 109.716C33.2679 111.958 32.9902 114.286 32.746 115.365M32.746 115.365C32.7466 115.363 32.7472 115.36 32.7478 115.358L33.7195 115.594L32.7443 115.372C32.7449 115.37 32.7454 115.368 32.746 115.365ZM32.746 115.365C32.1522 117.807 31.3425 121.479 30.9625 123.329L30.9623 123.33C30.7617 124.312 30.1197 126.522 29.4793 128.542C29.1619 129.543 28.8513 130.478 28.6052 131.166C28.5664 131.275 28.5296 131.376 28.495 131.469M28.495 131.469C28.6095 131.532 28.7122 131.584 28.8024 131.627C28.947 131.696 29.0255 131.722 29.0515 131.729C29.0535 131.73 29.0545 131.73 29.0544 131.73C29.0544 131.73 29.0245 131.723 28.9733 131.721C28.9222 131.719 28.7618 131.72 28.575 131.817C28.4393 131.888 28.3556 131.973 28.3243 132.006C28.2858 132.047 28.261 132.081 28.2499 132.097C28.2328 132.122 28.2241 132.138 28.2241 132.138C28.2241 132.138 28.2248 132.136 28.2263 132.134C28.2374 132.113 28.2621 132.061 28.3015 131.967C28.3542 131.841 28.4193 131.674 28.495 131.469ZM28.495 131.469C28.2515 131.337 27.9542 131.16 27.6072 130.941C26.5943 130.301 25.2543 129.357 23.7927 128.26C20.8669 126.066 17.5293 123.319 15.4522 121.29M15.4522 121.29C15.4526 121.291 15.453 121.291 15.4533 121.292L14.7524 122.005L15.4511 121.289C15.4515 121.29 15.4518 121.29 15.4522 121.29ZM16.9835 53.9674C16.9832 53.9675 16.9842 53.9757 16.9871 53.9902C16.9852 53.9744 16.9838 53.9673 16.9835 53.9674Z" fill="white" stroke="black" stroke-width="2"/>
<path d="M59.065 61.7263L59.0682 61.7239C64.3716 57.7938 67.6226 51.7063 68.9227 43.0011C69.1833 41.2443 69.5014 36.6098 69.6259 32.7511C69.8408 25.1377 70.3544 21.4111 71.7891 18.5716C73.3879 15.3736 76.3425 13.35 80.1317 12.6074C76.9052 11.8231 73.0934 12.553 70.4013 14.549L70.4013 14.549L70.3959 14.5529C67.1203 16.9477 65.321 20.8015 64.1516 28.7853L64.1517 28.7853L64.1508 28.7911C63.0468 36.0341 62.294 39.6514 61.2065 41.9351L61.2066 41.9351L61.2015 41.9455C60.6944 42.9795 60.2117 44.0986 60.1112 44.374L60.0868 44.4408L60.0532 44.5034C59.9548 44.6871 59.8316 44.8913 59.6985 45.0715C59.6322 45.1614 59.5525 45.2601 59.4621 45.3517C59.4214 45.3928 59.364 45.4476 59.2909 45.5037C59.2486 45.7483 59.1527 45.9536 59.0922 46.0751C58.9774 46.3056 58.8209 46.5506 58.6486 46.7928C58.3011 47.2814 57.8238 47.8503 57.2947 48.4237C56.2423 49.5642 54.897 50.8177 53.7957 51.5796L53.7907 51.583C49.9945 54.1759 45.7434 54.8429 40.4963 53.8019L40.4877 53.8001L40.479 53.7983C39.6605 53.6207 38.8546 53.4713 38.3439 53.3815C38.3189 53.4259 38.2918 53.4758 38.2628 53.5316C38.0407 53.9591 37.7753 54.5968 37.5221 55.3594L37.5222 55.3594L37.5178 55.3719C36.0233 59.6823 34.4418 63.7335 33.3179 65.9237C33.2782 66.0026 33.241 66.0792 33.2064 66.1528C34.0449 66.3085 35.1777 66.4683 36.4138 66.6041C38.2332 66.804 40.1816 66.942 41.5741 66.9437C45.8579 66.9426 49.2227 66.3698 52.5207 65.0568L52.5207 65.0568L52.5314 65.0526C53.2605 64.7721 54.0153 64.4992 54.6555 64.2852C55.2423 64.0891 55.8077 63.9164 56.1584 63.8548C56.3415 63.8119 56.502 63.7621 56.6129 63.7182C56.632 63.6952 56.6496 63.6754 56.6641 63.6594C56.7289 63.5882 56.8039 63.517 56.8738 63.4535C57.0177 63.3228 57.2093 63.1627 57.4258 62.9882C57.8625 62.6362 58.4474 62.1879 59.065 61.7263Z" fill="white" stroke="black" stroke-width="2"/>
</g>
</svg>
