<?xml version="1.0" encoding="UTF-8" standalone="no"?>
<svg
   class="img-fluid"
   id="outputsvg"
   width="904.42651"
   height="717.74146"
   viewBox="0 0 9044.2651 7177.4146"
   transform-origin="50% 50%"
   cursor="move"
   version="1.1"
   sodipodi:docname="logo.svg"
   inkscape:version="1.1.2 (0a00cf5339, 2022-02-04)"
   xmlns:inkscape="http://www.inkscape.org/namespaces/inkscape"
   xmlns:sodipodi="http://sodipodi.sourceforge.net/DTD/sodipodi-0.dtd"
   xmlns="http://www.w3.org/2000/svg"
   xmlns:svg="http://www.w3.org/2000/svg">
  <defs
     id="defs7" />
  <sodipodi:namedview
     id="namedview5"
     pagecolor="#ffffff"
     bordercolor="#666666"
     borderopacity="1.0"
     inkscape:pageshadow="2"
     inkscape:pageopacity="0.0"
     inkscape:pagecheckerboard="0"
     showgrid="false"
     inkscape:zoom="0.33817172"
     inkscape:cx="965.48582"
     inkscape:cy="1372.084"
     inkscape:window-width="2560"
     inkscape:window-height="1403"
     inkscape:window-x="0"
     inkscape:window-y="0"
     inkscape:window-maximized="1"
     inkscape:current-layer="outputsvg" />
  <path
     id="p6sZLZLnx"
     d="m 2555,7168.8114 c -185,-15 -471,-79 -689,-155 -259,-90 -617,-283 -816,-439 -222,-174 -462,-431 -590,-631 -31,-50 -70,-109 -86,-132 -52,-75 -184,-355 -226,-483 -63,-189 -89,-298 -120,-490 -26,-164 -28,-195 -28,-490 0,-280 3,-332 23,-465 13,-82 34,-191 48,-241 13,-49 24,-97 24,-107 0,-31 81,-265 143,-412 65,-154 74,-174 85,-187 6,-8 20,-34 31,-58 60,-129 238,-375 366,-505 108,-110 229,-205 377,-296 307,-189 530,-269 898,-320 93,-13 542,-5 624,11 44,9 65,9 86,0 28,-11 60,-62 60,-93 0,-8 23,-83 50,-167 28,-84 50,-159 50,-167 0,-8 9,-35 19,-61 10,-26 35,-101 56,-167 59,-192 77,-250 205,-645 67,-206 127,-390 132,-408 15,-50 57,-64 159,-56 94,8 107,19 138,118 11,33 45,133 76,221 31,88 65,187 75,220 10,33 69,206 130,385 62,179 120,353 130,386 10,34 23,70 28,80 5,11 57,161 114,334 148,447 149,449 168,515 10,33 32,98 50,145 17,47 40,114 50,150 11,36 35,110 55,165 33,94 69,202 100,305 8,25 45,137 83,250 38,113 76,225 84,250 43,131 162,478 193,565 20,55 43,120 51,145 55,169 115,276 172,308 47,26 79,27 162,6 295,-75 572,-257 770,-504 259,-325 436,-768 502,-1260 32,-241 32,-636 0,-910 -13,-107 -29,-220 -37,-250 -7,-30 -18,-86 -25,-125 -16,-101 -80,-301 -132,-411 -15,-34 -28,-64 -28,-67 0,-4 -25,-53 -57,-109 -232,-422 -499,-664 -883,-801 l -85,-31 -294,-2 c -224,-3 -298,-6 -307,-16 -19,-19 -6,-57 21,-64 13,-3 178,-4 367,-1 288,4 362,8 458,25 139,24 317,69 345,87 11,6 38,18 60,25 145,47 411,227 573,388 89,89 237,277 308,392 130,208 275,598 305,819 6,42 17,103 24,136 23,99 38,366 31,554 -7,227 -38,457 -86,645 -50,195 -74,263 -150,421 -133,277 -263,458 -476,665 -131,127 -246,211 -414,300 -144,77 -224,108 -365,144 -168,42 -274,48 -847,50 -509,1 -538,0 -538,-16 0,-11 20,-31 50,-49 28,-17 55,-39 60,-49 17,-31 11,-88 -14,-148 -13,-31 -53,-147 -89,-257 -36,-110 -102,-306 -147,-435 -45,-129 -101,-293 -125,-365 -24,-71 -73,-215 -110,-320 -36,-104 -97,-282 -135,-395 -103,-306 -124,-365 -143,-393 -11,-18 -69,-52 -170,-102 -187,-93 -385,-164 -615,-223 -106,-27 -117,-12 -201,268 -21,70 -46,147 -62,195 -6,17 -46,140 -89,275 -44,135 -106,326 -139,425 -63,190 -125,383 -211,655 -28,91 -64,203 -80,250 -57,170 -110,346 -122,400 -17,85 -4,161 38,211 62,74 62,74 -167,72 -111,-1 -204,-5 -207,-7 -11,-12 10,-36 46,-55 62,-32 136,-122 192,-232 27,-56 50,-109 50,-119 0,-10 9,-42 19,-72 11,-29 43,-127 71,-218 46,-148 99,-315 210,-660 21,-63 65,-203 100,-310 67,-210 184,-569 286,-877 35,-106 64,-201 64,-212 0,-31 -46,-39 -270,-52 -200,-11 -404,-6 -485,11 -22,5 -85,18 -140,29 -139,29 -328,96 -450,158 -293,151 -517,348 -727,640 -79,110 -193,335 -224,442 -7,25 -22,71 -33,101 -11,30 -20,67 -21,81 0,15 -9,55 -20,90 -29,95 -51,272 -57,464 -9,274 26,529 108,793 16,51 29,97 29,102 0,18 140,313 172,364 201,316 462,566 753,721 190,102 269,134 455,185 268,74 373,88 755,96 305,7 606,-7 755,-36 52,-10 122,-21 155,-25 33,-4 102,-18 154,-31 51,-13 107,-24 125,-24 17,0 51,-9 75,-20 24,-11 49,-20 56,-20 41,0 445,-144 533,-190 9,-4 53,-25 97,-45 44,-20 87,-40 95,-45 8,-5 53,-28 100,-51 47,-23 148,-79 225,-126 176,-105 174,-103 212,-130 17,-13 34,-23 38,-23 3,0 73,-44 155,-97 83,-54 189,-122 237,-152 49,-30 104,-64 123,-76 267,-168 620,-336 870,-413 165,-51 216,-63 370,-89 157,-27 181,-28 480,-28 266,0 324,3 375,17 33,9 109,29 169,43 141,33 266,82 391,152 183,101 305,210 439,390 143,193 194,304 246,538 31,135 32,146 27,310 -4,137 -10,188 -29,260 -62,231 -150,386 -316,557 -183,189 -380,292 -584,307 -81,6 -102,11 -121,29 -31,30 -80,28 -134,-4 -35,-20 -52,-24 -82,-19 -28,5 -55,0 -102,-19 -35,-13 -85,-27 -112,-31 -43,-6 -51,-11 -89,-63 -22,-31 -70,-86 -106,-122 -85,-86 -92,-97 -103,-176 -5,-38 -16,-78 -24,-91 -21,-32 -19,-52 10,-75 l 26,-20 -20,-34 c -23,-38 -21,-44 26,-126 30,-51 38,-59 73,-64 22,-4 49,-17 61,-31 22,-23 27,-23 109,-17 47,4 94,11 105,17 42,21 135,99 135,113 0,21 -56,18 -88,-6 -20,-14 -46,-20 -98,-22 -69,-3 -72,-2 -118,36 l -48,39 6,61 c 4,33 8,79 9,101 2,38 13,59 63,123 12,15 26,37 33,50 6,12 30,34 52,48 22,13 43,33 46,42 12,33 36,52 68,52 18,0 51,7 75,15 29,10 47,12 60,5 31,-16 98,-11 150,11 49,21 49,21 77,1 66,-46 111,-62 177,-62 62,0 66,-2 80,-28 20,-39 92,-102 115,-102 11,0 27,-3 36,-6 19,-8 51,-76 66,-143 13,-59 33,-89 61,-93 18,-2 22,-8 19,-28 -9,-64 -4,-107 14,-134 15,-23 19,-44 17,-90 -3,-65 -1,-69 62,-161 44,-64 42,-81 -13,-100 -57,-19 -76,-86 -46,-158 22,-53 19,-66 -17,-82 -59,-24 -118,-107 -118,-164 0,-61 -66,-118 -125,-108 -48,8 -108,-25 -150,-83 -47,-64 -110,-110 -151,-110 -17,0 -46,10 -65,23 -50,34 -66,38 -123,31 -44,-6 -57,-14 -98,-56 l -46,-48 -104,2 c -102,1 -103,2 -133,33 -16,17 -59,51 -95,75 -86,57 -130,63 -207,24 -77,-39 -131,-39 -172,0 -18,17 -34,45 -37,65 -4,19 -20,54 -36,76 -36,50 -122,123 -154,131 -24,6 -99,1 -177,-12 -33,-5 -44,-2 -78,25 -21,18 -53,37 -69,43 -32,10 -60,52 -60,87 0,39 -43,130 -80,169 -54,56 -131,91 -215,99 -64,6 -76,10 -143,60 -40,29 -81,68 -92,86 -65,110 -118,155 -285,240 -118,60 -246,117 -265,117 -27,0 -93,44 -157,107 -102,99 -226,159 -413,198 -74,16 -116,34 -215,91 -38,23 -99,57 -135,75 l -65,33 -195,6 c -151,4 -202,9 -225,21 -16,9 -43,19 -59,23 -17,4 -42,16 -57,27 -15,11 -58,33 -94,51 -58,27 -74,30 -129,26 -34,-3 -77,-13 -96,-23 -45,-23 -130,-24 -195,-2 -93,32 -507,46 -755,27 z m 955,-160 12,-35 82,-3 c 87,-3 111,5 111,39 0,13 7,19 21,19 60,0 79,-53 33,-89 -23,-18 -41,-21 -125,-21 -99,0 -183,21 -218,55 -27,27 14,78 58,72 8,-1 20,-18 26,-37 z m 4105,-45 c 0,-29 -36,-53 -53,-36 -8,8 -4,18 13,36 30,31 40,32 40,0 z m -3406,-95 c 18,-46 33,-55 103,-65 61,-8 73,-19 42,-36 -53,-28 -188,23 -219,82 -20,37 9,74 47,61 6,-2 18,-21 27,-42 z m 273,-30 c 59,-36 68,-93 16,-106 -36,-9 -56,6 -72,55 -10,33 -10,45 -1,56 16,19 19,19 57,-5 z m 2933,-100 c 0,-24 -26,-38 -42,-22 -16,16 -2,42 22,42 13,0 20,-7 20,-20 z m -2511,-99 c 11,-7 9,-14 -9,-39 -14,-19 -20,-37 -16,-50 14,-42 173,-110 210,-90 25,14 19,56 -12,87 -15,15 -34,30 -42,33 -8,3 -11,9 -7,14 5,5 33,-5 64,-21 48,-26 59,-38 79,-83 13,-29 24,-57 24,-62 0,-19 -74,-33 -151,-27 -97,8 -161,38 -217,104 -56,65 -69,90 -55,111 16,26 104,41 132,23 z m 615,-367 c 11,-4 16,-19 16,-44 0,-22 8,-48 20,-62 25,-33 112,-70 153,-66 39,4 45,25 22,74 -20,43 -14,52 21,30 32,-21 68,-99 59,-127 -7,-23 -61,-59 -87,-59 -46,0 -129,45 -192,105 -36,35 -66,68 -66,73 0,6 -3,17 -6,25 -3,9 4,25 15,36 23,23 23,23 45,15 z m 622,-406 c 1,-38 8,-55 33,-83 26,-30 42,-75 26,-75 -19,0 -55,28 -80,61 -73,98 -81,123 -42,139 47,19 62,9 63,-42 z m 198,-131 c 15,-23 -4,-52 -35,-52 -30,0 -37,30 -13,56 20,22 33,21 48,-4 z m 456,-302 c 16,-20 1,-39 -26,-33 -27,5 -32,48 -6,48 11,0 25,-7 32,-15 z m 1584,-112 c 9,-22 -18,-43 -44,-36 -19,5 -27,33 -13,46 13,14 51,7 57,-10 z m -403,-139 c 18,-22 3,-42 -36,-50 -40,-7 -65,7 -65,38 0,34 75,44 101,12 z m -536,-7 c 22,-17 12,-37 -20,-37 -27,0 -39,14 -31,35 7,19 27,19 51,2 z m -3805,-3119 c -1,-13 -7,-39 -15,-58 -42,-109 -69,-182 -86,-235 -36,-118 -286,-850 -296,-870 -6,-11 -16,-47 -23,-80 -14,-67 -24,-85 -50,-85 -20,0 -28,18 -80,195 -18,61 -60,193 -92,295 -33,102 -70,221 -83,265 -14,44 -32,103 -40,130 -52,164 -51,154 -33,171 9,9 38,22 65,30 94,25 318,95 363,113 153,62 202,83 265,115 84,42 105,45 105,14 z"
     style="fill:#000000" />
</svg>
