<svg width="200" height="178" viewBox="0 0 200 178" fill="none" xmlns="http://www.w3.org/2000/svg">
<g clip-path="url(#clip0_1_15)">
<path d="M180 0H20C8.97333 0 0 8.86255 0 19.7531V158.025C0 168.915 8.97333 177.778 20 177.778H180C191.027 177.778 200 168.915 200 158.025V19.7531C200 8.86255 191.027 0 180 0ZM20 6.58436H180C187.353 6.58436 193.333 12.4905 193.333 19.7531V26.3374H6.66667V19.7531C6.66667 12.4905 12.6467 6.58436 20 6.58436ZM180 171.193H20C12.6467 171.193 6.66667 165.287 6.66667 158.025V32.9218H193.333V158.025C193.333 165.287 187.353 171.193 180 171.193Z" fill="black"/>
</g>
<mask id="mask0_1_15" style="mask-type:alpha" maskUnits="userSpaceOnUse" x="0" y="0" width="200" height="177">
<path d="M0 20C0 8.95431 8.95431 0 20 0H180C191.046 0 200 8.95431 200 20V157C200 168.046 191.046 177 180 177H20C8.95431 177 0 168.046 0 157V20Z" fill="#D9D9D9"/>
</mask>
<g mask="url(#mask0_1_15)">
<path d="M141 381.482V364.926L139.907 364.33C139.292 363.994 136.697 362.689 134.169 361.458C131.642 360.191 129.422 359.035 129.285 358.886C129.149 358.736 129.354 357.692 129.729 356.611C132.052 350.16 134.921 340.54 136.014 335.544C136.526 333.306 137.072 330.845 137.243 330.137C137.414 329.429 137.824 326.557 138.131 323.798C138.438 321.039 138.814 318.615 138.951 318.466C139.087 318.28 139.634 318.764 140.112 319.585L141 321.002L140.966 288.226C140.966 261.677 140.863 255.6 140.522 256.159C138.917 258.769 134.716 269.023 134.033 272.043C133.281 275.511 133.247 275.474 131.198 271.037C130.173 268.799 129.114 266.674 128.841 266.338C128.568 266.04 128.363 265.593 128.363 265.369C128.363 265.145 128.056 264.549 127.646 263.989C127.27 263.467 126.997 262.871 127.065 262.722C127.134 262.572 128.534 261.118 130.242 259.478C133.896 255.973 133.623 256.271 137.721 251.834L141 248.329V234.681L140.966 221.072L140.283 222.004C136.594 226.963 130.105 233.6 125.255 237.366C123.479 238.783 121.874 240.051 121.669 240.237C120.644 241.169 114.087 245.495 113.745 245.495C113.506 245.495 112.174 244.451 110.74 243.183C109.305 241.878 107.734 240.498 107.188 240.088C104.729 238.149 100.459 234.57 99.8105 233.936C99.1615 233.302 99.0591 232.668 98.8883 229.014C98.376 217.268 96.3951 206.492 92.2625 193.293C89.8375 185.425 84.2705 171.181 85.1585 175.022C87.2418 184.008 88.7446 195.977 89.2569 207.275C89.4618 211.675 88.9495 223.943 88.5397 224.688C88.164 225.322 82.6994 220.475 78.2252 215.665C76.5175 213.763 75.0831 212.16 75.0831 212.048C75.0831 211.936 74.4683 211.079 73.7511 210.109C69.4135 204.441 66.5446 194.523 66.5446 185.388C66.5788 178.228 68.1157 172.076 72.5215 161.225C74.3317 156.825 76.0394 152.649 78.1569 147.429C80.9917 140.382 84.1338 130.24 85.6366 123.192C86.2514 120.284 86.5246 118.531 87.7883 109.955C88.0615 107.979 88.1982 103.057 88.1982 95.2268C88.164 85.0846 88.0615 82.8101 87.4126 78.4475C87.0028 75.6882 86.5929 72.7425 86.4905 71.9222C85.944 67.746 83.1092 56.4853 80.5477 48.4312C77.5422 38.9975 70.2674 22.8894 65.2126 14.537C64.3588 13.1201 63.4708 11.6286 63.2658 11.2557C62.5828 10.0252 62.1388 9.65235 61.7631 10.0625C61.524 10.3235 61.6948 11.032 62.2754 12.2998C66.7837 21.8453 71.2579 35.0823 74.1951 47.499C78.3618 65.0613 79.1474 82.1389 76.62 99.3284C75.6295 106.04 73.0339 117.413 72.0092 119.389C71.8385 119.725 71.1212 121.552 70.4382 123.379C69.2769 126.585 66.7154 132.365 65.2809 135.124C63.8465 137.846 62.1388 141.016 60.2603 144.446C59.2357 146.385 58.3477 148.287 58.3477 148.66C58.3477 148.995 58.1086 149.293 57.8354 149.293C57.5622 149.293 57.084 149.853 56.8108 150.487C56.5375 151.158 56.0252 152.239 55.6495 152.836C51.9268 159.324 48.4089 167.415 46.7012 173.381C46.3255 174.649 45.6425 177.744 45.1643 180.279C44.3788 184.344 44.2763 185.798 44.2763 192.36C44.2763 196.462 44.4129 200.564 44.6179 201.496C44.8228 202.428 44.8911 203.286 44.7545 203.435C44.5837 203.621 43.1151 202.092 41.4415 200.079C39.7338 198.103 37.0357 194.97 35.4305 193.106C28.5314 185.238 21.8714 176.103 18.4219 169.801C12.9572 159.808 9.132 147.802 7.73169 136.243C7.18524 131.694 7.18524 116.667 7.76585 111.82C8.244 107.494 9.81508 99.1047 11.0105 94.2573C12.0009 90.3049 14.46 82.1017 15.1431 80.4983C15.4163 79.9017 16.4068 77.3662 17.3972 74.9052C18.3535 72.4442 19.8222 68.9019 20.6419 67.0749C22.3154 63.3461 22.3495 63.1597 21.6665 63.1597C20.8809 63.1597 14.4942 73.712 11.1471 80.4983C8.03908 86.7999 4.82861 94.2573 3.70154 97.6505C3.39417 98.6945 2.77939 100.522 2.36954 101.752C-4.42708 122.223 -5.34923 147.093 -0.021225 166.632C1.0717 170.696 2.74524 175.917 3.01846 176.14C3.15508 176.252 3.46246 176.998 3.70154 177.818C4.38461 180.317 8.27815 188.743 10.8739 193.479C13.8452 198.886 16.3385 203.025 19.6514 208.058C21.0175 210.146 22.1446 211.973 22.1446 212.16C22.1446 212.309 22.4178 212.794 22.7935 213.204C23.8865 214.546 29.8634 224.129 32.8006 229.275C41.544 244.6 45.6766 258.359 45.7449 272.267C45.7449 275.213 45.7108 277.711 45.6083 277.786C45.54 277.86 43.4225 275.772 40.9292 273.087C38.4018 270.44 36.2502 268.24 36.1135 268.24C35.9428 268.24 35.3963 267.793 34.884 267.271C33.7569 266.077 29.6243 262.386 28.2923 261.342C24.0231 257.986 14.0502 248.515 10.3615 244.339C4.76031 238 -0.943375 229.275 -2.71938 224.427C-3.09508 223.383 -4.39291 220.289 -5.62245 217.529C-6.81784 214.77 -8.21815 211.079 -8.6963 209.326C-11.7702 198.065 -12.9655 189.787 -13.2388 177.445C-13.5803 163.239 -12.18 148.138 -9.31107 134.863C-8.96953 133.372 -8.83292 132.104 -9.00369 132.104C-9.1403 132.067 -9.44769 132.029 -9.65262 131.992C-9.85753 131.955 -10.7797 134.155 -11.736 136.802C-14.1268 143.663 -16.8932 153.059 -18.9766 161.225C-20.0354 165.476 -21.5723 174.798 -22.2895 181.696C-22.836 186.544 -23.2117 188.818 -23.4508 188.743C-23.6898 188.669 -25.0901 187.177 -26.6271 185.425L-29.3935 182.218L-28.7446 179.944C-27.7542 176.327 -26.1489 168.907 -25.3634 164.395C-23.9631 156.341 -23.5532 151.195 -23.3825 139.785C-23.2458 130.09 -23.3141 127.555 -23.9289 120.769C-24.7145 112.454 -25.7049 106.152 -27.3443 98.5827C-28.4714 93.4743 -29.5302 88.9998 -29.8717 88.1422C-29.9742 87.8439 -30.3157 86.5761 -30.6231 85.3456C-30.9305 84.1152 -31.4428 82.2881 -31.8185 81.244C-36.4292 67.8579 -37.488 65.024 -40.8009 57.5666C-42.8501 52.943 -42.6111 53.3158 -43.2258 53.5768C-43.6698 53.7633 -43.704 53.987 -43.3966 54.8446C-43.1917 55.4039 -42.816 56.6344 -42.5769 57.5666C-42.3378 58.4988 -41.6206 61.1835 -40.9375 63.5326C-39.1274 70.1324 -37.1806 79.3797 -36.2926 85.5321C-36.0535 87.0609 -35.6778 89.8574 -35.4046 91.6845C-34.6191 96.9047 -34.2092 104.325 -34.2092 113.087C-34.2092 125.355 -34.824 132.775 -36.6 142.955C-37.8978 150.151 -38.3077 151.978 -39.8105 157.012C-40.6643 159.846 -41.3815 162.456 -41.3815 162.791C-41.3815 163.127 -41.5181 163.537 -41.7231 163.649C-41.8938 163.761 -42.2012 164.507 -42.4061 165.252C-42.5769 166.035 -42.9526 166.968 -43.2258 167.378C-43.704 168.086 -43.8065 168.012 -45.8898 166.073C-47.0511 164.954 -48.3489 163.724 -48.7246 163.276C-49.1003 162.866 -50.5006 161.524 -51.7985 160.293C-62.2495 150.487 -70.1391 140.494 -73.4178 132.887C-76.3892 126.026 -77.0723 122.596 -77.0381 115.176C-77.004 110.44 -76.8674 109.06 -76.116 106.04C-73.9985 97.5386 -71.1978 91.2743 -66.348 84.227C-64.9477 82.1762 -63.684 80.3491 -63.5474 80.1254C-62.6594 78.8204 -58.5268 73.9357 -55.4871 70.6917C-52.2766 67.224 -51.6277 66.1427 -52.7206 66.1427C-52.9255 66.1427 -53.7794 66.7766 -54.6332 67.5223C-55.4871 68.3053 -56.3751 69.0138 -56.6142 69.1257C-58.4926 69.946 -69.0461 80.2746 -72.8031 84.9728C-75.228 87.9558 -77.4138 91.5353 -77.9261 93.2506C-78.2335 94.3319 -78.6434 95.0404 -78.9508 95.0404C-79.4972 95.0404 -79.8729 95.637 -81.7172 99.7386C-82.8784 102.349 -84.0397 105.63 -85.2009 109.955C-86.3622 114.057 -86.8062 123.975 -86.1231 129.345C-85.6791 132.738 -84.1422 139.189 -83.5274 140.158C-83.2542 140.531 -83.0492 141.128 -83.0492 141.463C-83.0492 141.985 -79.4972 150.039 -78.5409 151.717C-75.6378 156.714 -74.1692 159.1 -73.0763 160.592C-72.3591 161.598 -71.8468 162.568 -71.9834 162.754C-72.0858 162.941 -74.0326 164.097 -76.3209 165.364C-85.8157 170.547 -90.3923 173.903 -96.3692 180.018C-100.638 184.381 -103.132 187.998 -105.591 193.479C-106.342 195.231 -107.025 196.648 -107.094 196.648C-107.162 196.648 -107.879 194.411 -108.665 191.726C-109.45 189.004 -110.304 186.245 -110.577 185.574C-110.85 184.94 -111.055 184.306 -111.055 184.194C-111.055 183.747 -114.163 175.208 -115.939 170.734C-118.057 165.439 -130.762 137.734 -133.904 131.657C-135.1 129.307 -141.384 115.996 -143.98 110.216C-144.663 108.762 -145.209 107.345 -145.209 107.084C-145.209 106.86 -145.414 106.376 -145.687 106.077C-145.961 105.742 -146.405 104.81 -146.678 103.989C-146.951 103.169 -147.976 100.41 -148.966 97.8369C-153.611 85.7558 -156.685 74.2713 -158.256 62.9732C-159.281 55.8514 -159.349 41.7568 -158.427 34.8213C-156.787 22.7402 -153.748 12.1506 -148.693 0.927114C-146.541 -3.84566 -146.029 -4.77785 -142.067 -11.3404C-138.788 -16.7471 -137.456 -18.8352 -136.807 -19.5436C-136.261 -20.1029 -136.295 -20.7741 -136.876 -20.9978C-137.32 -21.147 -143.672 -13.5404 -146.883 -8.99132C-148.215 -7.12695 -150.298 -3.95753 -151.562 -1.90672C-152.826 0.144081 -154.089 2.23217 -154.431 2.75419C-156.753 6.44564 -161.808 18.0047 -163.482 23.4487C-163.755 24.269 -164.335 26.2079 -164.848 27.7367C-165.702 30.4214 -167.102 36.4247 -167.751 40.1534C-169.527 50.0718 -169.868 67.5969 -168.502 78.4102C-168.058 81.7661 -167.648 84.6745 -167.546 84.8236C-167.478 84.9728 -167.17 86.688 -166.863 88.5896C-166.316 92.2065 -165.053 98.1725 -163.994 102.311C-160.92 114.057 -160.852 114.281 -156.924 126.362C-154.021 135.311 -152.689 139.226 -150.503 145.192C-149.444 148.063 -147.942 152.351 -145.653 158.988C-143.706 164.693 -143.126 166.968 -143.433 167.751C-145.107 171.74 -147.976 179.906 -148.966 183.411C-149.308 184.642 -149.752 186.133 -149.957 186.73C-150.196 187.327 -150.298 188.259 -150.23 188.781C-150.162 189.303 -150.162 189.489 -150.264 189.191C-150.503 188.408 -151.528 192.547 -152.723 199.072C-153.884 205.485 -154.772 214.733 -154.772 220.624C-154.772 228.268 -152.826 241.952 -150.879 247.918C-146.985 259.962 -144.082 266.04 -137.695 275.511C-136.09 277.897 -134.826 280.097 -134.861 280.47C-135.1 283.341 -136.534 289.867 -136.91 289.867C-137.149 289.867 -137.764 288.972 -138.242 287.928C-141.213 281.44 -147.873 273.311 -157.607 264.138C-158.768 263.057 -158.871 262.759 -158.871 261.006C-158.871 258.434 -159.827 249.298 -160.237 247.918C-160.408 247.322 -160.954 245.196 -161.398 243.22C-162.73 237.403 -164.745 231.736 -168.366 223.495C-169.458 221.034 -172.191 215.665 -172.362 215.665C-172.396 215.665 -172.259 216.448 -172.02 217.455C-169.424 227.746 -168.092 237.702 -168.092 246.613C-168.092 252.356 -168.297 254.071 -168.98 254.071C-169.254 254.071 -169.458 253.922 -169.458 253.773C-169.458 253.586 -170.176 252.878 -171.098 252.169C-173.318 250.454 -185.033 237.627 -185.306 236.62C-185.442 236.173 -185.682 235.8 -185.852 235.8C-185.989 235.8 -186.433 235.241 -186.809 234.607C-187.218 233.936 -188.004 232.631 -188.619 231.698C-189.234 230.766 -190.566 228.529 -191.556 226.739C-192.99 224.129 -193.298 223.309 -193.025 222.75C-192.854 222.377 -192.581 222.004 -192.41 221.929C-192.034 221.78 -188.141 214.397 -185.921 209.699C-183.701 204.963 -180.832 197.32 -179.568 192.733C-179.056 190.906 -178.338 188.371 -177.963 187.14C-176.255 181.286 -174.479 169.951 -173.933 161.598C-173.557 156.08 -173.728 141.165 -174.206 136.429C-174.889 129.643 -175.914 122.074 -176.767 117.748C-177.69 112.976 -179.534 104.959 -180.012 103.43C-180.183 102.908 -180.729 101.006 -181.242 99.142C-182.881 93.1014 -183.462 91.4608 -183.803 91.6845C-183.94 91.7591 -184.315 90.454 -184.657 88.7761C-184.964 87.0982 -185.442 85.2338 -185.682 84.5999C-185.921 84.0033 -186.399 82.661 -186.74 81.6169C-187.048 80.6102 -187.423 79.6034 -187.56 79.3797C-187.697 79.1932 -188.072 78.1865 -188.38 77.217C-188.824 75.912 -189.165 75.4645 -189.575 75.5764C-189.882 75.6509 -190.053 75.9492 -189.985 76.2475C-189.917 76.5458 -189.609 77.7763 -189.37 79.0068C-189.097 80.2373 -188.585 82.5864 -188.243 84.227C-186.706 91.2371 -184.759 104.027 -183.906 112.752C-182.778 124.497 -183.222 144.819 -184.828 153.209C-184.964 154.029 -185.442 156.378 -185.818 158.429C-187.15 165.476 -190.224 176.476 -191.693 179.459C-192.034 180.205 -192.342 180.913 -192.342 181.062C-192.342 181.398 -195.962 189.489 -196.85 191.055C-197.533 192.323 -200.914 198.14 -201.119 198.475C-201.187 198.587 -201.392 198.475 -201.597 198.252C-202.075 197.73 -202.314 196.238 -203.339 188.259C-204.364 179.832 -204.466 162.829 -203.51 153.581C-202.827 147.019 -201.085 135.348 -200.334 132.141C-199.719 129.606 -199.719 128.785 -200.334 128.785C-201.187 128.785 -204.978 139.897 -208.257 151.904C-209.487 156.49 -210.341 160.219 -211.331 165.7C-211.604 167.229 -212.048 169.764 -212.322 171.293C-213.005 175.059 -214.2 189.228 -214.2 193.703C-214.2 197.655 -213.722 204.963 -213.141 210.407L-212.731 213.912L-215.395 216.672C-219.084 220.512 -226.871 227.746 -229.842 230.132C-231.174 231.251 -232.302 232.258 -232.302 232.407C-232.302 232.556 -232.814 232.966 -233.429 233.302C-234.009 233.675 -235.614 234.868 -236.912 235.987C-238.244 237.105 -239.406 238.037 -239.576 238.037C-239.713 238.037 -239.815 237.292 -239.815 236.397C-239.815 234.309 -238.313 222.302 -237.595 218.648C-237.288 217.119 -236.912 214.919 -236.707 213.801C-236.195 210.967 -234.18 203.435 -232.916 199.818C-230.867 193.964 -229.467 190.123 -229.228 189.75C-229.091 189.564 -228.852 188.967 -228.715 188.445C-228.579 187.923 -227.759 185.91 -226.939 183.971C-226.086 182.032 -224.856 179.086 -224.207 177.445C-223.524 175.805 -222.875 174.313 -222.738 174.09C-222.602 173.903 -221.987 172.449 -221.372 170.92C-220.758 169.391 -219.699 166.856 -218.982 165.29C-218.264 163.724 -217.513 161.785 -217.274 161.002C-217.035 160.219 -216.727 159.398 -216.591 159.175C-216.488 158.988 -216.113 157.981 -215.771 156.937C-215.43 155.931 -215.054 154.737 -214.883 154.327C-214.337 152.985 -212.526 146.534 -211.809 143.514C-208.872 130.985 -208.872 114.392 -211.878 102.684C-214.951 90.5286 -218.777 81.9525 -225.881 70.9527C-227.52 68.4172 -230.389 64.6885 -230.696 64.6885C-231.345 64.6139 -231.243 65.8444 -230.457 67.1867C-229.159 69.4612 -224.958 78.6712 -224.002 81.4305C-223.251 83.5186 -221.68 88.7388 -220.689 92.4302C-219.494 96.7183 -218.333 108.538 -218.538 113.87C-218.777 120.508 -220.621 130.501 -222.363 134.863C-222.773 135.87 -223.08 136.839 -223.08 137.063C-223.08 137.473 -228.032 148.51 -229.296 150.971C-230.286 152.836 -231.174 154.327 -239.303 167.751C-242.889 173.717 -246.339 179.422 -246.919 180.428C-249.378 184.679 -252.145 190.123 -254.57 195.53L-256.653 200.153L-257.712 198.699C-265.499 187.998 -271.237 182.367 -280.834 176.066C-281.483 175.618 -281.79 174.984 -282.098 173.306C-282.303 172.076 -282.713 169.913 -282.986 168.459C-283.532 165.551 -285.035 159.846 -285.752 158.056C-285.991 157.459 -286.367 156.341 -286.538 155.632C-288.041 150.002 -297.843 128.897 -298.902 129.009C-299.96 129.121 -299.994 129.158 -299.653 129.643C-299.311 130.09 -297.194 135.907 -296.682 137.734C-296.545 138.256 -296.306 138.853 -296.169 139.039C-295.52 139.972 -292.72 150.337 -291.593 156.08C-290.602 161.002 -289.543 169.615 -289.851 170.174C-289.987 170.435 -290.226 170.473 -290.466 170.212C-290.978 169.764 -300.746 164.395 -302.078 163.873L-303 163.463V174.984V186.469L-301.053 187.886C-297.945 190.123 -291.729 195.567 -291.729 196.052C-291.729 196.648 -292.378 199.333 -292.754 200.191C-292.925 200.601 -293.574 202.353 -294.154 204.106C-295.11 206.791 -296.613 210.221 -298.594 214.173C-299.38 215.702 -301.326 218.76 -302.214 219.804L-303 220.736L-302.932 234.383L-302.829 248.068L-300.951 245.607C-292.754 234.942 -287.938 225.77 -284.591 214.472C-283.84 211.973 -283.054 209.177 -282.849 208.319C-282.644 207.424 -282.371 206.716 -282.2 206.716C-281.961 206.716 -278.068 213.577 -278.068 214.024C-278.068 214.136 -277.726 215.031 -277.282 216.001C-276.36 217.977 -274.277 225.397 -273.525 229.461C-271.647 239.23 -271.92 258.172 -274.106 271.596C-275.404 279.575 -278.409 293.67 -280.185 300.121C-282.303 307.914 -283.327 311.12 -283.703 311.12C-284.147 311.12 -286.948 309.107 -289.782 306.758C-296.135 301.5 -300.78 293.185 -302.522 284.087C-302.863 282.186 -302.932 284.796 -302.966 301.351L-303 320.852L-302.249 322.046C-300.917 324.096 -297.843 327.937 -294.359 331.89L-290.978 335.693L-291.695 337.855C-292.071 339.049 -292.925 341.696 -293.608 343.747C-294.291 345.798 -295.076 348.147 -295.315 348.967C-295.828 350.608 -296.784 353.442 -298.662 358.848C-299.38 360.936 -299.824 362.801 -299.721 363.323C-299.585 364.106 -299.619 364.143 -299.858 363.509C-300.131 362.838 -300.199 362.913 -300.438 363.994C-300.712 365.411 -301.292 365.784 -302.283 365.187L-303 364.777V381.407V398H-81H141V381.482ZM-192.478 349.34C-195.689 345.835 -198.011 342.255 -198.353 340.316C-198.694 338.378 -197.874 335.954 -195.996 333.195C-195.04 331.815 -190.77 326.856 -186.501 322.195C-178.817 313.805 -175.674 310.114 -173.045 306.46C-172.293 305.453 -171.61 304.521 -171.508 304.409C-171.405 304.297 -170.62 303.066 -169.8 301.65C-168.946 300.233 -168.161 298.89 -168.024 298.667C-167.273 297.436 -165.531 302.06 -164.984 306.609C-164.506 310.822 -164.95 315.968 -166.18 319.92C-167.034 322.568 -170.381 330.025 -171.03 330.696C-171.234 330.92 -172.259 332.412 -173.284 334.052C-175.06 336.811 -176.87 339.198 -180.524 343.56C-182.676 346.133 -188.892 352.509 -189.234 352.509C-189.404 352.509 -190.873 351.092 -192.478 349.34ZM2.19878 351.167C2.23293 350.794 2.74524 347.923 3.32585 344.791C3.90646 341.659 4.6237 337.296 4.89693 335.096C5.17015 332.896 5.58 329.988 5.75078 328.646C6.05815 326.259 6.87785 318.69 7.49261 312.053C7.66339 310.226 7.90247 302.022 8.00493 293.894C8.14154 285.728 8.34647 279.053 8.44893 279.053C8.89293 279.053 15.0748 286.511 17.568 290.053C20.9151 294.863 21.7348 296.131 22.5203 297.697C22.9643 298.629 23.5108 299.636 23.7498 299.972C23.9889 300.27 24.6037 301.873 25.116 303.514C26.3455 307.504 26.448 314.215 25.2868 318.69C23.1009 327.266 17.0557 336.923 7.49261 347.215C4.93108 349.899 2.71107 352.099 2.50616 352.025C2.33539 351.95 2.19878 351.54 2.19878 351.167ZM87.9591 331.927C81.9138 326.185 78.8742 322.381 77.0982 318.28L76.4151 316.714L77.2006 310.673C78.1228 303.551 78.2594 303.216 83.0068 298.219C86.9345 294.08 97.3172 285.392 98.3077 285.392C98.7517 285.392 99.9812 289.606 100.528 292.999C101.757 300.717 100.801 310.188 97.8978 319.137C96.156 324.507 93.3554 331.293 91.716 334.164C91.2378 334.947 90.828 334.686 87.9591 331.927ZM-36.6342 327.266C-36.9757 326.818 -37.1806 324.73 -37.3172 319.547C-37.6929 307.765 -39.4689 298.517 -43.3283 288.375C-46.3338 280.47 -47.0852 278.942 -52.3449 270.403L-54.36 267.159V264.25C-54.36 256.793 -52.0375 243.593 -49.2369 235.241C-47.0511 228.678 -46.0606 226.068 -44.1138 221.444C-43.7723 220.624 -42.7818 218.2 -41.8938 216.038C-39.2298 209.512 -38.9566 208.953 -38.5126 208.953C-38.1028 208.953 -34.38 216.336 -32.9114 220.139C-32.0234 222.377 -30.4182 227.522 -28.7446 233.376C-26.1831 242.214 -24.7486 258.471 -25.3292 271.111C-25.5 274.653 -25.7391 277.935 -25.8415 278.382C-25.944 278.867 -26.2514 281.589 -26.5246 284.46C-26.7978 287.331 -27.276 290.948 -27.5492 292.477C-29.6668 304.26 -31.3403 312.314 -32.604 316.937C-32.8772 317.944 -33.4578 320.032 -33.8677 321.561C-35.6437 328.31 -35.7462 328.496 -36.6342 327.266ZM-228.169 324.283C-228.579 323.686 -228.989 323.052 -229.125 322.866C-230.491 320.927 -231.414 319.436 -232.882 316.714C-234.317 314.103 -234.726 312.948 -235.205 310.188C-235.512 308.361 -235.888 306.087 -236.058 305.155C-236.537 302.768 -238.449 287.518 -238.449 286.324C-238.449 285.28 -236.537 279.948 -235.819 279.016C-235.58 278.718 -235.375 278.308 -235.375 278.121C-235.375 277.003 -229.535 268.576 -225.163 263.43C-221.304 258.844 -221.372 258.918 -215.908 252.729C-211.365 247.583 -206.584 241.878 -206.242 241.169C-205.73 240.163 -205.286 240.647 -204.09 243.444C-203.066 245.83 -201.256 249.447 -198.865 253.773C-196.064 258.881 -192.444 264.176 -185.579 273.087C-183.462 275.847 -181.105 278.904 -180.354 279.874C-179.636 280.843 -179.022 281.775 -179.022 281.924C-179.022 282.111 -180.354 283.752 -182.027 285.616C-184.998 289.009 -189.404 292.962 -192.41 294.938C-195.381 296.951 -200.368 300.195 -204.466 302.843C-215.703 310.076 -220.997 315.11 -225.471 322.791C-226.29 324.171 -227.076 325.29 -227.213 325.29C-227.349 325.29 -227.793 324.842 -228.169 324.283ZM-88.4455 288.711C-89.7092 287.443 -91.2803 285.989 -91.9292 285.43C-92.5781 284.907 -94.0809 283.565 -95.2763 282.521C-96.4375 281.44 -97.5305 280.545 -97.7012 280.545C-97.8378 280.545 -98.0769 273.609 -98.2135 265.182C-98.316 256.718 -98.5209 248.664 -98.6234 247.285C-98.76 245.644 -98.7258 244.749 -98.4868 244.749C-98.316 244.749 -97.6671 245.681 -97.0865 246.8C-95.9252 249.037 -90.8022 257.539 -87.3185 263.02C-85.3717 266.04 -85.0643 266.711 -85.2692 267.681C-85.7132 270.067 -86.1231 282.074 -85.884 286.436C-85.7815 288.935 -85.7815 290.985 -85.9182 290.985C-86.0889 290.985 -87.216 289.941 -88.4455 288.711ZM75.0831 257.986C74.7415 256.532 74.3658 255.078 74.2292 254.742C73.7852 253.512 74.9123 254.034 76.4492 255.749C78.0886 257.539 78.0545 257.203 76.62 260.111C76.0735 261.193 75.732 260.708 75.0831 257.986ZM-133.938 245.98C-135.885 242.736 -139.369 235.241 -140.462 231.848C-142.443 225.77 -144.253 217.007 -144.868 210.78C-145.312 206.268 -145.312 195.791 -144.868 190.31C-144.492 185.537 -143.023 174.873 -142.443 172.598C-142.101 171.218 -142.033 171.181 -141.589 171.852C-141.316 172.262 -140.94 173.269 -140.735 174.09C-140.53 174.91 -140.052 176.55 -139.71 177.781C-136.295 188.893 -133.494 204.292 -132.265 218.648C-131.377 229.238 -131.104 248.851 -131.855 248.851C-132.026 248.851 -132.982 247.546 -133.938 245.98ZM-82.1612 235.539C-85.6108 231.512 -88.4797 227.97 -89.2994 226.814C-89.6068 226.329 -90.2215 225.434 -90.6655 224.8C-92.6123 221.966 -93.6369 220.065 -95.0714 216.784C-97.6329 211.004 -97.9061 209.587 -97.9061 203.174L-97.872 197.581L-96.3692 193.293C-95.5495 190.943 -94.2175 187.923 -93.3978 186.618C-91.4852 183.598 -90.8363 182.181 -91.0754 181.733C-91.1778 181.547 -91.0754 181.435 -90.8363 181.547C-90.5972 181.622 -89.5726 180.652 -88.5822 179.384C-85.6449 175.581 -84.7569 174.612 -81.1708 171.256C-77.9261 168.235 -71.9151 163.09 -71.6418 163.09C-71.5735 163.09 -70.6855 164.208 -69.6609 165.625C-68.6705 167.005 -66.4846 169.876 -64.8452 172.039C-58.3218 180.503 -55.4871 184.083 -54.1209 185.798C-53.3012 186.805 -52.6523 187.699 -52.6523 187.849C-52.6523 188.147 -56.9557 195.753 -62.2837 204.852C-67.5092 213.801 -67.8849 214.509 -68.4314 215.665C-68.6705 216.187 -69.4218 217.604 -70.1049 218.872C-72.3249 222.899 -74.8865 228.417 -76.7991 233.376C-78.8825 238.746 -78.9166 238.783 -79.1898 238.783C-79.2923 238.783 -80.6243 237.329 -82.1612 235.539Z" fill="black"/>
<path d="M63.3181 191.825V182.855L62.3243 182.37C60.8335 181.656 56.5443 178.485 54.7135 176.742C51.0781 173.286 48.5935 168.916 47.2073 163.46C46.5273 160.86 46.475 160.175 46.4489 155.747C46.4489 151.72 46.5535 150.349 47.0504 147.749C47.652 144.636 49.352 138.294 49.7181 137.751C49.8227 137.609 50.0058 137.152 50.1104 136.752C50.712 134.552 56.4135 122.155 57.0412 121.612C57.1458 121.527 57.7212 120.584 58.3227 119.47C58.9243 118.384 60.2843 116.128 61.3566 114.471C63.0304 111.843 63.292 111.3 63.292 110.186L63.3181 108.901L61.9581 110.472C56.8581 116.442 56.0473 117.47 53.4581 121.07C48.4366 128.154 46.7627 130.924 43.8335 137.18C41.375 142.465 40.8781 143.807 39.6227 148.606C37.0073 158.547 37.6089 168.916 41.2443 177.171C43.2843 181.77 44.9843 184.312 48.6458 188.226C51.6273 191.396 54.7135 194.224 57.9827 196.766C59.2904 197.766 60.9381 199.052 61.6443 199.594C62.3504 200.137 63.0043 200.651 63.1089 200.68C63.2397 200.737 63.3181 196.738 63.3181 191.825Z" fill="black"/>
<path d="M130.424 191.396L131.309 182.47L132.346 182.085C133.9 181.522 138.481 178.789 140.474 177.236C144.433 174.155 147.337 170.051 149.254 164.759C150.187 162.239 150.307 161.562 150.77 157.159C151.167 153.151 151.198 151.776 150.96 149.14C150.669 145.982 149.602 139.504 149.292 138.928C149.202 138.776 149.065 138.303 149 137.894C148.618 135.646 144.167 122.747 143.596 122.145C143.501 122.05 143.021 121.055 142.532 119.887C142.041 118.747 140.91 116.368 140.006 114.613C138.6 111.833 138.393 111.267 138.503 110.158L138.604 108.877L139.802 110.574C144.289 117.018 144.994 118.121 147.216 121.959C151.514 129.503 152.906 132.426 155.204 138.94C157.129 144.441 157.491 145.826 158.267 150.726C159.889 160.876 158.268 171.135 153.836 178.991C151.352 183.366 149.409 185.729 145.38 189.262C142.1 192.123 138.75 194.633 135.246 196.84C133.846 197.706 132.079 198.822 131.323 199.293C130.567 199.763 129.865 200.21 129.759 200.229C129.623 200.273 129.939 196.285 130.424 191.396Z" fill="black"/>
<path d="M224.927 71.7702C227.993 77.1726 229.231 80.2444 230.765 85.8806C234.117 98.2944 232.647 111.455 226.499 123.941C221.937 133.146 213.037 144.621 202.74 154.504C181.142 175.234 173.152 184.582 164.001 199.743L160.686 205.224L157.541 206.664C155.802 207.441 154.004 208.206 153.54 208.356C153.099 208.541 149.783 210.501 146.215 212.778C140.201 216.549 138.445 217.848 133.72 221.952C131.674 223.746 131.38 223.53 131.882 220.7C132.047 219.623 132.338 217.799 132.42 216.674C132.538 215.524 132.669 214.316 132.756 213.902C133.681 209.061 133.65 194.225 132.676 183.578L132.41 180.433L136.254 175.526C142.114 168.077 148.626 161.939 162.793 150.398C177.557 138.364 184.7 132.019 190.992 125.31C195.738 120.222 202.049 111.663 204.081 107.58C204.783 106.152 205.507 104.914 205.65 104.82C205.829 104.703 206.469 102.397 207.041 99.6754C208.727 92.2447 208.007 85.9761 204.756 80.1331C200.561 72.6088 193.226 68.4095 185.877 69.2737C179.596 70.0537 175.332 73.1423 168.149 82.3213C161.616 90.6173 159.771 92.4847 154.83 95.709C148.002 100.266 142.736 101.507 136.394 100.081C130.43 98.7648 125.873 95.4586 122.463 90.0766C116.345 80.3867 119.835 66.8784 129.172 64.0533C132.776 62.9267 135.926 63.3729 139.404 65.4944C142.633 67.4711 144.233 68.827 143.66 69.2008C143.481 69.3176 142.131 69.1264 140.723 68.7686C136.5 67.6952 132.673 68.5586 130.43 71.1454C127.48 74.4487 127.307 78.7992 129.877 82.738C131.898 85.7582 134.054 87.2619 136.967 87.6583C140.035 88.0562 142.521 87.2506 145.77 84.8753C148.84 82.6169 151.072 79.9351 156.366 72.2435C160.578 66.0236 163.975 61.9184 167.516 58.7396C171.022 55.5842 174.056 53.3491 174.588 53.6153C174.812 53.7242 175.394 53.5995 175.824 53.3191C176.719 52.735 181.799 51.0538 184.093 50.5784C187.527 49.8177 194.073 49.8349 197.624 50.5815C198.925 50.8553 203.666 52.4082 203.806 52.623C203.876 52.7304 205.02 53.311 206.343 53.9288C210.746 55.9053 215.017 59.3984 220.672 65.5616C221.27 66.2434 221.95 66.9735 222.162 67.1417C222.397 67.3456 223.634 69.3975 224.927 71.7702Z" fill="black"/>
<path d="M-0.209012 160.329C10.1847 176.42 25.2087 190.03 42.6989 199.074C51.2031 203.464 60.8024 207.585 68.3694 209.941L74.9139 212.069L75.8755 205.892C77.0939 197.652 79.6244 186.537 81.8195 179.755L83.5861 174.176L74.5678 171.677C58.7214 167.262 48.9635 162.088 38.4263 152.579C28.9381 144.032 22.3722 134.925 17.864 123.844C8.71552 101.365 10.3399 80.4695 22.3626 67.1839C27.3155 61.6796 36.1806 57.9985 41.643 59.0849C51.8486 61.0905 56.964 73.4099 51.2137 82.1341C48.6881 85.8851 40.9775 90.1119 36.5181 90.0999C32.5205 90.0825 32.4746 91.313 36.433 93.0239C44.3368 96.6376 53.3012 94.313 59.916 87.0003C72.3608 73.1668 65.6403 52.2887 46.3959 45.277C31.2353 39.831 15.3714 45.2069 2.06941 60.3282C-2.67898 65.6545 -4.54512 68.759 -7.93395 76.689C-16.2939 96.5607 -17.2856 114.957 -11.1654 136.177C-8.33304 145.904 -5.76555 151.64 -0.209012 160.329Z" fill="black"/>
<path d="M140.952 136.104C140.509 140.263 138.579 145.799 136.079 150.115C134.876 152.117 131.87 156.496 131.395 156.902C131.269 156.996 130.573 157.841 129.781 158.779C123.674 166.129 113.896 173.041 104.498 176.638C94.0236 180.641 80.5749 181.11 70.2905 177.826C65.6388 176.325 57 172.259 57 171.54C57 171.289 61.2403 167.067 62.601 165.972C63.8035 165.003 66.1768 163.033 67.7274 161.688C69.2146 160.437 74.3093 157.246 75.227 157.027C75.6384 156.902 76.7459 157.278 78.1383 157.966C82.0938 159.936 84.6886 160.499 89.9099 160.499C94.7831 160.499 97.3462 160.03 102.409 158.279C105.827 157.059 112.535 153.743 115.731 151.617C117.345 150.553 118.801 149.709 119.022 149.709C119.371 149.709 122.82 146.331 125.32 143.485C128.421 139.982 130.414 135.29 130.288 131.725C130.098 126.001 126.396 121.279 115.985 113.553C113.358 111.614 110.542 109.3 109.751 108.424C106.998 105.39 105.922 101.887 106.65 98.3845C107.061 96.4141 108.01 94.0371 108.358 94.0371C108.485 94.0371 108.58 93.8182 108.58 93.568C108.58 93.3178 108.706 93.0988 108.865 93.0988C109.055 93.0988 109.687 92.5671 110.289 91.9416C111.554 90.5967 112.156 90.7218 111.143 92.1293C110.13 93.5367 109.846 97.8528 110.637 99.8858C111.333 101.637 111.46 101.825 113.327 103.701C114.276 104.64 116.016 105.766 118.39 106.985C123.326 109.488 126.933 111.646 129.781 113.741C132.123 115.524 135.319 118.558 135.92 119.59C136.079 119.871 136.68 120.716 137.218 121.435C138.452 123.03 140.034 126.721 140.509 129.067C140.857 130.912 141.11 134.602 140.952 136.104Z" fill="black"/>
</g>
<defs>
<clipPath id="clip0_1_15">
<rect width="200" height="177.778" fill="white"/>
</clipPath>
</defs>
</svg>
