<?xml version="1.0" encoding="UTF-8" standalone="no"?>
<svg
   viewBox="0 0 595.28 70.87"
   version="1.1"
   id="svg28"
   xmlns:inkscape="http://www.inkscape.org/namespaces/inkscape"
   xmlns:sodipodi="http://sodipodi.sourceforge.net/DTD/sodipodi-0.dtd"
   xmlns="http://www.w3.org/2000/svg"
   xmlns:svg="http://www.w3.org/2000/svg">

  <g>
    <polygon
       points="578.31,63.6 577.31,63.46 576.24,63.55 574.37,63.5 572.5,63.58 571.5,63.51 570.77,63.57 570.77,63.57 570.52,63.59 570.5,63.59 569.57,63.57 567.73,63.61 566.83,63.55 564.83,63.5 563.85,63.6 563.11,63.52 561.95,63.48 561,63.48 560.51,63.51 560.51,63.51 560.26,63.52 560.26,63.52 560.03,63.54 557.18,63.48 556.22,63.56 555.25,63.48 554.19,63.6 553.39,63.61 551.44,63.54 550.55,63.57 550.5,63.56 550.25,63.54 550.25,63.54 549.58,63.48 545.75,63.6 543.81,63.5 542.9,63.57 541.92,63.47 540.87,63.58 540.12,63.58 540.03,63.57 539.96,63.57 539.13,63.48 537.14,63.53 536.28,63.6 535.27,63.46 534.25,63.6 533.43,63.54 531.53,63.57 529.82,63.52 529.82,63.5 529.48,63.49 529.48,63.51 528.59,63.48 527.71,63.5 526.7,63.47 524.75,63.5 523.79,63.6 521.91,63.53 521.01,63.58 520.11,63.51 519.13,63.52 518.13,63.47 516.24,63.55 515.35,63.55 514.38,63.48 511.52,63.61 510.54,63.49 509.55,63.58 508.68,63.51 507.68,63.53 506.73,63.52 504.85,63.57 503.81,63.51 502.84,63.61 500,63.53 497.25,63.6 496.23,63.52 495.3,63.6 494.39,63.5 490.63,63.61 489.63,63.5 488.63,63.56 488.6,63.55 488.6,63.55 488.35,63.54 488.35,63.54 486.67,63.48 485.77,63.55 484.8,63.48 483.84,63.58 482.93,63.53 481.94,63.58 478.2,63.47 475.38,63.57 474.34,63.5 473.34,63.6 472.45,63.59 471.64,63.6 470.6,63.46 469.55,63.57 468.68,63.54 465.87,63.61 464.89,63.54 463.9,63.58 462.09,63.48 459.15,63.61 458.2,63.59 457.51,63.59 457.51,63.59 457.33,63.6 454.4,63.47 453.49,63.52 452.55,63.52 451.57,63.57 450.63,63.54 449.75,63.59 448.95,63.51 447.71,63.5 446.9,63.58 446.85,63.59 446.09,63.52 444.95,63.51 444.01,63.51 443.08,63.58 442.14,63.49 441.18,63.56 440.17,63.49 439.15,63.61 438.4,63.61 436.47,63.5 435.49,63.53 434.51,63.53 433.56,63.54 432.62,63.59 429.73,63.51 426.56,63.58 426.56,63.58 426.3,63.59 426.3,63.59 426.03,63.6 425.02,63.51 424.06,63.59 423.14,63.53 422.18,63.58 421.27,63.53 418.4,63.61 416.47,63.5 415.88,63.56 415.84,63.56 415.58,63.59 414.73,63.48 413.65,63.49 412.71,63.56 411.77,63.5 410.75,63.57 409.96,63.58 408.97,63.5 407.03,63.6 406.05,63.58 405.83,63.57 405.83,63.57 403.23,63.5 401.38,63.56 400.4,63.52 399.53,63.59 398.64,63.48 395.65,63.56 395.65,63.56 395.39,63.56 395.39,63.56 393.86,63.61 392.91,63.5 391.91,63.54 390.86,63.53 389.92,63.61 387.23,63.57 386.23,63.48 384.3,63.56 382.36,63.51 381.48,63.59 380.52,63.48 379.45,63.58 378.7,63.58 377.67,63.48 375.74,63.6 375.11,63.59 375.11,63.59 374.86,63.58 374.86,63.58 374.77,63.58 373.93,63.59 373,63.51 371.98,63.51 370.02,63.48 369.1,63.52 368.09,63.49 367.14,63.59 365.28,63.49 364.59,63.55 364.34,63.57 364.34,63.57 364.24,63.58 363.49,63.6 362.48,63.49 361.41,63.58 359.64,63.6 358.68,63.55 357.76,63.58 356.78,63.5 354.94,63.6 354.02,63.49 352.89,63.5 351.13,63.59 350.22,63.47 347.33,63.57 346.35,63.51 344.46,63.59 344.32,63.58 344.32,63.58 344.06,63.56 344.06,63.56 343.48,63.51 342.48,63.6 341.59,63.57 339.78,63.6 338.83,63.51 336.87,63.55 335.92,63.5 334.98,63.53 333.94,63.47 333.04,63.58 332.11,63.48 331.11,63.59 330.25,63.54 329.3,63.55 328.3,63.5 327.31,63.56 325.48,63.55 324.52,63.61 323.58,63.54 323.42,63.55 323.17,63.56 323.17,63.56 322.56,63.6 320.7,63.58 319.85,63.59 319,63.51 317.78,63.47 316.82,63.58 315.05,63.51 313.09,63.59 313.09,63.59 313.07,63.59 313.07,63.59 313.07,63.59 313.01,63.59 313,63.59 312.15,63.58 311.32,63.61 310.33,63.47 308.45,63.6 307.67,63.5 305.54,63.47 304.54,63.53 303.58,63.51 302.68,63.54 301.69,63.51 297.12,63.6 296.07,63.47 295.04,63.57 292.62,63.53 292.62,63.51 292.37,63.51 292.37,63.53 290.34,63.49 289.48,63.51 288.37,63.47 287.49,63.59 286.64,63.51 285.65,63.55 284.63,63.49 283.68,63.6 282.84,63.55 282.28,63.56 282.1,63.56 282.03,63.56 282.03,63.56 281.89,63.56 280.89,63.54 280,63.56 279.07,63.49 278.07,63.5 277.01,63.49 276.06,63.6 275.3,63.6 274.43,63.53 273.27,63.5 272.39,63.57 272.03,63.53 271.91,63.52 271.51,63.49 268.58,63.6 267.69,63.55 266.75,63.55 265.68,63.48 264.73,63.6 263.84,63.55 262.89,63.61 261.81,63.57 261.81,63.54 261.56,63.53 261.56,63.56 258.98,63.47 258.06,63.6 256.25,63.52 255.38,63.53 254.27,63.48 253.38,63.6 252.52,63.51 251.16,63.56 251.09,63.56 251.09,63.56 249.62,63.61 248.65,63.6 247.82,63.6 246.78,63.48 245.75,63.58 244.88,63.55 243.04,63.57 242.05,63.49 241.06,63.54 240.88,63.53 240.88,63.53 240.09,63.51 237.27,63.61 235.52,63.52 234.34,63.49 233.43,63.59 232.57,63.54 231.62,63.57 230.86,63.53 230.86,63.53 230.59,63.52 230.59,63.52 229.71,63.48 226.86,63.59 224.99,63.5 223.98,63.52 223.01,63.61 221.28,63.58 220.63,63.52 220.63,63.52 220.34,63.49 220.26,63.48 220.26,63.48 220.24,63.48 220.07,63.5 219.21,63.56 218.41,63.57 216.47,63.49 214.6,63.55 213.58,63.48 212.55,63.58 211.75,63.6 210.8,63.55 209.85,63.58 207.88,63.5 206.91,63.59 206.15,63.59 205.1,63.48 204.13,63.59 203.23,63.52 201.39,63.61 200.42,63.51 199.7,63.55 199.57,63.56 199.44,63.57 197.45,63.48 196.51,63.59 195.64,63.56 194.67,63.6 192.85,63.53 190.93,63.58 189.03,63.47 187.09,63.61 186.33,63.6 185.33,63.48 183.37,63.54 181.39,63.51 180.52,63.6 179.66,63.51 179.18,63.52 179.18,63.52 178.93,63.52 178.93,63.52 176.75,63.56 175.82,63.52 174.89,63.53 173.94,63.47 170.16,63.56 169.19,63.48 168.78,63.5 168.78,63.5 168.53,63.52 168.53,63.52 168.18,63.54 167.25,63.51 166.31,63.52 165.41,63.59 164.67,63.5 163.48,63.48 162.52,63.57 161.67,63.5 157.86,63.6 156.88,63.51 155.86,63.56 153.94,63.48 152.94,63.6 151.21,63.52 150.25,63.54 149.23,63.52 148.32,63.56 148.29,63.55 147.34,63.49 146.42,63.56 145.43,63.47 144.51,63.59 143.56,63.47 142.62,63.59 141.71,63.47 140.6,63.57 139.76,63.59 138.01,63.57 138.01,63.57 137.91,63.57 137.82,63.57 136.96,63.6 135.97,63.54 134.97,63.6 134.2,63.61 133.23,63.5 130.38,63.61 129.59,63.51 128.36,63.48 127.51,63.54 127.45,63.54 126.55,63.49 124.62,63.52 123.61,63.61 121.83,63.51 120.82,63.55 119.83,63.53 119.02,63.6 118.09,63.46 117.03,63.53 115.12,63.49 113.27,63.61 111.37,63.51 110.42,63.58 108.51,63.5 107.56,63.59 106.79,63.57 105.74,63.47 104.71,63.56 103.79,63.55 102.88,63.6 100.05,63.5 98.18,63.55 97.2,63.55 96.73,63.56 96.48,63.56 96.48,63.56 96.32,63.56 95.32,63.52 94.32,63.6 93.53,63.6 92.65,63.57 91.58,63.47 90.59,63.56 87.67,63.48 86.84,63.59 86.68,63.57 86.6,63.56 85.97,63.49 84.96,63.55 83.05,63.47 79.32,63.61 78.51,63.61 77.5,63.47 76.49,63.53 76.28,63.52 76.28,63.52 76.03,63.5 75.59,63.47 73.6,63.55 72.72,63.55 71.84,63.59 70.91,63.48 69.82,63.51 68.93,63.58 68.06,63.52 67.03,63.53 66.03,63.61 64.21,63.56 63.33,63.56 62.34,63.51 61.42,63.55 60.53,63.48 58.49,63.52 57.57,63.6 54.84,63.48 53.85,63.5 52.88,63.49 51.01,63.51 49.99,63.58 49.23,63.58 48.19,63.47 47.2,63.57 45.38,63.48 45.14,63.48 44.93,63.48 44.93,63.48 44.32,63.5 42.53,63.6 41.63,63.52 39.77,63.57 38.94,63.49 37.81,63.48 36.75,63.6 34.93,63.56 34.79,63.56 34.79,63.56 34.54,63.58 34.54,63.58 33.99,63.61 31.14,63.54 30.31,63.56 29.26,63.46 28.32,63.58 27.61,63.51 26.47,63.5 25.54,63.58 24.77,63.49 24.77,63.49 24.74,63.49 24.63,63.48 24.62,63.48 24.62,63.48 24.6,63.48 21.76,63.58 20.77,63.53 19.88,63.59 18.94,63.5 17.93,63.56 15.08,63.49 14.04,63.56 14.04,63.56 14.18,65.73 14.3,67.55 14.3,67.55 14.3,67.55 14.3,67.55 15.16,67.49 17.98,67.56 18.86,67.51 19.82,67.6 20.81,67.54 21.71,67.58 24.47,67.49 24.47,67.49 24.52,67.49 25.5,67.6 26.55,67.5 27.31,67.5 28.38,67.61 29.34,67.48 30.17,67.56 31.15,67.54 34.05,67.61 34.77,67.57 34.77,67.57 35.01,67.56 36.96,67.6 37.93,67.48 38.64,67.48 39.61,67.57 41.52,67.53 42.51,67.61 45.33,67.48 47.28,67.58 48.17,67.49 49.02,67.58 50.08,67.58 51.09,67.51 52.9,67.49 53.88,67.5 54.74,67.48 55.15,67.5 55.14,67.51 55.4,67.52 55.4,67.51 57.67,67.6 58.69,67.51 60.37,67.48 61.36,67.56 62.33,67.51 63.23,67.56 64.13,67.56 65.58,67.59 65.58,67.6 65.84,67.6 65.84,67.6 66.1,67.61 67.14,67.53 67.93,67.52 68.95,67.6 70.73,67.48 71.7,67.6 72.76,67.55 73.64,67.55 75.49,67.48 75.77,67.49 75.77,67.5 76.02,67.51 76.48,67.54 77.35,67.49 78.1,67.59 79.39,67.61 82.16,67.55 83.12,67.48 84.98,67.56 85.86,67.51 85.98,67.52 85.98,67.52 86.88,67.62 87.93,67.48 90.67,67.57 91.57,67.49 93.47,67.6 94.42,67.59 95.38,67.53 96.27,67.56 96.75,67.56 96.79,67.56 100.02,67.5 102.91,67.6 103.89,67.55 104.86,67.56 105.72,67.49 106.78,67.54 106.78,67.57 107.03,67.57 107.03,67.56 107.68,67.59 108.61,67.51 110.48,67.59 111.42,67.52 113.3,67.61 115.22,67.49 117.1,67.53 117.26,67.52 117.51,67.51 117.93,67.48 118.89,67.62 119.96,67.53 120.86,67.55 121.75,67.51 123.75,67.62 124.73,67.52 126.49,67.49 127.35,67.54 127.46,67.55 127.47,67.55 127.47,67.55 128.46,67.48 129.22,67.5 130.22,67.61 133.06,67.5 133.98,67.61 135.04,67.6 135.99,67.55 136.9,67.6 137.8,67.57 137.8,67.57 137.86,67.57 139.78,67.6 140.78,67.56 141.62,67.49 142.61,67.62 143.56,67.5 144.51,67.62 145.49,67.5 146.39,67.58 147.37,67.5 147.9,67.54 147.9,67.54 148.02,67.54 148.28,67.56 149.27,67.52 150.23,67.54 151.1,67.53 153.16,67.61 154.05,67.5 155.93,67.56 156.81,67.52 157.73,67.6 158.38,67.58 158.38,67.59 158.64,67.58 158.64,67.58 161.5,67.5 162.54,67.59 163.58,67.48 164.3,67.48 165.34,67.61 166.42,67.52 167.21,67.51 168.25,67.54 168.76,67.51 169.01,67.5 169.01,67.5 169.14,67.49 170.05,67.57 173.85,67.48 174.79,67.53 175.76,67.52 176.72,67.57 179.49,67.52 180.52,67.62 181.54,67.52 183.4,67.54 185.17,67.48 185.94,67.58 187.19,67.61 189.03,67.48 189.12,67.48 189.12,67.48 189.37,67.5 189.37,67.5 190.91,67.58 192.78,67.54 194.74,67.6 195.66,67.56 196.68,67.59 197.63,67.48 199.42,67.58 199.71,67.56 199.71,67.56 199.96,67.55 200.34,67.52 201.25,67.62 203.2,67.52 204.19,67.6 205.11,67.5 205.85,67.58 207.09,67.59 208,67.51 209.81,67.58 209.93,67.58 209.93,67.58 210.18,67.57 210.76,67.55 211.69,67.6 212.7,67.58 213.65,67.49 214.52,67.56 216.43,67.5 218.36,67.57 219.3,67.56 220.21,67.5 220.99,67.57 223.14,67.61 224.13,67.52 224.94,67.5 226.86,67.59 229.69,67.48 231.57,67.58 232.52,67.55 233.54,67.6 234.53,67.5 237.29,67.61 240.06,67.51 240.75,67.53 241.01,67.54 241.01,67.54 241.09,67.54 241.98,67.5 242.89,67.57 244.85,67.55 245.87,67.59 246.74,67.51 247.6,67.6 248.65,67.6 249.69,67.6 251.22,67.56 251.42,67.55 251.42,67.55 252.4,67.52 253.44,67.62 254.45,67.49 255.31,67.52 256.18,67.52 258.24,67.62 259.23,67.48 262.9,67.61 263.85,67.56 264.86,67.62 265.8,67.5 266.63,67.55 267.59,67.55 268.59,67.6 271.35,67.49 271.72,67.52 271.81,67.53 272.36,67.58 273.38,67.5 275.06,67.59 276.16,67.6 277.21,67.5 278.09,67.5 278.94,67.49 279.9,67.57 280.91,67.54 281.86,67.56 282.06,67.56 282.06,67.56 282.31,67.56 282.31,67.56 282.74,67.55 283.79,67.61 284.74,67.51 285.62,67.55 286.52,67.52 287.57,67.62 288.58,67.48 289.45,67.5 290.34,67.49 295.16,67.58 296.03,67.49 296.87,67.6 301.69,67.51 302.62,67.54 302.66,67.54 302.67,67.54 302.69,67.54 302.87,67.53 302.97,67.53 302.97,67.53 303.59,67.51 304.62,67.53 305.58,67.47 307.3,67.48 308.29,67.61 310.21,67.49 311.12,67.61 312.18,67.58 312.93,67.59 312.93,67.59 313.16,67.6 313.16,67.6 313.17,67.6 314.98,67.51 317.01,67.59 317.95,67.48 319.58,67.58 322.62,67.6 323.39,67.55 323.39,67.56 323.55,67.55 324.51,67.62 325.53,67.55 327.35,67.56 328.32,67.51 329.22,67.55 330.16,67.54 331.21,67.6 332.1,67.5 333.07,67.61 333.83,67.52 333.83,67.52 334.07,67.49 334.93,67.54 335.88,67.5 336.82,67.56 338.66,67.52 339.61,67.61 341.58,67.57 342.59,67.6 343.48,67.52 343.72,67.54 343.97,67.57 344.4,67.6 346.3,67.51 347.23,67.57 350.02,67.48 351.01,67.6 353.81,67.49 353.97,67.51 353.97,67.51 354.22,67.54 354.79,67.61 356.74,67.51 357.65,67.59 358.64,67.56 359.57,67.61 361.52,67.58 362.43,67.51 363.32,67.61 364.4,67.58 364.68,67.56 364.68,67.56 364.93,67.54 364.93,67.54 365.33,67.5 367.27,67.6 368.22,67.5 369.12,67.53 370.09,67.49 371.96,67.51 372.82,67.51 373.78,67.6 374.77,67.58 374.86,67.58 375.03,67.59 375.03,67.59 375.77,67.6 377.64,67.5 378.41,67.57 379.55,67.58 380.48,67.5 381.43,67.61 382.44,67.52 383.29,67.56 385.18,67.52 385.18,67.54 385.46,67.53 385.46,67.51 386.16,67.49 386.98,67.56 390.06,67.61 391.02,67.53 391.96,67.54 392.76,67.51 393.71,67.61 398.42,67.48 399.44,67.61 400.46,67.53 401.38,67.57 403.25,67.5 405.86,67.57 405.91,67.57 405.91,67.57 407.08,67.6 408.92,67.51 409.81,67.58 410.85,67.57 411.79,67.51 412.74,67.57 413.75,67.49 414.49,67.48 415.53,67.62 416.26,67.54 416.51,67.52 416.54,67.51 418.39,67.61 421.2,67.53 422.18,67.58 423.11,67.54 424.09,67.6 425.02,67.52 425.91,67.6 429.73,67.51 432.62,67.6 434.51,67.53 435.55,67.53 436.38,67.5 436.52,67.51 436.52,67.51 436.53,67.51 436.77,67.53 436.77,67.53 437.3,67.58 439.27,67.61 440.28,67.51 441.17,67.56 442.1,67.51 443.06,67.59 444.1,67.51 444.96,67.51 445.82,67.51 446.87,67.61 447.31,67.56 447.43,67.55 447.91,67.5 448.65,67.5 449.66,67.6 450.67,67.55 451.63,67.58 454.47,67.47 457.23,67.6 457.32,67.6 457.32,67.6 457.57,67.59 457.57,67.59 458.18,67.58 459.2,67.61 461.16,67.49 461.94,67.48 463.94,67.58 464.84,67.54 465.77,67.61 467.66,67.56 467.66,67.57 467.92,67.56 467.92,67.56 468.66,67.54 469.69,67.58 470.54,67.49 471.41,67.6 472.43,67.59 473.52,67.61 474.42,67.51 475.28,67.57 478,67.48 478,67.49 478.17,67.48 482.03,67.59 482.93,67.54 483.93,67.59 484.86,67.5 485.79,67.56 486.79,67.48 488.62,67.56 489.53,67.51 490.43,67.61 492.43,67.56 493.38,67.56 494.28,67.52 495.27,67.62 496.25,67.53 497.13,67.6 498.6,67.56 498.6,67.57 498.85,67.56 498.85,67.55 500.03,67.52 502.97,67.61 503.9,67.52 504.76,67.57 506.74,67.52 507.69,67.53 508.54,67.51 508.68,67.53 508.68,67.53 508.93,67.55 509.57,67.6 510.49,67.51 511.41,67.62 514.27,67.48 515.14,67.54 516.28,67.55 518.14,67.48 519.05,67.52 519.41,67.52 519.42,67.52 519.97,67.51 520.97,67.59 521.98,67.53 523.9,67.62 524.94,67.5 526.66,67.47 527.69,67.5 528.6,67.48 531.48,67.57 533.32,67.55 534.39,67.62 535.27,67.5 536.16,67.62 539,67.49 539.56,67.55 539.56,67.55 539.81,67.57 539.81,67.57 539.82,67.57 540.96,67.58 541.92,67.5 542.85,67.59 543.86,67.51 545.72,67.61 549.51,67.49 550.08,67.54 550.14,67.55 550.44,67.58 551.46,67.54 553.33,67.61 554.34,67.6 555.29,67.5 556.23,67.58 557.27,67.48 560.06,67.54 560.49,67.52 560.49,67.52 560.74,67.5 560.74,67.5 561.06,67.48 561.89,67.48 562.77,67.51 563.89,67.62 564.94,67.5 565.68,67.5 567.65,67.61 569.55,67.57 570.61,67.6 570.86,67.58 570.86,67.58 571.11,67.56 571.53,67.52 572.44,67.58 574.4,67.5 576.36,67.56 577.2,67.48 578.12,67.61 580.12,67.49 580.78,67.56 580.78,67.56 580.87,67.57 580.9,67.57 580.9,67.57 580.9,67.57 580.91,67.57 581.11,65.58 581.32,63.59 581.32,63.59 580.16,63.47 "
       id="polygon13" />
    <polygon
       points="14.3,8.02 14.3,8.02 15.16,7.97 17.98,8.03 18.86,7.99 19.82,8.07 20.81,8.01 21.71,8.05 24.46,7.96 24.47,7.96 24.52,7.96 25.5,8.07 26.56,7.97 27.31,7.97 28.38,8.08 29.34,7.96 30.17,8.03 31.15,8.01 34.05,8.08 34.77,8.04 34.77,8.04 35.01,8.03 36.96,8.07 37.93,7.95 38.64,7.95 39.61,8.04 41.52,8 42.51,8.09 45.33,7.95 47.28,8.05 48.17,7.96 49.02,8.05 50.08,8.05 51.09,7.98 52.9,7.97 53.88,7.97 54.74,7.95 55.14,7.97 55.14,7.98 55.4,8 55.4,7.98 57.67,8.08 58.69,7.99 60.37,7.95 61.36,8.03 62.33,7.99 63.23,8.03 64.13,8.03 65.58,8.06 65.58,8.08 65.84,8.08 65.84,8.07 66.1,8.08 67.14,8 67.93,7.99 68.95,8.07 70.73,7.96 71.7,8.07 72.76,8.02 73.64,8.02 75.49,7.95 75.77,7.97 75.77,7.97 76.02,7.98 76.48,8.02 77.36,7.96 78.1,8.06 79.39,8.08 82.16,8.02 83.12,7.95 84.98,8.03 85.86,7.98 85.98,7.99 85.98,7.99 86.88,8.1 87.93,7.95 90.67,8.04 91.57,7.96 93.47,8.07 94.42,8.07 95.38,8 96.27,8.04 96.74,8.03 96.79,8.03 100.02,7.97 102.91,8.08 103.89,8.02 104.86,8.03 105.72,7.96 106.49,8.03 106.77,8.04 106.77,8.04 107.02,8.05 107.02,8.04 107.68,8.06 108.61,7.98 110.48,8.06 111.42,7.99 113.3,8.08 115.22,7.96 117.1,8 117.26,7.99 117.44,7.98 117.93,7.95 118.89,8.09 119.96,8 120.86,8.02 121.75,7.99 123.75,8.09 124.73,7.99 126.49,7.96 127.37,8.02 127.46,8.02 127.47,8.02 127.47,8.02 127.79,8 127.83,8 128.46,7.95 129.22,7.97 130.22,8.09 133.06,7.98 133.98,8.08 135.04,8.08 135.99,8.02 136.9,8.07 137.8,8.04 137.8,8.05 137.86,8.04 137.98,8.04 139.79,8.07 140.78,8.04 141.62,7.97 142.61,8.09 143.56,7.97 144.51,8.09 145.49,7.97 146.39,8.05 147.37,7.97 147.9,8.01 147.9,8.01 148.08,8.02 148.28,8.03 149.27,7.99 150.23,8.01 151.1,8 153.16,8.08 154.05,7.97 155.93,8.04 156.81,7.99 157.73,8.07 158.38,8.05 158.38,8.06 158.64,8.05 158.64,8.05 161.5,7.97 162.54,8.06 163.58,7.95 164.3,7.96 165.34,8.08 166.42,7.99 167.21,7.98 168.25,8.01 168.77,7.98 168.83,7.98 169.14,7.96 170.05,8.04 173.85,7.95 174.79,8.01 175.76,7.99 176.72,8.04 179.49,7.99 180.52,8.09 181.54,7.99 183.39,8.01 185.17,7.96 185.94,8.06 187.19,8.08 189.03,7.95 189.12,7.96 189.12,7.96 189.37,7.98 189.37,7.97 190.91,8.05 192.78,8.01 194.74,8.08 195.67,8.03 196.68,8.06 197.63,7.95 199.42,8.05 199.71,8.03 199.71,8.04 199.96,8.02 199.96,8.02 200.34,7.99 201.25,8.09 203.2,8 204.19,8.07 205.11,7.98 205.85,8.05 207.09,8.07 208,7.98 209.81,8.05 209.93,8.05 209.93,8.05 210.18,8.04 210.76,8.03 211.69,8.07 212.7,8.05 213.64,7.96 214.53,8.03 216.43,7.97 218.36,8.04 219.3,8.03 220.21,7.97 220.25,7.97 220.25,7.97 223.14,8.09 224.13,7.99 224.94,7.98 226.86,8.06 229.69,7.95 231.57,8.05 232.51,8.02 233.54,8.08 234.53,7.97 237.29,8.08 240.06,7.98 240.75,8 240.75,8 241.01,8.01 241.01,8.01 241.09,8.01 241.98,7.97 242.89,8.05 244.85,8.02 245.87,8.06 246.74,7.98 247.6,8.07 248.65,8.07 249.69,8.07 251.17,8.03 251.17,8.03 251.42,8.02 251.42,8.02 252.4,7.99 253.44,8.09 254.45,7.97 255.31,8 256.18,7.99 258.24,8.09 259.23,7.95 262.9,8.09 263.85,8.03 264.86,8.09 265.8,7.97 266.63,8.02 267.59,8.02 268.59,8.07 271.35,7.96 271.57,7.98 271.57,7.98 271.78,8 271.82,8 271.82,8 272.36,8.05 273.37,7.98 275.05,8.06 276.16,8.07 277.21,7.97 278.09,7.98 278.94,7.96 279.9,8.04 280.91,8.01 281.86,8.03 282.06,8.03 282.06,8.03 282.31,8.03 282.31,8.03 282.74,8.03 283.79,8.08 284.74,7.98 285.62,8.03 286.53,7.99 287.57,8.09 288.58,7.95 289.45,7.98 290.34,7.96 295.16,8.06 296.03,7.97 296.87,8.07 301.69,7.98 302.63,8.01 302.66,8.01 302.67,8.01 302.69,8.01 302.86,8.01 302.96,8 302.96,8 303.59,7.98 304.62,8.01 305.58,7.95 307.3,7.96 308.29,8.08 310.21,7.97 311.12,8.09 312.18,8.05 312.93,8.06 312.93,8.06 313.16,8.07 313.16,8.07 313.17,8.07 314.98,7.98 317.01,8.06 317.95,7.95 319.68,8.07 320.69,8.06 322.61,8.07 323.39,8.03 323.39,8.03 323.55,8.02 324.51,8.09 325.53,8.02 327.35,8.03 328.32,7.98 329.22,8.02 330.16,8.02 331.21,8.07 332.1,7.98 333.07,8.08 333.95,7.98 334.07,7.96 334.93,8.01 335.88,7.98 336.82,8.03 338.66,7.99 339.61,8.08 341.58,8.04 342.59,8.07 343.49,8 343.72,8.02 343.72,8.02 343.97,8.04 343.97,8.04 344.4,8.07 346.3,7.98 347.23,8.04 350.02,7.95 351.01,8.08 352.09,8.01 353.81,7.97 353.97,7.99 353.97,7.99 354.22,8.02 354.22,8.02 354.79,8.08 356.74,7.98 357.65,8.06 358.64,8.03 359.57,8.08 361.52,8.06 362.43,7.98 363.32,8.08 364.4,8.05 364.68,8.03 364.68,8.03 364.93,8.01 364.93,8.01 365.33,7.97 367.27,8.07 368.22,7.97 369.11,8 370.09,7.96 371.96,7.98 372.82,7.98 373.78,8.07 374.77,8.05 374.8,8.05 375.03,8.06 375.03,8.06 375.82,8.07 377.64,7.97 378.41,8.04 379.55,8.05 380.48,7.97 381.43,8.08 382.44,7.99 384.36,8.04 385.18,8 385.18,8.01 385.46,8 385.46,7.99 386.16,7.97 386.98,8.03 390.06,8.08 391.01,8 391.96,8.01 392.76,7.98 393.71,8.09 398.42,7.95 399.44,8.08 400.46,8 401.38,8.04 403.24,7.98 405.85,8.04 405.91,8.05 405.91,8.04 407.08,8.07 408.92,7.98 409.81,8.06 410.85,8.05 411.79,7.98 412.74,8.04 413.75,7.97 414.49,7.96 415.53,8.09 416.47,7.99 416.5,7.99 416.54,7.99 418.39,8.08 421.2,8 422.18,8.06 423.11,8.01 424.09,8.08 425.02,8 425.91,8.07 429.74,7.98 432.62,8.07 434.51,8 435.55,8.01 436.38,7.98 436.52,7.99 436.52,7.99 436.53,7.99 436.77,8.01 436.77,8.01 437.3,8.05 439.27,8.09 440.28,7.98 441.17,8.04 442.1,7.98 443.06,8.06 444.1,7.99 444.96,7.98 445.82,7.98 446.87,8.08 447.18,8.05 447.43,8.02 447.43,8.02 447.91,7.97 448.65,7.98 449.66,8.07 450.67,8.02 451.63,8.05 454.47,7.95 457.23,8.07 457.5,8.07 457.57,8.07 458.18,8.06 459.19,8.08 461.16,7.96 461.94,7.96 463.94,8.06 464.84,8.02 465.77,8.08 467.66,8.03 467.66,8.04 467.91,8.03 467.91,8.03 468.66,8.01 469.69,8.05 470.54,7.96 471.41,8.07 472.44,8.06 473.52,8.08 474.42,7.98 475.28,8.04 478.01,7.96 478.01,7.96 478.17,7.95 482.03,8.06 482.93,8.01 483.93,8.06 484.86,7.97 485.79,8.03 486.79,7.95 488.63,8.04 489.53,7.98 490.43,8.08 494.28,7.99 495.27,8.09 496.25,8.01 497.13,8.07 498.6,8.03 498.6,8.04 498.85,8.03 498.85,8.03 500.03,8 502.97,8.09 503.9,7.99 504.76,8.04 506.74,7.99 507.69,8 508.54,7.99 508.68,8 508.68,8 508.93,8.02 508.93,8.02 509.57,8.07 510.49,7.98 511.41,8.09 514.27,7.95 515.14,8.01 516.28,8.02 518.14,7.95 519.05,7.99 519.31,7.99 519.42,7.99 519.42,7.99 519.97,7.98 520.97,8.06 521.98,8 523.9,8.09 524.94,7.97 526.66,7.94 527.68,7.97 528.6,7.96 531.48,8.04 533.32,8.02 534.39,8.1 535.27,7.97 536.16,8.1 539,7.96 539.56,8.02 539.56,8.02 539.81,8.04 539.81,8.04 539.82,8.04 540.96,8.06 541.92,7.97 542.85,8.06 543.86,7.98 545.72,8.08 549.51,7.97 550.08,8.02 550.14,8.02 550.44,8.05 551.46,8.01 553.33,8.08 554.34,8.07 555.3,7.97 556.23,8.05 557.27,7.95 560.06,8.02 560.5,7.99 560.65,7.98 561.06,7.95 561.89,7.95 562.77,7.98 563.89,8.1 564.94,7.97 565.68,7.97 567.65,8.09 569.55,8.04 570.61,8.07 571.53,7.99 572.44,8.05 574.41,7.98 576.36,8.03 577.2,7.96 578.12,8.09 580.12,7.96 580.78,8.03 580.78,8.03 580.84,8.04 580.89,8.04 580.89,8.04 580.89,8.04 580.89,8.04 580.91,8.04 581.11,6.06 581.32,4.07 581.32,4.07 580.16,3.94 578.31,4.07 577.31,3.93 576.24,4.02 574.36,3.97 572.5,4.05 571.49,3.98 570.77,4.04 570.77,4.04 570.52,4.06 570.52,4.06 570.5,4.07 569.57,4.04 567.73,4.08 566.83,4.02 564.83,3.97 563.85,4.07 563.11,4 561,3.95 560.5,3.98 560.5,3.98 560.25,4 560.03,4.01 557.19,3.95 556.22,4.04 555.25,3.95 554.19,4.07 553.39,4.08 551.44,4.01 550.55,4.04 550.5,4.04 550.25,4.02 550.25,4.02 549.58,3.96 545.75,4.08 543.81,3.98 542.9,4.05 541.92,3.95 540.87,4.06 540.12,4.05 539.99,4.04 539.96,4.04 539.13,3.96 537.14,4 536.28,4.07 535.27,3.93 534.25,4.07 533.43,4.01 531.52,4.04 529.82,3.99 529.82,3.98 529.48,3.97 529.48,3.98 528.6,3.96 527.71,3.97 526.7,3.94 524.75,3.98 523.79,4.08 521.91,4 521.01,4.06 520.11,3.98 519.13,3.99 518.13,3.94 516.24,4.02 515.35,4.02 514.38,3.95 511.52,4.08 510.54,3.96 509.55,4.06 508.67,3.98 507.68,4 506.73,3.99 504.85,4.04 503.81,3.98 502.84,4.08 500,4 497.25,4.07 496.23,3.99 495.3,4.07 494.39,3.98 490.63,4.08 489.63,3.97 488.63,4.03 488.6,4.03 488.6,4.03 488.35,4.01 488.35,4.02 486.67,3.95 485.77,4.02 484.8,3.96 483.84,4.05 482.93,4 481.94,4.06 478.2,3.95 475.38,4.04 474.34,3.97 473.34,4.08 472.45,4.06 471.64,4.07 470.6,3.93 469.55,4.04 468.68,4.01 465.87,4.08 464.89,4.01 463.9,4.05 462.09,3.96 459.15,4.08 458.2,4.06 457.52,4.07 457.31,4.07 454.4,3.94 453.49,3.99 452.55,3.99 451.57,4.05 450.63,4.02 449.75,4.06 448.95,3.98 447.82,3.97 447.03,4.04 447.03,4.04 446.85,4.06 446.09,3.99 444.95,3.98 444,3.99 443.08,4.05 442.14,3.97 441.18,4.03 440.17,3.96 439.15,4.09 438.4,4.09 436.47,3.97 435.49,4.01 434.51,4 433.56,4.01 432.62,4.06 429.73,3.98 426.56,4.06 426.56,4.05 426.3,4.06 426.3,4.06 426.03,4.07 425.02,3.98 424.06,4.06 423.14,4 422.18,4.05 421.27,4 418.4,4.08 416.47,3.97 416.1,4.01 415.85,4.04 415.85,4.04 415.58,4.06 414.73,3.96 413.65,3.97 412.71,4.03 411.77,3.98 410.75,4.05 409.96,4.05 408.97,3.97 407.03,4.07 406.04,4.05 405.83,4.04 405.83,4.04 403.23,3.98 401.38,4.04 400.4,3.99 399.53,4.06 398.64,3.95 395.64,4.03 395.64,4.03 395.39,4.03 395.39,4.04 393.86,4.08 392.91,3.97 391.91,4.01 390.86,4 389.92,4.08 387.23,4.04 386.23,3.96 384.3,4.04 382.36,3.98 381.48,4.06 380.52,3.95 379.45,4.05 378.7,4.05 377.67,3.95 375.79,4.07 375.11,4.06 375.11,4.06 374.86,4.05 374.86,4.05 374.77,4.05 373.93,4.07 373,3.98 371.98,3.98 370.02,3.96 369.1,4 368.09,3.96 367.14,4.06 365.28,3.96 364.5,4.03 364.34,4.05 364.34,4.05 364.24,4.05 363.49,4.07 362.48,3.96 361.41,4.06 359.64,4.08 358.68,4.02 357.76,4.05 356.78,3.97 354.94,4.07 354.02,3.97 352.9,3.98 351.13,4.06 350.22,3.94 347.33,4.04 346.35,3.98 344.46,4.06 344.32,4.05 344.32,4.05 344.06,4.03 344.06,4.03 343.48,3.98 342.48,4.07 341.59,4.04 339.78,4.08 338.83,3.99 336.87,4.03 335.92,3.97 334.97,4.01 333.94,3.95 333.49,4 333.34,4.02 333.34,4.02 333.04,4.06 332.12,3.96 331.11,4.06 330.25,4.02 329.3,4.02 328.3,3.97 327.31,4.03 325.48,4.02 324.52,4.08 323.58,4.01 323.42,4.02 323.17,4.03 323.17,4.03 322.56,4.07 320.7,4.06 319.85,4.06 319,3.98 317.78,3.95 316.82,4.06 315.05,3.98 313.09,4.07 313.07,4.07 313.07,4.07 313.07,4.07 313.01,4.06 313,4.07 312.15,4.05 311.32,4.08 310.33,3.94 308.45,4.07 307.67,3.97 305.54,3.95 304.54,4 303.58,3.98 302.68,4.01 301.69,3.99 297.12,4.07 296.07,3.94 295.04,4.05 292.62,4 292.62,3.98 292.37,3.98 292.37,4 290.34,3.96 289.48,3.98 288.37,3.95 287.49,4.06 286.63,3.98 285.65,4.02 284.63,3.97 283.68,4.07 282.84,4.03 282.28,4.03 282.09,4.03 281.89,4.03 280.89,4.01 280.01,4.04 279.07,3.96 278.07,3.98 277.01,3.97 276.05,4.07 275.3,4.07 274.43,4 273.27,3.97 272.39,4.04 272.16,4.02 272.16,4.02 271.98,4 271.51,3.96 268.58,4.07 267.69,4.02 266.75,4.02 265.68,3.95 264.73,4.07 263.84,4.02 262.89,4.08 261.81,4.04 261.81,4.02 261.56,4 261.56,4.03 258.98,3.94 258.06,4.08 256.25,3.99 255.38,4 254.27,3.96 253.38,4.07 252.52,3.98 249.62,4.08 248.65,4.07 247.82,4.07 246.78,3.96 245.75,4.05 244.88,4.02 243.04,4.05 242.05,3.97 241.05,4.01 240.9,4.01 240.88,4.01 240.1,3.98 237.27,4.08 235.52,3.99 234.34,3.97 233.43,4.06 232.57,4.02 231.62,4.04 230.86,4 230.86,4 230.6,3.99 230.6,3.99 229.71,3.95 226.86,4.06 224.99,3.97 223.97,4 223.01,4.08 221.28,4.05 220.63,3.99 220.63,3.99 220.32,3.96 220.26,3.96 220.26,3.96 220.25,3.96 220.02,3.97 219.21,4.03 218.41,4.04 216.47,3.97 214.59,4.02 213.58,3.95 212.55,4.06 211.75,4.07 210.8,4.02 209.85,4.05 207.88,3.97 206.91,4.06 206.16,4.06 205.1,3.95 204.13,4.06 203.23,3.99 201.39,4.08 200.42,3.98 199.44,4.04 197.45,3.95 196.51,4.06 195.63,4.03 194.67,4.07 192.85,4 190.93,4.05 189.03,3.94 187.09,4.08 186.33,4.07 185.33,3.95 183.37,4.01 181.39,3.99 180.52,4.07 179.66,3.98 179.18,3.99 179.18,3.99 178.93,4 178.93,4 176.75,4.03 175.82,3.99 174.89,4 173.94,3.95 170.16,4.03 169.19,3.95 168.77,3.97 168.77,3.97 168.66,3.98 168.18,4.01 167.25,3.98 166.3,3.99 165.41,4.06 164.67,3.97 163.48,3.95 162.52,4.04 161.67,3.97 157.85,4.07 156.88,3.99 155.86,4.04 153.94,3.95 152.94,4.07 151.21,4 150.25,4.01 149.23,3.99 148.32,4.03 148.31,4.03 147.34,3.96 146.42,4.04 145.43,3.95 144.51,4.06 143.56,3.94 142.62,4.06 141.71,3.94 139.76,4.07 138.01,4.04 138.01,4.04 137.95,4.04 137.82,4.04 136.95,4.07 135.97,4.02 134.97,4.08 134.2,4.08 133.23,3.97 130.38,4.08 129.59,3.98 128.36,3.95 127.55,4.01 127.45,4.02 126.55,3.96 124.62,3.99 123.61,4.08 121.83,3.98 120.82,4.02 119.84,4 119.01,4.07 118.09,3.94 117.03,4 115.13,3.96 113.27,4.08 111.37,3.98 110.42,4.06 108.51,3.98 107.56,4.06 106.99,4.04 106.88,4.04 106.79,4.04 105.74,3.94 104.71,4.03 103.79,4.02 102.88,4.07 100.06,3.98 98.18,4.02 97.2,4.02 96.73,4.03 96.48,4.03 96.48,4.03 96.32,4.04 95.32,3.99 94.32,4.07 93.53,4.07 92.65,4.04 91.58,3.94 90.59,4.03 87.67,3.95 86.84,4.06 86.68,4.05 86.63,4.04 85.97,3.96 84.96,4.03 83.05,3.95 79.32,4.08 78.51,4.08 77.5,3.94 76.49,4.01 76.28,3.99 76.28,3.99 76.04,3.98 76.03,3.98 76.03,3.98 75.59,3.95 73.6,4.02 72.72,4.02 71.84,4.06 70.91,3.95 69.82,3.98 68.93,4.06 68.06,3.99 67.04,4 66.03,4.08 64.21,4.03 63.33,4.03 62.34,3.98 61.42,4.03 60.53,3.95 58.49,3.99 57.57,4.07 54.84,3.95 53.85,3.97 52.88,3.97 51.01,3.98 49.99,4.05 49.23,4.05 48.19,3.94 47.2,4.04 45.38,3.95 45.14,3.95 44.93,3.96 44.93,3.96 44.32,3.97 42.53,4.07 41.63,3.99 39.77,4.04 38.94,3.96 37.8,3.95 36.75,4.07 34.93,4.03 34.79,4.04 34.79,4.03 34.54,4.05 34.54,4.05 33.99,4.08 31.14,4.01 30.31,4.03 29.26,3.93 28.32,4.06 27.61,3.98 26.46,3.97 25.54,4.05 24.77,3.97 24.77,3.97 24.75,3.96 24.63,3.95 21.76,4.05 20.77,4.01 19.88,4.06 18.94,3.98 17.93,4.03 15.08,3.96 14.17,4.02 14.17,4.02 14.05,4.03 14.05,4.03 14.04,4.03 14.04,4.03 14.19,6.25 14.3,8.02 "
       id="polygon15" />
  </g>
</svg>
