<?xml version="1.0" encoding="UTF-8"?><svg xmlns="http://www.w3.org/2000/svg" viewBox="0 0 252.283 212.598"><defs><style>.cls-1{isolation:isolate;}.cls-2{fill:#00759c;mix-blend-mode:multiply;stroke:#231f20;stroke-miterlimit:10;stroke-width:.25px;}</style></defs><g class="cls-1"><g id="Expansion_Sets"><path class="cls-2" d="m9.431,47.564V9.16h32.52c-1.521.879-2.924,1.977-4.16,3.27h-12.114c-7.155,0-12.976,5.821-12.976,12.976s5.821,12.976,12.976,12.976h12.369c1.174,1.184,2.474,2.19,3.871,3.005h-8.246c-3.669,0-6.726,2.674-7.321,6.176H9.431ZM243.033,12.43v-3.27H51.236c-3.515,0-6.921,1.167-9.7,3.27h201.497Zm-16.918,35.133c-.596-3.502-3.652-6.176-7.321-6.176H51.236c-3.415,0-6.647-1.051-9.357-3.005h201.155v9.182h-16.918Zm-.091,146.6c-.596,3.502-3.652,6.176-7.321,6.176H33.67c-3.669,0-6.726-2.674-7.321-6.176H9.431v9.182h233.512v-9.182h-16.918Z"/></g></g></svg>