<?xml version="1.0" encoding="UTF-8"?>
<!DOCTYPE svg PUBLIC "-//W3C//DTD SVG 1.1//EN" "http://www.w3.org/Graphics/SVG/1.1/DTD/svg11.dtd">
<svg xmlns="http://www.w3.org/2000/svg" version="1.1" width="3698px" height="2570px" style="shape-rendering:geometricPrecision; text-rendering:geometricPrecision; image-rendering:optimizeQuality; fill-rule:evenodd; clip-rule:evenodd" xmlns:xlink="http://www.w3.org/1999/xlink">
<g><path style="opacity:0.93" fill="#070707" d="M 1850.5,2569.5 C 1848.5,2569.5 1846.5,2569.5 1844.5,2569.5C 1759.2,2483.7 1673.7,2398.03 1588,2312.5C 1587.33,2311.83 1587.33,2311.17 1588,2310.5C 1603.68,2294.99 1619.18,2279.32 1634.5,2263.5C 1621.85,2250.35 1609.01,2237.35 1596,2224.5C 1481.7,2255.87 1367.2,2286.53 1252.5,2316.5C 1236.45,2253.68 1219.78,2191.02 1202.5,2128.5C 1137.5,2127.5 1072.5,2127.17 1007.5,2127.5C 1007.83,2062.5 1007.5,1997.5 1006.5,1932.5C 945.26,1915.69 883.926,1899.19 822.5,1883C 820.427,1882.88 819.093,1881.88 818.5,1880C 848.078,1770.19 877.578,1660.36 907,1550.5C 908.484,1546.25 909.151,1541.91 909,1537.5C 885.333,1513.83 861.667,1490.17 838,1466.5C 841.758,1505.48 832.425,1540.81 810,1572.5C 792.781,1592.53 771.614,1606.7 746.5,1615C 736.3,1618.63 725.967,1621.8 715.5,1624.5C 704.826,1614.15 696.493,1602.15 690.5,1588.5C 691.189,1586.65 692.522,1585.48 694.5,1585C 765.086,1564.33 789.253,1518.83 767,1448.5C 725.039,1471.41 697.039,1505.74 683,1551.5C 678.647,1571.31 681.647,1589.98 692,1607.5C 700.043,1619.88 709.876,1630.71 721.5,1640C 739.15,1653.16 757.15,1665.83 775.5,1678C 784.129,1684.24 792.296,1691.07 800,1698.5C 823.344,1722.2 831.011,1750.2 823,1782.5C 811.688,1811.96 790.188,1827.29 758.5,1828.5C 729.933,1827.82 711.766,1813.82 704,1786.5C 701.112,1769.48 706.612,1755.98 720.5,1746C 739.352,1737.91 754.185,1742.41 765,1759.5C 768.136,1769.23 766.636,1778.06 760.5,1786C 759.552,1786.48 758.552,1786.65 757.5,1786.5C 762.716,1776.04 761.049,1766.88 752.5,1759C 741.873,1753.8 732.706,1755.63 725,1764.5C 718.826,1779.31 722.659,1790.81 736.5,1799C 754.055,1807.19 769.555,1804.36 783,1790.5C 790.523,1780.74 793.19,1769.74 791,1757.5C 787.336,1746.15 780.836,1736.65 771.5,1729C 763.34,1723.09 755.007,1717.42 746.5,1712C 718.163,1698.18 691.497,1681.84 666.5,1663C 619.748,1620.85 605.248,1569.35 623,1508.5C 635.243,1466.5 655.41,1429 683.5,1396C 681.983,1394.31 680.316,1392.81 678.5,1391.5C 662.158,1410.03 648.325,1430.36 637,1452.5C 624.338,1457.96 611.172,1461.79 597.5,1464C 568.845,1467.74 540.178,1471.41 511.5,1475C 486.986,1478.28 463.986,1485.95 442.5,1498C 429.372,1508.59 422.038,1522.26 420.5,1539C 422.267,1562.77 434.934,1574.77 458.5,1575C 471.721,1572.15 484.721,1568.48 497.5,1564C 511.028,1561.47 524.362,1562.14 537.5,1566C 557.027,1577.56 563.86,1594.4 558,1616.5C 549.948,1636.78 535.782,1643.28 515.5,1636C 508.998,1630.5 505.665,1623.67 505.5,1615.5C 510.549,1621.05 516.715,1624.72 524,1626.5C 537.443,1623.29 542.443,1614.95 539,1601.5C 537.193,1595.69 533.36,1591.86 527.5,1590C 520.776,1589.23 514.11,1589.56 507.5,1591C 495.244,1595.86 482.911,1600.53 470.5,1605C 442.096,1613.27 417.596,1606.77 397,1585.5C 374.741,1551.27 373.741,1516.27 394,1480.5C 408.932,1457.6 429.432,1441.77 455.5,1433C 466.652,1429.05 477.985,1425.71 489.5,1423C 515.096,1418.48 540.429,1412.81 565.5,1406C 583.07,1400.38 600.07,1393.38 616.5,1385C 627.713,1386.81 639.046,1387.64 650.5,1387.5C 658.211,1387.55 665.878,1387.05 673.5,1386C 671.833,1384.33 670.167,1382.67 668.5,1381C 655.138,1380.81 641.805,1380.14 628.5,1379C 595.848,1370.43 567.015,1354.93 542,1332.5C 541.251,1331.36 541.417,1330.36 542.5,1329.5C 557.701,1319.8 573.034,1310.3 588.5,1301C 586.983,1299.31 585.316,1297.81 583.5,1296.5C 558.408,1313.06 532.408,1328.23 505.5,1342C 465.719,1358.05 427.052,1355.72 389.5,1335C 380.416,1329.8 372.083,1323.63 364.5,1316.5C 375.192,1305.3 387.858,1296.8 402.5,1291C 404.5,1290.33 406.5,1290.33 408.5,1291C 420.776,1296.44 433.609,1299.61 447,1300.5C 466.6,1298.97 484.1,1292.13 499.5,1280C 515.392,1267.78 530.392,1254.45 544.5,1240C 566.63,1221.1 591.63,1207.1 619.5,1198C 634.343,1195.12 649.343,1193.78 664.5,1194C 666.167,1192.33 667.833,1190.67 669.5,1189C 663.772,1187.88 657.939,1187.38 652,1187.5C 640.077,1187.68 628.243,1188.51 616.5,1190C 592.079,1177.3 566.412,1167.97 539.5,1162C 520.167,1158 500.833,1154 481.5,1150C 456.911,1144.26 434.578,1133.93 414.5,1119C 378.854,1084.29 371.02,1044.13 391,998.5C 403.262,978.771 421.095,967.771 444.5,965.5C 451.911,966.194 459.245,967.36 466.5,969C 481.435,974.534 496.435,979.867 511.5,985C 516.833,985.667 522.167,985.667 527.5,985C 537.079,981.067 541.245,973.9 540,963.5C 537.594,952.375 530.761,947.875 519.5,950C 514.273,952.533 509.439,955.699 505,959.5C 504.992,953.198 507.159,947.698 511.5,943C 522.86,934.752 534.527,934.419 546.5,942C 553.611,947.447 557.778,954.613 559,963.5C 562.507,988.958 552.007,1005.12 527.5,1012C 519.167,1012.67 510.833,1012.67 502.5,1012C 492.325,1009.61 482.325,1006.61 472.5,1003C 444.782,993.935 427.615,1003.44 421,1031.5C 420.797,1053.59 430.297,1070.09 449.5,1081C 471.357,1091.51 494.357,1098.17 518.5,1101C 546.893,1104.23 575.226,1107.9 603.5,1112C 614.064,1114.19 624.398,1117.19 634.5,1121C 636.552,1121.93 638.052,1123.43 639,1125.5C 649.282,1145.75 661.782,1164.42 676.5,1181.5C 678.316,1180.19 679.983,1178.69 681.5,1177C 648.33,1136.82 626.83,1090.98 617,1039.5C 611.044,999.983 620.378,964.649 645,933.5C 655.934,921.561 667.767,910.727 680.5,901C 709.167,884 737.833,867 766.5,850C 775.802,843.035 783.302,834.535 789,824.5C 796.149,800.307 788.316,783.141 765.5,773C 752.088,769.474 740.088,772.14 729.5,781C 719.931,791.356 719.265,802.19 727.5,813.5C 734.435,818.746 742.101,819.913 750.5,817C 755.551,814.28 758.718,810.113 760,804.5C 760.122,798.683 759.455,793.017 758,787.5C 765.742,793.682 768.409,801.682 766,811.5C 761.195,825.492 751.362,832.492 736.5,832.5C 718.37,831.212 707.537,821.545 704,803.5C 703.072,772.412 717.905,753.579 748.5,747C 790.51,744.417 816.343,763.584 826,804.5C 828.394,828.982 821.728,850.649 806,869.5C 798.1,878.069 789.6,885.903 780.5,893C 758.886,908.28 737.552,923.947 716.5,940C 708.969,947.197 701.802,954.697 695,962.5C 681.777,981.286 677.777,1001.95 683,1024.5C 689.586,1047.35 700.586,1067.68 716,1085.5C 723.833,1093.33 731.667,1101.17 739.5,1109C 747.762,1115.38 756.595,1120.88 766,1125.5C 766.945,1125.09 767.612,1124.43 768,1123.5C 787.762,1054.52 763.262,1010.02 694.5,990C 692.522,989.519 691.189,988.353 690.5,986.5C 696.493,972.846 704.826,960.846 715.5,950.5C 735.687,955.395 755.021,962.562 773.5,972C 811.424,994.635 832.591,1028.14 837,1072.5C 837.333,1083.83 837.667,1095.17 838,1106.5C 861.667,1082.83 885.333,1059.17 909,1035.5C 879.005,921.189 848.838,806.855 818.5,692.5C 881.234,676.15 943.9,659.483 1006.5,642.5C 1007.5,577.503 1007.83,512.503 1007.5,447.5C 1072.5,447.833 1137.5,447.5 1202.5,446.5C 1219.78,383.984 1236.45,321.317 1252.5,258.5C 1364.56,288.016 1476.56,317.849 1588.5,348C 1591.44,349.124 1594.44,349.458 1597.5,349C 1610.01,336.653 1622.35,324.153 1634.5,311.5C 1619.18,295.681 1603.68,280.014 1588,264.5C 1587.33,263.833 1587.33,263.167 1588,262.5C 1674.35,175.986 1760.85,89.6531 1847.5,3.5C 1934.15,89.6531 2020.65,175.986 2107,262.5C 2107.67,263.167 2107.67,263.833 2107,264.5C 2091.32,280.014 2075.82,295.681 2060.5,311.5C 2072.65,324.153 2084.99,336.653 2097.5,349C 2100.56,349.458 2103.56,349.124 2106.5,348C 2218.44,317.849 2330.44,288.016 2442.5,258.5C 2458.85,321.234 2475.52,383.9 2492.5,446.5C 2557.5,447.5 2622.5,447.833 2687.5,447.5C 2687.17,512.503 2687.5,577.503 2688.5,642.5C 2751.1,659.483 2813.77,676.15 2876.5,692.5C 2846.53,807.199 2815.87,921.699 2784.5,1036C 2809.33,1060.83 2834.17,1085.67 2859,1110.5C 2855.55,1077.32 2861.55,1045.99 2877,1016.5C 2894.27,990.247 2917.77,971.747 2947.5,961C 2958.41,957.195 2969.41,953.695 2980.5,950.5C 2991.62,960.729 3000.28,972.729 3006.5,986.5C 3006.02,987.478 3005.36,988.311 3004.5,989C 2984.59,994.4 2966.59,1003.4 2950.5,1016C 2931.06,1033.22 2921.39,1054.89 2921.5,1081C 2921.7,1096.68 2924.53,1111.84 2930,1126.5C 2965.36,1106.81 2991.36,1078.47 3008,1041.5C 3021.51,1009.73 3017.18,980.733 2995,954.5C 2987.8,946.969 2980.3,939.802 2972.5,933C 2949.89,917.388 2927.55,901.388 2905.5,885C 2883.7,866.737 2871.7,843.404 2869.5,815C 2871.26,786.449 2884.59,765.449 2909.5,752C 2930.89,743.546 2951.56,744.879 2971.5,756C 2992,771.506 2997.84,791.34 2989,815.5C 2980.38,829.558 2967.88,835.058 2951.5,832C 2934.75,826.331 2927.92,814.831 2931,797.5C 2932.2,793.754 2934.37,790.754 2937.5,788.5C 2937.83,789.167 2938.17,789.833 2938.5,790.5C 2933.17,806.514 2938.67,816.18 2955,819.5C 2970.42,817.007 2976.76,808.007 2974,792.5C 2967.76,778.618 2956.93,771.618 2941.5,771.5C 2923.39,772.771 2911.55,782.104 2906,799.5C 2903.18,811.93 2905.51,823.264 2913,833.5C 2919.57,840.739 2926.74,847.239 2934.5,853C 2958,866.919 2981.67,880.586 3005.5,894C 3071.02,935.249 3093.52,993.415 3073,1068.5C 3060.92,1109.01 3041.42,1145.35 3014.5,1177.5C 3015.81,1179.32 3017.31,1180.98 3019,1182.5C 3023.67,1177.17 3028.33,1171.83 3033,1166.5C 3042.6,1151.64 3051.93,1136.64 3061,1121.5C 3071.6,1117.52 3082.44,1114.35 3093.5,1112C 3121.76,1107.75 3150.09,1104.08 3178.5,1101C 3204.62,1097.96 3229.29,1090.29 3252.5,1078C 3257,1073.5 3261.5,1069 3266,1064.5C 3277.03,1048.64 3278.37,1031.97 3270,1014.5C 3263.38,1005.35 3254.38,1000.35 3243,999.5C 3236.72,1000.07 3230.55,1001.24 3224.5,1003C 3214.67,1006.61 3204.67,1009.61 3194.5,1012C 3186.17,1012.67 3177.83,1012.67 3169.5,1012C 3148.41,1006.74 3137.41,993.244 3136.5,971.5C 3136.91,953.944 3145.25,942.11 3161.5,936C 3179.44,933.773 3189.77,941.606 3192.5,959.5C 3188.53,958.051 3185.19,955.551 3182.5,952C 3173.53,947.031 3165.69,948.531 3159,956.5C 3154.39,966.743 3156.23,975.576 3164.5,983C 3170.95,985.431 3177.62,986.098 3184.5,985C 3198.7,980.564 3212.7,975.564 3226.5,970C 3256.53,961.346 3281.7,968.846 3302,992.5C 3322.72,1029.56 3321.38,1065.9 3298,1101.5C 3287.22,1115.94 3273.72,1127.11 3257.5,1135C 3248.39,1139.22 3239.06,1142.89 3229.5,1146C 3197.81,1153.2 3166.15,1160.54 3134.5,1168C 3115.82,1173.67 3097.82,1181.01 3080.5,1190C 3069.29,1188.19 3057.95,1187.36 3046.5,1187.5C 3039.44,1187.41 3032.44,1187.91 3025.5,1189C 3027.17,1190.67 3028.83,1192.33 3030.5,1194C 3052.63,1192.61 3073.97,1195.94 3094.5,1204C 3116.91,1214.19 3137.25,1227.36 3155.5,1243.5C 3155.02,1244.48 3154.36,1245.31 3153.5,1246C 3138.83,1255 3124.17,1264 3109.5,1273C 3111.02,1274.69 3112.68,1276.19 3114.5,1277.5C 3137.85,1262.34 3161.85,1248.17 3186.5,1235C 3239.48,1212 3287.65,1219.5 3331,1257.5C 3331.67,1258.5 3331.67,1259.5 3331,1260.5C 3320.07,1270.72 3307.57,1278.56 3293.5,1284C 3291.5,1284.67 3289.5,1284.67 3287.5,1284C 3266.69,1273.4 3245.36,1272.07 3223.5,1280C 3213.65,1284.53 3204.32,1289.87 3195.5,1296C 3178.17,1311.33 3160.83,1326.67 3143.5,1342C 3123.64,1357.49 3101.64,1369.16 3077.5,1377C 3071.56,1378.39 3065.56,1379.39 3059.5,1380C 3048.5,1380.33 3037.5,1380.67 3026.5,1381C 3024.83,1382.67 3023.17,1384.33 3021.5,1386C 3028.96,1387.02 3036.46,1387.52 3044,1387.5C 3056.25,1387.25 3068.41,1386.42 3080.5,1385C 3097.7,1394.29 3115.7,1401.62 3134.5,1407C 3166.14,1414.46 3197.8,1421.79 3229.5,1429C 3249.73,1435.28 3268.06,1444.95 3284.5,1458C 3315.42,1489.17 3323.92,1525.67 3310,1567.5C 3295.85,1597.16 3272.35,1610.66 3239.5,1608C 3235.13,1607.16 3230.8,1606.16 3226.5,1605C 3212.93,1599.72 3199.27,1594.72 3185.5,1590C 3165.86,1586 3156.36,1593.83 3157,1613.5C 3162.66,1625.72 3171.5,1628.55 3183.5,1622C 3185.7,1619.46 3188.2,1617.29 3191,1615.5C 3191.69,1616.03 3192.19,1616.69 3192.5,1617.5C 3185.16,1638.27 3171.5,1643.77 3151.5,1634C 3144.22,1629.04 3139.72,1622.21 3138,1613.5C 3133.44,1587.09 3143.94,1570.26 3169.5,1563C 3177.83,1562.33 3186.17,1562.33 3194.5,1563C 3208.78,1567.2 3223.11,1571.2 3237.5,1575C 3257.41,1575.96 3269.91,1566.79 3275,1547.5C 3276.37,1518.76 3263.54,1499.26 3236.5,1489C 3219.76,1482.15 3202.43,1477.48 3184.5,1475C 3155.83,1471.33 3127.17,1467.67 3098.5,1464C 3085.62,1461.82 3073.12,1458.32 3061,1453.5C 3053.26,1440.36 3045.26,1427.36 3037,1414.5C 3031.38,1406.55 3025.38,1398.88 3019,1391.5C 3018.28,1390.55 3017.45,1390.38 3016.5,1391C 3015.17,1392.33 3013.83,1393.67 3012.5,1395C 3048.42,1436.69 3070.92,1484.86 3080,1539.5C 3085.25,1587.81 3069.75,1627.97 3033.5,1660C 3022.06,1669.44 3010.06,1678.11 2997.5,1686C 2976.51,1697.16 2955.84,1708.83 2935.5,1721C 2925.98,1728.18 2917.48,1736.35 2910,1745.5C 2900.71,1764.72 2903.88,1781.56 2919.5,1796C 2934.48,1805.95 2949.48,1805.95 2964.5,1796C 2975.15,1786.88 2977.32,1776.05 2971,1763.5C 2964.89,1756.91 2957.39,1754.74 2948.5,1757C 2936.39,1763.49 2933.39,1772.99 2939.5,1785.5C 2939.19,1786.31 2938.69,1786.97 2938,1787.5C 2926.64,1774.89 2926.8,1762.39 2938.5,1750C 2947.33,1742.98 2957.33,1740.64 2968.5,1743C 2983,1748.51 2991.17,1759.01 2993,1774.5C 2992.49,1804.03 2977.65,1821.86 2948.5,1828C 2900.21,1829.88 2873.88,1806.72 2869.5,1758.5C 2870.77,1741.85 2875.94,1726.52 2885,1712.5C 2891.8,1704.7 2898.97,1697.2 2906.5,1690C 2927.48,1673.84 2948.81,1658.18 2970.5,1643C 2981.63,1634.2 2991.8,1624.37 3001,1613.5C 3014.23,1595.13 3018.56,1574.79 3014,1552.5C 3000.8,1509.28 2974.97,1475.78 2936.5,1452C 2934.35,1450.41 2932.02,1449.74 2929.5,1450C 2920.52,1474.11 2919.36,1498.61 2926,1523.5C 2933.41,1543.24 2946.24,1558.41 2964.5,1569C 2978.32,1575.91 2992.32,1582.25 3006.5,1588C 3000.35,1601.81 2991.85,1613.98 2981,1624.5C 2954.01,1618.42 2929.18,1607.59 2906.5,1592C 2879.66,1569.83 2864.16,1541.33 2860,1506.5C 2858.43,1492.51 2858.1,1478.51 2859,1464.5C 2834.67,1488.83 2810.33,1513.17 2786,1537.5C 2785.83,1538.33 2785.67,1539.17 2785.5,1540C 2816.07,1654.12 2846.41,1768.29 2876.5,1882.5C 2813.68,1898.54 2751.01,1915.21 2688.5,1932.5C 2687.5,1997.5 2687.17,2062.5 2687.5,2127.5C 2622.5,2127.17 2557.5,2127.5 2492.5,2128.5C 2475.22,2191.02 2458.55,2253.68 2442.5,2316.5C 2327.8,2286.53 2213.3,2255.87 2099,2224.5C 2085.99,2237.35 2073.15,2250.35 2060.5,2263.5C 2075.82,2279.32 2091.32,2294.99 2107,2310.5C 2107.67,2311.17 2107.67,2311.83 2107,2312.5C 2021.3,2398.03 1935.8,2483.7 1850.5,2569.5 Z M 1846.5,15.5 C 1861.43,28.7596 1875.76,42.7596 1889.5,57.5C 1875.83,71.8333 1861.83,85.8333 1847.5,99.5C 1833.17,85.8333 1819.17,71.8333 1805.5,57.5C 1819.19,43.4793 1832.85,29.4793 1846.5,15.5 Z M 1798.5,63.5 C 1812.47,76.9648 1826.3,90.6314 1840,104.5C 1840.67,105.167 1840.67,105.833 1840,106.5C 1773.67,172.833 1707.33,239.167 1641,305.5C 1627.33,291.833 1613.67,278.167 1600,264.5C 1599.33,263.833 1599.33,263.167 1600,262.5C 1666.37,196.299 1732.53,129.965 1798.5,63.5 Z M 1895.5,63.5 C 1962.13,129.632 2028.63,195.965 2095,262.5C 2095.67,263.167 2095.67,263.833 2095,264.5C 2081.33,278.167 2067.67,291.833 2054,305.5C 1987.67,239.167 1921.33,172.833 1855,106.5C 1854.33,105.833 1854.33,105.167 1855,104.5C 1868.7,90.9652 1882.2,77.2985 1895.5,63.5 Z M 2002.5,265.5 C 1991.68,266.495 1980.68,266.828 1969.5,266.5C 1929.19,225.521 1888.52,184.854 1847.5,144.5C 1806.48,184.854 1765.81,225.521 1725.5,266.5C 1714.32,266.828 1703.32,266.495 1692.5,265.5C 1744.15,214.188 1795.81,162.854 1847.5,111.5C 1899.19,162.854 1950.85,214.188 2002.5,265.5 Z M 1956.5,264.5 C 1956.61,265.117 1956.94,265.617 1957.5,266C 1947.17,266.5 1936.84,266.666 1926.5,266.5C 1900.52,239.854 1874.19,213.521 1847.5,187.5C 1820.81,213.521 1794.48,239.854 1768.5,266.5C 1757.99,266.828 1747.65,266.494 1737.5,265.5C 1774.15,229.188 1810.81,192.854 1847.5,156.5C 1883.85,192.521 1920.19,228.521 1956.5,264.5 Z M 1842.5,203.5 C 1843.49,212.986 1843.83,222.652 1843.5,232.5C 1843.27,234.062 1842.6,235.395 1841.5,236.5C 1824.83,252.5 1808.5,268.833 1792.5,285.5C 1787.83,289.5 1783.5,293.833 1779.5,298.5C 1768.99,298.828 1758.65,298.494 1748.5,297.5C 1780.17,266.5 1811.5,235.167 1842.5,203.5 Z M 1945.5,296.5 C 1945.61,297.117 1945.94,297.617 1946.5,298C 1936.17,298.5 1925.84,298.666 1915.5,298.5C 1894.53,277.035 1873.37,255.701 1852,234.5C 1851.33,224.167 1851.33,213.833 1852,203.5C 1883.03,234.702 1914.2,265.702 1945.5,296.5 Z M 1871.5,265.5 C 1855.5,266.833 1839.5,266.833 1823.5,265.5C 1831.48,257.855 1839.48,250.188 1847.5,242.5C 1855.52,250.188 1863.52,257.855 1871.5,265.5 Z M 1259.5,269.5 C 1369.42,298.228 1479.08,327.728 1588.5,358C 1558.83,387.667 1529.17,417.333 1499.5,447C 1411.5,447.5 1323.5,447.667 1235.5,447.5C 1242.85,418.76 1250.52,390.093 1258.5,361.5C 1259.17,361.167 1259.83,360.833 1260.5,360.5C 1266.37,362.636 1272.37,363.803 1278.5,364C 1281.51,357.128 1283.85,349.962 1285.5,342.5C 1294.12,341.026 1301.45,337.193 1307.5,331C 1314.32,331.537 1320.99,333.037 1327.5,335.5C 1328.5,335 1329.5,334.5 1330.5,334C 1332.86,328.755 1334.69,323.255 1336,317.5C 1336.39,316.572 1337.05,315.905 1338,315.5C 1384.72,328.387 1431.55,340.72 1478.5,352.5C 1478.52,350.94 1478.85,349.44 1479.5,348C 1479.09,347.055 1478.43,346.388 1477.5,346C 1412.83,328.667 1348.17,311.333 1283.5,294C 1279.25,292.516 1274.91,291.849 1270.5,292C 1256.11,343.715 1242.11,395.548 1228.5,447.5C 1222.82,447.666 1217.16,447.499 1211.5,447C 1227.58,387.849 1243.58,328.682 1259.5,269.5 Z M 2431.5,269.5 C 2435.04,269.215 2436.87,270.882 2437,274.5C 2452.27,332.094 2467.77,389.594 2483.5,447C 2476.51,447.5 2469.51,447.666 2462.5,447.5C 2449.2,395.461 2435.2,343.628 2420.5,292C 2416.09,291.849 2411.75,292.516 2407.5,294C 2342.83,311.333 2278.17,328.667 2213.5,346C 2212.57,346.388 2211.91,347.055 2211.5,348C 2212.15,349.44 2212.48,350.94 2212.5,352.5C 2259.45,340.72 2306.28,328.387 2353,315.5C 2353.95,315.905 2354.61,316.572 2355,317.5C 2356.18,322.543 2357.51,327.543 2359,332.5C 2360.24,333.872 2361.74,334.872 2363.5,335.5C 2369.26,333.601 2375.1,331.934 2381,330.5C 2384.86,332.852 2388.69,335.352 2392.5,338C 2396.63,339.949 2400.96,341.116 2405.5,341.5C 2407,347.481 2408.5,353.481 2410,359.5C 2410.27,361.329 2411.11,362.829 2412.5,364C 2418.78,363.725 2424.95,362.559 2431,360.5C 2431.95,360.905 2432.61,361.572 2433,362.5C 2440.66,390.809 2448.16,419.142 2455.5,447.5C 2368.83,447.667 2282.17,447.5 2195.5,447C 2165.83,417.333 2136.17,387.667 2106.5,358C 2214.85,328.33 2323.18,298.83 2431.5,269.5 Z M 2127.5,435.5 C 2128.5,438.167 2129.5,438.167 2130.5,435.5C 2132.76,434.438 2133.92,432.772 2134,430.5C 2090.17,386.667 2046.33,342.833 2002.5,299C 1987.83,298.667 1973.17,298.333 1958.5,298C 1950.83,290.333 1943.17,282.667 1935.5,275C 1960.17,274.333 1984.83,274.333 2009.5,275C 2247.09,510.587 2484.09,746.921 2720.5,984C 2720.17,984.333 2719.83,984.667 2719.5,985C 2766.33,1031.83 2813.17,1078.67 2860,1125.5C 2860.67,1150.17 2860.67,1174.83 2860,1199.5C 2852.67,1192.17 2845.33,1184.83 2838,1177.5C 2837.67,1162.83 2837.33,1148.17 2837,1133.5C 2792.67,1089.17 2748.33,1044.83 2704,1000.5C 2701.98,1002.35 2700.15,1004.35 2698.5,1006.5C 2719.49,1027.99 2740.65,1049.32 2762,1070.5C 2762.33,1085.17 2762.67,1099.83 2763,1114.5C 2774,1125.5 2785,1136.5 2796,1147.5C 2797.57,1182.15 2797.9,1216.81 2797,1251.5C 2785.17,1263.33 2773.33,1275.17 2761.5,1287C 2773.33,1298.83 2785.17,1310.67 2797,1322.5C 2797.74,1357.16 2798.24,1391.83 2798.5,1426.5C 2786.83,1437.5 2775.5,1448.83 2764.5,1460.5C 2764.35,1475.09 2764.18,1489.75 2764,1504.5C 2743.33,1525.17 2722.67,1545.83 2702,1566.5C 2702.2,1568.75 2703.36,1570.58 2705.5,1572C 2706.5,1572.67 2707.5,1572.67 2708.5,1572C 2751.31,1528.19 2794.47,1484.69 2838,1441.5C 2838.33,1426.83 2838.67,1412.17 2839,1397.5C 2846.06,1390.27 2853.23,1383.27 2860.5,1376.5C 2861.17,1397.83 2861.83,1419.17 2862.5,1440.5C 2862.5,1443.17 2862.5,1445.83 2862.5,1448.5C 2587.17,1723.17 2312.17,1998.17 2037.5,2273.5C 2028.17,2282.17 2019.17,2291.17 2010.5,2300.5C 1985.66,2300.83 1960.99,2300.5 1936.5,2299.5C 1943.96,2292.54 1951.3,2285.37 1958.5,2278C 1973.17,2277.67 1987.83,2277.33 2002.5,2277C 2046.33,2233.17 2090.17,2189.33 2134,2145.5C 2133.28,2142.73 2131.61,2140.4 2129,2138.5C 2107.83,2159.67 2086.67,2180.83 2065.5,2202C 2050.83,2202.33 2036.17,2202.67 2021.5,2203C 2010.5,2214 1999.5,2225 1988.5,2236C 1953.17,2236.67 1917.83,2236.67 1882.5,2236C 1870.99,2224.32 1859.32,2212.82 1847.5,2201.5C 1838.15,2210.19 1829.15,2219.19 1820.5,2228.5C 1816.9,2230.43 1813.9,2233.1 1811.5,2236.5C 1776.5,2236.67 1741.5,2236.5 1706.5,2236C 1695.5,2225 1684.5,2214 1673.5,2203C 1658.83,2202.67 1644.17,2202.33 1629.5,2202C 1608.33,2180.83 1587.17,2159.67 1566,2138.5C 1563.39,2140.4 1561.72,2142.73 1561,2145.5C 1604.83,2189.33 1648.67,2233.17 1692.5,2277C 1707.17,2277.33 1721.83,2277.67 1736.5,2278C 1743.7,2285.37 1751.04,2292.54 1758.5,2299.5C 1734.01,2300.5 1709.34,2300.83 1684.5,2300.5C 1400.84,2016.67 1117.34,1732.67 834,1448.5C 833.143,1423.5 832.81,1398.5 833,1373.5C 840.667,1381.17 848.333,1388.83 856,1396.5C 856.333,1411.17 856.667,1425.83 857,1440.5C 900.833,1484.33 944.667,1528.17 988.5,1572C 990.928,1572.75 992.594,1571.91 993.5,1569.5C 996.167,1568.17 996.167,1566.83 993.5,1565.5C 973.202,1544.7 952.702,1524.03 932,1503.5C 931.667,1488.83 931.333,1474.17 931,1459.5C 919.667,1448.17 908.333,1436.83 897,1425.5C 896.333,1391.17 896.333,1356.83 897,1322.5C 908.318,1310.35 919.818,1298.35 931.5,1286.5C 919.848,1274.35 908.014,1262.35 896,1250.5C 895.333,1215.83 895.333,1181.17 896,1146.5C 907,1135.5 918,1124.5 929,1113.5C 929.333,1098.83 929.667,1084.17 930,1069.5C 951.014,1048.65 971.847,1027.65 992.5,1006.5C 990.851,1004.35 989.018,1002.35 987,1000.5C 943.333,1044.17 899.667,1087.83 856,1131.5C 855.667,1146.17 855.333,1160.83 855,1175.5C 847.631,1182.7 840.464,1190.04 833.5,1197.5C 832.833,1193.5 832.167,1189.5 831.5,1185.5C 831.333,1165.83 831.5,1146.16 832,1126.5C 1115.91,841.921 1400.41,558.087 1685.5,275C 1710.17,274.333 1734.83,274.333 1759.5,275C 1751.83,282.667 1744.17,290.333 1736.5,298C 1721.83,298.333 1707.17,298.667 1692.5,299C 1648.67,342.833 1604.83,386.667 1561,430.5C 1561.72,433.265 1563.39,435.599 1566,437.5C 1587.17,416.333 1608.33,395.167 1629.5,374C 1644.17,373.667 1658.83,373.333 1673.5,373C 1684.83,361.667 1696.17,350.333 1707.5,339C 1724.5,338.833 1741.5,338.667 1758.5,338.5C 1776.56,338.353 1794.56,338.853 1812.5,340C 1824.01,351.681 1835.68,363.181 1847.5,374.5C 1859.65,362.848 1871.65,351.014 1883.5,339C 1918.17,338.333 1952.83,338.333 1987.5,339C 1998.83,350.333 2010.17,361.667 2021.5,373C 2036.17,373.333 2050.83,373.667 2065.5,374C 2086.03,394.702 2106.7,415.202 2127.5,435.5 Z M 1814.5,274.5 C 1818.23,274.177 1821.89,274.511 1825.5,275.5C 1820.51,292.45 1815.68,309.45 1811,326.5C 1802.99,318.652 1795.15,310.652 1787.5,302.5C 1796.52,293.146 1805.52,283.813 1814.5,274.5 Z M 1843.5,275.5 C 1843.83,303.338 1843.5,331.005 1842.5,358.5C 1834.37,349.868 1826.04,341.368 1817.5,333C 1823.38,313.974 1828.88,294.807 1834,275.5C 1837.27,274.182 1840.44,274.182 1843.5,275.5 Z M 1851.5,274.5 C 1854.78,274.216 1857.94,274.549 1861,275.5C 1866.41,294.563 1871.91,313.563 1877.5,332.5C 1869.17,341.167 1860.83,349.833 1852.5,358.5C 1851.5,330.672 1851.17,302.672 1851.5,274.5 Z M 1907.5,301.5 C 1900.56,309.78 1893.22,317.78 1885.5,325.5C 1884.07,325.119 1883.24,324.119 1883,322.5C 1878.8,306.74 1874.3,291.073 1869.5,275.5C 1873.12,274.341 1876.79,274.175 1880.5,275C 1889.37,284.036 1898.37,292.869 1907.5,301.5 Z M 1274.5,299.5 C 1282.46,300.407 1290.13,302.407 1297.5,305.5C 1292.08,318.714 1282.75,322.88 1269.5,318C 1271.71,311.996 1273.38,305.829 1274.5,299.5 Z M 2411.5,299.5 C 2413.17,299.5 2414.83,299.5 2416.5,299.5C 2417.62,305.829 2419.29,311.996 2421.5,318C 2408.25,322.88 2398.92,318.714 2393.5,305.5C 2399.59,303.484 2405.59,301.484 2411.5,299.5 Z M 1302.5,306.5 C 1304.85,306.838 1307.19,307.338 1309.5,308C 1309.4,319.803 1303.73,328.136 1292.5,333C 1284.09,336.408 1275.76,336.241 1267.5,332.5C 1266.44,329.884 1266.77,327.384 1268.5,325C 1281.6,328.078 1292.1,324.245 1300,313.5C 1301.14,311.257 1301.97,308.924 1302.5,306.5 Z M 1802.5,329.5 C 1769.5,330.167 1736.5,330.833 1703.5,331.5C 1692.17,342.167 1681.17,353.167 1670.5,364.5C 1659.99,364.828 1649.65,364.494 1639.5,363.5C 1658.63,344.868 1677.63,326.035 1696.5,307C 1724.17,306.333 1751.83,306.333 1779.5,307C 1787.04,314.702 1794.7,322.202 1802.5,329.5 Z M 2055.5,363.5 C 2045.68,364.494 2035.68,364.827 2025.5,364.5C 2014.17,353.5 2002.83,342.5 1991.5,331.5C 1958.5,330.833 1925.5,330.167 1892.5,329.5C 1900.3,322.202 1907.96,314.702 1915.5,307C 1943.17,306.333 1970.83,306.333 1998.5,307C 2017.37,326.035 2036.37,344.868 2055.5,363.5 Z M 2385.5,306.5 C 2386.68,306.281 2387.68,306.614 2388.5,307.5C 2391.48,316.979 2397.81,322.812 2407.5,325C 2412.55,325.492 2417.55,325.492 2422.5,325C 2426.12,329.72 2425.12,332.72 2419.5,334C 2402.48,337.74 2389.98,331.906 2382,316.5C 2380.75,313.923 2380.42,311.257 2381,308.5C 2382.62,307.901 2384.12,307.234 2385.5,306.5 Z M 1317.5,310.5 C 1321.45,311.112 1325.28,312.112 1329,313.5C 1328.5,318.17 1327.67,322.836 1326.5,327.5C 1321.93,326.94 1317.59,325.607 1313.5,323.5C 1315.64,319.4 1316.98,315.067 1317.5,310.5 Z M 2370.5,310.5 C 2371.5,310.5 2372.5,310.5 2373.5,310.5C 2374.02,315.067 2375.36,319.4 2377.5,323.5C 2373.31,325.297 2368.98,326.63 2364.5,327.5C 2363.33,322.836 2362.5,318.17 2362,313.5C 2364.95,312.563 2367.78,311.563 2370.5,310.5 Z M 1264.5,338.5 C 1269.1,340.314 1273.76,341.814 1278.5,343C 1276.81,347.745 1275.31,352.579 1274,357.5C 1269.29,356.365 1264.79,354.699 1260.5,352.5C 1261.84,347.821 1263.17,343.154 1264.5,338.5 Z M 2425.5,338.5 C 2427.53,342.916 2429.2,347.583 2430.5,352.5C 2426.13,354.457 2421.63,356.123 2417,357.5C 2415.73,352.568 2414.23,347.735 2412.5,343C 2417.15,342.13 2421.49,340.63 2425.5,338.5 Z M 1015.5,455.5 C 1077.17,455.333 1138.83,455.5 1200.5,456C 1198.78,461.057 1197.44,466.224 1196.5,471.5C 1141.83,471.333 1087.17,471.5 1032.5,472C 1031.5,526.762 1031.17,581.595 1031.5,636.5C 1026.14,637.132 1020.97,638.465 1016,640.5C 1015.5,578.834 1015.33,517.168 1015.5,455.5 Z M 1209.5,455.5 C 1214.83,455.5 1220.17,455.5 1225.5,455.5C 1224.87,460.862 1223.53,466.029 1221.5,471C 1216.18,471.499 1210.84,471.666 1205.5,471.5C 1206.83,466.167 1208.17,460.834 1209.5,455.5 Z M 1232.5,455.5 C 1318.5,455.333 1404.5,455.5 1490.5,456C 1464.47,482.362 1438.14,508.362 1411.5,534C 1331.78,555.346 1252.12,576.846 1172.5,598.5C 1172.17,598 1171.83,597.5 1171.5,597C 1182.09,557.473 1192.76,517.973 1203.5,478.5C 1209.14,477.337 1214.8,477.17 1220.5,478C 1218.53,483.547 1216.86,489.214 1215.5,495C 1217.23,497.473 1219.39,497.973 1222,496.5C 1223.61,490.236 1225.44,484.07 1227.5,478C 1234.16,477.5 1240.83,477.334 1247.5,477.5C 1247.5,475.5 1247.5,473.5 1247.5,471.5C 1241.16,471.666 1234.82,471.5 1228.5,471C 1230.53,466.029 1231.87,460.862 1232.5,455.5 Z M 2204.5,456.5 C 2289,455.501 2373.67,455.167 2458.5,455.5C 2459.47,462.195 2461.13,468.695 2463.5,475C 2456.84,475.5 2450.17,475.666 2443.5,475.5C 2443.5,477.5 2443.5,479.5 2443.5,481.5C 2450.51,481.334 2457.51,481.5 2464.5,482C 2466.23,486.735 2467.73,491.568 2469,496.5C 2471.61,497.973 2473.77,497.473 2475.5,495C 2474.1,490.575 2473.1,486.075 2472.5,481.5C 2479.62,480.895 2486.45,481.562 2493,483.5C 2503.09,521.355 2513.26,559.188 2523.5,597C 2523.17,597.5 2522.83,598 2522.5,598.5C 2442.59,576.69 2362.59,555.19 2282.5,534C 2256.63,507.965 2230.63,482.132 2204.5,456.5 Z M 2465.5,455.5 C 2472.2,455.17 2478.87,455.503 2485.5,456.5C 2487.38,462.79 2489.04,469.123 2490.5,475.5C 2483.83,475.666 2477.16,475.5 2470.5,475C 2468.33,468.642 2466.66,462.142 2465.5,455.5 Z M 2494.5,456.5 C 2556,455.501 2617.66,455.168 2679.5,455.5C 2679.67,517.168 2679.5,578.834 2679,640.5C 2672.69,638.132 2666.19,636.465 2659.5,635.5C 2659.67,582.499 2659.5,529.499 2659,476.5C 2605.9,475.503 2552.74,475.169 2499.5,475.5C 2498.59,468.859 2496.92,462.526 2494.5,456.5 Z M 1037.5,477.5 C 1045.5,477.5 1053.5,477.5 1061.5,477.5C 1059.72,491.615 1051.72,498.615 1037.5,498.5C 1037.5,491.5 1037.5,484.5 1037.5,477.5 Z M 1066.5,477.5 C 1074.67,475.505 1077.51,478.505 1075,486.5C 1070.2,505.486 1058.04,513.986 1038.5,512C 1037.56,509.281 1037.22,506.448 1037.5,503.5C 1055.39,503.943 1065.05,495.277 1066.5,477.5 Z M 1082.5,477.5 C 1086.5,477.5 1090.5,477.5 1094.5,477.5C 1094.5,482.5 1094.5,487.5 1094.5,492.5C 1090.17,492.5 1085.83,492.5 1081.5,492.5C 1082.16,487.527 1082.5,482.527 1082.5,477.5 Z M 1101.5,477.5 C 1132.51,477.167 1163.51,477.5 1194.5,478.5C 1183.03,519.383 1172.03,560.383 1161.5,601.5C 1120.22,612.113 1079.05,623.113 1038,634.5C 1037.5,603.502 1037.33,572.502 1037.5,541.5C 1043.51,541.666 1049.51,541.499 1055.5,541C 1056.42,540.626 1057.25,540.126 1058,539.5C 1059.27,531.938 1059.93,524.271 1060,516.5C 1067.26,512.741 1073.09,507.408 1077.5,500.5C 1084.86,499.802 1092.19,499.135 1099.5,498.5C 1100.19,497.975 1100.69,497.308 1101,496.5C 1101.5,490.175 1101.67,483.842 1101.5,477.5 Z M 2501.5,482.5 C 2530.66,481.502 2560,481.169 2589.5,481.5C 2589.2,488.226 2589.54,494.892 2590.5,501.5C 2591.03,502.192 2591.69,502.692 2592.5,503C 2599.52,503.169 2606.52,503.669 2613.5,504.5C 2617.91,511.408 2623.74,516.741 2631,520.5C 2631.07,528.271 2631.73,535.938 2633,543.5C 2633.75,544.126 2634.58,544.626 2635.5,545C 2641.49,545.499 2647.49,545.666 2653.5,545.5C 2653.67,574.835 2653.5,604.169 2653,633.5C 2613.28,622.446 2573.45,611.779 2533.5,601.5C 2523.28,561.605 2512.61,521.938 2501.5,482.5 Z M 2596.5,481.5 C 2600.5,481.5 2604.5,481.5 2608.5,481.5C 2608.5,486.527 2608.84,491.527 2609.5,496.5C 2605.17,496.5 2600.83,496.5 2596.5,496.5C 2596.5,491.5 2596.5,486.5 2596.5,481.5 Z M 2616.5,481.5 C 2619.17,481.5 2621.83,481.5 2624.5,481.5C 2625.95,499.277 2635.61,507.943 2653.5,507.5C 2653.78,510.448 2653.44,513.281 2652.5,516C 2631.19,517.528 2618.85,507.695 2615.5,486.5C 2615.59,484.742 2615.92,483.076 2616.5,481.5 Z M 2629.5,481.5 C 2637.5,481.5 2645.5,481.5 2653.5,481.5C 2653.5,488.5 2653.5,495.5 2653.5,502.5C 2639.31,502.647 2631.31,495.647 2629.5,481.5 Z M 1050.5,518.5 C 1052.45,523.396 1053.11,528.729 1052.5,534.5C 1047.5,534.5 1042.5,534.5 1037.5,534.5C 1037.5,529.5 1037.5,524.5 1037.5,519.5C 1042.03,519.818 1046.37,519.485 1050.5,518.5 Z M 2638.5,522.5 C 2643.37,523.755 2648.2,523.755 2653,522.5C 2653.5,527.823 2653.67,533.156 2653.5,538.5C 2648.5,538.5 2643.5,538.5 2638.5,538.5C 2638.5,533.167 2638.5,527.833 2638.5,522.5 Z M 1398.5,547.5 C 1301.83,644.833 1204.83,741.833 1107.5,838.5C 1127.36,762.056 1147.69,685.723 1168.5,609.5C 1244.87,587.907 1321.53,567.24 1398.5,547.5 Z M 2296.5,547.5 C 2372.94,567.361 2449.28,587.695 2525.5,608.5C 2547.09,684.868 2567.76,761.535 2587.5,838.5C 2490.17,741.833 2393.17,644.833 2296.5,547.5 Z M 1155.5,611.5 C 1156.68,611.281 1157.68,611.614 1158.5,612.5C 1136.7,692.409 1115.2,772.409 1094,852.5C 1068,878.5 1042,904.5 1016,930.5C 1015.17,844.498 1015.33,758.498 1016.5,672.5C 1021.47,671.008 1026.47,669.674 1031.5,668.5C 1031.5,673.5 1031.5,678.5 1031.5,683.5C 1033.5,683.5 1035.5,683.5 1037.5,683.5C 1037.17,677.794 1037.5,672.128 1038.5,666.5C 1045.41,664.942 1052.08,662.776 1058.5,660C 1057.89,658.053 1057.06,656.219 1056,654.5C 1049.91,656.398 1043.74,658.065 1037.5,659.5C 1036.91,653.697 1037.58,648.197 1039.5,643C 1078.37,632.785 1117.04,622.285 1155.5,611.5 Z M 2536.5,611.5 C 2574.86,621.506 2613.19,631.673 2651.5,642C 2653.44,648.885 2654.11,656.052 2653.5,663.5C 2647.26,662.065 2641.09,660.398 2635,658.5C 2633.94,660.219 2633.11,662.053 2632.5,664C 2638.92,666.776 2645.59,668.942 2652.5,670.5C 2653.5,676.128 2653.83,681.794 2653.5,687.5C 2655.5,687.5 2657.5,687.5 2659.5,687.5C 2659.5,682.5 2659.5,677.5 2659.5,672.5C 2665.88,673.958 2672.21,675.625 2678.5,677.5C 2679.67,761.831 2679.83,846.165 2679,930.5C 2653,904.5 2627,878.5 2601,852.5C 2579.65,772.105 2558.15,691.771 2536.5,611.5 Z M 2659.5,644.5 C 2665.95,645.696 2672.28,647.362 2678.5,649.5C 2679.5,656.468 2679.83,663.468 2679.5,670.5C 2673.14,668.992 2666.8,667.326 2660.5,665.5C 2659.5,658.532 2659.17,651.532 2659.5,644.5 Z M 1028.5,645.5 C 1029.5,645.5 1030.5,645.5 1031.5,645.5C 1031.5,650.833 1031.5,656.167 1031.5,661.5C 1026.47,662.674 1021.47,664.008 1016.5,665.5C 1015.17,660.167 1015.17,654.833 1016.5,649.5C 1020.67,648.332 1024.67,646.998 1028.5,645.5 Z M 1006.5,651.5 C 1007.82,656.901 1007.82,662.401 1006.5,668C 954.21,682.156 901.877,696.156 849.5,710C 848.833,711 848.167,712 847.5,713C 865.773,780.927 884.273,848.761 903,916.5C 904.399,915.773 905.899,915.273 907.5,915C 908.022,914.439 908.355,913.772 908.5,913C 896.316,867.595 883.983,822.261 871.5,777C 878.303,775.513 884.803,773.347 891,770.5C 889.668,762.505 888.335,754.505 887,746.5C 893.458,741.026 897.958,734.193 900.5,726C 907.314,724.133 913.98,721.967 920.5,719.5C 921.022,718.393 921.355,717.226 921.5,716C 919.769,710.245 918.436,704.412 917.5,698.5C 947.451,690.887 977.285,682.887 1007,674.5C 1007.67,762.833 1007.67,851.167 1007,939.5C 976.415,968.083 946.415,997.417 917,1027.5C 887.833,918.667 858.667,809.833 829.5,701C 829.645,700.228 829.978,699.561 830.5,699C 889.371,683.451 948.038,667.618 1006.5,651.5 Z M 2687.5,651.5 C 2746.42,667.481 2805.42,683.314 2864.5,699C 2865.02,699.561 2865.36,700.228 2865.5,701C 2836.53,810.376 2807.03,919.543 2777,1028.5C 2747.33,998.833 2717.67,969.167 2688,939.5C 2687.33,852.833 2687.33,766.167 2688,679.5C 2716.38,687.554 2744.88,695.221 2773.5,702.5C 2772.56,708.412 2771.23,714.245 2769.5,720C 2769.64,721.226 2769.98,722.393 2770.5,723.5C 2777.02,725.951 2783.69,728.117 2790.5,730C 2793.04,738.193 2797.54,745.026 2804,750.5C 2802.67,758.5 2801.33,766.5 2800,774.5C 2806.2,777.347 2812.7,779.513 2819.5,781C 2807.02,826.261 2794.68,871.595 2782.5,917C 2782.64,917.772 2782.98,918.439 2783.5,919C 2785.1,919.273 2786.6,919.773 2788,920.5C 2806.73,852.761 2825.23,784.927 2843.5,717C 2842.83,716 2842.17,715 2841.5,714C 2790.46,700.489 2739.46,686.822 2688.5,673C 2687.52,665.921 2687.19,658.755 2687.5,651.5 Z M 909.5,700.5 C 911.591,705.191 912.924,710.191 913.5,715.5C 909.409,716.085 905.409,717.085 901.5,718.5C 900.789,713.76 899.789,709.093 898.5,704.5C 902.21,703 905.876,701.666 909.5,700.5 Z M 2780.5,704.5 C 2784.4,705.808 2788.4,706.808 2792.5,707.5C 2791.28,712.437 2790.28,717.437 2789.5,722.5C 2785.57,721.184 2781.57,720.184 2777.5,719.5C 2778.34,714.468 2779.34,709.468 2780.5,704.5 Z M 890.5,705.5 C 897.443,727.934 889.443,742.267 866.5,748.5C 865.558,748.392 864.725,748.059 864,747.5C 863.338,745.187 862.838,742.854 862.5,740.5C 879.322,735.874 886.322,724.874 883.5,707.5C 886.067,707.279 888.401,706.612 890.5,705.5 Z M 875.5,709.5 C 876.5,709.5 877.5,709.5 878.5,709.5C 880.391,723.737 874.391,732.403 860.5,735.5C 859.304,729.051 857.638,722.717 855.5,716.5C 862.124,713.85 868.791,711.517 875.5,709.5 Z M 2799.5,709.5 C 2802.07,710.475 2804.73,711.142 2807.5,711.5C 2804.85,723.703 2808.52,733.536 2818.5,741C 2822.08,742.375 2825.42,744.042 2828.5,746C 2827.92,747.811 2827.42,749.645 2827,751.5C 2811.88,751.066 2802.21,743.399 2798,728.5C 2797.08,722.021 2797.58,715.688 2799.5,709.5 Z M 2812.5,713.5 C 2820.44,715.067 2828.11,717.4 2835.5,720.5C 2833.62,726.79 2831.96,733.123 2830.5,739.5C 2816.62,736.442 2810.62,727.776 2812.5,713.5 Z M 878.5,751.5 C 879.586,751.62 880.253,752.287 880.5,753.5C 881.422,757.355 882.422,761.188 883.5,765C 879.42,768.026 874.753,769.526 869.5,769.5C 868.816,765.276 867.816,761.11 866.5,757C 870.458,755.105 874.458,753.272 878.5,751.5 Z M 713.5,789.5 C 717.622,771.493 728.789,760.493 747,756.5C 784.206,752.427 807.54,768.427 817,804.5C 819.585,825.742 814.252,844.742 801,861.5C 780.08,882.193 757.247,900.359 732.5,916C 715.975,927.534 701.142,941.034 688,956.5C 672.567,978.759 668.234,1003.09 675,1029.5C 681.598,1050.37 691.598,1069.37 705,1086.5C 715.5,1098.33 726.667,1109.5 738.5,1120C 721.667,1136.83 704.833,1153.67 688,1170.5C 653.715,1129.58 632.715,1082.58 625,1029.5C 621.917,998.159 629.583,969.826 648,944.5C 662.409,926.748 679.242,911.914 698.5,900C 716.5,890 734.5,880 752.5,870C 768.09,861.415 781.59,850.248 793,836.5C 806.251,811.479 802.417,789.646 781.5,771C 763.51,759.71 745.51,759.71 727.5,771C 721.02,775.956 716.353,782.123 713.5,789.5 Z M 2810.5,755.5 C 2814.33,757.164 2818.33,758.331 2822.5,759C 2823.43,759.388 2824.09,760.055 2824.5,761C 2823.26,765.123 2822.26,769.29 2821.5,773.5C 2816.99,773.29 2812.66,772.29 2808.5,770.5C 2808.17,769.833 2807.83,769.167 2807.5,768.5C 2808.98,764.264 2809.98,759.93 2810.5,755.5 Z M 2983.5,791.5 C 2977.9,775.423 2966.57,765.923 2949.5,763C 2916.76,761.905 2898.76,777.738 2895.5,810.5C 2895.96,818.664 2898.12,826.331 2902,833.5C 2913,848.239 2926.5,860.072 2942.5,869C 2971.5,883.156 2998.83,899.823 3024.5,919C 3064.99,954.474 3079.49,998.641 3068,1051.5C 3057.83,1096.51 3037.66,1136.18 3007.5,1170.5C 2990.5,1154.17 2973.83,1137.5 2957.5,1120.5C 2982.8,1100.04 3002.3,1075.04 3016,1045.5C 3029.57,1014.25 3026.9,984.585 3008,956.5C 3001.57,948.067 2994.4,940.234 2986.5,933C 2962.19,914.511 2937.52,896.511 2912.5,879C 2899.16,868 2889.32,854.5 2883,838.5C 2874.17,811.323 2880,787.823 2900.5,768C 2919.83,754.191 2940.5,751.858 2962.5,761C 2974.36,767.906 2981.36,778.072 2983.5,791.5 Z M 717.5,960.5 C 800.393,980.241 836.893,1032.57 827,1117.5C 815.408,1131.26 802.908,1144.26 789.5,1156.5C 782.014,1149.51 774.681,1142.35 767.5,1135C 771.467,1134.37 774.301,1132.2 776,1128.5C 798.634,1055.26 773.8,1006.76 701.5,983C 706.276,975.065 711.609,967.565 717.5,960.5 Z M 2977.5,960.5 C 2984.11,967.042 2989.78,974.375 2994.5,982.5C 2925.26,1005.64 2900.09,1052.64 2919,1123.5C 2919.98,1128.8 2922.81,1132.63 2927.5,1135C 2920.32,1142.35 2912.99,1149.51 2905.5,1156.5C 2893.51,1145.01 2881.68,1133.35 2870,1121.5C 2857.92,1035.47 2893.75,981.806 2977.5,960.5 Z M 3147.5,961.5 C 3147.62,986.772 3160.28,997.606 3185.5,994C 3199.71,989.598 3213.71,984.598 3227.5,979C 3254.43,970.522 3276.93,977.022 3295,998.5C 3312.49,1029.53 3312.16,1060.53 3294,1091.5C 3279.72,1112.09 3260.55,1126.26 3236.5,1134C 3227.95,1137.07 3219.29,1139.74 3210.5,1142C 3182.23,1147.19 3154.23,1153.52 3126.5,1161C 3109.51,1166.66 3093.01,1173.5 3077,1181.5C 3063.29,1179.07 3049.46,1177.9 3035.5,1178C 3046.83,1162.34 3057.17,1146.01 3066.5,1129C 3077.28,1125.18 3088.28,1122.18 3099.5,1120C 3128.15,1116.2 3156.81,1112.54 3185.5,1109C 3211.4,1105.59 3235.73,1097.59 3258.5,1085C 3266.12,1078.39 3272.62,1070.89 3278,1062.5C 3288.74,1040.24 3286.24,1019.74 3270.5,1001C 3254.71,989.569 3237.71,987.569 3219.5,995C 3207.44,999.972 3194.94,1003.14 3182,1004.5C 3163.25,1005.07 3151.25,996.4 3146,978.5C 3145.06,972.564 3145.56,966.897 3147.5,961.5 Z M 549.5,964.5 C 552.512,989.518 541.178,1002.85 515.5,1004.5C 501.05,1002.89 487.05,999.388 473.5,994C 439.496,984.74 418.996,997.24 412,1031.5C 411.964,1056.27 422.464,1075.1 443.5,1088C 467.153,1099.83 492.153,1107.16 518.5,1110C 544.863,1113.11 571.197,1116.45 597.5,1120C 609.34,1121.58 620.506,1125.08 631,1130.5C 639.984,1147.14 650.15,1162.97 661.5,1178C 647.555,1178.04 633.722,1179.21 620,1181.5C 601.882,1172.24 583.049,1164.74 563.5,1159C 538.009,1152.57 512.342,1146.9 486.5,1142C 463.171,1137 441.837,1127.66 422.5,1114C 391.068,1085.44 381.901,1050.94 395,1010.5C 405.026,988.832 422.026,976.832 446,974.5C 452.581,975.218 459.081,976.385 465.5,978C 479.178,983.003 492.844,988.003 506.5,993C 516.76,995.534 526.76,994.867 536.5,991C 545.302,984.462 549.635,975.629 549.5,964.5 Z M 887.5,1197.5 C 887.829,1212.34 887.496,1227.01 886.5,1241.5C 879.202,1233.7 871.702,1226.04 864,1218.5C 863.333,1190.83 863.333,1163.17 864,1135.5C 883,1116.5 902,1097.5 921,1078.5C 921.667,1088.83 921.667,1099.17 921,1109.5C 910,1120.5 899,1131.5 888,1142.5C 887.5,1160.83 887.333,1179.16 887.5,1197.5 Z M 2829.5,1219.5 C 2823.5,1224.83 2817.83,1230.5 2812.5,1236.5C 2810.2,1238.29 2808.04,1240.29 2806,1242.5C 2805.67,1209.83 2805.33,1177.17 2805,1144.5C 2793.67,1133.17 2782.33,1121.83 2771,1110.5C 2770.33,1100.17 2770.33,1089.83 2771,1079.5C 2790,1098.5 2809,1117.5 2828,1136.5C 2828.65,1164.17 2829.15,1191.83 2829.5,1219.5 Z M 744.5,1125.5 C 757.914,1137.41 770.914,1149.91 783.5,1163C 741.986,1204.35 700.653,1245.85 659.5,1287.5C 699.986,1328.49 740.653,1369.32 781.5,1410C 769.653,1422.01 757.653,1433.85 745.5,1445.5C 691.833,1392.5 638.5,1339.17 585.5,1285.5C 638.521,1232.15 691.521,1178.81 744.5,1125.5 Z M 2948.5,1125.5 C 3002.76,1178.1 3056.43,1231.43 3109.5,1285.5C 3056.5,1339.17 3003.17,1392.5 2949.5,1445.5C 2937.35,1433.85 2925.35,1422.01 2913.5,1410C 2954.35,1369.32 2995.01,1328.49 3035.5,1287.5C 2994.35,1245.85 2953.01,1204.35 2911.5,1163C 2924.04,1150.63 2936.37,1138.13 2948.5,1125.5 Z M 3023.5,1286.5 C 2972.83,1337.5 2922.17,1388.5 2871.5,1439.5C 2870.51,1429.68 2870.17,1419.68 2870.5,1409.5C 2910.63,1368.87 2950.97,1328.37 2991.5,1288C 2951,1247.5 2910.5,1207 2870,1166.5C 2869.33,1155.5 2869.33,1144.5 2870,1133.5C 2921.03,1184.7 2972.2,1235.7 3023.5,1286.5 Z M 822.5,1135.5 C 823.494,1144.99 823.827,1154.65 823.5,1164.5C 782.854,1204.48 742.521,1244.81 702.5,1285.5C 742.854,1326.52 783.521,1367.19 824.5,1407.5C 824.667,1418.17 824.5,1428.84 824,1439.5C 823.617,1438.94 823.117,1438.61 822.5,1438.5C 772.368,1387.87 722.035,1337.37 671.5,1287C 722.035,1236.63 772.368,1186.13 822.5,1135.5 Z M 822.5,1176.5 C 823.494,1186.65 823.828,1196.99 823.5,1207.5C 797.188,1233.15 771.188,1259.15 745.5,1285.5C 771.854,1312.19 798.188,1338.85 824.5,1365.5C 824.666,1375.51 824.5,1385.51 824,1395.5C 823.617,1394.94 823.117,1394.61 822.5,1394.5C 786.521,1358.19 750.521,1321.85 714.5,1285.5C 750.521,1249.15 786.521,1212.81 822.5,1176.5 Z M 2870.5,1178.5 C 2906.17,1214.83 2942.17,1250.83 2978.5,1286.5C 2978.61,1287.12 2978.94,1287.62 2979.5,1288C 2978.29,1289.04 2977.29,1290.21 2976.5,1291.5C 2941.81,1326.86 2906.81,1361.86 2871.5,1396.5C 2870.51,1386.68 2870.17,1376.68 2870.5,1366.5C 2896.3,1340.2 2922.3,1314.03 2948.5,1288C 2921.97,1261.63 2895.63,1235.13 2869.5,1208.5C 2869.17,1198.32 2869.51,1188.32 2870.5,1178.5 Z M 854.5,1187.5 C 855.659,1197.66 855.825,1207.99 855,1218.5C 833.965,1239.37 813.132,1260.37 792.5,1281.5C 781.986,1281.83 771.653,1281.49 761.5,1280.5C 792.833,1249.83 823.833,1218.83 854.5,1187.5 Z M 2838.5,1189.5 C 2868.83,1220.5 2899.5,1251.17 2930.5,1281.5C 2930.61,1282.12 2930.94,1282.62 2931.5,1283C 2921.51,1283.5 2911.51,1283.67 2901.5,1283.5C 2880.5,1261.83 2859.17,1240.5 2837.5,1219.5C 2837.17,1209.32 2837.51,1199.32 2838.5,1189.5 Z M 636.5,1203.5 C 642.509,1203.33 648.509,1203.5 654.5,1204C 627.667,1230.83 600.833,1257.67 574,1284.5C 574.027,1286.42 574.861,1288.08 576.5,1289.5C 553.159,1305.51 528.825,1320.01 503.5,1333C 458.159,1352.15 416.159,1346.49 377.5,1316C 386.443,1309.61 395.943,1304.11 406,1299.5C 429.398,1310.84 453.231,1312.01 477.5,1303C 487.348,1298.47 496.682,1293.13 505.5,1287C 521.131,1273.7 536.464,1260.04 551.5,1246C 568.694,1231.56 587.694,1219.89 608.5,1211C 617.716,1207.53 627.049,1205.03 636.5,1203.5 Z M 3040.5,1204.5 C 3055.81,1202.45 3070.81,1204.29 3085.5,1210C 3105.78,1218.47 3124.45,1229.47 3141.5,1243C 3128.58,1250.71 3115.75,1258.54 3103,1266.5C 3082.3,1245.63 3061.47,1224.97 3040.5,1204.5 Z M 834.5,1263.5 C 832.586,1260.32 831.92,1256.65 832.5,1252.5C 841.479,1243.85 850.479,1235.19 859.5,1226.5C 867.652,1234.15 875.652,1241.99 883.5,1250C 867.178,1254.61 850.844,1259.11 834.5,1263.5 Z M 2832.5,1227.5 C 2842.41,1235.91 2851.91,1244.91 2861,1254.5C 2861.83,1258.21 2861.66,1261.88 2860.5,1265.5C 2843.72,1260.81 2827.05,1255.81 2810.5,1250.5C 2817.85,1242.81 2825.19,1235.15 2832.5,1227.5 Z M 3235.5,1230.5 C 3266.65,1230.16 3294.32,1239.66 3318.5,1259C 3310.06,1265.64 3300.9,1271.14 3291,1275.5C 3269.46,1265.28 3247.29,1263.45 3224.5,1270C 3213.26,1274.62 3202.6,1280.29 3192.5,1287C 3173.87,1302.63 3155.54,1318.63 3137.5,1335C 3116.93,1351.95 3093.59,1363.62 3067.5,1370C 3057.21,1371.47 3046.87,1371.8 3036.5,1371C 3065.72,1342.28 3094.38,1313.12 3122.5,1283.5C 3146.52,1267.48 3171.52,1252.98 3197.5,1240C 3209.84,1234.97 3222.51,1231.8 3235.5,1230.5 Z M 915.5,1281.5 C 903.678,1282.5 891.678,1282.83 879.5,1282.5C 870.167,1282.5 860.833,1282.5 851.5,1282.5C 845.355,1281.51 839.022,1281.18 832.5,1281.5C 832.5,1278.5 832.5,1275.5 832.5,1272.5C 851.787,1267.55 870.953,1262.22 890,1256.5C 898.368,1265.04 906.868,1273.37 915.5,1281.5 Z M 2802.5,1257.5 C 2821.81,1263 2841.15,1268.5 2860.5,1274C 2861.45,1277.06 2861.78,1280.22 2861.5,1283.5C 2833.8,1283.93 2806.14,1283.43 2778.5,1282C 2786.7,1273.96 2794.7,1265.8 2802.5,1257.5 Z M 822.5,1262.5 C 823.221,1275.35 823.888,1288.35 824.5,1301.5C 824.064,1304.18 823.564,1306.85 823,1309.5C 815.167,1301.67 807.333,1293.83 799.5,1286C 807.369,1278.3 815.036,1270.46 822.5,1262.5 Z M 2891.5,1290.5 C 2885.83,1295.5 2880.5,1300.83 2875.5,1306.5C 2873.54,1307.96 2871.7,1309.63 2870,1311.5C 2869.33,1295.5 2869.33,1279.5 2870,1263.5C 2877.67,1271.17 2885.33,1278.83 2893,1286.5C 2893.3,1288.07 2892.8,1289.4 2891.5,1290.5 Z M 762.5,1291.5 C 772.319,1290.51 782.319,1290.17 792.5,1290.5C 813.465,1311.97 834.632,1333.3 856,1354.5C 856.667,1364.5 856.667,1374.5 856,1384.5C 824.965,1353.3 793.799,1322.3 762.5,1291.5 Z M 832.5,1290.5 C 860.169,1290.33 887.835,1290.5 915.5,1291C 914.944,1291.38 914.611,1291.88 914.5,1292.5C 906.5,1299.83 898.833,1307.5 891.5,1315.5C 872.403,1310.81 853.403,1305.64 834.5,1300C 832.656,1297.2 831.989,1294.03 832.5,1290.5 Z M 2778.5,1292.5 C 2790.66,1291.5 2802.99,1291.17 2815.5,1291.5C 2830.83,1291.5 2846.17,1291.5 2861.5,1291.5C 2861.78,1294.78 2861.45,1297.94 2860.5,1301C 2841.33,1306.96 2821.99,1311.96 2802.5,1316C 2794.63,1307.96 2786.63,1300.13 2778.5,1292.5 Z M 2900.5,1292.5 C 2911.01,1292.17 2921.35,1292.51 2931.5,1293.5C 2900.5,1323.83 2869.83,1354.5 2839.5,1385.5C 2838.51,1375.35 2838.17,1365.01 2838.5,1354.5C 2859.5,1334.17 2880.17,1313.5 2900.5,1292.5 Z M 594.5,1307.5 C 615.965,1328.47 637.299,1349.63 658.5,1371C 643.13,1372.54 628.13,1370.87 613.5,1366C 592.259,1357.72 572.925,1346.39 555.5,1332C 568.901,1324.31 581.901,1316.14 594.5,1307.5 Z M 834.5,1308.5 C 850.702,1313.57 867.035,1318.23 883.5,1322.5C 875.833,1330.5 868.167,1338.5 860.5,1346.5C 851.167,1337.5 841.833,1328.5 832.5,1319.5C 831.92,1315.35 832.586,1311.68 834.5,1308.5 Z M 2861.5,1309.5 C 2861.67,1313.18 2861.5,1316.85 2861,1320.5C 2851.97,1329.7 2842.8,1338.7 2833.5,1347.5C 2826.04,1339.54 2818.37,1331.7 2810.5,1324C 2827.47,1319.01 2844.47,1314.17 2861.5,1309.5 Z M 923.5,1493.5 C 922.833,1493.5 922.167,1493.5 921.5,1493.5C 902.868,1474.37 884.035,1455.37 865,1436.5C 864.333,1408.83 864.333,1381.17 865,1353.5C 872.333,1346.17 879.667,1338.83 887,1331.5C 888.08,1364.16 888.746,1396.82 889,1429.5C 900,1440.5 911,1451.5 922,1462.5C 922.44,1472.84 922.94,1483.17 923.5,1493.5 Z M 2807.5,1332.5 C 2814.46,1339.96 2821.63,1347.3 2829,1354.5C 2829.83,1382.5 2830.17,1410.5 2830,1438.5C 2812.63,1455.7 2795.46,1473.03 2778.5,1490.5C 2776.25,1491.08 2774.58,1492.41 2773.5,1494.5C 2772.51,1484.68 2772.17,1474.68 2772.5,1464.5C 2783.5,1453.17 2794.5,1441.83 2805.5,1430.5C 2806.17,1397.83 2806.83,1365.17 2807.5,1332.5 Z M 618.5,1393.5 C 632.698,1395.93 647.031,1397.1 661.5,1397C 649.838,1412.65 639.171,1428.98 629.5,1446C 618.798,1450.09 607.798,1453.09 596.5,1455C 564.128,1459.04 531.794,1463.37 499.5,1468C 476.05,1472.03 454.384,1480.37 434.5,1493C 411.672,1513.47 406.505,1537.64 419,1565.5C 433.313,1583.6 451.479,1588.76 473.5,1581C 486.9,1575.69 500.733,1572.19 515,1570.5C 536.854,1570.86 549.021,1581.86 551.5,1603.5C 551.14,1607.27 550.307,1610.94 549,1614.5C 551.156,1597.62 544.323,1586.45 528.5,1581C 521.111,1580.2 513.777,1580.53 506.5,1582C 492.833,1587 479.167,1592 465.5,1597C 433.394,1604.7 409.894,1593.86 395,1564.5C 382.001,1524.66 390.834,1490.5 421.5,1462C 438.74,1449.55 457.74,1440.55 478.5,1435C 510.438,1428.81 542.105,1421.48 573.5,1413C 589.056,1407.55 604.056,1401.05 618.5,1393.5 Z M 3075.5,1393.5 C 3101.29,1406.26 3128.29,1415.76 3156.5,1422C 3172.81,1425.46 3189.14,1428.79 3205.5,1432C 3231.64,1436.93 3255.31,1447.26 3276.5,1463C 3308.67,1494.21 3315.84,1530.37 3298,1571.5C 3287.22,1588.74 3271.55,1598.41 3251,1600.5C 3241.96,1599.7 3233.12,1597.86 3224.5,1595C 3213.24,1590.47 3201.91,1586.14 3190.5,1582C 3163.7,1575.12 3149.2,1585.29 3147,1612.5C 3142.44,1593.78 3148.94,1580.61 3166.5,1573C 3175.42,1570.26 3184.42,1569.93 3193.5,1572C 3203.56,1574.8 3213.56,1577.8 3223.5,1581C 3254.58,1590.21 3274.75,1579.38 3284,1548.5C 3286.05,1522.43 3276.21,1502.26 3254.5,1488C 3232.55,1476.34 3209.21,1469.01 3184.5,1466C 3154.12,1462.36 3123.78,1458.36 3093.5,1454C 3084.33,1451.94 3075.33,1449.28 3066.5,1446C 3057.29,1429.07 3046.96,1412.9 3035.5,1397.5C 3049.07,1397.01 3062.4,1395.67 3075.5,1393.5 Z M 2983.5,1783.5 C 2979.4,1803.1 2967.4,1814.94 2947.5,1819C 2905.37,1820.71 2882.37,1800.54 2878.5,1758.5C 2880.6,1735.47 2890.26,1716.3 2907.5,1701C 2926.12,1685.69 2945.45,1671.36 2965.5,1658C 2981.94,1645.89 2996.78,1632.06 3010,1616.5C 3024.66,1593.88 3028.33,1569.55 3021,1543.5C 3008.22,1506.44 2986.05,1476.27 2954.5,1453C 2971.67,1435.83 2988.83,1418.67 3006,1401.5C 3044.87,1446.25 3067.03,1498.25 3072.5,1557.5C 3071.35,1597.63 3055.35,1630.46 3024.5,1656C 3015.52,1663.16 3006.19,1669.82 2996.5,1676C 2975.58,1687.27 2954.91,1698.93 2934.5,1711C 2922.4,1718.77 2911.9,1728.27 2903,1739.5C 2892.34,1758.83 2893.34,1777.49 2906,1795.5C 2924.04,1814.37 2944.54,1817.54 2967.5,1805C 2975.42,1799.63 2980.75,1792.47 2983.5,1783.5 Z M 713.5,1785.5 C 725.693,1808.86 744.693,1817.03 770.5,1810C 796.329,1797.16 805.495,1776.66 798,1748.5C 792.653,1736.99 784.82,1727.49 774.5,1720C 767.441,1714.61 760.107,1709.61 752.5,1705C 724.668,1691.26 698.335,1675.26 673.5,1657C 636.782,1626.38 620.949,1587.22 626,1539.5C 634.71,1487.76 656.043,1442.09 690,1402.5C 707.014,1419.35 723.847,1436.35 740.5,1453.5C 714.509,1473.65 694.675,1498.65 681,1528.5C 667.025,1560.96 670.025,1591.62 690,1620.5C 702.934,1636.1 717.768,1649.6 734.5,1661C 752.026,1672.26 769.026,1684.26 785.5,1697C 798.141,1708.31 807.641,1721.81 814,1737.5C 822.226,1763.71 816.726,1786.55 797.5,1806C 779.641,1819.77 759.974,1823.1 738.5,1816C 725.21,1809.88 716.877,1799.71 713.5,1785.5 Z M 786.5,1416.5 C 800.414,1428.91 813.914,1441.91 827,1455.5C 837.987,1540.97 801.82,1593.97 718.5,1614.5C 711.904,1607.73 706.238,1600.23 701.5,1592C 774.785,1567.6 799.285,1518.43 775,1444.5C 771.976,1440.61 768.142,1439.11 763.5,1440C 771.369,1432.3 779.036,1424.46 786.5,1416.5 Z M 2906.5,1416.5 C 2915.25,1423.74 2923.58,1431.57 2931.5,1440C 2926.75,1439.62 2923.25,1441.46 2921,1445.5C 2897.66,1518.81 2922.16,1567.81 2994.5,1592.5C 2989.66,1600.19 2984.32,1607.52 2978.5,1614.5C 2894.1,1593.56 2857.93,1539.89 2870,1453.5C 2882.37,1441.3 2894.54,1428.97 2906.5,1416.5 Z M 917.5,1546.5 C 947.465,1575.97 977.299,1605.63 1007,1635.5C 1007.67,1724.17 1007.67,1812.83 1007,1901.5C 975.951,1892.78 944.785,1884.45 913.5,1876.5C 914.436,1870.59 915.769,1864.75 917.5,1859C 917.355,1857.77 917.022,1856.61 916.5,1855.5C 909.981,1853.05 903.314,1850.88 896.5,1849C 893.958,1840.81 889.458,1833.97 883,1828.5C 884.333,1820.5 885.667,1812.5 887,1804.5C 880.803,1801.65 874.303,1799.49 867.5,1798C 879.983,1752.74 892.316,1707.41 904.5,1662C 904.355,1661.23 904.022,1660.56 903.5,1660C 901.899,1659.73 900.399,1659.23 899,1658.5C 880.273,1726.24 861.773,1794.07 843.5,1862C 844.167,1863 844.833,1864 845.5,1865C 899.21,1879.18 952.877,1893.51 1006.5,1908C 1007.64,1913.08 1007.8,1918.25 1007,1923.5C 949.594,1907.77 892.094,1892.27 834.5,1877C 832.349,1876.74 830.682,1875.74 829.5,1874C 858.608,1764.73 887.941,1655.57 917.5,1546.5 Z M 2776.5,1546.5 C 2778.25,1548.76 2779.42,1551.43 2780,1554.5C 2808.42,1661.02 2836.92,1767.52 2865.5,1874C 2865.09,1874.95 2864.43,1875.61 2863.5,1876C 2804.92,1891.64 2746.42,1907.47 2688,1923.5C 2687.19,1917.92 2687.36,1912.42 2688.5,1907C 2740.79,1892.84 2793.12,1878.84 2845.5,1865C 2846.17,1864 2846.83,1863 2847.5,1862C 2829.23,1794.07 2810.73,1726.24 2792,1658.5C 2790.6,1659.23 2789.1,1659.73 2787.5,1660C 2786.98,1660.56 2786.64,1661.23 2786.5,1662C 2798.68,1707.41 2811.02,1752.74 2823.5,1798C 2816.7,1799.49 2810.2,1801.65 2804,1804.5C 2805.33,1812.5 2806.67,1820.5 2808,1828.5C 2801.54,1833.97 2797.04,1840.81 2794.5,1849C 2787.69,1850.87 2781.02,1853.03 2774.5,1855.5C 2773.98,1856.61 2773.64,1857.77 2773.5,1859C 2775.23,1864.75 2776.56,1870.59 2777.5,1876.5C 2747.55,1884.11 2717.72,1892.11 2688,1900.5C 2687.33,1812.17 2687.33,1723.83 2688,1635.5C 2717.7,1605.97 2747.2,1576.3 2776.5,1546.5 Z M 1015.5,1644.5 C 1041.8,1670.3 1067.97,1696.3 1094,1722.5C 1115.2,1802.59 1136.7,1882.59 1158.5,1962.5C 1158,1962.83 1157.5,1963.17 1157,1963.5C 1117.23,1952.52 1077.4,1941.85 1037.5,1931.5C 1037.17,1926.46 1037.51,1921.46 1038.5,1916.5C 1043.05,1917.76 1047.55,1919.09 1052,1920.5C 1053.06,1918.78 1053.89,1916.95 1054.5,1915C 1049.41,1912.56 1044.08,1910.73 1038.5,1909.5C 1037.5,1903.54 1037.17,1897.54 1037.5,1891.5C 1035.5,1891.5 1033.5,1891.5 1031.5,1891.5C 1031.5,1896.83 1031.5,1902.17 1031.5,1907.5C 1026.38,1906.64 1021.38,1905.3 1016.5,1903.5C 1015.5,1817.17 1015.17,1730.84 1015.5,1644.5 Z M 2678.5,1644.5 C 2679.83,1730.33 2679.83,1816.33 2678.5,1902.5C 2673.53,1903.99 2668.53,1905.33 2663.5,1906.5C 2663.5,1901.5 2663.5,1896.5 2663.5,1891.5C 2661.5,1891.5 2659.5,1891.5 2657.5,1891.5C 2657.83,1897.21 2657.5,1902.87 2656.5,1908.5C 2649.59,1910.06 2642.92,1912.22 2636.5,1915C 2637.11,1916.95 2637.94,1918.78 2639,1920.5C 2645.09,1918.6 2651.26,1916.94 2657.5,1915.5C 2657.5,1920.83 2657.5,1926.17 2657.5,1931.5C 2617.43,1941.85 2577.43,1952.52 2537.5,1963.5C 2558.06,1883.26 2579.23,1802.93 2601,1722.5C 2627.03,1696.63 2652.87,1670.63 2678.5,1644.5 Z M 1107.5,1736.5 C 1204.83,1833.17 1301.83,1930.17 1398.5,2027.5C 1322.06,2007.64 1245.72,1987.31 1169.5,1966.5C 1147.91,1890.13 1127.24,1813.47 1107.5,1736.5 Z M 2587.5,1736.5 C 2567.64,1812.94 2547.31,1889.28 2526.5,1965.5C 2450.13,1987.09 2373.47,2007.76 2296.5,2027.5C 2393.17,1930.17 2490.17,1833.17 2587.5,1736.5 Z M 865.5,1805.5 C 870.009,1805.71 874.342,1806.71 878.5,1808.5C 878.833,1809.17 879.167,1809.83 879.5,1810.5C 878.319,1814.89 876.986,1819.22 875.5,1823.5C 872.06,1821.63 868.393,1820.46 864.5,1820C 863.572,1819.61 862.905,1818.95 862.5,1818C 863.739,1813.88 864.739,1809.71 865.5,1805.5 Z M 2820.5,1805.5 C 2822.17,1805.5 2823.83,1805.5 2825.5,1805.5C 2826.18,1809.72 2827.18,1813.89 2828.5,1818C 2828.09,1818.95 2827.43,1819.61 2826.5,1820C 2822.61,1820.46 2818.94,1821.63 2815.5,1823.5C 2813.94,1819.08 2812.6,1814.58 2811.5,1810C 2814.21,1807.83 2817.21,1806.33 2820.5,1805.5 Z M 860.5,1826.5 C 883.351,1830.87 892.518,1844.54 888,1867.5C 887.667,1868.17 887.333,1868.83 887,1869.5C 884.618,1868.45 882.118,1867.78 879.5,1867.5C 882.272,1850.7 875.605,1839.7 859.5,1834.5C 858.826,1831.81 859.16,1829.15 860.5,1826.5 Z M 2826.5,1826.5 C 2828.14,1826.29 2829.64,1826.62 2831,1827.5C 2831.66,1829.81 2832.16,1832.15 2832.5,1834.5C 2815.68,1839.13 2808.68,1850.13 2811.5,1867.5C 2808.88,1867.78 2806.38,1868.45 2804,1869.5C 2797.81,1847.88 2805.31,1833.55 2826.5,1826.5 Z M 856.5,1839.5 C 870.377,1842.56 876.377,1851.22 874.5,1865.5C 866.559,1863.93 858.892,1861.6 851.5,1858.5C 853.375,1852.21 855.042,1845.88 856.5,1839.5 Z M 2831.5,1839.5 C 2832.5,1839.5 2833.5,1839.5 2834.5,1839.5C 2835.7,1845.95 2837.36,1852.28 2839.5,1858.5C 2832.11,1861.6 2824.44,1863.93 2816.5,1865.5C 2814.83,1852.84 2819.83,1844.17 2831.5,1839.5 Z M 896.5,1856.5 C 900.793,1857.66 905.127,1858.66 909.5,1859.5C 908.809,1864.6 907.642,1869.6 906,1874.5C 902.283,1873.11 898.45,1872.11 894.5,1871.5C 896.041,1866.64 896.708,1861.64 896.5,1856.5 Z M 2792.5,1856.5 C 2794.2,1860.82 2795.54,1865.48 2796.5,1870.5C 2792.74,1872.06 2788.91,1873.4 2785,1874.5C 2783.36,1869.6 2782.19,1864.6 2781.5,1859.5C 2785.43,1859.07 2789.09,1858.07 2792.5,1856.5 Z M 2677.5,1909.5 C 2678.81,1911.74 2679.48,1914.41 2679.5,1917.5C 2679.44,1920.61 2678.77,1923.45 2677.5,1926C 2673.12,1927.01 2668.78,1928.18 2664.5,1929.5C 2663.51,1924.21 2663.17,1918.87 2663.5,1913.5C 2668.35,1912.46 2673.02,1911.12 2677.5,1909.5 Z M 1015.5,1910.5 C 1020.83,1911.83 1026.17,1913.17 1031.5,1914.5C 1031.83,1919.54 1031.49,1924.54 1030.5,1929.5C 1025.83,1928.17 1021.17,1926.83 1016.5,1925.5C 1015.51,1920.54 1015.17,1915.54 1015.5,1910.5 Z M 1015.5,1934.5 C 1020.73,1936.14 1026.07,1937.48 1031.5,1938.5C 1031.33,1993.17 1031.5,2047.83 1032,2102.5C 1086.76,2103.5 1141.6,2103.83 1196.5,2103.5C 1197.44,2108.78 1198.78,2113.94 1200.5,2119C 1138.83,2119.5 1077.17,2119.67 1015.5,2119.5C 1015.5,2057.83 1015.5,1996.17 1015.5,1934.5 Z M 2678.5,1934.5 C 2679.5,1996 2679.83,2057.66 2679.5,2119.5C 2617.83,2119.67 2556.17,2119.5 2494.5,2119C 2496.22,2113.94 2497.56,2108.78 2498.5,2103.5C 2553.17,2103.67 2607.83,2103.5 2662.5,2103C 2663.5,2048.24 2663.83,1993.4 2663.5,1938.5C 2668.72,1937.61 2673.72,1936.28 2678.5,1934.5 Z M 1037.5,1940.5 C 1078.83,1951.5 1120.17,1962.5 1161.5,1973.5C 1172.03,2014.62 1183.03,2055.62 1194.5,2096.5C 1163.51,2097.5 1132.51,2097.83 1101.5,2097.5C 1101.8,2090.77 1101.46,2084.11 1100.5,2077.5C 1099.97,2076.81 1099.31,2076.31 1098.5,2076C 1091.48,2075.83 1084.48,2075.33 1077.5,2074.5C 1073.09,2067.59 1067.26,2062.26 1060,2058.5C 1059.93,2050.73 1059.27,2043.06 1058,2035.5C 1057.25,2034.87 1056.42,2034.37 1055.5,2034C 1049.51,2033.5 1043.51,2033.33 1037.5,2033.5C 1037.5,2002.5 1037.5,1971.5 1037.5,1940.5 Z M 2655.5,1940.5 C 2657.49,1971.15 2658.16,2002.15 2657.5,2033.5C 2651.49,2033.33 2645.49,2033.5 2639.5,2034C 2638.58,2034.37 2637.75,2034.87 2637,2035.5C 2635.73,2043.06 2635.07,2050.73 2635,2058.5C 2627.74,2062.26 2621.91,2067.59 2617.5,2074.5C 2610.14,2075.2 2602.81,2075.87 2595.5,2076.5C 2594.81,2077.03 2594.31,2077.69 2594,2078.5C 2593.5,2084.82 2593.33,2091.16 2593.5,2097.5C 2562.49,2097.83 2531.49,2097.5 2500.5,2096.5C 2511.97,2055.62 2522.97,2014.62 2533.5,1973.5C 2574.44,1963.1 2615.11,1952.1 2655.5,1940.5 Z M 1171.5,1976.5 C 1251.86,1997.84 1332.19,2019.34 1412.5,2041C 1438.5,2067 1464.5,2093 1490.5,2119C 1402.83,2119.5 1315.17,2119.67 1227.5,2119.5C 1226.87,2114.14 1225.53,2108.97 1223.5,2104C 1231.49,2103.5 1239.49,2103.33 1247.5,2103.5C 1247.5,2101.5 1247.5,2099.5 1247.5,2097.5C 1239.16,2097.67 1230.83,2097.5 1222.5,2097C 1220.77,2092.27 1219.27,2087.43 1218,2082.5C 1215.39,2081.03 1213.23,2081.53 1211.5,2084C 1212.9,2088.42 1213.9,2092.92 1214.5,2097.5C 1210.83,2097.5 1207.17,2097.5 1203.5,2097.5C 1192.83,2057.17 1182.17,2016.83 1171.5,1976.5 Z M 2521.5,1976.5 C 2522.5,1976.47 2523.16,1976.97 2523.5,1978C 2512.52,2017.77 2501.85,2057.6 2491.5,2097.5C 2486.5,2097.5 2481.5,2097.5 2476.5,2097.5C 2477.1,2092.92 2478.1,2088.42 2479.5,2084C 2477.77,2081.53 2475.61,2081.03 2473,2082.5C 2471.36,2087.4 2470.19,2092.4 2469.5,2097.5C 2462.17,2097.5 2454.83,2097.5 2447.5,2097.5C 2447.5,2099.5 2447.5,2101.5 2447.5,2103.5C 2454.17,2103.33 2460.84,2103.5 2467.5,2104C 2465.47,2108.97 2464.13,2114.14 2463.5,2119.5C 2377.17,2119.67 2290.83,2119.5 2204.5,2119C 2230.5,2093 2256.5,2067 2282.5,2041C 2362.41,2019.94 2442.08,1998.44 2521.5,1976.5 Z M 1037.5,2040.5 C 1042.5,2040.5 1047.5,2040.5 1052.5,2040.5C 1052.83,2045.87 1052.49,2051.21 1051.5,2056.5C 1046.97,2055.19 1042.47,2055.19 1038,2056.5C 1037.5,2051.18 1037.33,2045.84 1037.5,2040.5 Z M 2642.5,2040.5 C 2647.5,2040.5 2652.5,2040.5 2657.5,2040.5C 2657.5,2045.5 2657.5,2050.5 2657.5,2055.5C 2652.77,2055.22 2648.1,2055.56 2643.5,2056.5C 2642.51,2051.21 2642.17,2045.87 2642.5,2040.5 Z M 1038.5,2062.5 C 1055.43,2060.94 1067.26,2067.94 1074,2083.5C 1075.24,2087.78 1075.58,2092.11 1075,2096.5C 1072.28,2097.44 1069.45,2097.78 1066.5,2097.5C 1065.05,2079.72 1055.39,2071.06 1037.5,2071.5C 1037.26,2068.39 1037.6,2065.39 1038.5,2062.5 Z M 2644.5,2062.5 C 2648.51,2062.33 2652.51,2062.5 2656.5,2063C 2657.44,2065.72 2657.78,2068.55 2657.5,2071.5C 2639.61,2071.06 2629.95,2079.72 2628.5,2097.5C 2625.55,2097.78 2622.72,2097.44 2620,2096.5C 2619.47,2078.87 2627.63,2067.54 2644.5,2062.5 Z M 1037.5,2076.5 C 1051.69,2076.35 1059.69,2083.35 1061.5,2097.5C 1053.5,2097.5 1045.5,2097.5 1037.5,2097.5C 1037.5,2090.5 1037.5,2083.5 1037.5,2076.5 Z M 2648.5,2076.5 C 2651.5,2076.5 2654.5,2076.5 2657.5,2076.5C 2657.5,2083.5 2657.5,2090.5 2657.5,2097.5C 2649.5,2097.5 2641.5,2097.5 2633.5,2097.5C 2634.25,2087.42 2639.25,2080.42 2648.5,2076.5 Z M 1081.5,2082.5 C 1085.83,2082.5 1090.17,2082.5 1094.5,2082.5C 1094.5,2087.5 1094.5,2092.5 1094.5,2097.5C 1090.5,2097.5 1086.5,2097.5 1082.5,2097.5C 1082.5,2092.47 1082.16,2087.47 1081.5,2082.5 Z M 2600.5,2082.5 C 2604.83,2082.5 2609.17,2082.5 2613.5,2082.5C 2612.84,2087.47 2612.5,2092.47 2612.5,2097.5C 2608.5,2097.5 2604.5,2097.5 2600.5,2097.5C 2600.5,2092.5 2600.5,2087.5 2600.5,2082.5 Z M 1205.5,2103.5 C 1209.44,2103.21 1213.27,2103.54 1217,2104.5C 1218.33,2109.48 1219.5,2114.48 1220.5,2119.5C 1216.77,2119.82 1213.11,2119.49 1209.5,2118.5C 1208.01,2113.53 1206.67,2108.53 1205.5,2103.5 Z M 2474.5,2103.5 C 2479.5,2103.5 2484.5,2103.5 2489.5,2103.5C 2488.33,2108.53 2486.99,2113.53 2485.5,2118.5C 2480.54,2119.49 2475.54,2119.83 2470.5,2119.5C 2471.23,2113.99 2472.56,2108.66 2474.5,2103.5 Z M 1211.5,2128.5 C 1215.3,2127.52 1219.3,2127.18 1223.5,2127.5C 1237.13,2180.87 1251.47,2234.04 1266.5,2287C 1270.91,2287.15 1275.25,2286.48 1279.5,2285C 1344.17,2267.67 1408.83,2250.33 1473.5,2233C 1474.43,2232.61 1475.09,2231.95 1475.5,2231C 1474.85,2229.56 1474.52,2228.06 1474.5,2226.5C 1427.55,2238.28 1380.72,2250.61 1334,2263.5C 1333.05,2263.09 1332.39,2262.43 1332,2261.5C 1330.82,2256.46 1329.49,2251.46 1328,2246.5C 1326.76,2245.13 1325.26,2244.13 1323.5,2243.5C 1317.74,2245.4 1311.9,2247.07 1306,2248.5C 1302.14,2246.15 1298.31,2243.65 1294.5,2241C 1290.37,2239.05 1286.04,2237.88 1281.5,2237.5C 1280,2231.52 1278.5,2225.52 1277,2219.5C 1276.73,2217.67 1275.89,2216.17 1274.5,2215C 1268.22,2215.27 1262.05,2216.44 1256,2218.5C 1255.05,2218.09 1254.39,2217.43 1254,2216.5C 1246.01,2186.86 1238.17,2157.19 1230.5,2127.5C 1320.17,2127.33 1409.83,2127.5 1499.5,2128C 1529.17,2157.67 1558.83,2187.33 1588.5,2217C 1479.5,2246.88 1370.33,2276.38 1261,2305.5C 1259.26,2304.32 1258.26,2302.65 1258,2300.5C 1242.78,2242.96 1227.28,2185.63 1211.5,2128.5 Z M 2195.5,2127.5 C 2283.83,2127.5 2372.17,2127.5 2460.5,2127.5C 2452.81,2157.57 2444.81,2187.57 2436.5,2217.5C 2435.83,2217.83 2435.17,2218.17 2434.5,2218.5C 2428.63,2216.36 2422.63,2215.2 2416.5,2215C 2413.49,2221.87 2411.15,2229.04 2409.5,2236.5C 2400.88,2237.97 2393.55,2241.81 2387.5,2248C 2380.68,2247.46 2374.01,2245.96 2367.5,2243.5C 2366.5,2244 2365.5,2244.5 2364.5,2245C 2362.14,2250.24 2360.31,2255.74 2359,2261.5C 2358.61,2262.43 2357.95,2263.09 2357,2263.5C 2310.28,2250.61 2263.45,2238.28 2216.5,2226.5C 2216.48,2228.06 2216.15,2229.56 2215.5,2231C 2215.91,2231.95 2216.57,2232.61 2217.5,2233C 2282.17,2250.33 2346.83,2267.67 2411.5,2285C 2415.75,2286.48 2420.09,2287.15 2424.5,2287C 2439.34,2233.98 2453.67,2180.82 2467.5,2127.5C 2472.84,2127.33 2478.18,2127.5 2483.5,2128C 2467.77,2185.41 2452.27,2242.91 2437,2300.5C 2436.74,2302.65 2435.74,2304.32 2434,2305.5C 2324.67,2276.38 2215.5,2246.88 2106.5,2217C 2136.37,2187.3 2166.03,2157.47 2195.5,2127.5 Z M 1642.5,2210.5 C 1651.51,2210.33 1660.51,2210.5 1669.5,2211C 1680.7,2222.37 1692.03,2233.54 1703.5,2244.5C 1736,2245.33 1768.66,2245.83 1801.5,2246C 1798.96,2248.37 1796.63,2250.87 1794.5,2253.5C 1789.73,2258.77 1784.73,2263.94 1779.5,2269C 1751.83,2269.67 1724.17,2269.67 1696.5,2269C 1677.63,2249.96 1658.63,2231.13 1639.5,2212.5C 1640.5,2211.83 1641.5,2211.17 1642.5,2210.5 Z M 1892.5,2246.5 C 1925.5,2245.83 1958.5,2245.17 1991.5,2244.5C 2002.97,2233.54 2014.3,2222.37 2025.5,2211C 2035.83,2210.33 2046.17,2210.33 2056.5,2211C 2037.17,2230.33 2017.83,2249.67 1998.5,2269C 1970.83,2269.67 1943.17,2269.67 1915.5,2269C 1907.96,2261.3 1900.3,2253.8 1892.5,2246.5 Z M 1842.5,2217.5 C 1843.5,2245.33 1843.83,2273.33 1843.5,2301.5C 1840.22,2301.78 1837.06,2301.45 1834,2300.5C 1828.65,2281.45 1823.15,2262.45 1817.5,2243.5C 1825.85,2234.81 1834.19,2226.15 1842.5,2217.5 Z M 1852.5,2217.5 C 1860.63,2226.13 1868.96,2234.63 1877.5,2243C 1871.62,2262.03 1866.12,2281.19 1861,2300.5C 1857.87,2301.7 1854.7,2301.7 1851.5,2300.5C 1851.17,2272.66 1851.5,2244.99 1852.5,2217.5 Z M 1269.5,2221.5 C 1271.23,2226.22 1272.9,2231.05 1274.5,2236C 1269.8,2236.92 1265.3,2238.42 1261,2240.5C 1259.4,2235.87 1257.9,2231.2 1256.5,2226.5C 1260.82,2224.62 1265.15,2222.95 1269.5,2221.5 Z M 2420.5,2221.5 C 2425.39,2222.56 2430.06,2224.22 2434.5,2226.5C 2433.31,2231.27 2431.81,2235.93 2430,2240.5C 2425.58,2238.63 2421.08,2237.13 2416.5,2236C 2418.34,2231.32 2419.67,2226.49 2420.5,2221.5 Z M 1272.5,2243.5 C 1288.87,2243.05 1300.03,2250.39 1306,2265.5C 1307.34,2270.51 1305.34,2272.84 1300,2272.5C 1293.16,2257 1281.33,2250.83 1264.5,2254C 1263.08,2251.53 1262.75,2249.03 1263.5,2246.5C 1266.58,2245.37 1269.58,2244.37 1272.5,2243.5 Z M 2410.5,2243.5 C 2416.38,2243.34 2422.04,2244.34 2427.5,2246.5C 2428.51,2248.84 2428.35,2251.17 2427,2253.5C 2420.53,2253.04 2414.03,2253.54 2407.5,2255C 2399.56,2258.61 2394.06,2264.44 2391,2272.5C 2385.66,2272.84 2383.66,2270.51 2385,2265.5C 2389.4,2253.25 2397.9,2245.92 2410.5,2243.5 Z M 1883.5,2249.5 C 1891.81,2257.15 1899.81,2265.15 1907.5,2273.5C 1898.68,2282.82 1889.68,2291.99 1880.5,2301C 1876.74,2301.74 1873.07,2301.4 1869.5,2300C 1874.71,2283.32 1879.38,2266.49 1883.5,2249.5 Z M 1809.5,2250.5 C 1810.17,2250.5 1810.83,2250.5 1811.5,2250.5C 1815.47,2267.21 1820.14,2283.71 1825.5,2300C 1821.9,2301.28 1818.24,2301.61 1814.5,2301C 1805.32,2291.99 1796.32,2282.82 1787.5,2273.5C 1794.85,2265.81 1802.19,2258.15 1809.5,2250.5 Z M 1319.5,2251.5 C 1320.5,2251.5 1321.5,2251.5 1322.5,2251.5C 1323.67,2256.16 1324.5,2260.83 1325,2265.5C 1321.28,2266.89 1317.45,2267.89 1313.5,2268.5C 1312.98,2263.93 1311.64,2259.6 1309.5,2255.5C 1312.93,2254.16 1316.26,2252.82 1319.5,2251.5 Z M 2368.5,2251.5 C 2373.07,2252.06 2377.41,2253.39 2381.5,2255.5C 2379.36,2259.6 2378.02,2263.93 2377.5,2268.5C 2373.55,2267.89 2369.72,2266.89 2366,2265.5C 2366.5,2260.83 2367.33,2256.16 2368.5,2251.5 Z M 1269.5,2258.5 C 1281.38,2257.43 1289.38,2262.43 1293.5,2273.5C 1286.13,2276.59 1278.46,2278.59 1270.5,2279.5C 1269.38,2273.17 1267.71,2267 1265.5,2261C 1266.86,2260.07 1268.19,2259.23 1269.5,2258.5 Z M 2412.5,2258.5 C 2417.16,2257.99 2421.49,2258.83 2425.5,2261C 2423.29,2267 2421.62,2273.17 2420.5,2279.5C 2412.54,2278.59 2404.87,2276.59 2397.5,2273.5C 2400.22,2266.12 2405.22,2261.12 2412.5,2258.5 Z M 1640.5,2269.5 C 1707.13,2335.63 1773.63,2401.97 1840,2468.5C 1840.67,2469.17 1840.67,2469.83 1840,2470.5C 1826.33,2484.17 1812.67,2497.83 1799,2511.5C 1732.67,2445.17 1666.33,2378.83 1600,2312.5C 1599.33,2311.83 1599.33,2311.17 1600,2310.5C 1613.7,2296.97 1627.2,2283.3 1640.5,2269.5 Z M 2053.5,2269.5 C 2067.47,2282.96 2081.3,2296.63 2095,2310.5C 2095.67,2311.17 2095.67,2311.83 2095,2312.5C 2028.67,2378.83 1962.33,2445.17 1896,2511.5C 1882.33,2497.83 1868.67,2484.17 1855,2470.5C 1854.33,2469.83 1854.33,2469.17 1855,2468.5C 1921.37,2402.3 1987.53,2335.97 2053.5,2269.5 Z M 1748.5,2278.5 C 1758.65,2277.51 1768.99,2277.17 1779.5,2277.5C 1800.47,2298.97 1821.63,2320.3 1843,2341.5C 1843.67,2351.83 1843.67,2362.17 1843,2372.5C 1811.63,2340.97 1780.13,2309.63 1748.5,2278.5 Z M 1915.5,2277.5 C 1926.01,2277.17 1936.35,2277.51 1946.5,2278.5C 1914.87,2309.63 1883.37,2340.97 1852,2372.5C 1851.33,2362.17 1851.33,2351.83 1852,2341.5C 1873.37,2320.3 1894.53,2298.97 1915.5,2277.5 Z M 1694.5,2310.5 C 1704.65,2309.51 1714.99,2309.17 1725.5,2309.5C 1765.81,2350.48 1806.48,2391.15 1847.5,2431.5C 1888.52,2391.15 1929.19,2350.48 1969.5,2309.5C 1979.84,2309.33 1990.17,2309.5 2000.5,2310C 1949.63,2360.7 1898.97,2411.53 1848.5,2462.5C 1847.76,2462.63 1847.09,2462.46 1846.5,2462C 1795.97,2411.3 1745.3,2360.8 1694.5,2310.5 Z M 1737.5,2310.5 C 1747.65,2309.51 1757.99,2309.17 1768.5,2309.5C 1794.48,2336.15 1820.81,2362.48 1847.5,2388.5C 1874.19,2362.48 1900.52,2336.15 1926.5,2309.5C 1937.01,2309.17 1947.35,2309.51 1957.5,2310.5C 1920.85,2346.81 1884.19,2383.15 1847.5,2419.5C 1810.81,2383.15 1774.15,2346.81 1737.5,2310.5 Z M 1823.5,2310.5 C 1839.5,2309.17 1855.5,2309.17 1871.5,2310.5C 1863.52,2318.15 1855.52,2325.81 1847.5,2333.5C 1839.48,2325.81 1831.48,2318.15 1823.5,2310.5 Z M 1846.5,2475.5 C 1861.43,2488.76 1875.76,2502.76 1889.5,2517.5C 1875.83,2531.83 1861.83,2545.83 1847.5,2559.5C 1833.17,2545.83 1819.17,2531.83 1805.5,2517.5C 1819.19,2503.48 1832.85,2489.48 1846.5,2475.5 Z"/></g>
<g><path style="opacity:0.984" fill="#3e3e3e" d="M 1842.5,203.5 C 1842.56,202.957 1842.89,202.624 1843.5,202.5C 1844.82,212.659 1844.82,222.659 1843.5,232.5C 1843.83,222.652 1843.49,212.986 1842.5,203.5 Z"/></g>
<g><path style="opacity:0.984" fill="#3e3e3e" d="M 1692.5,265.5 C 1703.32,266.495 1714.32,266.828 1725.5,266.5C 1714.33,267.824 1702.99,267.824 1691.5,266.5C 1691.62,265.893 1691.96,265.56 1692.5,265.5 Z"/></g>
<g><path style="opacity:0.984" fill="#424242" d="M 1737.5,265.5 C 1747.65,266.494 1757.99,266.828 1768.5,266.5C 1757.99,267.823 1747.33,267.823 1736.5,266.5C 1736.62,265.893 1736.96,265.56 1737.5,265.5 Z"/></g>
<g><path style="opacity:0.984" fill="#404040" d="M 1823.5,265.5 C 1839.5,266.833 1855.5,266.833 1871.5,265.5C 1872.04,265.56 1872.38,265.893 1872.5,266.5C 1855.83,267.833 1839.17,267.833 1822.5,266.5C 1822.62,265.893 1822.96,265.56 1823.5,265.5 Z"/></g>
<g><path style="opacity:0.984" fill="#434343" d="M 1956.5,264.5 C 1958.05,264.821 1958.71,265.821 1958.5,267.5C 1947.65,267.828 1936.99,267.494 1926.5,266.5C 1936.84,266.666 1947.17,266.5 1957.5,266C 1956.94,265.617 1956.61,265.117 1956.5,264.5 Z"/></g>
<g><path style="opacity:0.984" fill="#3f3f3f" d="M 2002.5,265.5 C 2003.04,265.56 2003.38,265.893 2003.5,266.5C 1992.01,267.824 1980.67,267.824 1969.5,266.5C 1980.68,266.828 1991.68,266.495 2002.5,265.5 Z"/></g>
<g><path style="opacity:1" fill="#212121" d="M 1851.5,274.5 C 1851.17,302.672 1851.5,330.672 1852.5,358.5C 1852.83,358.5 1853.17,358.5 1853.5,358.5C 1852.99,360.233 1852.16,360.566 1851,359.5C 1850.17,330.997 1850.34,302.664 1851.5,274.5 Z"/></g>
<g><path style="opacity:1" fill="#484848" d="M 1841.5,236.5 C 1826.42,253.081 1810.75,269.248 1794.5,285C 1793.91,285.464 1793.24,285.631 1792.5,285.5C 1808.5,268.833 1824.83,252.5 1841.5,236.5 Z"/></g>
<g><path style="opacity:0.984" fill="#414141" d="M 1748.5,297.5 C 1758.65,298.494 1768.99,298.828 1779.5,298.5C 1768.99,299.823 1758.33,299.823 1747.5,298.5C 1747.62,297.893 1747.96,297.56 1748.5,297.5 Z"/></g>
<g><path style="opacity:0.984" fill="#434343" d="M 1945.5,296.5 C 1947.05,296.821 1947.71,297.821 1947.5,299.5C 1936.65,299.828 1925.99,299.494 1915.5,298.5C 1925.84,298.666 1936.17,298.5 1946.5,298C 1945.94,297.617 1945.61,297.117 1945.5,296.5 Z"/></g>
<g><path style="opacity:1" fill="#565656" d="M 1907.5,301.5 C 1908.57,302.251 1908.74,303.251 1908,304.5C 1900.91,312.094 1893.41,319.094 1885.5,325.5C 1893.22,317.78 1900.56,309.78 1907.5,301.5 Z"/></g>
<g><path style="opacity:0.984" fill="#474747" d="M 1843.5,275.5 C 1844.83,303.336 1844.83,331.336 1843.5,359.5C 1842.89,359.376 1842.56,359.043 1842.5,358.5C 1843.5,331.005 1843.83,303.338 1843.5,275.5 Z"/></g>
<g><path style="opacity:0.765" fill="#5a5a5a" d="M 1802.5,329.5 C 1803.04,329.56 1803.38,329.893 1803.5,330.5C 1770.17,331.5 1736.84,331.833 1703.5,331.5C 1736.5,330.833 1769.5,330.167 1802.5,329.5 Z"/></g>
<g><path style="opacity:0.984" fill="#474747" d="M 1892.5,329.5 C 1925.5,330.167 1958.5,330.833 1991.5,331.5C 1958.16,331.833 1924.83,331.5 1891.5,330.5C 1891.62,329.893 1891.96,329.56 1892.5,329.5 Z"/></g>
<g><path style="opacity:1" fill="#585858" d="M 1877.5,332.5 C 1878.53,332.897 1878.69,333.563 1878,334.5C 1869.96,342.702 1861.8,350.702 1853.5,358.5C 1853.17,358.5 1852.83,358.5 1852.5,358.5C 1860.83,349.833 1869.17,341.167 1877.5,332.5 Z"/></g>
<g><path style="opacity:0.004" fill="#dadada" d="M 1639.5,363.5 C 1649.65,364.494 1659.99,364.828 1670.5,364.5C 1659.99,365.823 1649.33,365.823 1638.5,364.5C 1638.62,363.893 1638.96,363.56 1639.5,363.5 Z"/></g>
<g><path style="opacity:0.004" fill="#d9d9d9" d="M 2055.5,363.5 C 2056.29,363.783 2056.96,364.283 2057.5,365C 2046.66,365.825 2035.99,365.659 2025.5,364.5C 2035.68,364.827 2045.68,364.494 2055.5,363.5 Z"/></g>
<g><path style="opacity:1" fill="#737373" d="M 2127.5,435.5 C 2128.5,435.5 2129.5,435.5 2130.5,435.5C 2129.5,438.167 2128.5,438.167 2127.5,435.5 Z"/></g>
<g><path style="opacity:0.894" fill="#000000" d="M 627.5,792.5 C 638.478,791.244 648.478,793.744 657.5,800C 667.874,809.988 670.04,821.488 664,834.5C 656.905,843.753 647.738,846.586 636.5,843C 633.689,841.356 631.356,839.19 629.5,836.5C 634.428,836.317 639.428,836.15 644.5,836C 655.345,830.288 657.012,822.622 649.5,813C 636.611,807.432 625.778,810.265 617,821.5C 600.32,850.551 601.986,878.551 622,905.5C 628.569,912.739 635.735,919.239 643.5,925C 636.306,934.694 629.306,944.528 622.5,954.5C 593.314,933.286 577.314,904.619 574.5,868.5C 574.519,841.635 584.852,819.802 605.5,803C 612.266,798.115 619.6,794.615 627.5,792.5 Z M 622.5,804.5 C 609.333,814.127 601.166,827.127 598,843.5C 593.592,869.266 599.592,892.266 616,912.5C 620.9,917.4 625.733,922.233 630.5,927C 627.373,932.081 623.873,936.915 620,941.5C 603.878,926.926 592.544,909.259 586,888.5C 579.011,858.601 586.511,833.101 608.5,812C 612.787,808.691 617.453,806.191 622.5,804.5 Z"/></g>
<g><path style="opacity:0.895" fill="#000000" d="M 3054.5,792.5 C 3068.08,791.638 3080.41,795.138 3091.5,803C 3118.36,826.922 3127.53,856.422 3119,891.5C 3110.93,917.63 3095.93,938.963 3074,955.5C 3067.57,944.971 3060.4,934.971 3052.5,925.5C 3070.56,913.598 3082.73,897.265 3089,876.5C 3094.53,854.819 3090.36,835.319 3076.5,818C 3067.54,809.587 3057.54,807.92 3046.5,813C 3040.94,820.275 3041.27,827.275 3047.5,834C 3053.63,836.746 3059.97,837.246 3066.5,835.5C 3065.36,840.106 3062.36,842.94 3057.5,844C 3040.64,846.076 3030.97,838.743 3028.5,822C 3030.69,806.321 3039.35,796.488 3054.5,792.5 Z M 3071.5,803.5 C 3079.47,805.566 3086.3,809.566 3092,815.5C 3111.6,837.129 3117.6,862.129 3110,890.5C 3103.82,910.999 3092.49,927.999 3076,941.5C 3072.5,936.5 3069,931.5 3065.5,926.5C 3099.22,898.63 3108.05,864.296 3092,823.5C 3086.6,815.261 3079.76,808.595 3071.5,803.5 Z"/></g>
<g><path style="opacity:0.892" fill="#000000" d="M 389.5,1123.5 C 401.14,1132.59 404.64,1144.26 400,1158.5C 397.611,1163.55 394.445,1168.05 390.5,1172C 380.342,1179.58 370.009,1186.91 359.5,1194C 337.021,1212.96 334.687,1233.96 352.5,1257C 344.322,1266.01 335.988,1274.84 327.5,1283.5C 309.142,1262.36 303.975,1238.36 312,1211.5C 318.726,1197.44 328.893,1186.61 342.5,1179C 353.833,1173 365.167,1167 376.5,1161C 391.282,1152.66 395.282,1140.66 388.5,1125C 389.056,1124.62 389.389,1124.12 389.5,1123.5 Z M 367.5,1176.5 C 355.237,1184.26 345.071,1194.26 337,1206.5C 328.768,1223.85 329.935,1240.52 340.5,1256.5C 336.515,1260.99 332.349,1265.32 328,1269.5C 307.802,1234.8 314.635,1206.96 348.5,1186C 354.886,1182.81 361.22,1179.64 367.5,1176.5 Z"/></g>
<g><path style="opacity:0.891" fill="#000000" d="M 3306.5,1123.5 C 3307.38,1123.37 3308.04,1123.7 3308.5,1124.5C 3301.17,1140.02 3304.83,1152.18 3319.5,1161C 3391.03,1193.32 3401.86,1239.82 3352,1300.5C 3316.17,1340.11 3271.67,1356.61 3218.5,1350C 3201.88,1346.53 3186.22,1340.53 3171.5,1332C 3169.99,1331.16 3169.49,1330 3170,1328.5C 3183.12,1314.87 3197.62,1303.04 3213.5,1293C 3215.83,1292.33 3218.17,1292.33 3220.5,1293C 3238.47,1301.93 3257.14,1303.6 3276.5,1298C 3294.45,1291.52 3311.45,1283.19 3327.5,1273C 3335.78,1265.72 3342.95,1257.56 3349,1248.5C 3356.29,1235.79 3356.29,1223.13 3349,1210.5C 3337.73,1196.56 3324.56,1184.73 3309.5,1175C 3293.57,1162.47 3290.41,1147.3 3300,1129.5C 3302.69,1127.97 3304.86,1125.97 3306.5,1123.5 Z M 3324.5,1174.5 C 3338.26,1180.47 3350.42,1188.8 3361,1199.5C 3374.96,1218.03 3377.29,1238.03 3368,1259.5C 3344.88,1305.28 3308.04,1332.78 3257.5,1342C 3231.29,1345.29 3206.62,1340.62 3183.5,1328C 3193.83,1317.83 3205.16,1309 3217.5,1301.5C 3224.1,1305.14 3231.1,1307.64 3238.5,1309C 3255.24,1310.9 3271.57,1309.23 3287.5,1304C 3302.87,1297.61 3317.54,1289.94 3331.5,1281C 3347.34,1269.46 3357.84,1254.29 3363,1235.5C 3364.68,1222.9 3361.68,1211.56 3354,1201.5C 3344.92,1191.58 3335.09,1182.58 3324.5,1174.5 Z"/></g>
<g><path style="opacity:0.984" fill="#424242" d="M 822.5,1135.5 C 822.56,1134.96 822.893,1134.62 823.5,1134.5C 824.823,1144.66 824.823,1154.66 823.5,1164.5C 823.827,1154.65 823.494,1144.99 822.5,1135.5 Z"/></g>
<g><path style="opacity:0.004" fill="#d8d8d8" d="M 831.5,1185.5 C 832.167,1189.5 832.833,1193.5 833.5,1197.5C 833.44,1198.04 833.107,1198.38 832.5,1198.5C 831.508,1194.22 831.174,1189.88 831.5,1185.5 Z"/></g>
<g><path style="opacity:0.565" fill="#878787" d="M 2870.5,1178.5 C 2869.51,1188.32 2869.17,1198.32 2869.5,1208.5C 2868.34,1198.01 2868.17,1187.34 2869,1176.5C 2869.72,1177.04 2870.22,1177.71 2870.5,1178.5 Z"/></g>
<g><path style="opacity:0.565" fill="#767676" d="M 822.5,1176.5 C 822.56,1175.96 822.893,1175.62 823.5,1175.5C 824.823,1186.33 824.823,1196.99 823.5,1207.5C 823.828,1196.99 823.494,1186.65 822.5,1176.5 Z"/></g>
<g><path style="opacity:0.765" fill="#5d5d5d" d="M 2838.5,1189.5 C 2837.51,1199.32 2837.17,1209.32 2837.5,1219.5C 2836.34,1209.01 2836.17,1198.34 2837,1187.5C 2837.72,1188.04 2838.22,1188.71 2838.5,1189.5 Z"/></g>
<g><path style="opacity:0.891" fill="#000000" d="M 439.5,1223.5 C 471.42,1220.45 500.753,1227.61 527.5,1245C 520.13,1254.04 511.796,1262.04 502.5,1269C 496.174,1273.83 489.508,1278.16 482.5,1282C 480.5,1282.67 478.5,1282.67 476.5,1282C 459.582,1273.74 441.916,1271.74 423.5,1276C 396.137,1283.92 372.637,1298.09 353,1318.5C 346.683,1326.8 342.85,1336.14 341.5,1346.5C 342.466,1355.1 345.633,1362.76 351,1369.5C 355.167,1373.67 359.333,1377.83 363.5,1382C 374.275,1390.14 384.775,1398.64 395,1407.5C 406.102,1423.81 404.269,1438.48 389.5,1451.5C 389.167,1451 388.833,1450.5 388.5,1450C 394.673,1436.58 392.006,1425.25 380.5,1416C 367.006,1409.09 354.006,1401.42 341.5,1393C 315.376,1372.62 307.876,1346.79 319,1315.5C 338.967,1271.87 371.8,1242.7 417.5,1228C 424.931,1226.28 432.265,1224.78 439.5,1223.5 Z M 371.5,1400.5 C 354.583,1393.42 340.749,1382.42 330,1367.5C 321.572,1351.98 320.572,1335.98 327,1319.5C 344.45,1281.01 372.95,1254.18 412.5,1239C 447.307,1228.04 480.974,1230.71 513.5,1247C 503.169,1257.17 491.835,1266 479.5,1273.5C 468.332,1267.13 456.332,1264.47 443.5,1265.5C 430.674,1264.86 418.34,1267.03 406.5,1272C 391.404,1278.38 377.07,1286.05 363.5,1295C 355.596,1302.23 348.429,1310.07 342,1318.5C 328.883,1338.65 329.883,1357.98 345,1376.5C 353.73,1384.74 362.563,1392.74 371.5,1400.5 Z"/></g>
<g><path style="opacity:0.765" fill="#535353" d="M 887.5,1197.5 C 888.826,1212.34 888.826,1227.34 887.5,1242.5C 886.893,1242.38 886.56,1242.04 886.5,1241.5C 887.496,1227.01 887.829,1212.34 887.5,1197.5 Z"/></g>
<g><path style="opacity:1" fill="#484848" d="M 2829.5,1219.5 C 2824.83,1226.17 2819.17,1231.83 2812.5,1236.5C 2817.83,1230.5 2823.5,1224.83 2829.5,1219.5 Z"/></g>
<g><path style="opacity:1" fill="#585858" d="M 854.5,1187.5 C 854.56,1186.96 854.893,1186.62 855.5,1186.5C 856.666,1197.48 856.832,1208.48 856,1219.5C 835.249,1240.75 814.082,1261.42 792.5,1281.5C 813.132,1260.37 833.965,1239.37 855,1218.5C 855.825,1207.99 855.659,1197.66 854.5,1187.5 Z"/></g>
<g><path style="opacity:0.373" fill="#9c9c9c" d="M 832.5,1252.5 C 831.92,1256.65 832.586,1260.32 834.5,1263.5C 833.791,1264.4 832.791,1264.74 831.5,1264.5C 831.183,1260.3 831.517,1256.3 832.5,1252.5 Z"/></g>
<g><path style="opacity:0.376" fill="#969696" d="M 761.5,1280.5 C 771.653,1281.49 781.986,1281.83 792.5,1281.5C 781.993,1282.82 771.326,1282.82 760.5,1281.5C 760.624,1280.89 760.957,1280.56 761.5,1280.5 Z"/></g>
<g><path style="opacity:0.004" fill="#c5c5c5" d="M 832.5,1272.5 C 832.5,1275.5 832.5,1278.5 832.5,1281.5C 839.022,1281.18 845.355,1281.51 851.5,1282.5C 844.833,1282.5 838.167,1282.5 831.5,1282.5C 831.187,1278.96 831.521,1275.62 832.5,1272.5 Z"/></g>
<g><path style="opacity:1" fill="#292929" d="M 915.5,1281.5 C 916.043,1281.56 916.376,1281.89 916.5,1282.5C 904.006,1283.82 891.673,1283.82 879.5,1282.5C 891.678,1282.83 903.678,1282.5 915.5,1281.5 Z"/></g>
<g><path style="opacity:0.376" fill="#8c8c8c" d="M 2930.5,1281.5 C 2932.05,1281.82 2932.71,1282.82 2932.5,1284.5C 2921.99,1284.83 2911.65,1284.49 2901.5,1283.5C 2911.51,1283.67 2921.51,1283.5 2931.5,1283C 2930.94,1282.62 2930.61,1282.12 2930.5,1281.5 Z"/></g>
<g><path style="opacity:0.188" fill="#c1c1c1" d="M 792.5,1290.5 C 782.319,1290.17 772.319,1290.51 762.5,1291.5C 761.711,1291.22 761.044,1290.72 760.5,1290C 771.341,1289.17 782.008,1289.34 792.5,1290.5 Z"/></g>
<g><path style="opacity:0.984" fill="#4d4d4d" d="M 832.5,1290.5 C 860.328,1289.5 888.328,1289.17 916.5,1289.5C 916.715,1291.18 916.048,1292.18 914.5,1292.5C 914.611,1291.88 914.944,1291.38 915.5,1291C 887.835,1290.5 860.169,1290.33 832.5,1290.5 Z"/></g>
<g><path style="opacity:0.765" fill="#686868" d="M 2815.5,1291.5 C 2802.99,1291.17 2790.66,1291.5 2778.5,1292.5C 2777.71,1292.22 2777.04,1291.72 2776.5,1291C 2789.67,1290.17 2802.67,1290.34 2815.5,1291.5 Z"/></g>
<g><path style="opacity:1" fill="#595959" d="M 2978.5,1286.5 C 2981.14,1288.92 2980.47,1290.59 2976.5,1291.5C 2977.29,1290.21 2978.29,1289.04 2979.5,1288C 2978.94,1287.62 2978.61,1287.12 2978.5,1286.5 Z"/></g>
<g><path style="opacity:0.004" fill="#d2d2d2" d="M 2900.5,1292.5 C 2911.33,1291.34 2922.33,1291.17 2933.5,1292C 2932.94,1292.38 2932.61,1292.88 2932.5,1293.5C 2932.17,1293.5 2931.83,1293.5 2931.5,1293.5C 2921.35,1292.51 2911.01,1292.17 2900.5,1292.5 Z"/></g>
<g><path style="opacity:0.893" fill="#000000" d="M 3367.5,1291.5 C 3368.82,1291.33 3369.99,1291.66 3371,1292.5C 3382.63,1308.21 3388.79,1325.87 3389.5,1345.5C 3387.07,1362.86 3379.07,1377.03 3365.5,1388C 3350.32,1397.76 3334.66,1406.76 3318.5,1415C 3305.18,1424.11 3301.34,1436.28 3307,1451.5C 3295.64,1442.77 3291.98,1431.43 3296,1417.5C 3298.97,1410.53 3303.47,1404.69 3309.5,1400C 3319.34,1393.58 3329.01,1386.91 3338.5,1380C 3359.86,1361.08 3361.86,1340.41 3344.5,1318C 3352.74,1309.6 3360.4,1300.77 3367.5,1291.5 Z M 3330.5,1397.5 C 3337.39,1392.78 3343.89,1387.45 3350,1381.5C 3368.06,1361.82 3369.9,1340.82 3355.5,1318.5C 3359.48,1314.01 3363.65,1309.68 3368,1305.5C 3389.27,1341.9 3381.44,1370.4 3344.5,1391C 3339.93,1393.45 3335.27,1395.62 3330.5,1397.5 Z"/></g>
<g><path style="opacity:1" fill="#494949" d="M 2891.5,1290.5 C 2887.17,1296.83 2881.83,1302.17 2875.5,1306.5C 2880.5,1300.83 2885.83,1295.5 2891.5,1290.5 Z"/></g>
<g><path style="opacity:0.765" fill="#5e5e5e" d="M 834.5,1308.5 C 832.586,1311.68 831.92,1315.35 832.5,1319.5C 831.517,1315.7 831.183,1311.7 831.5,1307.5C 832.791,1307.26 833.791,1307.6 834.5,1308.5 Z"/></g>
<g><path style="opacity:1" fill="#585858" d="M 914.5,1292.5 C 914.631,1293.24 914.464,1293.91 914,1294.5C 906.911,1302.09 899.411,1309.09 891.5,1315.5C 898.833,1307.5 906.5,1299.83 914.5,1292.5 Z"/></g>
<g><path style="opacity:1" fill="#585858" d="M 2931.5,1293.5 C 2931.83,1293.5 2932.17,1293.5 2932.5,1293.5C 2902.12,1324.88 2871.12,1355.55 2839.5,1385.5C 2869.83,1354.5 2900.5,1323.83 2931.5,1293.5 Z"/></g>
<g><path style="opacity:1" fill="#585858" d="M 3023.5,1286.5 C 3024.53,1286.9 3024.69,1287.56 3024,1288.5C 2973.58,1339.42 2922.75,1389.75 2871.5,1439.5C 2922.17,1388.5 2972.83,1337.5 3023.5,1286.5 Z"/></g>
<g><path style="opacity:1" fill="#4a4a4a" d="M 2861.5,1309.5 C 2862.65,1313.31 2862.81,1317.31 2862,1321.5C 2853.17,1330.33 2844.33,1339.17 2835.5,1348C 2834.56,1348.69 2833.9,1348.53 2833.5,1347.5C 2842.8,1338.7 2851.97,1329.7 2861,1320.5C 2861.5,1316.85 2861.67,1313.18 2861.5,1309.5 Z"/></g>
<g><path style="opacity:1" fill="#575757" d="M 883.5,1322.5 C 884.525,1322.9 884.692,1323.56 884,1324.5C 876.578,1332.43 868.745,1339.76 860.5,1346.5C 868.167,1338.5 875.833,1330.5 883.5,1322.5 Z"/></g>
<g><path style="opacity:0.565" fill="#727272" d="M 2807.5,1332.5 C 2806.83,1365.17 2806.17,1397.83 2805.5,1430.5C 2805.17,1397.49 2805.5,1364.49 2806.5,1331.5C 2807.11,1331.62 2807.44,1331.96 2807.5,1332.5 Z"/></g>
<g><path style="opacity:0.984" fill="#484848" d="M 824.5,1365.5 C 825.494,1375.65 825.828,1385.99 825.5,1396.5C 823.821,1396.71 822.821,1396.05 822.5,1394.5C 823.117,1394.61 823.617,1394.94 824,1395.5C 824.5,1385.51 824.666,1375.51 824.5,1365.5 Z"/></g>
<g><path style="opacity:0.188" fill="#b6b6b6" d="M 2870.5,1366.5 C 2870.17,1376.68 2870.51,1386.68 2871.5,1396.5C 2871.22,1397.29 2870.72,1397.96 2870,1398.5C 2869.17,1387.66 2869.34,1376.99 2870.5,1366.5 Z"/></g>
<g><path style="opacity:0.565" fill="#8a8a8a" d="M 2838.5,1354.5 C 2838.17,1365.01 2838.51,1375.35 2839.5,1385.5C 2839.22,1386.29 2838.72,1386.96 2838,1387.5C 2837.17,1376.33 2837.34,1365.33 2838.5,1354.5 Z"/></g>
<g><path style="opacity:0.188" fill="#c1c1c1" d="M 2862.5,1440.5 C 2861.83,1419.17 2861.17,1397.83 2860.5,1376.5C 2860.78,1375.71 2861.28,1375.04 2862,1374.5C 2862.5,1396.5 2862.67,1418.5 2862.5,1440.5 Z"/></g>
<g><path style="opacity:0.565" fill="#848484" d="M 824.5,1407.5 C 825.659,1418.66 825.826,1429.99 825,1441.5C 823.583,1440.92 822.75,1439.92 822.5,1438.5C 823.117,1438.61 823.617,1438.94 824,1439.5C 824.5,1428.84 824.667,1418.17 824.5,1407.5 Z"/></g>
<g><path style="opacity:0.565" fill="#858585" d="M 2870.5,1409.5 C 2870.17,1419.68 2870.51,1429.68 2871.5,1439.5C 2871.22,1440.29 2870.72,1440.96 2870,1441.5C 2869.17,1430.66 2869.34,1419.99 2870.5,1409.5 Z"/></g>
<g><path style="opacity:1" fill="#595959" d="M 2798.5,1426.5 C 2788.42,1438.08 2777.76,1449.25 2766.5,1460C 2765.91,1460.46 2765.24,1460.63 2764.5,1460.5C 2775.5,1448.83 2786.83,1437.5 2798.5,1426.5 Z"/></g>
<g><path style="opacity:0.765" fill="#5b5b5b" d="M 2772.5,1464.5 C 2772.17,1474.68 2772.51,1484.68 2773.5,1494.5C 2773.44,1495.04 2773.11,1495.38 2772.5,1495.5C 2771.18,1485.01 2771.18,1474.67 2772.5,1464.5 Z"/></g>
<g><path style="opacity:1" fill="#575757" d="M 2862.5,1448.5 C 2862.63,1449.24 2862.46,1449.91 2862,1450.5C 2587.83,1724.67 2313.67,1998.83 2039.5,2273C 2038.91,2273.46 2038.24,2273.63 2037.5,2273.5C 2312.17,1998.17 2587.17,1723.17 2862.5,1448.5 Z"/></g>
<g><path style="opacity:0.004" fill="#c2c2c2" d="M 921.5,1493.5 C 922.167,1493.5 922.833,1493.5 923.5,1493.5C 923.214,1495.93 922.548,1495.93 921.5,1493.5 Z"/></g>
<g><path style="opacity:1" fill="#5a5a5a" d="M 2778.5,1490.5 C 2777.42,1492.59 2775.75,1493.92 2773.5,1494.5C 2774.58,1492.41 2776.25,1491.08 2778.5,1490.5 Z"/></g>
<g><path style="opacity:1" fill="#818181" d="M 993.5,1565.5 C 996.167,1566.83 996.167,1568.17 993.5,1569.5C 993.5,1568.17 993.5,1566.83 993.5,1565.5 Z"/></g>
<g><path style="opacity:0.895" fill="#000000" d="M 620.5,1620.5 C 621.822,1620.33 622.989,1620.66 624,1621.5C 629.916,1631.25 636.416,1640.58 643.5,1649.5C 633.508,1657.33 624.675,1666.33 617,1676.5C 602.107,1701.73 601.774,1727.07 616,1752.5C 622.029,1760.1 629.862,1764.43 639.5,1765.5C 652.436,1763.62 656.603,1756.62 652,1744.5C 650.5,1743 649,1741.5 647.5,1740C 641.482,1738.52 635.482,1738.02 629.5,1738.5C 635.809,1730.56 643.809,1728.39 653.5,1732C 668.391,1740.9 671.558,1753.06 663,1768.5C 652.948,1780.85 640.115,1785.02 624.5,1781C 603.935,1774.1 589.435,1760.6 581,1740.5C 568.891,1705.05 574.558,1672.71 598,1643.5C 605.032,1635.3 612.532,1627.64 620.5,1620.5 Z M 625.5,1771.5 C 619.535,1770.35 614.202,1767.85 609.5,1764C 586.741,1742.82 578.908,1716.99 586,1686.5C 592.083,1665.43 603.416,1647.76 620,1633.5C 623.713,1638.42 627.546,1643.26 631.5,1648C 601.46,1672.12 590.96,1702.95 600,1740.5C 604.285,1754.46 612.785,1764.8 625.5,1771.5 Z"/></g>
<g><path style="opacity:0.894" fill="#000000" d="M 3073.5,1620.5 C 3107.87,1644.9 3123.7,1678.24 3121,1720.5C 3116.87,1744.95 3104.37,1763.79 3083.5,1777C 3070.3,1783.84 3056.96,1784.17 3043.5,1778C 3029.17,1768.02 3025.67,1755.18 3033,1739.5C 3042.38,1729.5 3052.88,1728 3064.5,1735C 3065.74,1736.15 3066.74,1737.49 3067.5,1739C 3062.19,1738.64 3056.86,1738.64 3051.5,1739C 3044,1742.5 3041.17,1748.33 3043,1756.5C 3047.1,1763.74 3053.26,1766.57 3061.5,1765C 3074.63,1761.2 3083.13,1752.7 3087,1739.5C 3095.38,1713 3090.71,1689 3073,1667.5C 3066.32,1661.66 3059.82,1655.66 3053.5,1649.5C 3060.92,1640.33 3067.58,1630.66 3073.5,1620.5 Z M 3074.5,1770.5 C 3088.11,1760.32 3096.28,1746.66 3099,1729.5C 3102.95,1696.16 3091.78,1669.16 3065.5,1648.5C 3069,1643.5 3072.5,1638.5 3076,1633.5C 3094.38,1649.25 3106.38,1668.91 3112,1692.5C 3116.65,1723.32 3106.82,1748.16 3082.5,1767C 3079.93,1768.45 3077.26,1769.62 3074.5,1770.5 Z"/></g>
<g><path style="opacity:0.004" fill="#c7c7c7" d="M 1642.5,2210.5 C 1641.5,2211.17 1640.5,2211.83 1639.5,2212.5C 1638.71,2212.22 1638.04,2211.72 1637.5,2211C 1639.13,2210.51 1640.8,2210.34 1642.5,2210.5 Z"/></g>
<g><path style="opacity:1" fill="#202020" d="M 1843.5,2301.5 C 1843.83,2273.33 1843.5,2245.33 1842.5,2217.5C 1842.37,2216.62 1842.7,2215.96 1843.5,2215.5C 1844.83,2244.33 1844.83,2273 1843.5,2301.5 Z"/></g>
<g><path style="opacity:1" fill="#595959" d="M 1820.5,2228.5 C 1818.1,2231.9 1815.1,2234.57 1811.5,2236.5C 1813.9,2233.1 1816.9,2230.43 1820.5,2228.5 Z"/></g>
<g><path style="opacity:0.765" fill="#606060" d="M 1703.5,2244.5 C 1736.83,2244.33 1770.17,2244.5 1803.5,2245C 1801.27,2248.74 1798.27,2251.57 1794.5,2253.5C 1796.63,2250.87 1798.96,2248.37 1801.5,2246C 1768.66,2245.83 1736,2245.33 1703.5,2244.5 Z"/></g>
<g><path style="opacity:0.565" fill="#777777" d="M 1991.5,2244.5 C 1958.5,2245.17 1925.5,2245.83 1892.5,2246.5C 1891.96,2246.44 1891.62,2246.11 1891.5,2245.5C 1924.83,2244.5 1958.16,2244.17 1991.5,2244.5 Z"/></g>
<g><path style="opacity:0.188" fill="#adadad" d="M 1811.5,2250.5 C 1810.83,2250.5 1810.17,2250.5 1809.5,2250.5C 1810.55,2248.07 1811.21,2248.07 1811.5,2250.5 Z"/></g>
<g><path style="opacity:0.984" fill="#434343" d="M 1852.5,2217.5 C 1851.5,2244.99 1851.17,2272.66 1851.5,2300.5C 1850.17,2272.66 1850.17,2244.66 1851.5,2216.5C 1852.11,2216.62 1852.44,2216.96 1852.5,2217.5 Z"/></g>
<g><path style="opacity:0.765" fill="#616161" d="M 1779.5,2277.5 C 1768.99,2277.17 1758.65,2277.51 1748.5,2278.5C 1747.96,2278.44 1747.62,2278.11 1747.5,2277.5C 1758.33,2276.18 1768.99,2276.18 1779.5,2277.5 Z"/></g>
<g><path style="opacity:0.765" fill="#606060" d="M 1915.5,2277.5 C 1926.01,2276.18 1936.67,2276.18 1947.5,2277.5C 1947.38,2278.11 1947.04,2278.44 1946.5,2278.5C 1936.35,2277.51 1926.01,2277.17 1915.5,2277.5 Z"/></g>
<g><path style="opacity:0.004" fill="#dddddd" d="M 1758.5,2299.5 C 1759.04,2299.56 1759.38,2299.89 1759.5,2300.5C 1734.34,2301.83 1709.34,2301.83 1684.5,2300.5C 1709.34,2300.83 1734.01,2300.5 1758.5,2299.5 Z"/></g>
<g><path style="opacity:0.004" fill="#dbdbdb" d="M 1936.5,2299.5 C 1960.99,2300.5 1985.66,2300.83 2010.5,2300.5C 1985.34,2301.66 1960,2301.83 1934.5,2301C 1935.04,2300.28 1935.71,2299.78 1936.5,2299.5 Z"/></g>
<g><path style="opacity:0.765" fill="#616161" d="M 1725.5,2309.5 C 1714.99,2309.17 1704.65,2309.51 1694.5,2310.5C 1693.71,2310.22 1693.04,2309.72 1692.5,2309C 1703.67,2308.17 1714.67,2308.34 1725.5,2309.5 Z"/></g>
<g><path style="opacity:0.765" fill="#626262" d="M 1768.5,2309.5 C 1757.99,2309.17 1747.65,2309.51 1737.5,2310.5C 1736.96,2310.44 1736.62,2310.11 1736.5,2309.5C 1747.33,2308.18 1757.99,2308.18 1768.5,2309.5 Z"/></g>
<g><path style="opacity:0.765" fill="#5d5d5d" d="M 1871.5,2310.5 C 1855.5,2309.17 1839.5,2309.17 1823.5,2310.5C 1822.96,2310.44 1822.62,2310.11 1822.5,2309.5C 1839.17,2308.17 1855.83,2308.17 1872.5,2309.5C 1872.38,2310.11 1872.04,2310.44 1871.5,2310.5 Z"/></g>
<g><path style="opacity:0.765" fill="#606060" d="M 1926.5,2309.5 C 1937.01,2308.18 1947.67,2308.18 1958.5,2309.5C 1958.38,2310.11 1958.04,2310.44 1957.5,2310.5C 1947.35,2309.51 1937.01,2309.17 1926.5,2309.5 Z"/></g>
<g><path style="opacity:1" fill="#595959" d="M 1969.5,2309.5 C 1980.33,2308.34 1991.33,2308.17 2002.5,2309C 1951.94,2361.06 1900.61,2412.22 1848.5,2462.5C 1898.97,2411.53 1949.63,2360.7 2000.5,2310C 1990.17,2309.5 1979.84,2309.33 1969.5,2309.5 Z"/></g>
</svg>
