<svg id="svg" version="1.1" width="300" height="300" xmlns="http://www.w3.org/2000/svg"><path d="M138.000 75.656 C 130.076 76.872,115.770 80.585,110.080 82.902 C 97.167 88.161,91.499 93.087,64.077 122.889 C 58.344 129.119,48.763 138.499,42.785 143.733 C 36.807 148.967,32.149 153.482,32.433 153.766 C 33.791 155.124,52.499 137.226,83.000 105.388 C 99.364 88.307,109.885 82.611,132.806 78.425 C 141.941 76.757,142.234 76.764,148.806 78.849 C 152.488 80.017,157.188 81.224,159.250 81.531 C 162.137 81.962,163.000 82.548,163.000 84.077 C 163.000 86.218,163.556 86.522,169.194 87.457 C 171.608 87.857,173.098 88.732,173.495 89.984 C 173.829 91.036,174.938 92.163,175.959 92.487 C 176.980 92.811,178.092 93.798,178.431 94.680 C 178.947 96.026,178.798 96.077,177.499 94.999 C 175.418 93.272,174.842 94.064,176.515 96.352 C 177.943 98.304,180.000 97.815,180.000 95.525 C 180.000 93.070,172.547 86.001,169.942 85.985 C 167.088 85.967,165.903 85.228,164.419 82.544 C 163.661 81.173,161.418 80.226,156.919 79.377 C 153.388 78.711,148.827 77.454,146.782 76.583 C 143.051 74.994,142.613 74.948,138.000 75.656 M136.250 86.662 C 134.054 87.548,134.905 89.900,138.000 91.500 C 139.650 92.353,141.000 93.731,141.000 94.561 C 141.000 95.743,140.581 95.846,139.066 95.035 C 138.002 94.466,136.077 94.000,134.788 94.000 C 133.499 94.000,131.608 93.023,130.585 91.828 C 128.786 89.728,128.680 89.717,127.362 91.519 C 126.613 92.544,126.000 93.676,126.000 94.035 C 126.000 94.393,128.257 96.590,131.015 98.915 C 133.773 101.241,135.753 103.591,135.415 104.137 C 135.039 104.745,134.161 104.551,133.150 103.636 C 131.967 102.565,131.002 102.419,129.749 103.120 C 128.464 103.840,128.000 103.741,128.000 102.750 C 128.000 100.256,125.881 98.993,123.677 100.173 C 121.987 101.077,121.348 100.826,119.746 98.626 C 118.347 96.706,116.944 96.000,114.524 96.000 C 110.293 96.000,109.189 98.423,112.448 100.558 C 115.085 102.286,116.332 104.654,115.399 106.164 C 115.065 106.704,114.112 106.178,113.283 104.993 C 112.181 103.421,111.134 103.001,109.399 103.436 C 108.093 103.764,106.152 103.487,105.086 102.822 C 100.525 99.973,94.011 107.008,94.004 114.790 C 93.996 124.007,100.251 130.845,109.651 131.893 C 114.412 132.424,115.350 132.909,117.163 135.781 L 119.235 139.061 115.243 138.423 C 112.605 138.001,111.001 138.190,110.513 138.979 C 109.333 140.888,111.066 141.814,117.850 142.903 C 124.249 143.929,127.435 145.487,126.437 147.102 C 126.139 147.584,124.907 147.351,123.698 146.586 C 121.438 145.155,117.000 145.989,117.000 147.845 C 117.000 149.119,119.143 150.718,121.417 151.142 C 122.472 151.339,123.499 151.994,123.700 152.598 C 124.239 154.217,116.954 153.542,115.918 151.877 C 115.221 150.757,114.685 150.733,113.044 151.750 C 110.196 153.515,109.977 153.364,110.631 150.093 C 111.108 147.708,110.735 146.873,108.555 145.444 C 106.554 144.133,105.614 143.986,104.749 144.851 C 102.897 146.703,101.263 146.182,100.597 143.529 C 99.897 140.741,96.498 138.385,95.502 139.997 C 94.446 141.705,93.000 141.103,93.000 138.955 C 93.000 136.363,88.704 132.000,86.152 132.000 C 83.895 132.000,82.462 134.862,83.967 136.367 C 85.378 137.778,85.265 139.000,83.723 139.000 C 83.020 139.000,81.238 137.624,79.763 135.943 C 77.486 133.349,76.771 133.052,75.031 133.983 C 73.470 134.819,73.133 135.683,73.617 137.609 C 74.226 140.036,74.110 140.111,70.731 139.477 C 66.565 138.696,63.000 140.287,63.000 142.928 C 63.000 145.021,64.877 146.000,68.891 146.000 C 71.826 146.000,75.922 148.411,74.834 149.499 C 74.470 149.864,73.216 149.651,72.048 149.026 C 68.748 147.260,66.000 148.633,66.000 152.048 C 66.000 154.420,66.512 155.070,68.750 155.541 C 72.273 156.282,74.285 157.356,74.748 158.743 C 74.970 159.410,74.303 159.631,73.052 159.303 C 71.917 159.007,70.244 159.380,69.332 160.132 C 68.039 161.199,67.582 161.225,67.254 160.250 C 66.675 158.529,63.511 158.679,62.000 160.500 C 59.847 163.094,58.737 162.216,59.439 158.473 C 60.011 155.423,59.690 154.536,57.060 151.906 C 54.852 149.699,53.263 148.952,51.260 149.183 C 48.833 149.462,48.500 149.923,48.499 153.000 C 48.498 155.615,48.119 156.402,46.999 156.113 C 41.427 154.676,40.797 154.804,37.431 158.066 C 33.317 162.054,33.200 163.522,36.595 168.610 C 41.162 175.457,55.642 189.000,58.395 189.000 C 58.741 189.000,56.931 186.431,54.373 183.291 C 49.462 177.262,47.653 173.722,46.558 168.000 C 45.935 164.741,46.097 164.869,48.923 169.871 C 53.455 177.892,58.182 183.208,65.723 188.763 C 76.673 196.830,80.003 198.184,86.417 197.178 C 91.609 196.364,92.115 196.489,97.677 199.967 C 109.208 207.177,121.869 211.480,140.500 214.522 C 151.154 216.262,172.766 216.462,167.000 214.767 C 154.304 211.037,141.571 206.397,134.362 202.875 C 123.972 197.799,122.299 195.893,132.224 200.438 C 140.146 204.067,152.451 208.351,158.000 209.413 C 160.565 209.903,159.086 208.802,152.465 205.291 C 134.058 195.529,119.404 182.286,113.283 169.879 C 108.200 159.578,108.436 157.793,113.670 166.944 C 126.333 189.082,154.658 209.900,176.296 212.971 C 180.913 213.626,185.998 214.006,187.595 213.815 C 190.453 213.473,190.435 213.445,186.500 212.104 C 181.226 210.306,166.873 203.793,167.283 203.384 C 167.460 203.207,170.775 204.165,174.650 205.513 C 184.527 208.948,194.833 210.965,205.427 211.536 L 214.500 212.026 205.726 209.532 C 194.704 206.399,184.089 201.521,174.796 195.319 C 167.230 190.269,153.231 177.170,151.056 173.104 C 150.357 171.798,152.789 173.601,156.460 177.112 C 181.620 201.172,218.839 212.939,247.810 205.994 C 256.523 203.905,265.975 199.939,267.970 197.537 C 268.966 196.337,268.623 196.265,265.717 197.068 C 260.480 198.514,250.332 194.310,240.914 186.792 C 238.942 185.218,235.567 183.444,233.414 182.851 C 231.262 182.258,228.306 180.924,226.846 179.887 C 222.532 176.821,219.017 177.481,212.433 182.594 C 203.725 189.356,203.590 189.399,199.105 186.818 C 195.465 184.723,194.856 184.659,190.117 185.873 L 185.034 187.176 177.767 182.396 C 166.838 175.207,155.035 162.957,150.911 154.524 C 148.039 148.649,147.455 146.281,147.214 139.524 C 146.969 132.649,147.258 130.931,149.229 127.530 C 151.630 123.388,157.142 118.989,159.898 119.015 C 161.201 119.028,161.242 119.194,160.118 119.906 C 159.036 120.591,159.212 120.933,160.925 121.476 C 164.318 122.553,163.095 125.411,158.989 126.000 L 155.500 126.500 157.973 128.250 C 160.893 130.317,161.045 130.331,164.685 128.869 C 169.008 127.132,172.000 127.192,172.000 129.017 C 172.000 131.125,170.023 133.000,167.800 133.000 C 166.810 133.000,166.000 133.402,166.000 133.893 C 166.000 134.861,168.396 136.000,170.433 136.000 C 171.976 136.000,178.000 130.392,178.000 128.956 C 178.000 128.257,178.617 128.260,179.934 128.965 C 180.998 129.534,183.023 130.000,184.434 130.000 C 187.076 130.000,187.848 131.358,185.893 132.566 C 183.947 133.769,187.216 134.955,189.342 133.817 C 191.047 132.905,191.221 133.047,190.725 134.944 C 190.033 137.589,191.762 137.244,193.681 134.354 C 194.885 132.541,194.702 131.900,192.017 128.521 C 188.456 124.041,188.360 123.662,191.000 124.500 C 192.641 125.021,193.000 124.680,193.000 122.603 C 193.000 121.094,192.192 119.638,191.000 119.000 C 188.647 117.741,188.357 116.000,190.500 116.000 C 191.325 116.000,192.000 116.450,192.000 117.000 C 192.000 118.609,194.729 118.148,195.389 116.428 C 196.706 112.996,193.364 110.015,188.168 109.985 C 186.701 109.976,184.880 109.577,184.122 109.096 C 182.481 108.057,183.485 106.000,185.632 106.000 C 186.535 106.000,187.012 105.294,186.812 104.250 C 186.567 102.969,185.174 102.350,181.614 101.940 C 176.166 101.313,173.614 98.940,174.321 95.157 C 174.695 93.150,174.419 92.878,172.401 93.264 C 170.732 93.583,169.872 93.173,169.455 91.857 C 168.725 89.558,166.157 89.427,165.306 91.645 C 164.505 93.732,167.418 95.965,170.046 95.278 C 171.406 94.922,172.000 95.272,172.000 96.429 C 172.000 99.627,176.597 103.000,180.955 103.000 C 184.985 103.000,186.351 104.267,183.500 105.362 C 181.518 106.122,181.575 109.623,183.582 110.393 C 184.452 110.727,186.281 111.000,187.648 111.000 C 191.359 111.000,194.004 112.793,193.970 115.285 C 193.942 117.271,193.834 117.319,192.920 115.750 C 191.646 113.562,189.652 113.510,187.902 115.618 C 186.743 117.014,186.932 117.534,189.279 119.406 C 192.419 121.909,192.708 122.835,190.288 122.639 C 187.593 122.420,187.683 125.366,190.463 128.365 C 191.858 129.871,192.968 131.867,192.930 132.802 C 192.871 134.220,192.735 134.181,192.102 132.566 C 191.582 131.237,191.116 131.003,190.613 131.816 C 189.646 133.382,187.869 133.336,188.075 131.750 C 188.501 128.470,187.965 127.849,185.231 128.449 C 183.484 128.833,181.730 128.505,180.481 127.561 C 178.587 126.129,178.639 126.062,181.683 126.032 C 185.845 125.990,187.152 122.708,184.188 119.744 C 181.532 117.088,179.088 118.010,179.740 121.421 C 180.032 122.948,179.777 124.000,179.117 124.000 C 178.502 124.000,178.000 123.325,178.000 122.500 C 178.000 121.500,177.000 121.000,175.000 121.000 C 172.032 121.000,170.807 118.855,173.000 117.500 C 175.934 115.686,172.889 110.454,169.847 112.082 C 168.266 112.928,168.000 112.687,168.000 110.410 C 168.000 107.985,167.734 107.803,164.986 108.353 L 161.972 108.956 163.479 106.041 C 165.556 102.025,164.497 99.651,160.947 100.361 C 159.056 100.739,158.004 100.453,157.622 99.457 C 157.314 98.656,155.952 98.000,154.594 98.000 C 152.329 98.000,152.173 97.711,152.697 94.477 C 153.115 91.903,152.787 90.423,151.480 88.977 C 149.114 86.364,146.373 86.465,145.660 89.193 C 145.090 91.373,145.072 91.370,142.591 88.693 C 140.157 86.067,138.802 85.633,136.250 86.662 M127.921 110.765 C 123.638 116.972,121.031 124.912,121.012 131.809 C 121.005 134.424,120.607 135.875,120.000 135.500 C 118.453 134.544,118.819 123.888,120.575 118.734 C 122.070 114.345,129.188 105.000,131.034 105.000 C 131.510 105.000,130.109 107.594,127.921 110.765 M117.776 110.750 C 115.129 113.768,112.653 119.292,111.387 125.000 L 110.168 130.500 110.084 126.218 C 109.983 121.063,112.164 115.483,115.740 111.750 C 118.629 108.734,120.235 107.945,117.776 110.750 M133.875 114.550 C 129.179 125.165,130.399 141.103,137.027 155.720 C 140.540 163.468,139.050 163.044,135.117 155.177 C 130.295 145.532,128.710 139.324,128.751 130.244 C 128.785 122.885,129.179 121.080,131.992 115.365 C 135.669 107.895,137.091 107.280,133.875 114.550 M144.154 112.523 C 139.278 116.627,136.014 124.319,135.914 131.946 C 135.840 137.618,135.699 138.096,134.867 135.500 C 132.596 128.408,136.130 117.407,142.222 112.605 C 146.448 109.275,148.098 109.205,144.154 112.523 M102.954 114.086 C 102.340 115.233,101.585 115.919,101.276 115.610 C 100.968 115.301,101.284 114.362,101.980 113.524 C 103.778 111.358,104.264 111.638,102.954 114.086 M168.409 122.500 C 169.784 123.875,172.023 125.000,173.385 125.000 C 176.921 125.000,177.248 128.723,174.022 132.250 C 170.741 135.837,169.349 135.799,172.014 132.195 C 174.826 128.392,173.800 125.865,169.630 126.324 C 167.899 126.515,165.563 127.164,164.438 127.766 C 163.160 128.450,161.850 128.517,160.946 127.946 C 159.727 127.174,159.756 127.028,161.128 127.015 C 163.603 126.992,165.594 124.194,164.158 122.758 C 163.521 122.121,163.000 121.240,163.000 120.800 C 163.000 119.147,165.999 120.090,168.409 122.500 M81.160 150.906 C 80.379 162.169,85.743 175.642,95.930 188.000 L 102.112 195.500 95.263 188.377 C 85.411 178.131,79.000 164.720,79.000 154.355 C 79.000 151.521,80.470 146.001,81.225 145.999 C 81.376 145.999,81.347 148.207,81.160 150.906 M99.825 167.646 C 101.453 170.866,104.903 176.376,107.493 179.890 C 111.603 185.467,111.831 186.016,109.289 184.206 C 104.869 181.059,98.387 173.680,96.095 169.185 C 93.212 163.535,91.774 156.272,92.601 151.537 L 93.306 147.500 95.086 154.646 C 96.065 158.576,98.198 164.426,99.825 167.646 M128.032 164.241 C 134.811 180.130,147.184 193.957,163.000 203.318 C 167.958 206.252,167.756 206.953,162.700 204.355 C 143.656 194.569,127.277 175.763,121.492 157.039 C 120.764 154.682,120.826 154.640,122.949 156.050 C 124.168 156.860,126.456 160.546,128.032 164.241 M60.130 171.250 C 61.966 174.137,65.482 178.750,67.943 181.500 L 72.418 186.500 66.799 181.123 C 63.708 178.165,59.986 173.553,58.527 170.873 C 55.025 164.439,55.935 164.653,60.130 171.250 M83.430 183.540 C 86.818 186.863,93.169 191.970,97.545 194.890 C 107.045 201.230,108.286 202.369,101.500 198.520 C 93.755 194.128,88.713 190.505,82.710 185.018 C 77.167 179.952,71.000 171.499,71.000 168.967 C 71.000 168.220,72.411 169.834,74.136 172.554 C 75.860 175.274,80.043 180.218,83.430 183.540 M227.500 182.000 C 230.637 183.650,233.831 185.000,234.599 185.000 C 235.366 185.000,238.808 187.088,242.247 189.639 C 245.686 192.191,250.750 195.315,253.500 196.581 L 258.500 198.885 254.391 198.942 C 250.560 198.996,247.924 197.921,235.750 191.340 C 231.919 189.269,229.655 189.979,228.590 193.585 L 227.681 196.665 224.590 190.583 C 222.536 186.539,220.525 184.037,218.592 183.120 L 215.684 181.739 218.092 180.405 C 221.297 178.629,220.994 178.578,227.500 182.000 M200.008 189.599 C 202.886 191.579,207.999 194.504,211.370 196.099 C 214.742 197.694,216.985 198.999,216.355 198.999 C 212.481 199.002,189.000 190.016,189.000 188.530 C 189.000 187.979,192.689 186.207,194.138 186.063 C 194.489 186.029,197.130 187.620,200.008 189.599 " stroke="none" fill="black" fill-rule="evenodd"/></svg>