<svg class="img-fluid" xmlns="http://www.w3.org/2000/svg" width="320" height="320" viewBox="0 0 3200 3200">
    <g fill="rgb(0,0,0)">
        <path d="M399 2698 c-20 -11 -46 -38 -58 -58 -21 -37 -21 -43 -21 -800 0 -758 0 -762 21 -800 12 -21 38 -47 59 -59 37 -20 48 -21 459 -21 421 0 421 0 421 40 0 40 0 40 -411 40 -411 0 -411 0 -440 29 -29 29 -29 29 -29 771 0 742 0 742 29 771 29 29 29 29 1171 29 1142 0 1142 0 1171 -29 29 -29 29 -29 29 -771 0 -742 0 -742 -29 -771 -29 -29 -29 -29 -480 -29 -451 0 -451 0 -451 -40 0 -40 0 -40 461 -40 451 0 462 0 499 21 21 12 47 38 59 59 21 38 21 42 21 800 0 758 0 762 -21 800 -12 21 -38 47 -59 59 -38 21 -38 21 -1201 21 -1164 0 -1164 0 -1200 -22z"></path>
        <path d="M570 2505 c-26 -32 13 -81 48 -59 34 22 22 74 -18 74 -10 0 -23 -7 -30 -15z"></path>
        <path d="M730 2505 c-26 -32 13 -81 48 -59 34 22 22 74 -18 74 -10 0 -23 -7 -30 -15z"></path>
        <path d="M890 2505 c-26 -32 13 -81 48 -59 34 22 22 74 -18 74 -10 0 -23 -7 -30 -15z"></path>
        <path d="M1050 2505 c-26 -32 13 -81 48 -59 34 22 22 74 -18 74 -10 0 -23 -7 -30 -15z"></path>
        <path d="M1210 2505 c-26 -32 13 -81 48 -59 34 22 22 74 -18 74 -10 0 -23 -7 -30 -15z"></path>
        <path d="M1370 2505 c-26 -32 13 -81 48 -59 34 22 22 74 -18 74 -10 0 -23 -7 -30 -15z"></path>
        <path d="M1530 2505 c-26 -32 13 -81 48 -59 34 22 22 74 -18 74 -10 0 -23 -7 -30 -15z"></path>
        <path d="M1690 2505 c-26 -32 13 -81 48 -59 34 22 22 74 -18 74 -10 0 -23 -7 -30 -15z"></path>
        <path d="M1850 2505 c-26 -32 13 -81 48 -59 34 22 22 74 -18 74 -10 0 -23 -7 -30 -15z"></path>
        <path d="M2010 2505 c-26 -32 13 -81 48 -59 34 22 22 74 -18 74 -10 0 -23 -7 -30 -15z"></path>
        <path d="M2170 2505 c-26 -32 13 -81 48 -59 34 22 22 74 -18 74 -10 0 -23 -7 -30 -15z"></path>
        <path d="M2330 2505 c-26 -32 13 -81 48 -59 34 22 22 74 -18 74 -10 0 -23 -7 -30 -15z"></path>
        <path d="M2490 2505 c-26 -32 13 -81 48 -59 34 22 22 74 -18 74 -10 0 -23 -7 -30 -15z"></path>
        <path d="M570 2345 c-26 -32 13 -81 48 -59 34 22 22 74 -18 74 -10 0 -23 -7 -30 -15z"></path>
        <path d="M2490 2345 c-26 -32 13 -81 48 -59 34 22 22 74 -18 74 -10 0 -23 -7 -30 -15z"></path>
        <path d="M570 2185 c-26 -32 13 -81 48 -59 34 22 22 74 -18 74 -10 0 -23 -7 -30 -15z"></path>
        <path d="M2490 2185 c-26 -32 13 -81 48 -59 34 22 22 74 -18 74 -10 0 -23 -7 -30 -15z"></path>
        <path d="M570 2025 c-26 -32 13 -81 48 -59 34 22 22 74 -18 74 -10 0 -23 -7 -30 -15z"></path>
        <path d="M2490 2025 c-26 -32 13 -81 48 -59 34 22 22 74 -18 74 -10 0 -23 -7 -30 -15z"></path>
        <path d="M570 1865 c-26 -32 13 -81 48 -59 34 22 22 74 -18 74 -10 0 -23 -7 -30 -15z"></path>
        <path d="M2490 1865 c-26 -32 13 -81 48 -59 34 22 22 74 -18 74 -10 0 -23 -7 -30 -15z"></path>
        <path d="M570 1705 c-26 -32 13 -81 48 -59 34 22 22 74 -18 74 -10 0 -23 -7 -30 -15z"></path>
        <path d="M1530 1705 c-26 -32 13 -81 48 -59 34 22 22 74 -18 74 -10 0 -23 -7 -30 -15z"></path>
        <path d="M2490 1705 c-26 -32 13 -81 48 -59 34 22 22 74 -18 74 -10 0 -23 -7 -30 -15z"></path>
        <path d="M570 1545 c-26 -32 13 -81 48 -59 34 22 22 74 -18 74 -10 0 -23 -7 -30 -15z"></path>
        <path d="M1530 1545 c-26 -32 13 -81 48 -59 34 22 22 74 -18 74 -10 0 -23 -7 -30 -15z"></path>
        <path d="M2490 1545 c-26 -32 13 -81 48 -59 34 22 22 74 -18 74 -10 0 -23 -7 -30 -15z"></path>
        <path d="M570 1385 c-26 -32 13 -81 48 -59 34 22 22 74 -18 74 -10 0 -23 -7 -30 -15z"></path>
        <path d="M1530 1385 c-26 -32 13 -81 48 -59 34 22 22 74 -18 74 -10 0 -23 -7 -30 -15z"></path>
        <path d="M2490 1385 c-26 -32 13 -81 48 -59 34 22 22 74 -18 74 -10 0 -23 -7 -30 -15z"></path>
        <path d="M570 1225 c-26 -32 13 -81 48 -59 34 22 22 74 -18 74 -10 0 -23 -7 -30 -15z"></path>
        <path d="M730 1225 c-26 -32 13 -81 48 -59 34 22 22 74 -18 74 -10 0 -23 -7 -30 -15z"></path>
        <path d="M890 1225 c-26 -32 13 -81 48 -59 34 22 22 74 -18 74 -10 0 -23 -7 -30 -15z"></path>
        <path d="M1050 1225 c-26 -32 13 -81 48 -59 34 22 22 74 -18 74 -10 0 -23 -7 -30 -15z"></path>
        <path d="M1210 1225 c-26 -32 13 -81 48 -59 34 22 22 74 -18 74 -10 0 -23 -7 -30 -15z"></path>
        <path d="M1532 1228 c-9 -9 -12 -81 -12 -261 0 -249 0 -249 31 -315 39 -80 97 -140 175 -178 56 -28 67 -29 224 -34 165 -5 165 -5 168 -82 2 -43 5 -78 8 -78 3 0 17 11 32 25 15 14 64 56 109 93 45 37 82 74 82 82 0 8 -37 45 -82 82 -45 37 -94 79 -109 93 -15 14 -29 25 -32 25 -3 0 -6 -35 -8 -77 -3 -78 -3 -78 -118 -81 -170 -5 -240 14 -313 84 -75 73 -87 127 -87 395 0 220 -3 239 -40 239 -9 0 -21 -5 -28 -12z"></path>
        <path d="M1850 1225 c-26 -32 13 -81 48 -59 34 22 22 74 -18 74 -10 0 -23 -7 -30 -15z"></path>
        <path d="M2010 1225 c-26 -32 13 -81 48 -59 34 22 22 74 -18 74 -10 0 -23 -7 -30 -15z"></path>
        <path d="M2170 1225 c-26 -32 13 -81 48 -59 34 22 22 74 -18 74 -10 0 -23 -7 -30 -15z"></path>
        <path d="M2330 1225 c-26 -32 13 -81 48 -59 34 22 22 74 -18 74 -10 0 -23 -7 -30 -15z"></path>
        <path d="M2490 1225 c-26 -32 13 -81 48 -59 34 22 22 74 -18 74 -10 0 -23 -7 -30 -15z"></path>
    </g>
</svg>