<svg width="210" height="32" viewBox="0 0 210 32" fill="none" xmlns="http://www.w3.org/2000/svg">
<path opacity="0.778" fill-rule="evenodd" clip-rule="evenodd" d="M104.917 0C108.485 3.44701 111.956 7.02166 115.327 10.7243C112.162 13.9508 109.023 17.2084 105.909 20.4973C107.313 21.9676 108.718 23.4378 110.122 24.9081C112.518 22.4 114.913 19.8919 117.309 17.3838C124.525 17.3262 131.738 17.2684 138.954 17.2108C141.212 14.8468 143.469 12.4829 145.728 10.1189C167.152 10.0324 188.575 10.0035 210 10.0324C210 10.436 210 10.8397 210 11.2432C188.797 11.2144 167.592 11.2432 146.389 11.3297C144.517 13.29 142.643 15.2505 140.771 17.2108C154.539 17.2973 168.309 17.3262 182.077 17.2973C182.077 17.7586 182.077 18.2198 182.077 18.6811C160.652 18.6522 139.23 18.6811 117.805 18.7676C115.546 21.1316 113.289 23.4954 111.031 25.8595C112.159 27.0414 113.289 28.2235 114.418 29.4054C114.385 29.7937 114.193 30.1108 113.839 30.3568C113.729 30.4721 113.62 30.4721 113.509 30.3568C112.381 29.1748 111.251 27.9927 110.122 26.8108C108.467 28.5718 106.788 30.3016 105.083 32C103.375 30.2703 101.668 28.5405 99.9607 26.8108C98.7514 27.9903 97.5672 29.2011 96.4083 30.4432C96.0291 30.1699 95.8089 29.824 95.7474 29.4054C96.8764 28.2235 98.0056 27.0414 99.1345 25.8595C96.8764 23.4954 94.6185 21.1316 92.3603 18.7676C70.9362 18.71 49.5123 18.6522 28.0881 18.5946C27.8679 18.191 27.8679 17.7873 28.0881 17.3838C41.5815 17.3262 55.0747 17.2684 68.5681 17.2108C66.6956 15.2505 64.8229 13.29 62.9504 11.3297C41.9668 11.2446 20.9833 11.2735 0 11.4162C0 10.9549 0 10.4938 0 10.0324C21.0942 10.0444 42.1879 10.0155 63.2809 9.94595C65.6994 12.3048 68.0676 14.7264 70.3855 17.2108C77.8206 17.2684 85.2557 17.3262 92.6908 17.3838C95.0889 19.9232 97.5122 22.4313 99.9607 24.9081C101.393 23.5243 102.769 22.0829 104.091 20.5838C101.007 17.2973 97.9229 14.0108 94.8387 10.7243C98.2018 7.14603 101.561 3.5712 104.917 0ZM101.613 5.18919C103.5 3 104.917 1.5 104.917 1.5C109.213 6 104.917 1.5 109.213 6C111.081 7.92494 111.804 8.85293 113.509 10.7243C110.755 13.7225 107.946 16.663 105.083 19.5459C102.194 16.6078 99.3297 13.6384 96.491 10.6378C98.2316 8.84445 99.939 7.02824 101.613 5.18919ZM104.917 21.4486C106.371 22.884 107.803 24.3543 109.213 25.8595C107.809 27.3297 106.404 28.8 105 30.2703C103.596 28.8 102.191 27.3297 100.787 25.8595C102.197 24.412 103.574 22.9418 104.917 21.4486Z" fill="black"/>
</svg>
