<svg width="219" height="126" viewBox="0 0 219 126" fill="none" xmlns="http://www.w3.org/2000/svg">
<mask id="mask0_101_699" style="mask-type:alpha" maskUnits="userSpaceOnUse" x="0" y="0" width="98" height="126">
<rect width="98" height="126" fill="#D9D9D9"/>
</mask>
<g mask="url(#mask0_101_699)">
<path d="M76.9423 28.0538C81.6398 28.1563 87.4715 31.0522 91.6662 35.1656C93.3405 36.7951 95.1579 38.7192 96.556 40.2912C97.2545 41.0765 97.8567 41.7834 98.287 42.3273C98.5005 42.597 98.6836 42.8416 98.8171 43.0432C98.8826 43.142 98.9498 43.2509 99.0039 43.3594C99.0309 43.4134 99.0639 43.4858 99.0911 43.5694C99.106 43.615 99.1309 43.6982 99.1428 43.8055C99.1577 43.8475 99.1832 43.9124 99.2226 44.0033C99.3142 44.2149 99.4557 44.5091 99.6412 44.8711C100.01 45.5914 100.531 46.5348 101.119 47.5348C103.545 51.6228 107.17 60.0404 108.45 64.3327L108.453 64.3422L108.453 64.3422C110.274 70.6815 110.689 73.9269 110.346 79.9463C110.165 83.1357 109.852 85.5695 109.228 87.813C108.601 90.0637 107.672 92.0791 106.305 94.4476M76.9423 28.0538L28.8299 51.3027C29.6245 51.534 30.5188 51.7081 31.4263 51.8189C33.3236 52.0507 35.4422 52.0253 36.9145 51.5532L36.9213 51.551C38.0079 51.1939 38.722 50.9477 39.4718 50.4873C40.1955 50.0428 40.9291 49.4126 42.1226 48.3656L42.1289 48.36C43.4621 47.1705 45.0233 45.0331 46.6896 42.2306L46.6924 42.2257C50.0751 36.4618 52.9312 32.3016 55.6421 29.0612C56.7833 27.7427 58.3224 26.1817 59.7391 24.8684C60.4477 24.2115 61.1174 23.6243 61.684 23.1653C62.2663 22.6934 62.6815 22.4051 62.9032 22.2925C63.3358 22.0812 64.4608 21.3774 65.3544 20.7924L65.3612 20.788L65.368 20.7834C66.2833 20.1625 67.8567 19.4366 69.6025 18.8085C71.3359 18.1849 73.1448 17.6915 74.5045 17.4984C75.5891 17.3599 77.2448 17.2756 78.8696 17.2639C80.5105 17.2521 82.0281 17.3154 82.8521 17.4489C87.7478 18.2479 94.2553 20.9045 99.2693 24.1652C100.428 24.9457 102.284 26.3118 103.917 27.5646C104.733 28.1909 105.485 28.7828 106.059 29.2528C106.347 29.4883 106.584 29.6885 106.76 29.8446C106.911 29.9787 106.982 30.05 107.004 30.0723C107.008 30.0758 107.01 30.0781 107.011 30.0792C107.066 30.1523 107.124 30.2136 107.153 30.2447C107.205 30.3002 107.267 30.3628 107.333 30.4283C107.466 30.56 107.641 30.7263 107.84 30.9139C108.071 31.1307 108.345 31.3865 108.641 31.6618C108.855 31.8605 109.079 32.0693 109.305 32.2809L109.311 32.2858C117.751 40.0616 125.444 52.2184 129.148 63.6785L130.099 63.3715L129.148 63.6789C133.257 76.4154 132.906 92.4753 128.267 104.461M76.9423 28.0538C76.9422 28.0538 76.9421 28.0538 76.9419 28.0538L76.9201 29.0535L76.9423 28.0538ZM106.305 94.4476C106.304 94.4481 106.304 94.4487 106.304 94.4492L105.438 93.9491L106.305 94.4465C106.305 94.4468 106.305 94.4472 106.305 94.4476ZM106.305 94.4476C105.85 95.2416 105.506 95.9329 105.295 96.4679C105.189 96.7366 105.125 96.9439 105.093 97.0915C105.078 97.1615 105.074 97.2027 105.072 97.2206M105.072 97.2206L105.068 97.1952L105.06 97.1653C105.068 97.1956 105.07 97.2166 105.071 97.226C105.071 97.2295 105.071 97.2313 105.071 97.2313C105.072 97.2313 105.072 97.2295 105.072 97.2258C105.072 97.2244 105.072 97.2226 105.072 97.2206ZM105.072 97.2206L105.073 97.2255C105.073 97.2253 105.073 97.2255 105.073 97.226C105.074 97.2308 105.083 97.2681 105.111 97.3486C105.139 97.4313 105.18 97.5376 105.235 97.6682C105.344 97.9293 105.496 98.2591 105.684 98.6428C106.058 99.4088 106.557 100.355 107.098 101.332C108.188 103.3 109.4 105.306 110.068 106.189M110.068 106.189C110.066 106.187 110.065 106.185 110.063 106.183L109.275 106.799L110.072 106.195C110.071 106.193 110.069 106.191 110.068 106.189ZM110.068 106.189C111.615 108.169 113.866 111.182 114.975 112.71L114.975 112.711C115.563 113.523 117.058 115.272 118.475 116.849C119.177 117.63 119.845 118.354 120.352 118.88C120.433 118.962 120.508 119.039 120.578 119.11M120.578 119.11C120.499 119.214 120.427 119.305 120.363 119.381C120.259 119.503 120.199 119.559 120.178 119.577C120.176 119.578 120.175 119.578 120.175 119.578C120.175 119.578 120.2 119.559 120.246 119.537C120.292 119.514 120.438 119.448 120.648 119.46C120.801 119.469 120.912 119.512 120.955 119.529C121.007 119.551 121.043 119.572 121.06 119.581C121.085 119.597 121.1 119.607 121.1 119.608C121.1 119.608 121.099 119.607 121.096 119.605C121.078 119.59 121.034 119.553 120.959 119.484C120.859 119.391 120.731 119.266 120.578 119.11ZM120.578 119.11C120.745 118.889 120.943 118.606 121.169 118.263C121.828 117.262 122.66 115.85 123.54 114.249C125.301 111.043 127.21 107.165 128.267 104.461M128.267 104.461C128.266 104.461 128.266 104.462 128.266 104.462L129.198 104.823L128.267 104.459C128.267 104.46 128.267 104.46 128.267 104.461ZM99.126 43.7519C99.1264 43.7519 99.1289 43.7597 99.1322 43.7742C99.1273 43.759 99.1257 43.7519 99.126 43.7519Z" stroke="black" stroke-width="2"/>
<path d="M113.273 46.9879L113.279 46.9818L113.285 46.9759C117.035 43.3392 118.74 41.1867 121.318 37.0183C126.934 27.8998 128.912 17.0873 126.997 5.71744C125.559 -2.68593 121.175 -13.9768 115.252 -24.3387C102.729 -46.2454 98.4636 -55.7952 94.6891 -70.3833L93.4093 -75.3112L91.4438 -77.0029C90.2015 -78.0527 88.978 -79.0451 88.6944 -79.2356L88.658 -79.2601L88.6239 -79.2876C88.4862 -79.3988 88.2396 -79.6474 87.9687 -79.9279C87.6737 -80.2333 87.2888 -80.6412 86.8425 -81.1228C85.9501 -82.0856 84.8038 -83.3516 83.6255 -84.6973C79.6484 -89.1657 78.4953 -90.6795 75.6592 -95.1037C75.6553 -95.0717 75.6515 -95.0392 75.6477 -95.0062L75.6463 -94.9943L75.6446 -94.9825C75.632 -94.8927 75.6185 -94.7958 75.6041 -94.6929C75.4767 -93.7793 75.2845 -92.4016 75.0891 -91.5149C74.8994 -90.5226 74.7274 -89.586 74.703 -89.2969L74.7022 -89.2877L74.7013 -89.2786C74.476 -87.0918 73.4295 -82.9464 72.0435 -78.3572C70.6491 -73.7402 68.8821 -68.5806 67.1751 -64.3237C67.1747 -64.3226 67.1743 -64.3215 67.1738 -64.3204L66.3375 -62.192L68.1201 -57.6753C68.1203 -57.6748 68.1204 -57.6744 68.1206 -57.674C71.0261 -50.3606 74.7711 -43.9319 83.4641 -31.2743L83.4642 -31.2741C92.5378 -18.0564 96.8299 -11.1918 100.342 -4.20923L100.343 -4.20681C102.985 1.08208 106.072 9.60906 106.751 13.5363L106.752 13.5413C106.86 14.1845 106.983 14.7887 107.089 15.2395C107.142 15.4662 107.189 15.6441 107.225 15.7646C107.235 15.7974 107.242 15.8222 107.248 15.84C107.318 15.965 107.346 16.072 107.354 16.1044L107.355 16.1084C107.377 16.189 107.389 16.2655 107.396 16.3229C107.412 16.4409 107.421 16.5759 107.426 16.7114C107.436 16.9877 107.435 17.351 107.425 17.7691C107.403 18.6075 107.342 19.7184 107.242 20.9062C106.785 27.5532 104.587 32.7332 100.322 36.9371L100.322 36.9377C94.8515 42.3211 87.4483 44.2251 81.2381 41.6393L81.2321 41.6367C78.6245 40.5309 76.5742 39.0309 74.7195 36.6071C72.89 34.2164 71.2708 30.9524 69.4612 26.361C67.8159 22.2248 66.7526 19.7238 65.7084 17.7916C64.6778 15.8847 63.6569 14.5158 62.0685 12.6638L62.0617 12.6557C59.8891 10.0678 57.874 8.28327 55.7758 7.10625C53.6889 5.93556 51.4707 5.33824 48.8497 5.1947L48.8456 5.19446C43.9585 4.90696 39.7017 6.44554 35.7996 9.88286C32.3463 12.9344 30.51 17.246 30.3513 21.3069C30.1924 25.3745 31.7096 29.0557 34.7882 31.0433L34.7959 31.0484C37.186 32.6231 39.5527 32.9639 42.6479 32.1072C43.1876 31.957 43.6758 31.8124 44.1113 31.6746C40.4588 31.407 37.4155 29.7232 36.091 26.8157C34.2857 22.986 35.3807 18.9317 38.7248 16.0634L38.7337 16.0559C41.2716 13.9297 43.666 13.0609 46.4811 13.4598L46.4872 13.4607C49.4091 13.8934 51.4444 15.3171 53.6123 18.1397L53.6142 18.1421C55.6753 20.8426 56.879 23.6965 59.3048 31.1777L59.3071 31.185C61.2021 37.1849 62.9328 41.2271 64.9765 44.5364L64.9772 44.5376C66.0065 46.2095 66.987 47.6534 67.7613 48.6576C68.1515 49.1637 68.4703 49.5332 68.7037 49.7612C68.7529 49.8091 68.7933 49.846 68.8253 49.8737C68.9346 49.8858 69.0287 49.9088 69.1002 49.9297C69.262 49.977 69.4145 50.0461 69.5491 50.1207C69.8154 50.2683 70.0921 50.4822 70.3169 50.7444C70.3826 50.821 70.6376 51.0461 71.1102 51.4055C71.5514 51.741 72.1115 52.1413 72.7133 52.5528C73.9258 53.3818 75.2548 54.2202 76.0767 54.651L76.0767 54.651L76.0887 54.6575C77.2989 55.3131 79.202 56.0166 81.2124 56.585C83.22 57.1526 85.2449 57.5602 86.683 57.6591C87.1818 57.6934 88.4672 57.6731 89.6942 57.6218C90.2974 57.5966 90.8635 57.5649 91.2839 57.5313C91.4962 57.5144 91.6582 57.498 91.7649 57.4835C91.7716 57.4826 91.7778 57.4817 91.7836 57.4809C91.7978 57.475 91.8116 57.4695 91.8249 57.4644C91.8551 57.4529 91.8824 57.4436 91.9047 57.4364C91.9769 57.4128 92.0564 57.3915 92.1317 57.3728C92.2856 57.3344 92.4835 57.2919 92.7054 57.2477C93.1525 57.1587 93.7395 57.0548 94.3598 56.9544L94.3673 56.9532L94.3748 56.9521C98.2361 56.3875 102.42 54.611 108.478 50.922C108.809 50.71 109.161 50.4926 109.46 50.3151C109.691 50.178 109.943 50.0328 110.129 49.9447C110.133 49.9416 110.137 49.9382 110.142 49.9344C110.19 49.8973 110.261 49.8398 110.355 49.7597C110.541 49.6006 110.792 49.3756 111.092 49.0977C111.691 48.5431 112.466 47.7973 113.273 46.9879ZM74.8943 -96.1687C74.8943 -96.1687 74.8946 -96.1684 74.8952 -96.1679L74.8943 -96.1687ZM68.9294 49.9517C68.9297 49.9512 68.9216 49.9457 68.9059 49.9377C68.9085 49.9395 68.9107 49.941 68.9126 49.9422C68.9237 49.9493 68.9292 49.9521 68.9294 49.9517Z" fill="white" stroke="black" stroke-width="2"/>
<path d="M105.156 52.9329C105.045 52.9159 104.035 53.6051 102.92 54.4099C97.8831 58.077 91.5337 59.2346 83.5664 57.9856M105.156 52.9329C105.289 52.9268 105.561 52.5819 105.787 52.1948M105.156 52.9329L105.11 51.934C105.015 51.9384 104.937 51.9566 104.88 51.9746C104.824 51.9926 104.779 52.0133 104.748 52.0294C104.689 52.0603 104.653 52.089 104.643 52.0973C104.634 52.1052 104.631 52.1082 104.635 52.104C104.639 52.0997 104.65 52.088 104.668 52.0665C104.677 52.0559 104.686 52.0444 104.696 52.032M105.156 52.9329L105.305 51.9556L105.787 52.1948M105.787 52.1948C105.989 51.7866 106.844 50.6172 107.702 49.5362C109.798 46.9578 111.24 44.1217 112.418 40.3672C113.19 37.8944 114.068 33.4005 114.106 31.8257M105.787 52.1948L104.923 51.6909C104.918 51.6986 104.914 51.7063 104.909 51.7139M114.106 31.8257C114.103 31.7558 113.728 31.7446 113.201 31.8039L114.106 31.8257ZM114.106 31.8257L113.107 31.8719C113.121 32.1734 113.266 32.3918 113.391 32.5173C113.505 32.6315 113.619 32.6877 113.672 32.7111C113.732 32.7377 113.78 32.7508 113.803 32.7566C113.829 32.763 113.847 32.7659 113.854 32.7668C113.856 32.7671 113.857 32.7673 113.857 32.7673C113.857 32.7676 113.82 32.7642 113.733 32.7662C113.565 32.7702 113.312 32.792 113.013 32.8377M113.013 32.8377C113.067 32.4177 113.099 32.0682 113.106 31.8153C112.994 31.8292 112.877 31.846 112.756 31.866C110.646 32.2294 106.803 32.4957 102.71 32.6185C101.205 32.6438 100.04 32.8527 99.9851 33.099M113.013 32.8377C112.919 33.5765 112.759 34.5335 112.556 35.5666C112.239 37.1777 111.835 38.8806 111.464 40.0692M113.013 32.8377C112.983 32.8423 112.953 32.8471 112.922 32.8521M99.9851 33.099C99.9512 33.3221 99.8023 34.4146 99.6996 35.5493C99.2027 40.1363 97.5792 43.3575 94.5652 45.7346C92.8116 47.1007 89.0825 48.8683 88.4723 48.6085M99.9851 33.099L100.974 33.2496C100.962 33.3238 100.936 33.5119 100.902 33.7746M99.9851 33.099L100.961 33.3172C100.89 33.6329 100.687 33.7866 100.647 33.8155C100.589 33.858 100.556 33.8668 100.585 33.8556C100.631 33.8376 100.733 33.8075 100.902 33.7746M88.4723 48.6085C88.3145 48.5493 88.0955 48.6038 87.9689 48.7425C87.8635 48.8582 87.5139 48.963 87.2064 49.0215C86.8969 49.0358 85.7724 49.1543 84.7384 49.3129C82.6473 49.6089 79.4875 49.3119 72.9494 48.307C65.7399 47.156 61.64 47.6114 58.4049 49.9987C55.5112 52.1043 53.647 55.8684 53.7432 59.3867M88.4723 48.6085L88.3066 49.0504L88.1213 49.5448C88.2709 49.6009 88.3921 49.587 88.4614 49.5689C88.5345 49.5498 88.6252 49.507 88.7079 49.4162C88.6269 49.5052 88.5395 49.5736 88.462 49.625M88.4723 48.6085L88.2905 49.0356L88.0806 49.5286C88.2088 49.5831 88.3392 49.6119 88.462 49.625M53.7432 59.3867C53.7528 59.6686 53.7691 59.9257 53.7912 60.1554C53.8967 59.8897 54.0078 59.6299 54.1243 59.3762L53.7432 59.3867ZM53.7432 59.3867L54.1255 59.3736C54.3336 58.9209 54.5592 58.4878 54.8016 58.0754M54.8016 58.0754C54.7516 58.5042 54.7313 58.9325 54.7427 59.356C54.7556 59.73 54.7806 60.0447 54.8131 60.2965C56.3182 56.6713 58.8924 54.4047 62.1514 53.8799M54.8016 58.0754C55.1273 55.2818 56.7128 52.4667 58.9933 50.8073L58.9933 50.8073L58.9987 50.8033C61.8954 48.6658 65.6443 48.1533 72.7918 49.2945L72.7918 49.2946L72.7975 49.2954C79.2949 50.2941 82.6122 50.6239 84.8786 50.303L84.8786 50.3031L84.89 50.3013C85.9106 50.1448 86.9949 50.0324 87.2526 50.0204L87.3236 50.0172L87.3934 50.0039C87.5806 49.9682 87.7936 49.9164 87.9896 49.8488C88.0873 49.8151 88.1981 49.7715 88.3065 49.7156C88.3475 49.6945 88.4018 49.6649 88.462 49.625M54.8016 58.0754C56.4682 55.2403 58.9305 53.3864 61.9901 52.893M62.1514 53.8799C64.7459 53.4498 67.8928 53.9468 74.4929 55.8129C77.8371 56.7439 81.9371 57.7286 83.5664 57.9856M62.1514 53.8799L61.9879 52.8934C61.9886 52.8933 61.9893 52.8932 61.9901 52.893M62.1514 53.8799L61.9925 52.8927C61.9917 52.8928 61.9909 52.8929 61.9901 52.893M83.5664 57.9856L83.7222 56.9978M83.5664 57.9856L83.7212 56.9977C83.7216 56.9977 83.7219 56.9978 83.7222 56.9978M83.7222 56.9978C82.154 56.7504 78.1022 55.7796 74.7629 54.8501M83.7222 56.9978C91.5105 58.2186 97.5687 57.069 102.332 53.6015L102.335 53.5991C102.897 53.1936 103.439 52.8121 103.859 52.5315C104.067 52.3925 104.258 52.2701 104.411 52.1804C104.485 52.1369 104.57 52.0899 104.652 52.0515C104.665 52.0457 104.68 52.0391 104.696 52.032M74.7629 54.8501C68.1849 52.9903 64.8334 52.4222 61.9901 52.893M74.7629 54.8501C74.7623 54.8499 74.7617 54.8497 74.7611 54.8495L74.4929 55.8128L74.7649 54.8506C74.7643 54.8504 74.7636 54.8503 74.7629 54.8501ZM104.696 52.032C104.732 52.0166 104.777 51.999 104.827 51.9834L104.83 51.9822C104.87 51.9696 105.048 51.9133 105.273 51.9398L104.891 51.75C104.897 51.7382 104.903 51.7262 104.909 51.7139M104.696 52.032C104.757 51.9545 104.832 51.8436 104.909 51.7139M104.909 51.7139C105.061 51.4216 105.365 50.9788 105.688 50.5316C106.045 50.0391 106.482 49.4646 106.919 48.9143L106.926 48.9053L106.926 48.9053C108.927 46.4448 110.315 43.7286 111.464 40.0692M111.464 40.0692L112.418 40.367L111.464 40.0679C111.464 40.0683 111.464 40.0688 111.464 40.0692ZM112.922 32.8521C112.923 32.8519 112.925 32.8517 112.926 32.8515L112.756 31.866L112.919 32.8527C112.92 32.8525 112.921 32.8523 112.922 32.8521ZM112.922 32.8521C110.736 33.2281 106.835 33.4952 102.74 33.618L102.727 33.6184L102.727 33.6183C102.009 33.6304 101.397 33.6862 100.978 33.7605C100.952 33.7653 100.926 33.77 100.902 33.7746M100.902 33.7746C100.842 34.2369 100.76 34.9299 100.696 35.6394L100.695 35.6482L100.694 35.657C100.174 40.4531 98.4511 43.9434 95.1844 46.5198L95.1797 46.5235C94.2231 47.2687 92.7806 48.0884 91.5172 48.6854C90.8817 48.9857 90.2619 49.2438 89.7445 49.4121C89.4881 49.4955 89.2306 49.5655 88.995 49.6031C88.8804 49.6214 88.6836 49.6487 88.462 49.625M54.5283 61.0342L53.8782 60.7821C53.8633 60.7062 53.8495 60.6243 53.8367 60.5365C53.8521 60.5293 53.8682 60.5222 53.8851 60.5154C54.186 60.3953 54.4877 60.4622 54.6923 60.5962C54.636 60.7402 54.5813 60.8862 54.5283 61.0342ZM54.5283 61.0342L53.8823 60.8029C54.0307 61.5436 54.2726 61.6937 54.5283 61.0342Z" fill="white" stroke="black" stroke-width="2"/>
</g>
<mask id="path-5-inside-1_101_699" fill="white">
<path d="M83.0002 0H172C197.958 0 219 21.0426 219 47V82H130C104.043 82 83.0002 60.9574 83.0002 35V0Z"/>
</mask>
<path d="M83.0002 0H172C197.958 0 219 21.0426 219 47V82H130C104.043 82 83.0002 60.9574 83.0002 35V0Z" fill="white"/>
<path d="M83.0002 0H219H83.0002ZM219 84H130C102.938 84 81.0002 62.062 81.0002 35H85.0002C85.0002 59.8528 105.147 80 130 80H219V84ZM130 84C102.938 84 81.0002 62.062 81.0002 35V0H85.0002V35C85.0002 59.8528 105.147 80 130 80V84ZM219 0V82V0Z" fill="black" mask="url(#path-5-inside-1_101_699)"/>
</svg>
