<svg width="136" height="111" viewBox="0 0 136 111" fill="none" xmlns="http://www.w3.org/2000/svg">
<path d="M111 0.971249L111 1.9425L60.3563 1.94249L53.6038 8.69499C49.8899 12.4089 46.8513 15.4614 46.8513 15.4706C46.8513 15.4845 48.8076 15.4937 51.1941 15.4937L55.5416 15.4937L59.4081 11.6272L63.2793 7.76074L82.3666 7.77C92.8608 7.77462 101.917 7.77925 102.49 7.77925C103.064 7.78387 105.205 7.77462 107.254 7.76537L110.977 7.74687L110.991 8.70887L111 9.66625L99.8908 9.6755C93.7765 9.68012 88.6196 9.6755 88.43 9.67087L88.0831 9.66162L84.1981 13.5466L80.3131 17.4362L67.8719 17.4362L58.5294 26.7787L49.1869 36.1212L49.1638 42.624L49.1406 49.1221L42.7119 49.1221C39.1738 49.1221 36.2461 49.136 36.1999 49.1545C36.1583 49.173 31.9264 53.3817 26.8019 58.5062L17.4825 67.8256L17.4825 80.2669L13.5975 84.1519L9.7125 88.0369L9.7125 111L7.77 111L7.77 63.2654L11.655 59.385L15.54 55.5046L15.54 51.1571C15.54 48.7614 15.5308 46.805 15.5169 46.805C15.503 46.805 12.4505 49.8436 8.74125 53.5575L1.98875 60.31L1.98413 60.532C1.9795 60.6522 1.97025 71.9557 1.96563 85.655C1.95637 99.3542 1.95175 110.658 1.94712 110.778L1.9425 111L-1.43051e-06 111L3.06766e-06 59.5469L3.885 55.6619L7.77 51.7769L7.77001 7.76999L51.7769 7.76999L55.6619 3.88499L59.5469 -5.92869e-06L111 -1.43051e-06L111 0.971249ZM56.6424 17.1495L49.1638 24.6281L49.173 28.9987L49.1869 33.3694L58.1224 24.4292L67.0625 15.4937L79.4806 15.4937L82.3343 12.6401C83.9068 11.0676 85.1925 9.75875 85.1925 9.731C85.1925 9.68937 82.5054 9.6755 74.6568 9.67087L64.121 9.67087L56.6424 17.1495ZM9.73563 9.72174C9.72176 9.75411 9.71713 18.7821 9.72176 29.785L9.73563 49.7881L12.6355 46.8975L15.54 44.0069L15.54 15.4937L44.0531 15.4937L46.9345 12.6124C48.5163 11.0306 49.8113 9.72174 49.8113 9.70324C49.8113 9.68474 40.7971 9.67087 29.785 9.66624C13.7686 9.66624 9.74951 9.67549 9.73563 9.72174ZM18.9163 17.4732C18.9163 17.4917 20.2113 18.8006 21.7976 20.387L24.6744 23.2637L47.7763 23.2637L50.6669 20.3639C52.2579 18.7729 53.5575 17.4594 53.5575 17.4501C53.5575 17.4455 45.7644 17.4362 36.2369 17.4362C26.7094 17.4362 18.9163 17.4501 18.9163 17.4732ZM17.4918 36.2369L17.4918 53.5159L17.5935 53.4326C17.6444 53.3864 18.9486 52.0914 20.4888 50.5512L23.2869 47.7531L23.3008 36.3294C23.3054 30.044 23.3008 24.8362 23.2823 24.7484C23.2638 24.6189 22.8013 24.1379 20.4518 21.7837C18.907 20.2344 17.6074 18.9671 17.5658 18.9671C17.4918 18.9625 17.4871 19.9569 17.4918 36.2369ZM36.0611 26.2284C35.5061 26.788 35.0575 27.2551 35.0668 27.2597C35.0714 27.269 35.446 27.4771 35.89 27.7269C36.334 27.9766 36.9399 28.3142 37.2313 28.4807C37.5226 28.6472 37.8788 28.8461 38.0175 28.9201C38.1563 28.9987 38.5124 29.1976 38.8038 29.3595C39.0951 29.526 39.4513 29.7202 39.59 29.7989C39.7288 29.8729 39.96 30.0024 40.0988 30.0856C40.2375 30.1689 40.9451 30.562 41.6713 30.9644C42.3974 31.3667 43.1744 31.8015 43.4056 31.9356C43.6323 32.0651 43.9653 32.2547 44.1456 32.3519C44.3214 32.4444 44.7191 32.6664 45.0244 32.8375C46.1483 33.4757 47.175 34.04 47.1981 34.04C47.212 34.04 47.2213 32.0512 47.2213 29.6231L47.2213 25.2062L37.074 25.2062L36.0611 26.2284ZM25.308 25.2386L25.2063 25.2617L25.2063 29.7202C25.2109 32.7589 25.2248 34.1834 25.2571 34.2065C25.2849 34.2204 26.2885 33.2537 27.4864 32.0559C32.3426 27.2135 34.2481 25.2941 34.262 25.2525C34.2805 25.2016 25.5069 25.1877 25.308 25.2386ZM39.5345 38.1239L47.2213 45.8106L47.2213 36.3016L47.0224 36.186C46.916 36.1212 46.546 35.9131 46.2038 35.7189C45.1308 35.1269 44.7284 34.9002 43.7988 34.3776C43.3039 34.0955 42.5824 33.6977 42.2031 33.485C41.8193 33.2722 40.9266 32.7727 40.2144 32.375C37.5504 30.8765 36.9723 30.5527 36.7225 30.4186C36.5838 30.3446 36.334 30.2059 36.1675 30.1087C35.0483 29.4659 34.7985 29.3271 33.9521 28.8692L33.6099 28.6842L32.7311 29.5584L31.8478 30.4371L39.5345 38.1239ZM29.563 32.7219L28.712 33.5821L29.0589 34.1926C29.2485 34.5302 29.6185 35.187 29.8775 35.6587C30.1411 36.1305 30.4371 36.6577 30.5435 36.8381C30.6453 37.0139 30.7701 37.2359 30.821 37.3237C30.8673 37.4116 31.0384 37.7122 31.1956 37.9944C31.3529 38.2719 31.5934 38.7112 31.7275 38.9656C31.8616 39.22 31.9911 39.4559 32.0189 39.4882C32.042 39.5206 32.1114 39.6362 32.1669 39.7426C32.2224 39.849 32.4398 40.2375 32.6525 40.6075C32.8653 40.9775 33.1104 41.4122 33.1983 41.5787C33.2861 41.7452 33.5266 42.18 33.7394 42.55C33.9475 42.92 34.1695 43.3131 34.2343 43.4287C34.2944 43.5444 34.4886 43.8866 34.6644 44.1919C35.0575 44.8902 35.5894 45.8476 35.8206 46.2731C36.149 46.8882 36.26 47.0732 36.3248 47.1241C36.371 47.1657 37.6198 47.1796 41.07 47.175C43.6461 47.175 45.7644 47.1657 45.7783 47.1519C45.8153 47.1195 30.5574 31.8662 30.4834 31.8662C30.4464 31.8662 30.0348 32.2501 29.563 32.7219ZM26.233 36.0565L25.2294 37.0555L25.2155 42.0782C25.2109 44.8394 25.2201 47.1149 25.2433 47.138C25.2849 47.1796 34.0354 47.1981 34.0724 47.1565C34.0863 47.1472 34.0539 47.0779 34.003 47.0039C33.9521 46.9345 33.7764 46.6246 33.6145 46.3194C33.2445 45.6349 32.5739 44.437 32.2224 43.8311C32.079 43.5814 31.9588 43.3686 31.9588 43.3547C31.9588 43.3455 31.7414 42.957 31.4778 42.4899C30.9089 41.4909 30.1504 40.1311 29.9561 39.775C29.8821 39.6362 29.7526 39.405 29.6694 39.2662C29.5908 39.1275 29.4428 38.8639 29.3456 38.6881C29.1236 38.2719 28.5918 37.3284 28.2819 36.7919C28.1478 36.5606 28.0321 36.3525 28.0229 36.3247C27.9766 36.1906 27.306 35.0575 27.2736 35.0575C27.2505 35.0575 26.7834 35.5061 26.233 36.0565ZM17.205 56.5869L9.73563 64.0562L9.72175 74.629C9.7125 83.0974 9.72175 85.1971 9.768 85.1832C9.80038 85.174 11.1139 83.879 12.6818 82.3019L15.54 79.4344L15.54 67.0209L24.4663 58.0946C29.3734 53.1829 33.3925 49.1545 33.3925 49.1406C33.3925 49.1267 31.4315 49.1175 29.0311 49.1175L24.6744 49.1175L17.205 56.5869Z" fill="black"/>
<mask id="mask0_102_1090" style="mask-type:alpha" maskUnits="userSpaceOnUse" x="18" y="17" width="118" height="94">
<path d="M36.0215 49.5L49.5 49.5V36L67.5 17.5H135.5V51.5L134 111H18V80V67.5L36.0215 49.5Z" fill="#D9D9D9"/>
</mask>
<g mask="url(#mask0_102_1090)">
<path d="M22 15.0005H24.2008H25.5863C25.2534 28.8638 27.8914 38.3054 32.6013 45.0318C37.3238 51.7763 44.0361 55.6554 51.5432 58.5712C52.1978 61.3252 52.7394 64.1882 53.2958 67.1296C53.4498 67.9435 53.6049 68.7634 53.7639 69.5887C53.6055 69.5638 53.4474 69.539 53.2896 69.5143C40.7579 67.5486 30.0731 65.8726 22 57.5699V15.0005ZM99.1313 105.544C86.7395 104.177 78.5928 100.934 73.1018 96.7251L72.4935 97.5188L73.1018 96.7251C65.6255 90.9953 62.5979 83.2354 60.5768 74.5256C59.95 71.8242 59.4422 69.0924 58.9286 66.3296C58.608 64.6049 58.2851 62.868 57.9296 61.119C57.0141 56.6144 55.8978 52.1239 54.0809 47.9241L53.1631 48.3211L54.0809 47.924C50.5787 39.8293 44.2275 33.0032 32.4385 29.715C31.5376 25.5862 31.2787 20.0252 31.3851 14.9999H47.6361C59.7298 20.5532 64.6616 26.9617 66.9309 34.0268L67.883 33.721L66.9309 34.0268C68.0938 37.6471 68.5375 41.5467 68.7027 45.6961C68.8022 48.1975 68.8004 50.7326 68.7984 53.341C68.7971 55.0983 68.7958 56.8888 68.8255 58.7247C68.9715 67.7579 69.959 77.4968 76.1966 86.7582L77.026 86.1996L76.1966 86.7583C80.7303 93.4896 87.9233 99.8044 99.1313 105.544ZM74.9006 66.1146C82.642 68.7955 90.2366 72.2255 96.8953 77.9169C102.884 83.0354 108.157 90.019 112.073 100.021C100.286 85.7201 88.2154 78.6451 76.6125 74.6806C75.7296 71.8719 75.208 69.017 74.9006 66.1146ZM34.0931 36.1772C40.7447 38.633 44.6465 42.3616 47.2907 46.9758C44.2918 46.1655 41.6561 45.0356 39.4604 43.3742C37.2039 41.6669 35.3694 39.3659 34.0931 36.1772ZM74.4781 50.5501C74.4705 45.8796 74.3353 41.1512 73.4083 36.5086C82.0354 38.5437 90.3398 41.7695 96.8066 47.6257C102.807 53.0599 107.301 60.8278 108.935 72.2174C104.688 65.2583 99.638 60.5026 94.1634 57.209C87.8992 53.4404 81.1289 51.6165 74.4781 50.5501Z" stroke="black" stroke-width="2"/>
</g>
</svg>
