<?xml version="1.0" encoding="UTF-8" standalone="no"?>
<svg
   viewBox="0 0 841.89 70.87"
   version="1.1"
   id="svg64"
   xmlns:inkscape="http://www.inkscape.org/namespaces/inkscape"
   xmlns:sodipodi="http://sodipodi.sourceforge.net/DTD/sodipodi-0.dtd"
   xmlns="http://www.w3.org/2000/svg"
   xmlns:svg="http://www.w3.org/2000/svg">
  <g
     id="g62">
    <g
       id="Borders">
      <polygon
         points="811.57,3.78 809.63,3.67 807.67,3.79 804.76,3.64 803.86,3.76 803.01,3.68 801.02,3.7 800.05,3.77 798.15,3.66 797.18,3.73 796.28,3.68 795.4,3.71 795.4,3.7 795.04,3.71 795.04,3.73 793.47,3.78 792.44,3.67 791.38,3.78 790.61,3.78 789.61,3.7 788.64,3.74 785.71,3.67 784.79,3.73 783.8,3.69 782.91,3.77 782.15,3.7 780.92,3.67 780.03,3.77 779.12,3.7 778.15,3.77 776.27,3.66 773.47,3.72 770.52,3.65 767.75,3.74 766.74,3.66 765.75,3.72 764.81,3.7 764.81,3.68 764.56,3.68 764.56,3.69 762.86,3.65 761.94,3.73 761.06,3.68 760.05,3.69 759.06,3.75 758.15,3.73 757.21,3.76 756.25,3.73 755.36,3.75 754.77,3.69 754.76,3.69 754.31,3.65 753.37,3.77 752.48,3.68 751.46,3.75 749.51,3.67 748.59,3.78 747.68,3.72 746.79,3.78 746.03,3.69 744.82,3.66 744.38,3.67 744.38,3.67 744.13,3.67 744.13,3.68 741.08,3.73 740.04,3.64 738.98,3.75 738.26,3.77 737.33,3.65 735.26,3.68 734.27,3.77 733.52,3.76 732.48,3.65 731.42,3.73 729.62,3.68 727.69,3.75 726.73,3.72 725.86,3.73 724.84,3.66 723.85,3.74 723.82,3.74 721.97,3.65 720.97,3.76 719.19,3.69 718.18,3.7 717.29,3.77 716.37,3.65 714.44,3.73 713.73,3.68 713.68,3.67 713.68,3.67 713.4,3.65 712.44,3.76 710.54,3.65 709.56,3.74 708.68,3.72 706.89,3.76 705.81,3.63 704.88,3.76 704.03,3.65 701.06,3.76 700.09,3.74 699.25,3.77 696.32,3.71 695.46,3.76 694.48,3.65 693.44,3.75 693.41,3.75 693.41,3.75 693.28,3.75 692.53,3.73 691.59,3.78 689.72,3.67 688.8,3.75 687.86,3.65 686.84,3.72 685.9,3.69 684.94,3.75 683.99,3.73 683.12,3.75 680.25,3.67 678.35,3.74 677.36,3.66 676.33,3.77 675.57,3.76 674.7,3.69 673.47,3.65 672.55,3.77 670.76,3.65 668.86,3.72 667.9,3.66 666.95,3.7 665.9,3.69 665.02,3.77 663.07,3.65 662.17,3.76 661.45,3.69 660.32,3.67 658.45,3.75 657.48,3.7 654.7,3.77 653.7,3.68 652.74,3.76 651.85,3.69 650.87,3.72 649.99,3.72 648.96,3.64 647.97,3.73 647.07,3.7 645.25,3.75 644.22,3.65 643.24,3.75 642.44,3.7 642.44,3.7 642.4,3.69 642.36,3.69 642.35,3.69 642.35,3.69 642.03,3.7 642.03,3.7 641.38,3.72 640.45,3.69 639.51,3.7 638.49,3.66 637.59,3.73 636.71,3.65 632.87,3.72 631.9,3.66 629.94,3.77 629.05,3.74 628.1,3.77 627.22,3.76 626.26,3.68 625.22,3.69 624.29,3.76 623.38,3.69 622.4,3.73 622,3.71 622,3.71 621.75,3.7 621.75,3.7 620.47,3.65 618.59,3.75 617.6,3.74 615.82,3.78 614.86,3.69 612.9,3.75 611.98,3.71 611.69,3.72 611.69,3.71 611.44,3.71 611.44,3.72 609.2,3.78 608.18,3.64 607.15,3.73 606.2,3.68 605.27,3.76 604.37,3.69 603.38,3.73 601.49,3.69 601.49,3.69 601.49,3.69 601.44,3.68 600.54,3.74 599.66,3.68 596.8,3.72 595.75,3.7 593,3.76 592.04,3.69 591.2,3.72 591.2,3.72 591.07,3.72 590.12,3.66 589.16,3.71 588.16,3.66 587.15,3.76 586.39,3.77 585.42,3.69 584.36,3.71 583.52,3.78 582.78,3.68 581.54,3.66 580.92,3.67 580.8,3.67 580.8,3.67 580.59,3.67 579.56,3.79 578.85,3.78 577.83,3.66 576.78,3.73 575.86,3.7 574.94,3.74 574.06,3.74 572.98,3.66 572.06,3.77 571.17,3.68 570.75,3.71 570.75,3.71 570.72,3.71 570.5,3.72 570.5,3.72 570.11,3.75 569.25,3.75 567.29,3.7 566.33,3.78 565.41,3.75 564.54,3.76 562.5,3.69 561.55,3.78 558.7,3.64 557.7,3.79 557.02,3.78 556.01,3.65 553.08,3.77 552.12,3.72 551.21,3.78 550.66,3.73 550.66,3.73 550.29,3.69 550.2,3.7 547.46,3.75 546.42,3.72 544.6,3.75 542.61,3.65 541.69,3.76 540.82,3.67 540.19,3.7 540.19,3.69 539.94,3.7 539.94,3.7 539.83,3.71 537.9,3.67 536.09,3.69 534.04,3.65 532.2,3.77 531.33,3.72 530.38,3.73 530.13,3.72 530.13,3.72 529.88,3.7 529.88,3.71 529.4,3.68 527.54,3.74 526.51,3.67 525.55,3.78 524.66,3.72 523.77,3.77 522.86,3.66 521.83,3.68 520.81,3.65 519.86,3.73 519.84,3.73 519.64,3.72 519.64,3.72 517.95,3.7 516.17,3.76 512.34,3.69 511.4,3.76 510.5,3.68 509.57,3.7 509.57,3.7 509.51,3.71 509.42,3.71 509.38,3.7 508.48,3.7 506.61,3.79 504.84,3.76 503.8,3.66 502.87,3.75 501.93,3.65 500.02,3.78 499.58,3.76 499.58,3.75 499.33,3.72 499.33,3.75 498.08,3.68 497.17,3.73 496.23,3.66 493.36,3.76 491.41,3.67 490.5,3.75 489.59,3.68 488.59,3.73 487.59,3.69 486.76,3.78 485.9,3.65 484.82,3.66 483.87,3.66 482.03,3.73 481,3.65 479.98,3.74 478.2,3.69 477.24,3.72 476.29,3.71 475.37,3.75 474.43,3.67 473.44,3.71 472.43,3.66 471.43,3.77 469.73,3.78 468.87,3.71 468.87,3.71 468.76,3.7 468.48,3.71 468.48,3.71 466.85,3.76 464.88,3.66 463.93,3.73 463.04,3.7 461.19,3.76 460.22,3.65 459.19,3.74 457.32,3.67 456.38,3.74 454.46,3.67 453.58,3.69 452.57,3.69 449.83,3.76 448.45,3.72 448.45,3.72 448.2,3.7 448.2,3.72 446.87,3.68 446,3.75 445.1,3.67 444.1,3.71 443.09,3.68 442.16,3.78 441.29,3.73 440.4,3.76 439.46,3.66 438.39,3.68 437.99,3.71 437.99,3.71 437.74,3.73 437.74,3.73 437.47,3.75 436.56,3.69 434.69,3.78 433.87,3.71 431.78,3.68 428.96,3.76 427.05,3.69 424.27,3.77 423.29,3.73 422.39,3.78 421.59,3.7 419.47,3.67 415.79,3.78 414.82,3.7 413.85,3.74 412.86,3.68 411.92,3.75 411,3.69 409.15,3.76 407.63,3.7 407.63,3.69 407.38,3.68 407.38,3.69 406.23,3.65 405.29,3.68 404.32,3.65 401.54,3.73 400.54,3.67 399.54,3.74 398.65,3.74 397.78,3.74 397.36,3.73 397.36,3.73 397.23,3.72 396.71,3.7 395.82,3.78 394.86,3.69 393.85,3.78 392.95,3.75 392.1,3.76 389.07,3.67 388.14,3.78 386.38,3.66 383.52,3.72 381.53,3.69 380.67,3.71 379.61,3.69 378.7,3.78 377.8,3.73 376.85,3.78 376.72,3.77 376.72,3.77 374.93,3.69 373.11,3.71 371.09,3.68 370.22,3.75 369.25,3.68 368.26,3.78 366.5,3.68 366.48,3.68 366.37,3.68 365.46,3.7 364.49,3.78 362.63,3.69 361.61,3.78 360.79,3.79 357.85,3.73 357.01,3.76 356.01,3.7 355.1,3.78 354.17,3.69 353.17,3.77 351.3,3.69 350.41,3.75 349.46,3.66 348.46,3.72 347.54,3.68 346.15,3.71 346.15,3.7 345.9,3.71 345.9,3.72 345.62,3.72 343.77,3.68 340.92,3.71 339.94,3.77 338.07,3.69 337.11,3.78 336.04,3.75 336.04,3.74 335.79,3.74 335.79,3.75 335.28,3.73 334.36,3.78 333.45,3.7 330.62,3.77 329.82,3.68 328.63,3.66 327.71,3.7 326.69,3.67 325.76,3.78 325.76,3.78 325.67,3.77 325.67,3.77 322.98,3.67 321.08,3.75 319.18,3.72 318.23,3.78 317.43,3.77 316.55,3.7 315.62,3.69 315.62,3.68 315.43,3.68 315.43,3.68 315.42,3.68 315.42,3.68 315.31,3.68 315.31,3.69 313.54,3.76 312.62,3.72 311.72,3.76 309.72,3.65 308.81,3.75 307.9,3.69 306.93,3.76 306.03,3.72 305.13,3.75 304.12,3.66 303.21,3.75 302.35,3.65 301.28,3.66 300.31,3.77 299.48,3.7 298.52,3.72 297.49,3.69 295.64,3.75 293.7,3.67 292.81,3.75 291.9,3.66 289.99,3.77 288.06,3.7 287.18,3.72 286.13,3.69 285.16,3.78 284.97,3.78 284.97,3.78 284.94,3.78 284.72,3.78 284.72,3.78 284.38,3.78 283.36,3.71 282.35,3.79 279.55,3.67 278.65,3.74 277.68,3.66 276.63,3.77 275.89,3.78 274.91,3.68 273.89,3.73 272.04,3.66 270.17,3.75 269.19,3.66 268.17,3.75 267.26,3.73 266.4,3.75 265.47,3.68 264.55,3.69 264.55,3.69 264.53,3.69 264.53,3.69 264.52,3.69 264.38,3.69 264.38,3.69 262.48,3.65 261.51,3.74 260.7,3.75 259.83,3.74 258.76,3.65 257.74,3.76 255.95,3.69 254.97,3.74 254.18,3.72 254.16,3.72 254.16,3.72 254.04,3.72 253.15,3.75 252.2,3.68 250.31,3.74 249.38,3.65 248.32,3.67 247.3,3.78 246.5,3.79 245.63,3.78 244.62,3.68 241.79,3.75 240.77,3.72 239.88,3.76 238.88,3.68 237.83,3.77 237.06,3.78 236.05,3.69 235.05,3.78 234.16,3.73 231.35,3.77 230.37,3.72 229.48,3.76 228.46,3.65 227.41,3.77 222.76,3.66 220.88,3.69 219.87,3.77 218.06,3.72 217.15,3.75 216.17,3.68 215.25,3.74 214.25,3.65 213.27,3.78 211.43,3.7 210.48,3.74 209.56,3.71 207.68,3.77 206.71,3.74 205.75,3.79 203.94,3.71 203.28,3.72 203.28,3.72 203.23,3.72 203.03,3.72 203.03,3.72 202.97,3.72 201.08,3.65 199.15,3.73 198.18,3.69 197.27,3.77 196.39,3.71 194.53,3.75 193.58,3.66 191.6,3.71 190.74,3.77 189.85,3.66 188.82,3.68 187.8,3.68 186.94,3.7 185.93,3.65 184.92,3.75 183.17,3.77 182.91,3.76 182.91,3.76 182.76,3.76 182.66,3.76 182.66,3.76 182.31,3.75 181.24,3.65 180.2,3.77 179.45,3.78 177.56,3.66 175.55,3.76 173.69,3.69 172.69,3.79 172.67,3.79 172.67,3.79 172.62,3.79 171.92,3.79 170.91,3.71 169.96,3.78 168.01,3.66 167.14,3.77 166.21,3.65 165.22,3.77 164.36,3.7 163.43,3.74 162.6,3.66 162.6,3.66 162.51,3.65 162.42,3.65 162.42,3.65 162.42,3.65 162.04,3.69 162.04,3.69 161.48,3.74 160.52,3.65 159.5,3.78 156.73,3.73 155.91,3.75 154.91,3.66 153.9,3.75 153.01,3.73 152.27,3.74 152.27,3.74 152.09,3.74 151.24,3.74 150.29,3.65 149.25,3.67 148.23,3.74 147.48,3.75 146.65,3.67 145.5,3.66 144.56,3.66 143.64,3.72 142.68,3.65 141.91,3.72 141.91,3.71 141.67,3.74 141.66,3.74 141.66,3.74 141.62,3.74 140.82,3.76 139.84,3.71 138.96,3.76 137.93,3.64 136.89,3.78 135.11,3.7 133.31,3.78 132.32,3.66 130.33,3.77 128.45,3.73 127.51,3.78 125.64,3.66 124.6,3.74 123.83,3.75 122.83,3.65 121.81,3.72 121.75,3.72 121.75,3.72 121.5,3.71 121.5,3.72 119.85,3.68 118.99,3.78 118.25,3.7 117.07,3.68 115.28,3.74 114.23,3.67 113.27,3.77 112.42,3.73 111.48,3.75 111.48,3.74 111.14,3.75 111.14,3.76 110.57,3.78 109.66,3.65 108.62,3.67 107.61,3.65 106.7,3.7 105.67,3.65 104.78,3.77 103.95,3.68 101.22,3.76 101.22,3.75 101.02,3.76 100.05,3.75 99.22,3.76 98.19,3.65 97.21,3.75 95.28,3.67 94.39,3.75 93.51,3.69 92.56,3.7 91.49,3.68 90.61,3.77 89.86,3.69 88.69,3.67 87.79,3.72 86.76,3.65 85.82,3.78 84.96,3.72 83.96,3.78 82.24,3.7 81.08,3.69 80.68,3.72 80.68,3.72 80.54,3.74 80.19,3.77 79.33,3.71 78.34,3.72 75.49,3.65 73.62,3.75 72.71,3.69 70.78,3.74 70.66,3.73 69.82,3.68 68.82,3.74 66.99,3.67 66.05,3.71 65.14,3.65 64.16,3.66 63.07,3.66 62.22,3.77 61.32,3.68 60.38,3.77 59.52,3.67 56.51,3.76 55.72,3.76 54.67,3.67 53.75,3.77 53.02,3.69 51.86,3.67 50.03,3.78 50,3.78 49.09,3.71 48.06,3.71 47.18,3.77 46.23,3.65 44.31,3.76 43.39,3.71 41.53,3.74 40.5,3.65 39.44,3.75 38.66,3.77 34.8,3.66 33.84,3.72 32.92,3.71 32.04,3.74 31.09,3.66 29.14,3.75 27.4,3.67 26.19,3.65 25.32,3.78 24.48,3.71 20.68,3.77 19.73,3.73 19.59,3.73 19.59,3.73 19.47,3.73 18.83,3.74 17.86,3.65 16.87,3.7 15.83,3.65 14.83,3.78 14.02,3.79 12.19,3.78 10.25,3.67 9.2,3.72 9.29,5.71 9.39,7.71 9.39,7.71 9.39,7.71 9.42,7.71 9.51,7.71 10.22,7.67 11.07,7.73 13.08,7.79 14.97,7.78 16.01,7.66 16.86,7.7 17.76,7.66 18.68,7.75 19.41,7.74 19.41,7.74 19.61,7.73 19.67,7.73 20.62,7.77 24.38,7.72 25.44,7.8 26.45,7.66 29.18,7.75 29.66,7.73 29.66,7.73 29.91,7.72 29.91,7.72 31.01,7.67 31.95,7.75 32.97,7.71 33.93,7.72 34.87,7.67 38.67,7.77 39.61,7.75 40,7.71 40,7.71 40.25,7.69 40.25,7.69 40.52,7.66 41.38,7.74 43.3,7.71 44.27,7.77 46.13,7.67 47.07,7.78 48.14,7.71 48.94,7.71 49.92,7.78 50.08,7.78 50.08,7.78 50.32,7.77 50.32,7.76 51.93,7.67 52.69,7.68 53.74,7.79 54.71,7.69 55.55,7.76 59.31,7.67 59.98,7.75 59.98,7.75 59.99,7.75 60.34,7.79 60.43,7.78 60.43,7.78 60.48,7.78 61.3,7.7 62.29,7.8 63.33,7.66 64.16,7.66 65.03,7.66 66.01,7.72 66.97,7.68 68.91,7.74 69.81,7.69 70.28,7.72 70.29,7.72 70.74,7.75 72.59,7.69 73.58,7.76 75.49,7.66 78.33,7.72 79.21,7.71 80.24,7.78 80.81,7.73 80.81,7.73 81.05,7.71 81.24,7.69 84.04,7.78 84.93,7.73 85.96,7.8 86.91,7.67 87.77,7.73 88.76,7.67 89.56,7.68 90.62,7.78 91.64,7.68 92.54,7.7 93.4,7.69 94.41,7.76 95.42,7.68 97.27,7.76 98.18,7.67 99.04,7.76 100.05,7.75 101.08,7.76 101.08,7.76 101.33,7.75 103.78,7.68 104.83,7.79 105.83,7.66 106.7,7.71 107.69,7.65 108.61,7.67 109.42,7.66 110.4,7.79 112.33,7.73 113.38,7.78 114.31,7.68 115.15,7.74 116.17,7.74 117.16,7.68 117.95,7.69 119.02,7.8 120.05,7.68 121.88,7.73 122.76,7.67 123.65,7.76 124.72,7.74 125.63,7.68 127.55,7.79 128.5,7.73 130.41,7.78 131.76,7.7 131.76,7.71 132.01,7.69 132.01,7.69 132.21,7.68 133.11,7.79 135.11,7.71 137.12,7.79 137.98,7.67 138.84,7.77 139.85,7.71 140.76,7.77 141.79,7.74 142.02,7.72 142.02,7.72 142.27,7.7 142.27,7.7 142.69,7.66 143.62,7.74 144.64,7.66 145.5,7.66 146.35,7.66 147.3,7.76 148.35,7.74 149.36,7.66 150.13,7.66 150.97,7.73 152.11,7.74 152.11,7.74 152.11,7.74 152.12,7.74 152.31,7.74 153,7.73 154.04,7.75 154.91,7.68 155.79,7.76 156.79,7.72 159.72,7.78 160.59,7.68 161.51,7.76 162.45,7.66 163.32,7.74 164.27,7.71 165.3,7.79 166.19,7.68 167.14,7.81 168.16,7.67 169.97,7.79 170.9,7.72 171.77,7.79 172.45,7.79 172.45,7.79 172.6,7.79 172.8,7.79 173.77,7.7 175.68,7.76 177.44,7.66 179.39,7.78 180.33,7.77 181.28,7.67 182.02,7.74 182.61,7.76 182.61,7.76 182.86,7.76 182.86,7.76 183.16,7.77 185.06,7.74 186.02,7.66 186.89,7.7 187.84,7.68 188.85,7.68 189.64,7.66 190.64,7.79 193.45,7.67 194.39,7.76 196.3,7.71 197.3,7.78 198.28,7.7 199.2,7.73 201.05,7.65 202.93,7.72 203.21,7.72 203.34,7.72 203.85,7.71 205.81,7.79 206.74,7.74 207.66,7.77 209.56,7.72 210.52,7.75 211.47,7.7 213.33,7.79 213.4,7.79 213.72,7.75 214.31,7.67 215.2,7.76 216.17,7.69 217.08,7.76 218.06,7.72 220.03,7.77 221,7.69 222.72,7.66 223.41,7.68 223.41,7.69 223.66,7.7 223.66,7.68 227.62,7.77 228.47,7.67 229.35,7.77 230.35,7.73 231.26,7.77 233.76,7.74 233.76,7.75 234.01,7.74 234.01,7.74 234.13,7.74 235.14,7.79 236.04,7.7 236.92,7.79 237.98,7.77 238.89,7.69 239.79,7.77 240.79,7.73 241.73,7.75 244,7.7 244,7.71 244.25,7.7 244.25,7.69 244.52,7.69 245.32,7.77 246.48,7.79 247.43,7.78 248.5,7.67 249.24,7.65 250.21,7.74 252.11,7.68 253.06,7.75 254.06,7.72 255.02,7.74 255.94,7.7 257.93,7.76 258.8,7.67 259.56,7.74 260.7,7.75 261.65,7.74 262.66,7.65 264.47,7.69 264.48,7.69 264.48,7.69 264.5,7.69 265.34,7.68 266.3,7.75 267.26,7.73 268.31,7.75 269.19,7.68 270.1,7.76 272.01,7.67 273.94,7.73 274.81,7.69 275.72,7.78 276.77,7.77 277.71,7.68 278.63,7.76 279.62,7.68 282.49,7.79 283.37,7.72 284.24,7.78 285.26,7.78 286.27,7.7 287.17,7.72 288.07,7.7 288.96,7.71 289.96,7.77 291.82,7.68 292.8,7.77 293.8,7.68 295.64,7.75 297.48,7.69 298.5,7.72 299.35,7.7 300.4,7.79 301.44,7.66 302.14,7.65 303.17,7.77 304.14,7.68 305.02,7.75 306.01,7.72 306.99,7.76 307.91,7.7 308.89,7.76 309.87,7.65 311.64,7.77 312.63,7.73 313.6,7.76 315.38,7.68 315.43,7.68 316.3,7.7 317.19,7.76 318.34,7.78 319.27,7.72 321.15,7.76 323.02,7.67 325.9,7.79 326.86,7.67 327.73,7.71 328.7,7.66 329.49,7.67 330.48,7.78 333.31,7.7 334.29,7.79 335.32,7.73 337.2,7.79 338.13,7.7 340.04,7.78 343.75,7.68 345.68,7.72 347.45,7.68 348.5,7.73 349.39,7.67 350.34,7.77 351.34,7.7 353.25,7.77 354.13,7.71 355.09,7.79 356.07,7.71 356.96,7.76 357.92,7.72 360.78,7.79 361.73,7.78 362.69,7.7 364.6,7.79 365.6,7.7 366.38,7.68 366.51,7.69 366.51,7.69 368.4,7.78 369.3,7.69 370.23,7.76 371.24,7.68 373.07,7.71 374.88,7.69 376.84,7.78 376.85,7.78 376.86,7.78 376.96,7.78 376.96,7.77 377.78,7.74 378.78,7.79 379.77,7.7 380.68,7.71 381.56,7.69 383.51,7.72 386.26,7.66 386.65,7.7 386.65,7.7 386.89,7.72 387.08,7.74 388.3,7.78 389.26,7.67 392.02,7.75 392.9,7.75 393.97,7.78 394.86,7.7 395.8,7.79 396.8,7.71 396.97,7.71 396.97,7.71 397.22,7.72 397.22,7.72 397.72,7.74 398.64,7.74 399.67,7.75 400.57,7.68 401.46,7.73 404.29,7.65 405.3,7.68 406.26,7.65 409.13,7.75 410.96,7.7 411.94,7.76 412.9,7.69 413.81,7.74 414.73,7.71 415.65,7.78 417.57,7.72 417.57,7.73 417.81,7.72 417.81,7.72 419.49,7.67 421.29,7.69 422.31,7.79 423.3,7.73 424.21,7.78 426.15,7.75 427.11,7.69 427.61,7.71 427.61,7.71 427.86,7.72 427.86,7.72 428.98,7.76 431.8,7.68 433.59,7.7 434.61,7.79 436.52,7.69 437.5,7.77 438.1,7.72 438.32,7.7 438.32,7.7 438.54,7.68 439.29,7.66 440.25,7.76 441.24,7.74 442.27,7.79 443.23,7.69 444.11,7.71 445,7.68 445.99,7.77 447.02,7.68 449.82,7.76 452.6,7.69 453.61,7.69 454.49,7.67 456.42,7.75 457.38,7.67 458.27,7.7 458.27,7.71 458.52,7.72 458.52,7.71 459.29,7.74 460.15,7.67 461.07,7.78 463.01,7.7 464.01,7.74 464.96,7.66 466.77,7.76 468.59,7.71 468.65,7.71 469.57,7.78 471.58,7.76 472.55,7.67 473.43,7.71 474.34,7.68 475.29,7.75 476.32,7.71 477.27,7.72 478.15,7.7 478.65,7.71 478.65,7.72 478.9,7.73 478.9,7.72 480.07,7.74 481.03,7.66 481.9,7.73 482.94,7.72 483.92,7.66 484.83,7.66 485.62,7.65 486.66,7.8 487.72,7.7 488.62,7.73 489.04,7.71 489.29,7.7 489.52,7.69 490.51,7.77 491.5,7.68 493.35,7.76 496.17,7.67 497.14,7.73 498.12,7.68 499.98,7.79 501.87,7.66 502.83,7.77 503.8,7.68 506.68,7.79 508.52,7.7 509.35,7.7 509.35,7.7 509.54,7.7 509.54,7.7 509.54,7.7 510.37,7.69 511.38,7.78 512.41,7.69 516.18,7.76 518.01,7.7 519.97,7.73 520.92,7.65 521.79,7.68 522.66,7.67 523.64,7.79 524.65,7.73 525.65,7.79 526.59,7.69 527.45,7.75 529.38,7.69 529.69,7.7 529.69,7.7 529.94,7.71 529.94,7.71 530.3,7.73 531.24,7.72 532.26,7.78 534.12,7.65 536.04,7.69 537.86,7.67 539.88,7.71 540.7,7.68 541.72,7.78 542.7,7.67 544.58,7.74 546.38,7.72 547.41,7.75 550.17,7.7 550.19,7.7 551.16,7.8 552.16,7.72 553.09,7.77 555.86,7.66 556.62,7.76 557.96,7.79 558.86,7.66 560.3,7.72 560.3,7.75 560.55,7.76 560.55,7.73 561.71,7.78 562.66,7.69 564.43,7.76 565.38,7.75 566.44,7.78 567.37,7.7 569.25,7.75 570.2,7.75 570.75,7.71 570.75,7.71 571,7.7 571.09,7.69 572.1,7.79 573.08,7.68 573.84,7.73 575,7.74 575.89,7.71 576.87,7.73 577.72,7.67 578.48,7.77 579.79,7.79 580.76,7.67 580.85,7.67 581.1,7.66 581.1,7.66 581.56,7.66 582.38,7.66 583.41,7.8 585.31,7.69 586.24,7.77 587.28,7.76 588.26,7.67 589.16,7.72 590.09,7.67 590.91,7.72 591.02,7.73 591.02,7.73 591.03,7.73 591.2,7.72 591.35,7.72 591.96,7.69 592.91,7.76 595.74,7.7 596.78,7.72 598.64,7.68 599.52,7.68 600.54,7.75 601.38,7.7 601.54,7.69 603.39,7.74 604.31,7.7 605.3,7.77 606.27,7.69 607.22,7.74 608.09,7.66 608.97,7.78 611.89,7.71 612.87,7.76 614.72,7.69 615.54,7.78 618.67,7.74 620.51,7.66 622.38,7.73 623.3,7.7 624.29,7.77 625.33,7.69 626.12,7.68 626.98,7.75 628.13,7.77 629.02,7.75 630.03,7.78 631.86,7.67 632,7.68 632.79,7.73 636.55,7.65 637.57,7.75 638.57,7.66 639.45,7.7 640.4,7.69 641.37,7.73 642.16,7.7 642.16,7.7 642.3,7.7 643.31,7.77 644.23,7.67 645.1,7.75 647.08,7.71 648.09,7.73 648.99,7.66 649.77,7.71 650.92,7.72 651.75,7.7 652.33,7.74 652.38,7.75 652.75,7.78 653.69,7.7 654.58,7.78 657.46,7.71 658.39,7.75 660.37,7.67 661.15,7.68 662.22,7.78 662.99,7.69 663,7.69 663.22,7.66 665.05,7.78 666.07,7.69 667,7.7 667.86,7.67 668.8,7.72 670.69,7.66 672.7,7.78 672.96,7.75 673.21,7.72 673.21,7.72 673.68,7.66 675.3,7.76 676.42,7.77 677.4,7.68 678.3,7.75 680.21,7.68 682.88,7.75 682.88,7.75 683.05,7.75 683.09,7.75 683.12,7.75 683.99,7.73 685.02,7.75 685.96,7.69 686.92,7.73 687.79,7.66 688.75,7.77 689.73,7.69 691.64,7.79 692.6,7.74 693.09,7.74 693.09,7.74 693.26,7.75 693.59,7.75 694.45,7.67 695.36,7.77 696.4,7.72 699.25,7.77 700.1,7.74 701.13,7.76 703.42,7.68 703.42,7.68 703.67,7.67 703.85,7.66 704.89,7.8 705.86,7.67 706.68,7.76 708.69,7.72 709.7,7.75 710.62,7.66 712.53,7.77 713.47,7.67 713.51,7.67 713.62,7.68 714.33,7.74 716.22,7.66 717.2,7.79 718.29,7.7 719.11,7.69 721.14,7.76 722.04,7.66 723.69,7.73 723.69,7.74 723.87,7.74 723.9,7.74 723.97,7.74 724.14,7.73 724.14,7.73 724.87,7.67 725.75,7.73 726.69,7.72 727.71,7.75 729.58,7.69 731.5,7.73 732.43,7.67 733.2,7.74 733.89,7.76 733.89,7.76 734.14,7.77 734.14,7.77 734.43,7.78 735.43,7.68 737.08,7.65 738.06,7.78 739.17,7.75 740.08,7.66 740.95,7.73 744.82,7.66 745.65,7.67 746.68,7.8 747.69,7.73 748.68,7.79 749.66,7.68 751.51,7.75 752.4,7.69 753.42,7.8 754.38,7.68 755.23,7.76 756.24,7.73 757.2,7.76 758.16,7.73 759.16,7.76 760.14,7.69 760.97,7.68 761.99,7.74 762.98,7.66 765.8,7.73 766.72,7.67 767.62,7.74 770.49,7.65 773.41,7.72 774.77,7.69 774.77,7.71 775.02,7.71 775.02,7.69 776.26,7.67 778.18,7.78 779.11,7.71 780.09,7.78 781.1,7.67 781.84,7.69 782.91,7.79 783.91,7.69 784.83,7.73 785.81,7.67 788.61,7.74 789.54,7.71 790.38,7.77 791.48,7.78 792.43,7.69 793.3,7.78 796.21,7.68 797.22,7.73 798.17,7.67 800.09,7.78 802.85,7.68 803.91,7.79 804.93,7.66 805.4,7.68 805.53,7.69 807.75,7.79 809.62,7.68 811.51,7.78 812.51,7.74 813.55,7.76 814.41,7.66 815.31,7.76 817.22,7.66 818.21,7.75 819.22,7.67 821.17,7.75 822.14,7.65 823.05,7.67 823.93,7.66 824.94,7.73 825.91,7.67 825.92,7.67 826.03,7.66 826.04,7.66 825.91,5.6 825.8,3.67 825.79,3.67 825.69,3.67 825.67,3.68 824.96,3.72 824.04,3.66 823.07,3.67 821.98,3.65 821.04,3.74 819.16,3.67 818.25,3.74 817.32,3.65 815.71,3.73 815.46,3.75 815.41,3.75 814.4,3.64 813.35,3.76 812.48,3.74 "
         id="polygon19" />
      <polygon
         points="802.31,63.1 800.37,63.2 799.45,63.15 798.5,63.18 796.59,63.17 795.34,63.19 795.34,63.18 795.09,63.18 795.09,63.19 794.74,63.19 793.79,63.12 792.82,63.16 791.87,63.11 790.89,63.15 789.94,63.14 788.13,63.21 787.21,63.14 784.38,63.18 783.42,63.1 781.42,63.17 780.49,63.16 778.72,63.17 777.71,63.07 776.65,63.15 774.95,63.17 774.95,63.17 774.91,63.17 772.98,63.08 772,63.11 771.02,63.09 769.19,63.21 768.3,63.14 767.33,63.15 765.3,63.07 764.44,63.19 763.63,63.08 762.54,63.09 761.59,63.19 760.66,63.09 759.64,63.2 756.83,63.1 755.88,63.2 754.61,63.17 754.61,63.15 754.37,63.14 754.36,63.16 753.06,63.13 750.3,63.2 749.32,63.15 747.49,63.2 745.5,63.08 744.52,63.17 743.64,63.15 741.83,63.18 739.79,63.13 738.94,63.16 737.94,63.1 736.99,63.19 735.05,63.11 734.11,63.21 733.96,63.2 733.96,63.2 733.23,63.18 732.3,63.21 730.41,63.17 729.49,63.21 727.58,63.1 725.65,63.13 724.77,63.19 723.84,63.07 722.78,63.13 721.88,63.12 719.06,63.15 718.05,63.14 717.19,63.19 716.39,63.11 715.22,63.08 714.27,63.09 713.47,63.19 713.47,63.18 713.31,63.2 712.48,63.14 711.49,63.15 710.52,63.14 708.67,63.17 707.73,63.09 706.74,63.13 705.71,63.09 704.8,63.19 703.87,63.12 703.33,63.17 703.33,63.17 703.09,63.19 703.09,63.19 702.93,63.21 702,63.13 701.09,63.2 700.33,63.11 699.06,63.08 698.19,63.17 697.44,63.1 696.19,63.09 695.36,63.2 694.43,63.08 693.48,63.19 693.34,63.17 693.34,63.17 692.77,63.1 691.49,63.08 688.76,63.21 687.95,63.19 686.93,63.08 685,63.2 683.09,63.1 682.15,63.16 681.23,63.13 679.36,63.19 678.39,63.16 677.57,63.17 676.6,63.07 675.53,63.11 674.59,63.19 673.69,63.16 672.83,63.2 672.83,63.2 672.74,63.2 672.74,63.2 672.74,63.2 672.71,63.2 672.7,63.2 671.83,63.19 670.94,63.19 669.97,63.14 669.02,63.17 668.09,63.12 666.14,63.2 665.36,63.19 664.37,63.09 662.5,63.13 662.45,63.13 661.48,63.08 660.5,63.13 657.74,63.08 656.75,63.09 655.73,63.2 652.92,63.09 652.07,63.18 651.17,63.08 649.21,63.2 648.28,63.17 646.47,63.2 645.51,63.11 644.55,63.15 643.58,63.07 642.56,63.15 642.3,63.15 642.3,63.15 642.22,63.15 641.68,63.15 638.88,63.18 637.9,63.14 636.92,63.2 635.06,63.17 634.16,63.19 633.32,63.18 632.32,63.07 631.99,63.09 631.99,63.09 631.74,63.1 631.74,63.11 630.3,63.19 628.42,63.18 627.6,63.21 626.68,63.12 623.81,63.19 622.86,63.13 621.89,63.15 621.83,63.14 621.69,63.14 621.69,63.14 620.92,63.11 620.04,63.11 618.99,63.09 616.26,63.15 614.24,63.11 613.3,63.19 611.51,63.1 611.45,63.11 611.43,63.11 611.32,63.11 611.32,63.11 609.58,63.21 607.72,63.08 606.75,63.11 605.8,63.08 604.88,63.11 603.86,63.09 601.95,63.21 599.16,63.15 598.28,63.15 597.26,63.12 595.42,63.18 592.47,63.1 591.58,63.13 591.08,63.13 590.96,63.13 590.96,63.13 590.64,63.13 589.74,63.19 588.75,63.06 587.71,63.18 586.84,63.15 585.94,63.16 584.97,63.11 584.03,63.14 582.99,63.08 582.01,63.19 581.14,63.17 580.87,63.17 580.74,63.18 580.74,63.18 580.24,63.18 579.35,63.17 578.31,63.09 577.37,63.17 576.47,63.1 574.55,63.18 572.61,63.08 571.68,63.15 570.8,63.1 570.76,63.1 570.75,63.1 570.75,63.1 570.52,63.11 570.45,63.11 570.45,63.11 569.78,63.15 568.82,63.12 567.87,63.18 566.92,63.16 566.06,63.18 563.17,63.09 560.48,63.2 560.45,63.2 559.46,63.08 557.56,63.17 556.72,63.11 555.63,63.09 554.67,63.14 553.68,63.1 552.76,63.19 551.84,63.13 550.83,63.2 550.39,63.2 550.14,63.19 550.14,63.2 549.94,63.19 549.08,63.2 548.06,63.17 545.27,63.2 544.31,63.15 542.43,63.2 541.48,63.15 540.5,63.19 540.06,63.18 539.96,63.17 539.96,63.17 539.56,63.16 538.67,63.17 537.64,63.12 536.68,63.2 535.8,63.18 534.87,63.2 532.93,63.12 531.96,63.19 531.16,63.18 530.17,63.1 529.85,63.11 529.85,63.11 529.6,63.12 529.6,63.13 529.15,63.15 528.22,63.14 526.36,63.18 524.51,63.1 523.55,63.1 522.6,63.1 520.76,63.19 519.84,63.08 519.65,63.09 519.65,63.09 519.4,63.1 519.4,63.11 517.79,63.2 516.07,63.19 515.1,63.11 514.05,63.13 513.12,63.2 511.23,63.09 509.43,63.21 508.62,63.13 507.44,63.1 505.57,63.18 502.75,63.09 500.9,63.15 499.32,63.14 499.32,63.14 499.07,63.14 499.07,63.14 499.01,63.14 498,63.21 496.24,63.11 495.28,63.11 494.22,63.08 493.22,63.17 490.55,63.22 489.68,63.2 488.81,63.11 487.67,63.1 486.7,63.18 483.84,63.09 482.89,63.14 482.01,63.14 481.1,63.2 480.34,63.11 479.07,63.09 478.22,63.18 477.3,63.09 476.32,63.17 475.42,63.1 472.61,63.18 471.69,63.1 470.66,63.1 469.59,63.21 468.87,63.21 468.66,63.19 468.66,63.19 467.84,63.1 466.79,63.2 466.03,63.2 465.04,63.1 464.05,63.15 463.1,63.09 460.26,63.16 459.32,63.16 458.44,63.19 457.44,63.07 456.46,63.17 455.58,63.08 454.56,63.12 453.57,63.1 452.71,63.12 451.63,63.11 450.72,63.21 448.35,63.11 448.35,63.11 448.1,63.1 448.1,63.1 447.86,63.09 446.93,63.2 446.1,63.15 444.22,63.16 443.14,63.12 442.2,63.21 440.36,63.08 439.4,63.15 438.41,63.08 437.86,63.14 437.86,63.14 437.61,63.16 437.61,63.16 437.42,63.19 435.6,63.12 433.79,63.17 432.73,63.07 431.72,63.19 429.89,63.11 428.94,63.17 427.9,63.15 427.9,63.13 427.65,63.13 427.65,63.14 427.02,63.13 426.17,63.15 424.15,63.09 423.24,63.19 422.39,63.13 419.49,63.21 418.58,63.16 417.67,63.18 417.6,63.17 417.6,63.17 416.73,63.09 415.63,63.1 413.77,63.19 412.86,63.17 412.01,63.19 411.04,63.08 409.09,63.13 407.17,63.09 404.42,63.19 402.4,63.08 401.43,63.16 400.5,63.15 398.75,63.19 397.8,63.09 397.21,63.11 397.21,63.1 396.96,63.11 396.96,63.12 394.97,63.2 394.03,63.09 392.95,63.11 391.98,63.19 390.24,63.18 389.26,63.1 387.34,63.17 387.17,63.16 387.17,63.16 387.13,63.15 386.92,63.14 386.92,63.14 386.35,63.1 385.37,63.19 382.55,63.09 381.63,63.15 380.71,63.1 379.74,63.14 378.8,63.11 377.86,63.11 376.95,63.19 376,63.07 374.94,63.18 374.08,63.15 373.14,63.18 371.27,63.1 370.26,63.11 369.34,63.19 368.41,63.11 367.48,63.17 366.56,63.09 366.55,63.09 366.55,63.09 366.47,63.09 365.57,63.13 364.59,63.07 363.63,63.15 362.66,63.1 361.69,63.21 359.89,63.14 358.01,63.21 357.07,63.14 356.11,63.17 354.09,63.08 353.16,63.2 352.33,63.16 351.36,63.17 349.4,63.14 348.55,63.2 347.68,63.09 346.62,63.09 345.64,63.09 344.69,63.09 343.76,63.18 342.91,63.08 341.83,63.1 340.83,63.19 339.95,63.17 338.09,63.19 337.12,63.13 336.14,63.17 336.04,63.17 336.04,63.17 335.79,63.16 335.79,63.16 335.19,63.15 333.34,63.16 331.4,63.1 330.37,63.1 328.61,63.21 327.72,63.09 326.62,63.12 325.71,63.19 325.69,63.19 325.69,63.19 324.75,63.12 323.75,63.21 320.98,63.08 320.03,63.14 319.13,63.08 318.09,63.1 317.1,63.19 315.43,63.12 314.25,63.11 313.29,63.2 312.52,63.21 311.5,63.13 310.58,63.21 309.7,63.11 307.67,63.2 306.77,63.17 305.84,63.19 305.47,63.18 305.47,63.18 305.22,63.17 305.22,63.17 304.86,63.15 303.92,63.2 302.09,63.09 301.07,63.09 300.03,63.18 299.28,63.19 298.28,63.09 295.42,63.21 295.3,63.2 295.3,63.2 295.05,63.19 295.05,63.19 294.51,63.15 293.56,63.16 292.55,63.1 290.64,63.19 288.78,63.11 287.81,63.15 286.81,63.12 285.91,63.2 284.98,63.12 284.02,63.19 283.07,63.12 282.14,63.19 281.18,63.1 280.19,63.18 277.36,63.09 275.46,63.2 274.53,63.16 274.5,63.16 274.5,63.16 274.5,63.16 274.42,63.17 274.42,63.17 273.62,63.2 272.67,63.12 271.69,63.16 269.73,63.1 268.81,63.19 267.96,63.11 266.91,63.12 266,63.2 265.25,63.11 264.59,63.09 264.59,63.09 264.34,63.08 264.34,63.09 264.06,63.08 263.05,63.12 262.07,63.22 261.34,63.21 260.34,63.11 258.4,63.19 256.6,63.09 255.53,63.08 254.34,63.08 254.34,63.08 254.16,63.08 254.09,63.08 253.64,63.08 252.6,63.21 251.75,63.17 250.84,63.2 249.92,63.12 248.92,63.13 247.98,63.09 244.21,63.15 243.14,63.07 242.13,63.21 239.39,63.11 237.55,63.19 236.61,63.11 235.59,63.16 234.62,63.14 233.8,63.19 233.8,63.19 233.68,63.2 229.87,63.1 228.92,63.12 228.01,63.2 227.15,63.13 225.22,63.16 224.24,63.1 223.64,63.13 223.64,63.12 223.39,63.13 223.39,63.14 222.37,63.2 221.43,63.08 220.35,63.15 219.54,63.16 218.56,63.08 216.54,63.19 215.78,63.19 214.72,63.07 213.74,63.18 213.46,63.15 213.44,63.15 213.44,63.15 212.9,63.11 209.12,63.2 208.09,63.08 207.13,63.16 206.14,63.06 205.09,63.21 204.26,63.2 203.38,63.21 202.4,63.15 201.44,63.19 199.49,63.13 198.59,63.18 197.65,63.12 195.79,63.17 194.8,63.1 193,63.2 193,63.2 192.88,63.21 190.03,63.15 189.14,63.15 188.1,63.09 187.1,63.18 184.31,63.09 183.42,63.14 183.04,63.11 183.04,63.11 182.84,63.1 182.39,63.07 181.44,63.2 180.58,63.14 179.59,63.19 178.79,63.18 177.73,63.08 176.72,63.18 175.81,63.16 174.96,63.18 173.94,63.11 172.94,63.19 171.09,63.11 170.18,63.19 169.31,63.11 168.31,63.12 167.27,63.11 164.57,63.18 163.51,63.08 162.51,63.2 162.37,63.2 162.35,63.2 161.63,63.16 160.65,63.21 159.71,63.2 158.9,63.21 157.92,63.08 155.97,63.14 154.92,63.08 153.98,63.19 153.14,63.13 152.12,63.13 151.98,63.14 151.92,63.14 151.92,63.14 151.13,63.18 150.33,63.17 149.26,63.07 148.23,63.19 146.4,63.14 145.52,63.2 144.62,63.11 143.56,63.12 142.65,63.19 142.26,63.17 142.26,63.16 142.02,63.14 142.01,63.15 140.73,63.08 139.78,63.13 137.92,63.09 136.06,63.19 135.16,63.08 133.16,63.16 131.95,63.11 131.95,63.1 131.7,63.09 131.7,63.1 131.15,63.07 130.3,63.2 129.43,63.09 128.42,63.15 127.5,63.1 126.47,63.13 125.57,63.21 124.63,63.13 123.6,63.2 122.73,63.21 121.87,63.21 120.91,63.11 119.84,63.12 118.82,63.2 118.04,63.21 117.19,63.13 116.04,63.12 115.14,63.13 114.09,63.12 113.21,63.19 112.31,63.11 111.41,63.14 111.41,63.14 111.26,63.14 108.34,63.08 107.47,63.19 106.54,63.1 105.59,63.2 104.71,63.12 103.75,63.16 102.71,63.08 101.81,63.18 101.47,63.14 101.3,63.12 101.3,63.12 100.85,63.06 99.83,63.19 97.99,63.07 97.05,63.15 96.17,63.08 95.14,63.08 94.15,63.17 92.22,63.11 90.44,63.2 88.46,63.09 87.51,63.09 86.55,63.19 85.81,63.12 84.66,63.1 82.74,63.12 81.77,63.21 80.89,63.16 80.58,63.17 80.58,63.17 79.93,63.19 78.91,63.19 78.11,63.2 77.1,63.08 74.26,63.2 73.31,63.11 71.38,63.15 70.37,63.09 69.38,63.17 68.45,63.14 66.59,63.21 64.69,63.14 63.76,63.16 61.77,63.08 60.83,63.13 60.53,63.12 60.53,63.11 60.41,63.11 60.29,63.11 60.29,63.11 59.9,63.09 57.99,63.15 57.02,63.12 56.07,63.17 54.13,63.07 53.21,63.19 52.33,63.11 51.35,63.17 50.44,63.11 50.2,63.12 50.2,63.12 49.95,63.13 49.95,63.13 49.45,63.14 47.46,63.09 46.49,63.18 44.7,63.2 40.06,63.1 40.06,63.1 39.81,63.1 39.57,63.12 39.57,63.12 38.96,63.19 38.07,63.1 37.06,63.14 36.14,63.09 33.25,63.13 32.23,63.08 31.33,63.16 30.44,63.08 29.8,63.09 29.8,63.09 29.55,63.1 29.55,63.1 29.37,63.1 28.45,63.18 27.54,63.1 26.53,63.14 25.58,63.12 22.76,63.18 21.95,63.1 20.79,63.08 19.84,63.08 19.4,63.13 19.4,63.12 19.15,63.15 19.15,63.15 18.76,63.19 18.01,63.21 17.03,63.12 15.11,63.19 14.14,63.11 13.14,63.15 12.16,63.12 11.23,63.17 9.45,63.11 9.45,63.11 9.32,63.1 9.32,63.1 9.32,63.1 9.32,63.1 9.29,65.1 9.26,67.1 9.26,67.1 9.27,67.1 11.22,67.17 12.21,67.12 13.15,67.15 14.06,67.12 15.01,67.19 16.92,67.13 17.87,67.22 18.94,67.19 19.61,67.12 19.61,67.13 19.85,67.1 19.85,67.1 19.97,67.08 20.78,67.08 21.65,67.09 22.66,67.19 25.53,67.11 26.55,67.14 27.46,67.11 28.46,67.19 29.51,67.1 29.63,67.1 29.88,67.09 29.88,67.09 30.29,67.08 31.32,67.18 32.32,67.09 33.22,67.13 36.05,67.09 37.04,67.15 37.94,67.11 38.97,67.22 40.02,67.1 44.65,67.2 46.6,67.18 47.61,67.1 49.44,67.14 50.07,67.12 50.32,67.12 50.32,67.12 50.36,67.11 51.35,67.18 52.27,67.12 53.28,67.22 54.27,67.09 56.11,67.17 57.06,67.12 57.99,67.15 59.89,67.09 60.14,67.1 60.14,67.1 60.39,67.11 60.39,67.11 60.87,67.13 61.84,67.08 63.67,67.16 64.64,67.14 66.56,67.22 68.5,67.14 69.48,67.17 70.4,67.1 71.29,67.16 73.17,67.11 74.13,67.2 76.13,67.16 77,67.1 77.91,67.21 78.95,67.18 79.97,67.19 80.84,67.16 81.86,67.22 82.88,67.12 84.64,67.1 85.52,67.11 86.59,67.21 87.64,67.09 88.41,67.09 89.3,67.12 90.32,67.21 90.91,67.18 90.91,67.19 91.16,67.18 91.15,67.17 92.35,67.11 94.23,67.18 95.24,67.08 96.02,67.08 97.05,67.16 98.01,67.08 99.98,67.21 100.85,67.09 101.03,67.12 101.03,67.12 101.79,67.22 102.8,67.09 103.66,67.16 104.6,67.13 105.62,67.22 106.56,67.12 107.53,67.21 108.56,67.09 111.23,67.14 111.23,67.14 111.34,67.14 111.39,67.14 112.2,67.12 113.2,67.2 114.22,67.12 115.13,67.13 116.05,67.12 116.92,67.12 117.88,67.21 118.94,67.2 119.96,67.12 120.73,67.11 121.24,67.16 121.26,67.17 121.57,67.2 122.73,67.21 123.68,67.2 124.61,67.14 125.58,67.22 126.64,67.13 127.44,67.11 128.42,67.16 129.31,67.11 130.34,67.23 131.38,67.08 133.17,67.17 134.96,67.08 135.95,67.2 137.94,67.09 139.82,67.14 140.77,67.08 142.63,67.2 143.68,67.12 144.45,67.11 145.45,67.21 146.46,67.14 148.43,67.19 149.3,67.09 150.04,67.16 151.22,67.18 153.01,67.13 154.07,67.2 155.03,67.09 155.88,67.14 157.74,67.09 158.66,67.21 159.71,67.2 160.72,67.21 161.64,67.17 162.3,67.2 162.4,67.2 162.66,67.22 163.56,67.1 164.4,67.19 167.3,67.11 168.31,67.12 169.14,67.11 170.17,67.21 171.15,67.12 172.43,67.17 172.43,67.18 172.68,67.19 172.68,67.18 173.08,67.19 173.97,67.12 174.85,67.18 175.8,67.16 176.87,67.19 177.74,67.1 178.49,67.17 179.67,67.2 180.56,67.15 181.59,67.22 182.53,67.09 182.76,67.1 182.76,67.1 183.39,67.15 184.39,67.09 186.1,67.16 187.26,67.18 188.16,67.1 189.02,67.15 190.02,67.15 192.88,67.21 192.89,67.21 192.89,67.21 193.08,67.2 194.76,67.11 195.67,67.18 197.61,67.13 198.57,67.19 199.57,67.13 201.42,67.19 202.36,67.15 203.27,67.21 204.26,67.2 205.35,67.21 206.21,67.09 207.11,67.18 208.05,67.1 208.92,67.2 211.93,67.11 212.73,67.11 213.32,67.16 213.35,67.16 213.79,67.2 214.71,67.1 215.45,67.18 216.61,67.19 218.47,67.09 219.4,67.16 220.43,67.15 221.31,67.1 222.27,67.21 224.2,67.1 225.13,67.16 227,67.13 228.03,67.22 229.1,67.12 229.88,67.09 233.75,67.2 233.75,67.2 233.76,67.2 234.01,67.19 234.72,67.14 235.64,67.16 236.52,67.12 237.48,67.2 239.44,67.12 241.17,67.19 242.38,67.21 243.27,67.09 243.74,67.13 243.8,67.13 244.1,67.15 247.92,67.09 248.87,67.14 249.77,67.12 250.74,67.21 251.73,67.17 252.78,67.22 253.78,67.08 254.1,67.08 254.25,67.08 254.59,67.08 256.42,67.08 258.37,67.2 260.21,67.12 261.01,67.2 262.18,67.22 263.27,67.11 264.09,67.08 264.43,67.09 264.51,67.09 264.89,67.1 265.95,67.22 267.02,67.12 267.79,67.11 268.84,67.21 269.82,67.11 271.75,67.16 272.58,67.13 273.54,67.2 274.53,67.16 274.61,67.17 274.67,67.17 275.49,67.2 277.4,67.09 280.26,67.19 281.17,67.11 282.1,67.2 283.07,67.13 284.02,67.2 284.96,67.13 285.92,67.21 286.92,67.12 287.82,67.15 288.74,67.12 290.67,67.19 292.55,67.11 293.45,67.16 294.39,67.15 295.37,67.22 298.2,67.1 299.1,67.19 300.15,67.18 301.18,67.09 301.96,67.09 303.92,67.2 304.88,67.15 305.8,67.19 306.76,67.17 307.75,67.2 309.52,67.11 310.53,67.23 311.5,67.14 312.38,67.21 313.41,67.2 314.44,67.11 317.27,67.2 318.25,67.1 319.03,67.08 320.02,67.15 320.98,67.09 323.89,67.22 324.79,67.14 325.4,67.18 325.72,67.2 325.73,67.2 325.73,67.2 325.81,67.2 325.95,67.19 325.95,67.19 326.77,67.12 327.51,67.1 328.51,67.23 329.6,67.14 331.35,67.1 333.28,67.17 335.16,67.15 335.71,67.16 335.71,67.16 335.96,67.17 336.17,67.17 337.08,67.13 338.02,67.19 339.89,67.16 340.98,67.2 341.97,67.09 342.7,67.08 343.74,67.2 344.81,67.09 345.64,67.09 345.94,67.09 345.94,67.09 346.19,67.09 346.19,67.09 346.61,67.09 347.42,67.09 348.44,67.22 349.5,67.15 351.37,67.17 352.26,67.16 353.32,67.22 354.29,67.09 356.06,67.18 356.22,67.17 356.47,67.16 357,67.15 357.95,67.21 359.86,67.14 361.85,67.21 362.78,67.11 363.69,67.15 364.63,67.08 365.54,67.13 366.45,67.1 367.42,67.19 368.38,67.12 369.35,67.2 370.39,67.11 371.2,67.1 373.12,67.18 374.07,67.15 375.1,67.18 375.94,67.1 376.31,67.15 376.31,67.15 376.55,67.18 376.88,67.22 377.96,67.11 378.75,67.11 379.76,67.14 380.68,67.11 381.66,67.16 382.63,67.09 385.48,67.19 386.39,67.11 386.76,67.14 386.89,67.15 387.29,67.17 389.16,67.11 390,67.17 392.12,67.19 393.1,67.11 393.84,67.09 394.8,67.21 397.64,67.1 398.58,67.19 400.53,67.15 401.58,67.16 402.5,67.08 404.27,67.19 407.19,67.09 407.2,67.09 407.39,67.1 407.39,67.1 409.09,67.13 410.89,67.09 411.82,67.2 412.86,67.17 413.85,67.2 414.82,67.13 416.56,67.09 417.22,67.15 417.24,67.16 417.52,67.18 417.64,67.18 417.69,67.18 417.69,67.18 418.5,67.16 419.49,67.22 422.27,67.13 423.31,67.2 424.3,67.1 426.17,67.15 427.04,67.13 428.99,67.18 429.93,67.12 431.89,67.2 432.78,67.09 433.62,67.17 435.6,67.12 437.58,67.19 438.05,67.14 438.05,67.14 438.3,67.11 438.48,67.09 439.39,67.16 440.34,67.09 442.29,67.22 443.26,67.13 444.16,67.16 445.98,67.15 447.05,67.21 448.02,67.1 448.04,67.1 450.85,67.22 451.83,67.11 452.73,67.12 453.58,67.1 454.58,67.12 455.46,67.09 456.48,67.19 457.39,67.09 457.98,67.17 457.98,67.17 458.14,67.19 458.28,67.21 458.28,67.21 458.28,67.21 458.34,67.2 459.35,67.16 460.29,67.16 463.08,67.1 464.03,67.15 464.93,67.11 465.74,67.19 466.97,67.2 467.81,67.12 468.22,67.17 468.22,67.17 468.47,67.19 468.47,67.19 468.67,67.22 469.74,67.2 470.77,67.1 471.52,67.1 472.49,67.18 475.35,67.11 476.34,67.18 477.26,67.11 478.23,67.21 478.85,67.14 478.85,67.14 479.1,67.11 479.1,67.11 479.27,67.1 479.99,67.1 481.02,67.22 482.07,67.14 482.94,67.14 483.94,67.09 485.68,67.12 486.75,67.2 487.76,67.1 488.51,67.1 489.35,67.18 490.52,67.22 493.37,67.16 494.34,67.08 498.1,67.21 499.06,67.14 499.29,67.14 500.93,67.15 502.8,67.09 505.63,67.19 507.44,67.1 508.32,67.12 509.32,67.22 509.32,67.22 509.32,67.22 509.6,67.2 509.6,67.2 511.29,67.1 513.17,67.21 514.2,67.13 514.97,67.11 515.81,67.18 517.86,67.2 519.67,67.09 520.64,67.21 522.62,67.1 523.54,67.1 524.43,67.1 526.36,67.19 528.22,67.14 529.22,67.15 530.1,67.11 530.91,67.17 532.01,67.19 532.99,67.13 534.83,67.2 535.79,67.18 536.8,67.21 537.72,67.13 538.58,67.17 539.52,67.16 539.85,67.17 540.1,67.18 540.1,67.18 540.53,67.19 541.44,67.15 542.37,67.21 544.27,67.15 545.19,67.2 548,67.17 549.02,67.2 549.94,67.19 550.15,67.2 550.36,67.2 550.89,67.2 551.85,67.14 552.82,67.2 553.79,67.11 554.69,67.15 555.67,67.09 556.48,67.1 557.47,67.17 559.34,67.1 560.13,67.19 560.13,67.19 560.24,67.2 560.25,67.2 560.25,67.2 560.6,67.2 560.6,67.19 563.2,67.09 566.06,67.18 566.92,67.16 567.95,67.18 568.89,67.13 569.83,67.15 570.64,67.11 570.65,67.11 570.74,67.1 571.71,67.15 572.67,67.09 574.52,67.19 576.38,67.1 577.37,67.18 578.32,67.1 579.11,67.16 580.23,67.18 580.77,67.17 580.77,67.18 581.02,67.17 581.02,67.17 581.1,67.17 582.2,67.2 583.12,67.09 583.97,67.14 584.93,67.11 585.85,67.16 586.78,67.15 587.87,67.18 588.72,67.09 589.63,67.21 592.52,67.1 595.4,67.17 597.28,67.12 598.22,67.15 599.12,67.15 601.16,67.19 601.16,67.2 601.41,67.21 601.41,67.2 602.07,67.21 603.95,67.09 604.91,67.11 605.79,67.08 606.74,67.11 607.66,67.08 609.58,67.22 611.43,67.11 611.5,67.11 612.27,67.17 613.43,67.19 614.38,67.11 616.23,67.15 618.98,67.09 619.99,67.11 620.85,67.11 621.85,67.15 622.77,67.13 623.71,67.19 626.51,67.13 627.48,67.22 628.47,67.18 630.44,67.19 632.2,67.08 632.99,67.17 634.17,67.19 635.04,67.17 636.97,67.2 637.94,67.14 638.85,67.18 641.68,67.15 642.03,67.15 642.1,67.15 642.71,67.16 643.58,67.09 644.49,67.16 645.42,67.11 646.34,67.2 648.22,67.17 649.25,67.2 651.07,67.1 652.05,67.21 652.46,67.17 652.46,67.17 652.7,67.14 652.7,67.14 653.09,67.1 655.93,67.21 656.91,67.09 657.68,67.08 660.52,67.13 661.48,67.09 662.38,67.13 662.48,67.13 662.48,67.13 662.73,67.13 662.73,67.12 664.23,67.1 665.04,67.18 666.22,67.21 668.05,67.12 668.99,67.17 669.93,67.14 670.83,67.19 671.79,67.19 672.8,67.21 672.8,67.21 672.8,67.21 672.83,67.21 673.73,67.17 674.71,67.19 676.46,67.08 677.38,67.17 678.35,67.16 679.35,67.19 681.24,67.13 682.2,67.16 683.01,67.12 683.08,67.11 683.15,67.11 684.99,67.22 686.83,67.09 687.61,67.18 688.77,67.21 691.57,67.08 692.39,67.08 692.84,67.14 693.08,67.17 693.08,67.17 693.45,67.21 694.4,67.11 695.36,67.23 696.43,67.09 697.16,67.1 698.22,67.19 699.24,67.08 699.97,67.1 701,67.22 701.99,67.15 702.95,67.22 703.91,67.14 704.88,67.2 705.85,67.1 706.73,67.13 707.63,67.1 708.58,67.18 709.57,67.14 711.48,67.15 712.35,67.14 713.42,67.22 713.83,67.17 713.97,67.15 713.97,67.15 714.46,67.09 715.2,67.07 716.08,67.1 717.11,67.2 718.14,67.14 719.09,67.15 720.94,67.12 722.88,67.13 723.71,67.08 724.67,67.2 727.54,67.1 729.42,67.22 730.45,67.17 732.28,67.22 733.24,67.18 733.95,67.2 734.08,67.21 734.26,67.21 735.21,67.11 737.05,67.2 738,67.11 738.89,67.17 739.84,67.13 741.77,67.18 743.64,67.15 744.66,67.18 745.57,67.09 747.37,67.2 749.31,67.16 750.23,67.2 753.09,67.13 755.99,67.22 756.94,67.11 759.8,67.2 760.67,67.11 761.63,67.21 762.68,67.09 763.37,67.08 764.45,67.23 764.84,67.17 765.03,67.15 765.03,67.15 765.49,67.08 767.3,67.15 768.15,67.14 769.16,67.22 771.11,67.09 772.02,67.12 772.93,67.08 774.66,67.16 774.66,67.17 774.86,67.17 774.87,67.17 774.87,67.17 774.89,67.17 774.98,67.17 776.76,67.15 777.66,67.09 778.53,67.17 780.49,67.16 781.51,67.17 783.29,67.1 784.22,67.18 784.94,67.17 784.94,67.18 785.19,67.18 785.19,67.17 787.06,67.14 788.03,67.22 790.01,67.14 790.95,67.15 791.86,67.11 792.8,67.16 793.72,67.13 794.66,67.2 796.57,67.17 798.56,67.18 799.41,67.15 800.38,67.21 802.22,67.11 803.2,67.2 804.14,67.12 805.05,67.21 805.44,67.19 805.69,67.18 805.69,67.18 806.06,67.16 807.05,67.19 807.99,67.11 808.87,67.14 810.73,67.11 812.74,67.17 813.61,67.14 815.54,67.2 815.73,67.19 815.94,67.18 815.94,67.18 816.49,67.14 817.41,67.16 819.25,67.1 821.2,67.19 824.91,67.08 825.8,67.11 825.85,67.11 825.85,67.11 825.91,65.11 825.94,64.29 825.98,63.11 825.98,63.11 825.85,63.11 824.96,63.08 821.23,63.19 819.33,63.1 817.38,63.16 816.41,63.14 815.47,63.2 813.62,63.13 812.68,63.17 810.82,63.11 808.9,63.13 807.88,63.1 806.94,63.18 806.03,63.16 805.52,63.18 805.51,63.18 805.27,63.19 805.15,63.2 804.17,63.1 803.22,63.18 "
         id="polygon21" />
    </g>
  </g>
</svg>
