<?xml version="1.0" encoding="UTF-8" standalone="no"?>
<svg
   viewBox="0 0 567.03 4.2300001"
   version="1.1"
   id="svg95"
   sodipodi:docname="AHS-Band_encounter (copy).svg"
   width="567.03003"
   height="4.23"
   inkscape:version="1.1.2 (0a00cf5339, 2022-02-04)"
   xmlns:inkscape="http://www.inkscape.org/namespaces/inkscape"
   xmlns:sodipodi="http://sodipodi.sourceforge.net/DTD/sodipodi-0.dtd"
   xmlns:xlink="http://www.w3.org/1999/xlink"
   xmlns="http://www.w3.org/2000/svg"
   xmlns:svg="http://www.w3.org/2000/svg">
  <sodipodi:namedview
     id="namedview97"
     pagecolor="#ffffff"
     bordercolor="#666666"
     borderopacity="1.0"
     inkscape:pageshadow="2"
     inkscape:pageopacity="0.0"
     inkscape:pagecheckerboard="0"
     showgrid="false"
     inkscape:zoom="17.561191"
     inkscape:cx="19.844895"
     inkscape:cy="7.9436524"
     inkscape:window-width="1920"
     inkscape:window-height="1016"
     inkscape:window-x="0"
     inkscape:window-y="0"
     inkscape:window-maximized="1"
     inkscape:current-layer="Borders" />
  <defs
     id="defs11">
    <style
       id="style2">.cls-1,.cls-2,.cls-3{stroke-width:0px;}.cls-1,.cls-4{fill:#231f20;}.cls-5{letter-spacing:0em;}.cls-6{letter-spacing:-.01em;}.cls-2{fill:none;}.cls-7{clip-path:url(#clippath-1);}.cls-3{fill:#387879;}.cls-8{letter-spacing:.01em;}.cls-9{letter-spacing:0em;}.cls-10{clip-path:url(#clippath);}.cls-11{letter-spacing:0em;}.cls-12{letter-spacing:.01em;}.cls-13{letter-spacing:0em;}.cls-4{font-family:Conkordia, Conkordia;font-size:12px;}</style>
    <clipPath
       id="clippath">
      <rect
         class="cls-2"
         x="-1.27"
         y="270.85999"
         width="844.65997"
         height="72.900002"
         id="rect4" />
    </clipPath>
    <clipPath
       id="clippath-1">
      <rect
         class="cls-2"
         x="-1.27"
         y="-331.38"
         width="597.53003"
         height="72.900002"
         id="rect7" />
    </clipPath>
    <image
       id="image"
       width="2465"
       height="3207"
       xlink:href="../assets/texture/AHC_paper.jpg" />
  </defs>
  <g
     id="Borders"
     style="display:inline"
     transform="translate(-14.14,-3.47)">
    <path
       class="cls-3"
       d="m 15.11,7.62 0.99,-0.06 0.96,0.04 0.89,-0.08 0.86,0.08 1.93,-0.02 0.97,0.06 2.02,-0.12 0.76,-0.02 0.94,0.1 1.94,-0.03 1.01,0.02 0.95,-0.05 h 0.8 c 0,0 0.97,0.09 0.97,0.09 l 1,-0.02 h 1.94 c 0,0 0.85,0 0.85,0 l 1.07,0.03 0.92,-0.09 2.78,0.06 1,-0.06 1.91,0.06 0.91,-0.09 0.86,0.06 1.93,-0.06 0.95,0.06 0.96,-0.05 1.92,0.11 1.01,-0.1 h 0.74 c 0,0 1.03,0.11 1.03,0.11 l 0.99,-0.09 0.94,0.06 0.95,-0.08 0.91,0.05 0.91,-0.04 1.01,0.09 0.95,-0.1 0.86,0.07 0.95,-0.03 1.03,0.02 0.88,-0.06 0.96,0.08 0.91,-0.07 0.94,0.11 0.97,-0.08 0.95,0.09 1.02,-0.09 1.86,0.03 0.93,-0.07 0.9,0.03 0.93,-0.03 0.92,0.04 h 0.97 c 0,0 0.94,0 0.94,0 l 0.88,-0.05 0.94,0.13 3.84,-0.13 H 83 c 0,0 1.99,0.13 1.99,0.13 l 1.04,-0.12 1.74,-0.03 h 0.84 c 0,0 0.96,0.11 0.96,0.11 l 2.92,-0.06 h 0.94 c 0,0 0.98,-0.04 0.98,-0.04 l 0.81,0.02 0.98,0.08 0.98,-0.02 h 1.02 c 0,0 0.89,-0.05 0.89,-0.05 l 0.9,0.06 0.97,-0.02 1.01,0.04 0.98,-0.08 1.86,0.05 0.85,-0.08 0.89,0.12 2.91,-0.09 0.91,0.07 h 1.03 c 0,0 0.98,-0.09 0.98,-0.09 l 1.83,0.04 1.82,-0.04 0.88,0.05 h 1.06 c 0,0 1.79,-0.07 1.79,-0.07 l 1.02,0.14 1.04,-0.1 0.91,0.03 1.74,-0.07 1.01,0.14 1.06,-0.08 0.95,0.03 0.88,-0.06 0.96,0.09 1.04,-0.09 h 0.76 c 0,0 1.04,0.1 1.04,0.1 l 1.04,-0.09 h 0.93 c 0,0 0.9,-0.02 0.9,-0.02 l 0.84,0.02 1,0.08 1.01,-0.03 1,0.02 0.92,-0.08 0.86,0.04 h 1 c 0,0 1.01,-0.07 1.01,-0.07 h 0.81 l 0.87,0.06 h 1.09 c 0,0 0.98,-0.06 0.98,-0.06 l 0.9,0.05 1.86,-0.04 1,0.09 1.01,-0.07 0.95,0.03 0.91,-0.06 1.96,0.14 0.98,-0.13 3.7,0.1 h 0.95 c 0,0 0.99,-0.11 0.99,-0.11 l 0.83,0.06 h 0.96 c 0,0 1.95,0.07 1.95,0.07 l 0.97,-0.04 0.96,0.03 0.95,-0.02 0.95,-0.07 0.92,0.03 0.94,-0.05 0.94,0.04 0.93,-0.05 1.92,0.14 1.03,-0.12 h 0.7 c 0,0 1.08,0.14 1.08,0.14 l 1.05,-0.14 1.85,0.03 0.82,-0.03 0.92,0.08 h 1.01 c 0,0 1.93,0.01 1.93,0.01 h 0.9 c 0,0 1.04,0 1.04,0 l 0.87,-0.03 1.03,0.04 0.89,-0.11 0.72,0.07 2.1,0.03 h 1.04 c 0,0 1.83,-0.11 1.83,-0.11 l 1.71,0.09 h 1.13 c 0,0 0.89,0 0.89,0 l 0.95,0.04 1.91,-0.05 0.99,0.03 0.98,-0.08 H 205 c 0,0 1,0.1 1,0.1 l 1.86,-0.1 0.98,0.11 0.98,-0.07 0.87,0.07 h 0.96 c 0,0 1.09,0.03 1.09,0.03 l 1.01,-0.11 0.81,-0.02 0.97,0.03 h 0.82 c 0,0 0.95,0.09 0.95,0.09 l 1.03,-0.02 0.97,0.03 1.9,-0.1 0.93,0.03 0.93,-0.04 1.97,0.08 0.92,-0.1 1.88,0.05 0.88,-0.02 1.98,0.08 0.94,-0.07 0.92,0.03 0.94,-0.05 1.93,0.09 0.91,-0.09 1.87,0.11 1,-0.02 0.96,-0.08 1.86,0.07 1.86,-0.07 0.96,0.04 0.9,-0.03 0.96,0.08 1.96,-0.09 1,0.04 0.89,-0.08 0.89,0.09 1.89,-0.05 2.02,0.07 0.88,-0.08 0.92,0.09 0.97,-0.06 1.02,0.08 0.98,-0.13 1.81,0.07 1.88,-0.05 1.86,0.11 1.95,-0.08 0.94,0.06 1.01,-0.06 h 0.97 c 0,0 0.86,-0.02 0.86,-0.02 l 0.95,0.05 1.88,-0.06 0.99,0.05 0.88,-0.06 0.77,0.09 1.24,0.04 0.93,-0.08 0.91,0.04 h 0.87 c 0,0 1.05,0.03 1.05,0.03 l 0.98,-0.07 h 0.91 c 0,0 2.78,-0.06 2.78,-0.06 h 0.98 c 0,0 1.85,0 1.85,0 l 0.97,0.05 0.89,-0.03 0.99,0.11 0.99,-0.08 0.91,0.06 0.97,-0.04 0.98,0.04 0.99,-0.07 h 0.89 c 0,0 0.85,0 0.85,0 l 1.99,0.09 0.92,-0.05 0.97,0.07 1.82,-0.12 0.95,0.1 1.03,-0.04 0.94,0.03 1.11,-0.04 0.74,-0.06 0.93,0.11 1.01,-0.07 0.91,0.05 2.87,-0.07 2.92,0.09 0.92,-0.1 0.9,0.06 1.89,-0.07 h 1.02 c 0,0 0.85,-0.02 0.85,-0.02 l 1.92,0.12 0.96,-0.02 h 1.01 c 0,0 1.76,-0.04 1.76,-0.04 l 1.06,0.05 0.92,-0.06 0.92,0.07 2.83,-0.08 1.04,0.07 0.89,-0.1 0.85,0.11 1.1,-0.02 1.04,-0.1 h 0.78 c 0,0 0.86,0 0.86,0 l 1,0.11 1.09,-0.04 0.96,-0.09 2.71,0.06 1,0.06 0.98,-0.05 0.98,0.03 0.95,-0.09 1.85,0.04 h 0.91 c 0,0 0.88,0 0.88,0 l 1.06,0.09 1.02,-0.1 1.83,0.06 0.96,-0.07 0.89,0.04 h 0.93 c 0,0 1,0.04 1,0.04 l 0.98,-0.07 1.89,0.05 1.8,-0.09 0.98,0.13 1,-0.08 0.98,0.08 1.03,-0.11 h 0.74 c 0,0 0.97,0.1 0.97,0.1 l 1.07,-0.02 0.89,-0.08 0.94,0.11 1.03,-0.09 0.94,0.04 0.95,-0.08 0.89,0.03 0.93,-0.02 2.92,0.11 0.92,-0.05 0.98,0.04 1,-0.09 h 0.76 c 0,0 0.95,0.09 0.95,0.09 l 2.93,-0.04 2,0.03 0.86,-0.1 0.72,0.08 1.22,0.03 0.95,-0.06 1.92,0.07 1.01,-0.13 h 0.73 c 0,0 2.05,0.13 2.05,0.13 l 0.94,-0.13 0.85,0.08 0.96,-0.04 1,0.07 0.97,-0.1 0.85,0.04 h 0.9 c 0,0 0.96,0.07 0.96,0.07 l 1.05,-0.03 0.89,-0.08 0.95,0.1 1,-0.1 1.82,0.11 0.99,-0.05 0.96,0.03 0.88,-0.06 0.97,0.1 1.07,-0.1 0.82,-0.02 0.94,0.03 0.91,-0.02 0.94,0.07 2.93,-0.09 0.91,0.04 0.93,-0.02 h 0.88 c 0,0 0.88,0.09 0.88,0.09 h 1.12 c 0,0 1,-0.11 1,-0.11 l 0.89,0.07 1.04,-0.07 h 1.79 c 0,0 1,0 1,0 l 1.88,-0.04 h 1.84 c 0,0 1.8,0.11 1.8,0.11 l 2.18,0.03 0.89,-0.12 0.88,0.06 1,-0.07 h 0.79 c 0,0 1.02,0.1 1.02,0.1 l 1.02,-0.06 0.96,0.02 0.84,-0.06 0.88,0.11 h 1.08 c 0,0 1,-0.1 1,-0.1 l 1.85,0.04 0.87,-0.04 2.03,0.12 1,-0.12 h 0.76 c 0,0 1.99,0.08 1.99,0.08 l 0.97,-0.06 1.86,0.06 0.93,-0.07 1.97,0.11 0.99,-0.1 h 1.73 c 0,0 0.96,0.08 0.96,0.08 l 2.86,-0.11 0.94,0.11 1.03,-0.04 1.04,0.04 0.99,-0.12 h 0.7 c 0,0 1.05,0.14 1.05,0.14 l 1.03,-0.1 0.93,0.05 0.9,-0.06 0.97,0.1 1.08,-0.1 0.81,-0.02 2.89,0.09 h 0.95 c 0,0 1.01,-0.1 1.01,-0.1 l 0.88,0.02 0.9,-0.03 0.96,0.07 0.93,-0.03 0.93,0.1 h 1.07 c 0,0 0.97,-0.09 0.97,-0.09 l 3.77,0.08 3.73,-0.07 1.06,0.04 0.88,-0.07 0.92,0.1 2.01,-0.1 1.91,0.03 2.75,-0.05 1.01,0.1 0.93,-0.08 0.91,0.11 2.02,-0.12 2.84,0.06 h 0.88 c 0,0 1.03,0.05 1.03,0.05 l 0.97,-0.09 1.88,0.08 0.99,-0.08 h 0.8 c 0,0 0.97,0.08 0.97,0.08 h 1.03 c 0,0 1.03,-0.09 1.03,-0.09 h 0.73 c 0,0 1.06,0.13 1.06,0.13 l 0.97,-0.12 0.83,0.09 4.82,-0.1 2.9,0.09 0.92,-0.04 0.97,0.08 1.88,-0.1 0.99,0.07 0.96,-0.08 1.91,0.09 1.9,-0.12 1.88,0.11 1.04,-0.03 0.93,-0.08 0.89,0.05 0.95,-0.02 2.93,0.08 1.84,-0.07 0.95,0.08 2.89,-0.08 0.81,0.07 h 1.13 c 0,0 0.99,-0.06 0.99,-0.06 l 0.91,0.05 1.91,-0.07 0.99,0.07 1.01,-0.08 1.83,0.06 0.97,-0.02 0.98,0.04 1.04,-0.04 -0.08,-2 0.02,0.5 -0.5,0.02 -0.04,-1 0.5,-0.02 -0.06,-1.5 -0.89,0.04 -0.95,-0.04 -0.95,0.02 -2,-0.06 -0.91,0.07 -0.93,-0.07 -1.92,0.08 -1,-0.05 -1.01,0.08 h -0.79 c 0,0 -1,-0.09 -1,-0.09 l -2.85,0.08 -0.96,-0.08 -1.99,0.07 -2.89,-0.08 -0.88,0.02 -1.02,-0.05 -1.04,0.09 -0.81,0.03 -1.94,-0.12 -1.92,0.12 -1.9,-0.1 -0.94,0.07 -0.91,-0.07 -1.93,0.1 -0.93,-0.08 -1.84,0.06 -1.97,-0.09 -4.69,0.1 -1.06,-0.12 -0.93,0.12 -0.84,-0.11 -1.1,0.02 -1,0.08 h -0.8 c 0,0 -0.87,-0.06 -0.87,-0.06 h -1.17 c 0,0 -0.91,0.06 -0.91,0.06 l -1.93,-0.08 -0.93,0.09 -0.88,-0.05 -0.94,0.02 -2.96,-0.07 -1.78,0.12 -0.99,-0.12 -0.98,0.09 -0.9,-0.09 -2.91,0.05 -1.96,-0.03 -1.8,0.09 -0.99,-0.11 -1.02,0.08 -0.92,-0.03 -3.79,0.07 -3.86,-0.09 -1.01,0.09 h -0.76 c 0,0 -0.98,-0.09 -0.98,-0.09 l -0.98,0.03 -0.95,-0.07 -1,0.03 -1.02,-0.02 -0.98,0.09 h -1.7 c 0,0 -1.98,-0.08 -1.98,-0.08 l -1.02,0.03 -0.88,0.08 -0.93,-0.1 -1,0.07 -0.97,-0.05 -0.87,0.08 -0.73,-0.09 -1.2,-0.02 -1.04,0.11 -0.86,-0.04 -0.87,0.03 -0.96,-0.12 -2.05,0.12 h -0.8 l -0.88,-0.07 -2.15,-0.02 -0.92,0.09 -1.84,-0.12 -0.98,0.07 -1.93,-0.06 -0.94,0.06 -1.8,-0.08 h -1.02 c 0,0 -1.02,0.12 -1.02,0.12 l -1.76,-0.12 -1.02,0.05 -1.94,-0.04 -0.98,0.09 h -0.73 c 0,0 -1.01,-0.12 -1.01,-0.12 l -1.05,0.08 -0.93,-0.02 -0.88,0.05 -0.8,-0.07 -1.19,-0.02 -0.89,0.06 -1.02,-0.07 -1,0.14 -1.68,-0.02 -0.88,-0.07 -3.02,-0.04 -1.9,0.04 -0.94,-0.02 h -1.91 c 0,0 -0.92,0.07 -0.92,0.07 l -1.02,-0.08 -1.03,0.13 h -0.74 l -0.87,-0.07 -1.16,-0.02 -0.89,0.02 -0.99,-0.04 -2.76,0.09 -0.95,-0.07 -0.99,0.02 -0.96,-0.03 -1.01,0.02 -0.9,0.08 -0.92,-0.09 -1.02,0.07 -0.93,-0.03 -0.9,0.05 -1.96,-0.12 -0.89,0.09 -0.94,-0.1 -1.07,0.11 -0.76,0.02 -0.93,-0.08 h -0.98 c 0,0 -1.03,-0.04 -1.03,-0.04 l -0.92,0.09 -0.89,-0.06 -0.92,0.04 -1.04,-0.09 -0.96,0.13 -0.8,-0.06 -2.12,-0.05 -0.89,0.12 -1.82,-0.06 -1.01,0.05 h -0.78 c 0,0 -1.08,-0.13 -1.08,-0.13 l -1.04,0.12 -1.84,-0.02 -2.71,0.04 -0.95,-0.09 h -1.05 c 0,0 -0.98,0.08 -0.98,0.08 l -0.92,-0.04 -0.97,0.05 -2.78,-0.11 -0.96,0.02 -1.01,-0.04 -0.95,0.08 -0.95,-0.04 -0.87,0.07 -0.96,-0.12 -1.09,0.11 h -0.75 c 0,0 -0.83,-0.07 -0.83,-0.07 h -1.15 c 0,0 -0.98,0.08 -0.98,0.08 l -0.92,-0.08 -0.9,0.07 -0.92,-0.12 -2,0.1 -1.91,-0.05 -0.92,0.06 -0.9,-0.05 h -0.97 c 0,0 -1.01,-0.03 -1.01,-0.03 l -0.95,0.07 -1.96,-0.06 -0.88,0.09 -0.76,-0.06 -1.13,-0.02 h -0.89 c 0,0 -2,-0.04 -2,-0.04 l -0.95,0.09 -0.91,-0.02 -0.91,0.05 -0.89,-0.05 h -0.93 c 0,0 -2.05,-0.06 -2.05,-0.06 l -1,0.09 -0.74,0.02 -0.8,-0.09 -1.2,-0.03 -0.95,0.02 -1.04,0.1 h -0.71 c 0,0 -1.04,-0.12 -1.04,-0.12 l -1.01,0.11 -0.85,-0.06 -2.86,0.07 -0.97,-0.08 -0.98,0.07 -1.87,-0.05 -0.99,0.05 h -0.95 c 0,0 -0.88,0 -0.88,0 l -1.88,-0.12 -0.98,0.03 h -0.98 c 0,0 -1.88,0.05 -1.88,0.05 l -1,-0.06 -0.98,0.1 -2.78,-0.08 -2.83,0.07 -0.99,-0.05 -0.88,0.06 -0.96,-0.12 -1.94,0.12 -0.95,-0.03 -0.87,0.04 -0.95,-0.1 -1.97,0.11 -0.93,-0.07 -0.98,0.06 -1.9,-0.08 h -0.93 c 0,0 -0.95,0 -0.95,0 L 296,3.6 l -0.92,-0.04 -0.92,0.04 -0.98,-0.07 -0.9,0.07 -0.91,-0.1 -1.01,0.04 -0.92,-0.05 -1.91,0.02 h -1 c 0,0 -2.81,0.05 -2.81,0.05 h -0.95 c 0,0 -0.99,0.06 -0.99,0.06 l -0.92,-0.03 h -0.85 c 0,0 -1.08,-0.04 -1.08,-0.04 l -0.97,0.09 -0.75,-0.02 -1.04,-0.12 -1.01,0.07 -0.9,-0.04 -1.91,0.06 -0.94,-0.05 -0.94,0.04 h -1.02 c 0,0 -0.89,0.04 -0.89,0.04 l -0.95,-0.06 -1.84,0.08 -1.93,-0.11 -1.92,0.05 -1.98,-0.08 -0.92,0.13 -0.88,-0.07 -0.93,0.06 -0.97,-0.1 -1.01,0.09 -1.87,-0.07 -1.81,0.05 -1,-0.1 -1.01,0.1 -0.9,-0.04 -1.84,0.08 -0.94,-0.08 -0.99,0.03 -0.93,-0.04 -1.94,0.07 -1.93,-0.08 -1.01,0.09 -0.83,0.02 -1.92,-0.13 -0.99,0.1 -1.86,-0.08 -0.96,0.05 -0.97,-0.03 -0.95,0.07 -1.81,-0.07 -0.97,0.02 -1.95,-0.06 -0.97,0.1 -1.81,-0.08 -0.96,0.04 -0.96,-0.03 -1.88,0.1 -0.92,-0.03 -0.87,0.02 -0.94,-0.1 -0.98,0.02 -1,-0.03 -1,0.03 -0.97,0.1 -0.87,-0.02 h -0.86 c 0,0 -1.02,-0.08 -1.02,-0.08 l -0.91,0.07 -0.92,-0.1 -1.93,0.1 -0.89,-0.09 h -1.05 c 0,0 -0.99,0.08 -0.99,0.08 l -0.9,-0.02 -1.87,0.05 -0.94,-0.04 -0.95,0.02 -2.89,-0.1 -1.01,0.07 -1.75,0.05 -1.83,-0.02 -1.07,-0.11 -1,0.13 -0.86,-0.04 -0.93,0.03 h -0.99 c 0,0 -0.89,0 -0.89,0 l -1.94,-0.02 h -0.85 c 0,0 -0.97,-0.08 -0.97,-0.08 l -0.98,0.04 -2.02,-0.04 -0.84,0.12 -0.81,-0.11 h -1.08 c 0,0 -0.97,0.1 -0.97,0.1 l -1.86,-0.12 -0.96,0.05 -0.95,-0.04 -0.95,0.05 -0.97,-0.03 -1,0.08 -5.52,-0.04 -1.07,-0.07 -1.02,0.12 h -0.83 c 0,0 -3.89,-0.11 -3.89,-0.11 l -0.92,0.13 -1.83,-0.13 -0.99,0.07 -0.94,-0.03 -0.89,0.06 -0.9,-0.08 -1.94,0.04 -1,-0.05 -1,0.07 h -0.8 c 0,0 -0.88,-0.07 -0.88,-0.07 h -1.09 c 0,0 -1.02,0.06 -1.02,0.06 h -0.83 c 0,0 -1.03,-0.05 -1.03,-0.05 l -0.98,0.09 -0.89,-0.02 -0.89,0.03 -1.95,-0.09 -0.93,0.03 h -0.95 c 0,0 -0.94,0.07 -0.94,0.07 l -0.77,-0.07 -1.22,-0.02 -0.86,0.07 -0.93,-0.09 -1.01,0.07 -0.95,-0.03 -0.84,0.06 -0.89,-0.12 -2.04,0.07 -0.98,-0.04 -0.85,0.08 -0.87,-0.12 -2.06,0.08 -1.78,-0.06 -1.96,0.04 -1.94,-0.04 -0.98,0.08 h -0.78 c 0,0 -0.98,-0.06 -0.98,-0.06 l -2.76,0.09 -1,-0.14 -1.04,0.09 -1.92,-0.05 -0.91,0.08 -0.88,-0.04 -0.92,0.02 -0.99,-0.06 -1,0.07 h -0.93 c 0,0 -0.84,0 -0.84,0 L 95.47,3.55 94.34,3.52 93.38,3.57 h -0.91 c 0,0 -2.72,0.05 -2.72,0.05 L 88.92,3.53 87.72,3.51 85.85,3.54 84.9,3.64 84.06,3.57 82.09,3.53 h -0.94 c 0,0 -2.74,0.12 -2.74,0.12 L 77.46,3.52 76.39,3.59 h -0.9 c 0,0 -0.89,0 -0.89,0 L 73.63,3.55 72.68,3.58 71.69,3.54 70.73,3.61 68.82,3.58 67.96,3.65 67.02,3.57 66.1,3.64 65.16,3.53 64.19,3.61 63.26,3.53 62.25,3.6 61.3,3.58 60.46,3.6 59.44,3.52 58.51,3.62 57.63,3.54 56.65,3.58 55.67,3.53 54.74,3.61 53.79,3.55 52.89,3.63 52.03,3.54 h -1.06 c 0,0 -0.97,0.09 -0.97,0.09 L 48.14,3.53 47.21,3.58 46.27,3.52 44.43,3.58 43.4,3.51 42.42,3.6 40.56,3.54 39.59,3.61 36.78,3.54 35.81,3.63 34.89,3.61 34,3.63 h -1.94 c 0,0 -0.84,0 -0.84,0 L 30.38,3.56 29.22,3.54 28.28,3.59 h -0.92 c 0,0 -1.79,0 -1.79,0 L 24.62,3.49 21.73,3.63 20.81,3.57 18.96,3.59 17.93,3.5 16.93,3.59 16,3.55 15.02,3.62 h -0.87 c 0,0 0,1.99 0,1.99 v -0.5 c 0,0 0.5,0 0.5,0 v 1 c 0,0 -0.51,0 -0.51,0 v 1.5 c 0,0 0.94,0 0.94,0 z m 562.51,-2.57 0.61,0.03 h 0.35 c 0,0 0.02,0.99 0.02,0.99 h -0.39 c 0,0 -0.65,-0.02 -0.65,-0.02 l 0.05,-1 z m -2.99,-0.01 0.74,0.05 0.19,-0.02 0.08,1 -0.26,0.02 -0.81,-0.05 0.07,-1 z m -3.01,0.02 0.87,0.04 h 0.09 c 0,0 0.03,1 0.03,1 h -0.13 c 0,0 -0.91,-0.04 -0.91,-0.04 z m -3,-0.02 1.02,0.09 -0.09,1 -0.95,-0.09 -0.02,-1 z m -2.98,0.06 h 0.18 c 0,0 0.77,0 0.77,0 l 0.02,1 -0.82,0.02 -0.23,-0.02 z m -3.04,0 h 0.31 c 0,0 0.66,-0.02 0.66,-0.02 l 0.04,1 -0.69,0.03 h -0.34 c 0,0 0.02,-1.01 0.02,-1.01 z m -2.57,-0.07 h 0.57 c 0,0 -0.02,1.01 -0.02,1.01 h -0.55 c 0,0 -0.43,0 -0.43,0 l -0.02,-1 h 0.45 z m -2.49,0.02 0.09,1 -1.03,0.06 -0.03,-1 z M 554.27,5 l 0.35,0.02 -0.07,1 -0.28,-0.02 -0.65,0.06 -0.08,-1 0.72,-0.06 z m -3.65,0.04 0.98,0.06 -0.03,1 -1.02,-0.06 z m -2.05,-0.01 0.02,1 -0.94,0.04 -0.1,-1 1.01,-0.04 z m -3.98,0.07 0.97,-0.04 0.05,1 -1.03,0.04 v -1 z m -2.68,-0.09 0.7,0.03 -0.05,1 -0.68,-0.03 h -0.3 c 0,0 0,-1 0,-1 z m -2.35,0.03 0.05,1 -1.01,0.04 -0.03,-1 z M 536.21,5 l 0.43,0.05 -0.11,0.99 -0.31,-0.03 -0.56,0.07 -0.13,-0.99 z m -2.62,0.01 0.02,1 h -0.23 c 0,0 -0.73,0.07 -0.73,0.07 l -0.08,-1 1.03,-0.07 z m -3.99,0.02 h 1.03 c 0,0 -0.07,1.01 -0.07,1.01 h -0.97 c 0,0 0,-1.01 0,-1.01 z m -2.94,-0.01 0.96,0.03 -0.04,1 -0.9,-0.03 h -0.04 c 0,0 -0.09,-0.99 -0.09,-0.99 h 0.1 z m -3.05,0.05 h 0.24 c 0,0 0.73,0 0.73,0 l 0.02,1 h -0.76 c 0,0 -0.27,0 -0.27,0 l 0.03,-1 z m -2.66,-0.06 h 0.66 c 0,0 -0.02,1.01 -0.02,1.01 h -0.61 c 0,0 -0.34,0.01 -0.34,0.01 l -0.07,-1 0.39,-0.03 z m -2.81,0 0.52,0.06 -0.12,0.99 -0.41,-0.05 -0.48,0.04 -0.09,-1 0.58,-0.05 z m -2.55,0.01 0.03,1 h -1.02 c 0,0 0,-0.99 0,-0.99 h 0.99 z m -3.98,0.01 1,0.02 v 1 c 0,0 -1.02,-0.02 -1.02,-0.02 z m -3.01,-0.01 1,0.1 v 0.99 c 0,0 -0.03,0 -0.03,0 h -0.08 c 0,0 -0.95,-0.1 -0.95,-0.1 l 0.05,-1 z m -2,0.03 v 1 c 0,0 -0.99,0 -0.99,0 l -0.02,-1 z m -4,0.07 h 0.3 c 0,0 0.69,0 0.69,0 v 1 c 0,0 -0.69,0 -0.69,0 h -0.31 c 0,0 0,-1 0,-1 z m -2.99,-0.06 0.99,0.03 -0.03,1 -1.01,-0.04 0.05,-1 z m -2.97,0.02 0.59,0.06 h 0.35 c 0,0 0.01,0.99 0.01,0.99 h -0.4 c 0,0 -0.65,-0.06 -0.65,-0.06 z M 494.31,5 l 0.32,0.02 -0.08,1 -0.27,-0.02 -0.68,0.02 -0.03,-1 z m -2.76,0.08 0.1,1 h -0.12 c 0,0 -0.93,0.02 -0.93,0.02 v -1 c 0,0 0.95,-0.02 0.95,-0.02 z m -3.89,-0.07 0.95,0.04 -0.04,1 -0.92,-0.04 -0.07,-1 z m -2.87,0.02 0.85,0.08 -0.1,0.99 -0.77,-0.08 -0.14,0.02 -0.07,-1 0.23,-0.02 z m -3.13,0.06 0.32,0.04 0.56,-0.05 0.09,1 -0.67,0.06 -0.43,-0.05 0.13,-0.99 z m -3.03,0.02 0.52,0.02 0.39,-0.06 0.12,0.99 -0.48,0.06 -0.6,-0.02 0.04,-1 z m -2.37,-0.1 0.41,0.04 -0.12,0.99 -0.33,-0.04 -0.58,0.03 -0.04,-1 0.67,-0.03 z m -3.61,0.05 0.81,0.06 h 0.15 c 0,0 0,1 0,1 h -0.19 l -0.85,-0.07 0.08,-1 z m -3.04,0.08 0.9,-0.09 0.09,1 -0.94,0.09 z m -2.97,-0.06 h 0.15 c 0,0 0.79,-0.05 0.79,-0.05 l 0.07,1 -0.85,0.06 h -0.21 c 0,0 0.05,-1.01 0.05,-1.01 z m -3.02,0 h 0.3 c 0,0 0.65,-0.04 0.65,-0.04 l 0.06,1 -0.7,0.04 h -0.35 c 0,0 0.03,-1.01 0.03,-1.01 z M 461,5.02 h 0.6 c 0,0 0,0.99 0,0.99 h -0.54 c 0,0 -0.4,0.06 -0.4,0.06 l -0.12,-0.99 z m -2.8,-0.01 0.46,0.04 -0.09,1 -0.39,-0.04 -0.54,0.03 -0.05,-1 z m -2.87,0.02 h 0.29 c 0,0 -0.02,1 -0.02,1 h -0.23 c 0,0 -0.71,0.07 -0.71,0.07 l -0.09,-1 0.77,-0.07 z M 452.55,5 l 0.13,0.02 -0.12,0.99 -0.9,0.06 -0.07,-1 0.97,-0.07 z m -3.92,0.02 h 0.13 c 0,0 0.91,0.08 0.91,0.08 l -0.09,1 -0.96,-0.08 v -1 z m -2.74,-0.01 0.76,0.05 -0.07,1 -0.66,-0.04 -0.24,0.03 -0.13,-0.99 z m -3.23,0.07 0.97,0.04 v 1 c 0,0 -1.05,-0.04 -1.05,-0.04 z M 439.62,5 h 1 c 0,0 0,1 0,1 h -1 c 0,0 0,-1 0,-1 z m -3,0.02 h 0.76 c 0,0 0.22,0 0.22,0 l 0.03,1 h -0.25 c 0,0 -0.78,0 -0.78,0 z m -2.01,0.01 v 1 c 0,0 -0.96,0.06 -0.96,0.06 l -0.07,-1 z m -3.95,0.1 h 0.1 c 0,0 0.87,0 0.87,0 v 1 h -1.04 c 0,0 0.08,-1.01 0.08,-1.01 z m -3.02,-0.07 h 0.25 c 0,0 0.72,0 0.72,0 l 0.02,1 -0.75,0.02 h -0.28 c 0,0 0.04,-1.01 0.04,-1.01 z m -2.04,0.04 0.02,1 -1.01,0.02 v -1 c 0,0 0.98,-0.02 0.98,-0.02 z m -3.97,-0.06 0.56,0.02 h 0.41 c 0,0 0.02,0.99 0.02,0.99 h -0.44 c 0,0 -0.59,-0.01 -0.59,-0.01 z m -2.96,0.03 0.72,0.07 0.18,-0.03 0.09,1 -0.28,0.03 -0.82,-0.07 0.1,-0.99 z m -2.2,0.02 h 0.16 c 0,0 -0.02,1 -0.02,1 h -0.12 c 0,0 -0.84,0.04 -0.84,0.04 l -0.05,-1 0.88,-0.05 z m -3.8,0.02 h 0.05 c 0,0 0.85,-0.08 0.85,-0.08 l 0.1,0.99 -0.95,0.1 h -0.05 c 0,0 0,-0.97 0,-0.97 V 5.12 c 0,0 0,0 0,0 z m -3,0.01 0.26,0.02 0.69,-0.02 0.03,1 -0.74,0.02 -0.31,-0.02 0.08,-1 z M 407,5.03 l 0.64,0.02 -0.04,1 -0.57,-0.02 -0.36,0.04 -0.1,-1 z m -3.33,0.01 0.59,0.05 0.34,-0.02 0.04,1 -0.4,0.02 -0.66,-0.05 z m -3.01,-0.01 1.02,0.06 -0.08,1 -0.98,-0.05 0.05,-1 z m -2.99,0.05 0.89,0.06 h 0.02 c 0,0 0.13,0.98 0.13,0.98 h -0.11 c 0,0 -0.98,-0.04 -0.98,-0.04 l 0.06,-1 z m -2.97,0.03 h 0.09 c 0,0 0.86,0.02 0.86,0.02 v 1 c 0,0 -1.07,-0.03 -1.07,-0.03 z m -3.05,-0.01 1.01,0.02 -0.02,1 -0.99,-0.02 z m -2.01,0.02 v 1 c 0,0 -0.99,0 -0.99,0 v -1 c 0,0 0.99,0 0.99,0 z m -3,-0.08 v 1 c 0,0 -0.95,0.05 -0.95,0.05 l -0.08,-1 1.04,-0.05 z m -3.99,0.08 h 0.7 c 0,0 0.26,0 0.26,0 l 0.05,1 -0.3,0.02 h -0.74 c 0,0 0.02,-1.01 0.02,-1.01 z m -2.16,-0.09 h 0.18 c 0,0 -0.06,1.01 -0.06,1.01 h -0.14 c 0,0 -0.82,0 -0.82,0 l -0.02,-1 0.86,-0.02 z m -3.83,0.02 0.99,0.03 -0.04,1 -0.94,-0.03 -0.08,-0.99 h 0.06 z m -2.82,0.06 0.75,-0.07 0.1,1 -1.04,0.08 -0.02,-1 h 0.21 z m -2.89,-0.08 h 0.7 c 0,0 0,1 0,1 H 371 c 0,0 -0.3,0.03 -0.3,0.03 l -0.11,-0.99 0.35,-0.04 z m -3.23,0.03 0.44,0.06 0.45,-0.04 0.08,1 -0.55,0.05 -0.55,-0.07 0.13,-0.99 z m -3.05,0.02 0.64,0.02 0.32,-0.02 0.05,1 -0.36,0.02 h -0.68 c 0,0 0.02,-1.01 0.02,-1.01 z m -2.98,-0.02 0.79,0.05 h 0.14 c 0,0 0.07,0.98 0.07,0.98 h -0.21 c 0,0 -0.86,-0.03 -0.86,-0.03 l 0.06,-1 z m -2.1,-0.04 h 0.08 c 0,0 -0.04,1 -0.04,1 l -0.94,0.07 -0.07,-1 0.98,-0.07 z m -3.89,0.1 h 0.15 c 0,0 0.75,-0.07 0.75,-0.07 l 0.1,0.99 -0.85,0.08 h -0.24 c 0,0 0.08,-1.01 0.08,-1.01 z m -3.04,-0.07 h 0.31 c 0,0 0.68,0 0.68,0 v 1 c 0,0 -0.68,0 -0.68,0 h -0.32 c 0,0 0.02,-1.01 0.02,-1.01 z m -2.99,0.03 h 0.46 c 0,0 0.48,-0.03 0.48,-0.03 l 0.09,1 -0.54,0.05 h -0.52 c 0,0 0.03,-1.01 0.03,-1.01 z m -3.02,-0.02 1.03,0.02 -0.06,1 -0.38,-0.02 h -0.59 c 0,0 0,-1 0,-1 z m -2.27,-0.05 h 0.28 c 0,0 -0.02,1 -0.02,1 h -0.22 c 0,0 -0.72,0.07 -0.72,0.07 l -0.09,-1 0.78,-0.07 z M 340.66,5 341.71,5.03 341.6,6.02 340.64,6 Z m -2.94,0.12 0.14,0.02 0.79,-0.02 0.02,1 -0.86,0.02 -0.21,-0.02 0.13,-0.99 z m -2.78,-0.07 0.76,0.05 -0.07,1 -0.72,-0.05 h -0.24 c 0,0 -0.02,-0.99 -0.02,-0.99 h 0.28 z m -3.24,0.04 0.44,0.04 0.5,-0.03 0.04,1 -0.56,0.02 -0.5,-0.04 0.08,-1 z m -3.04,-0.02 1.02,0.02 -0.05,1 -0.98,-0.02 v -1 z M 326.4,5.1 h 0.27 c 0,0 -0.01,1 -0.01,1 h -0.25 c 0,0 -0.74,0.01 -0.74,0.01 l -0.02,-1 0.75,-0.02 z M 323.58,5 h 0.12 c 0,0 -0.08,1.01 -0.08,1.01 l -0.95,0.02 -0.03,-1 0.93,-0.03 z m -3.89,0.07 h 0.11 c 0,0 0.83,-0.04 0.83,-0.04 l 0.06,1 -0.89,0.05 h -0.17 c 0,0 0.06,-1 0.06,-1 z m -3.03,0.01 1.02,0.03 -0.04,1 -0.99,-0.03 v -1 z m -3.01,-0.01 0.98,-0.03 0.04,1 -1.02,0.03 z m -2.47,-0.02 0.5,0.02 -0.06,1 -0.44,-0.02 -0.5,0.04 -0.07,-1 0.56,-0.04 z m -2.56,0.01 0.08,1 -1.02,0.05 -0.04,-1 z m -3.91,-0.02 0.87,0.09 h 0.05 c 0,0 0.04,0.99 0.04,0.99 h -0.13 c 0,0 -0.94,-0.09 -0.94,-0.09 z m -3,0.03 0.99,0.07 -0.07,1 -0.93,-0.07 -0.06,-0.99 h 0.07 z m -2.82,-0.03 0.79,0.03 -0.04,1 -0.77,-0.03 h -0.21 c 0,0 0,-1 0,-1 z m -3.21,0.06 0.39,0.02 0.55,-0.05 0.08,1 -0.61,0.05 -0.45,-0.02 z m -2.51,-0.05 0.52,0.03 -0.07,1 -0.45,-0.03 -0.48,0.04 -0.08,-1 0.55,-0.04 z m -3.48,-0.04 0.71,0.04 h 0.25 c 0,0 0.04,0.99 0.04,0.99 h -0.29 c 0,0 -0.75,-0.03 -0.75,-0.03 l 0.05,-1 z M 286.66,5 h 0.99 v 1.01 h -1.01 c 0,0 0.01,-1.01 0.01,-1.01 z m -3.01,0.06 h 0.99 c 0,0 0.01,0.99 0.01,0.99 h -0.92 c 0,0 -0.09,-0.49 -0.09,-0.49 v -0.5 z m -2.76,0.03 0.77,0.03 -0.04,1 -0.75,-0.03 h -0.23 c 0,0 0,-1 0,-1 z m -3.23,0.04 h 0.41 c 0,0 0.54,-0.04 0.54,-0.04 l 0.09,1 -0.59,0.05 h -0.46 c 0,0 0.02,-1.01 0.02,-1.01 z m -2.98,-0.08 0.56,0.03 0.38,-0.03 0.07,1 -0.44,0.03 -0.62,-0.03 z m -3.01,0 0.72,0.04 h 0.23 c 0,0 0.04,0.99 0.04,0.99 h -0.28 c 0,0 -0.77,-0.03 -0.77,-0.03 l 0.05,-1 z m -2.02,0.02 v 1 c 0,0 -0.13,0 -0.13,0 l -0.85,0.05 -0.06,-1 1.03,-0.05 z m -3.97,0.06 h 0.09 c 0,0 0.86,-0.01 0.86,-0.01 l 0.02,1 -0.93,0.02 h -0.12 c 0,0 0.07,-1.01 0.07,-1.01 z m -2.05,-0.09 0.03,1 -1,0.03 -0.03,-1 z m -3.65,-0.03 0.69,0.03 -0.05,1 -0.59,-0.03 -0.31,0.05 -0.14,-0.99 0.41,-0.06 z m -3.28,0.06 0.55,0.06 0.36,-0.03 0.07,1 -0.45,0.03 -0.64,-0.06 0.1,-0.99 z m -3.03,-0.02 1,0.04 -0.04,1 -1,-0.04 z m -2.97,-0.04 0.85,0.08 h 0.07 c 0,0 0.04,0.99 0.04,0.99 h -0.14 c 0,0 -0.92,-0.08 -0.92,-0.08 l 0.1,-1 z m -2.07,0.04 0.05,1 -0.95,0.05 -0.08,-0.5 -0.02,-0.5 0.99,-0.05 z m -3.95,0.02 h 0.21 c 0,0 0.76,-0.02 0.76,-0.02 l 0.03,1 -0.79,0.03 h -0.24 c 0,0 0.04,-1.01 0.04,-1.01 z m -3.01,0.03 h 0.36 c 0,0 0.59,-0.02 0.59,-0.02 l 0.06,1 -0.64,0.04 h -0.41 c 0,0 0.04,-1.01 0.04,-1.01 z m -2.06,-0.02 0.09,1 -1.03,0.06 -0.02,-1 0.97,-0.05 z m -3.33,-0.06 0.42,0.03 -0.09,1 -0.32,-0.03 -0.58,0.07 -0.1,-1 z m -2.82,0.01 h 0.21 c 0,0 -0.04,1.01 -0.04,1.01 h -0.17 c 0,0 -0.79,0.03 -0.79,0.03 l -0.05,-1 0.83,-0.04 z m -3.79,0.06 0.98,0.03 0.05,1 -1.02,-0.02 -0.03,-0.5 0.02,-0.5 z m -2.99,-0.04 h 0.97 c 0,0 0,1.01 0,1.01 h -1.03 c 0,0 0.06,-1.01 0.06,-1.01 z m -3,0.01 0.99,0.04 -0.03,1 -1.01,-0.04 z m -2.53,-0.02 0.52,0.02 -0.04,1 -0.47,-0.02 -0.48,0.03 -0.06,-1 z m -2.82,0.06 h 0.33 c 0,0 -0.03,1.01 -0.03,1.01 h -0.31 c 0,0 -0.67,0 -0.67,0 l -0.02,-1 h 0.7 z m -3.67,-0.09 0.86,0.02 h 0.12 c 0,0 0.01,1 0.01,1 h -0.14 c 0,0 -0.88,-0.02 -0.88,-0.02 z m -2,0.13 -0.03,1 -0.93,-0.03 -0.06,-1 z m -3.95,-0.05 0.23,0.03 0.67,-0.06 0.07,1 -0.76,0.06 -0.33,-0.03 0.11,-0.99 z m -3.01,-0.02 0.39,0.04 0.52,-0.04 0.06,1 -0.6,0.04 -0.48,-0.04 0.1,-1 z m -3.03,0.01 h 0.56 c 0,0 0.39,-0.02 0.39,-0.02 l 0.08,1 -0.44,0.04 h -0.61 c 0,0 0.03,-1.01 0.03,-1.01 z m -3,0.01 0.72,0.03 h 0.25 c 0,0 0.02,0.99 0.02,0.99 h -0.28 c 0,0 -0.75,-0.02 -0.75,-0.02 z m -2.98,-0.06 0.97,0.07 v 1 c 0,0 -0.12,0 -0.12,0 l -0.92,-0.07 z m -2.07,0.04 0.05,1 -1.02,0.05 v -1 c 0,0 0.97,-0.04 0.97,-0.04 z m -3.93,0 0.28,0.03 h 0.68 c 0,0 0,1 0,1 l -1.05,-0.03 0.1,-1 z m -2.62,0.01 0.61,0.02 -0.04,1 -0.57,-0.02 -0.39,0.02 -0.04,-1 z m -3.42,0.03 h 0.6 c 0,0 0.39,0 0.39,0 v 1 c 0,0 -0.39,0 -0.39,0 h -0.61 c 0,0 0.01,-1.01 0.01,-1.01 z m -2.96,-0.08 0.77,0.07 h 0.18 c 0,0 0,1 0,1 h -0.23 c 0,0 -0.82,-0.07 -0.82,-0.07 l 0.09,-1 z m -3.03,-0.02 0.93,0.03 0.05,1 -1.01,-0.03 z m -2.93,0.01 h 0.92 c 0,0 0,0.99 0,0.99 l -0.95,0.02 -0.12,-0.99 0.13,-0.02 z M 172.92,5 l 0.76,0.04 -0.05,1 L 172.92,6 h -0.24 c 0,0 -0.05,-0.98 -0.05,-0.98 h 0.29 z m -3.25,0.05 0.45,0.02 0.51,-0.03 0.05,1 -0.55,0.03 h -0.49 c 0,0 0.03,-1.01 0.03,-1.01 z m -3,0.05 0.61,0.02 h 0.37 c 0,0 0.02,0.99 0.02,0.99 h -0.39 c 0,0 -0.63,-0.01 -0.63,-0.01 l 0.03,-1 z m -3,-0.03 1.01,0.03 -0.05,1 -0.99,-0.03 z M 161.57,5 h 0.12 c 0,0 -0.07,1.01 -0.07,1.01 l -0.9,0.1 -0.12,-0.99 0.97,-0.11 z m -3.9,0.07 1.01,0.04 -0.04,1 -1,-0.04 z m -2.98,0.05 0.24,0.02 0.65,-0.09 0.13,0.99 -0.76,0.1 -0.34,-0.02 0.07,-1 z m -3.02,-0.07 h 0.44 c 0,0 0.51,-0.03 0.51,-0.03 l 0.07,1 -0.56,0.04 h -0.49 c 0,0 0.03,-1.01 0.03,-1.01 z m -2.43,-0.03 0.46,0.04 -0.09,1 -0.41,-0.04 h -0.54 c 0,0 -0.02,-0.99 -0.02,-0.99 h 0.59 z m -2.87,-0.01 h 0.31 c 0,0 -0.05,1.01 -0.05,1.01 h -0.25 c 0,0 -0.68,0.04 -0.68,0.04 l -0.07,-1 0.75,-0.06 z m -3.71,0 h 1.04 c 0,0 -0.07,1.01 -0.07,1.01 h -0.97 z m -2.93,0.02 0.95,0.04 -0.05,1 -0.88,-0.04 h -0.05 c 0,0 -0.08,-0.99 -0.08,-0.99 h 0.12 z m -3.04,0.08 0.28,0.02 0.67,-0.03 0.03,1 -0.73,0.02 -0.33,-0.02 0.07,-1 z m -3.04,-0.05 h 0.44 c 0,0 0.54,-0.02 0.54,-0.02 l 0.03,1 -0.56,0.02 h -0.46 c 0,0 0,-1 0,-1 z m -2.99,-0.02 1.05,0.05 -0.1,1 -0.4,-0.04 h -0.55 c 0,0 0,-1 0,-1 z m -2.29,-0.01 0.33,0.02 -0.09,1 -0.25,-0.02 -0.67,0.06 -0.07,-1 0.75,-0.05 z m -3.64,-0.01 0.91,0.13 -0.05,0.35 0.1,0.64 h -0.05 c 0,0 -0.14,0 -0.14,0 l -0.91,-0.13 z m -2.99,0.02 0.94,0.03 -0.04,1 -0.87,-0.03 h -0.06 c 0,0 -0.09,-0.99 -0.09,-0.99 h 0.13 z m -2.08,-0.03 0.02,1 -0.98,0.03 -0.06,-1 1.02,-0.04 z m -3.54,0.01 0.58,0.04 -0.06,1 -0.55,-0.03 h -0.42 c 0,0 0,-1 0,-1 h 0.45 z m -3.45,0.01 1.01,0.02 -0.03,1 -1,-0.02 z m -2.97,0.03 0.79,0.06 h 0.17 c 0,0 0.01,1 0.01,1 h -0.21 c 0,0 -0.83,-0.06 -0.83,-0.06 l 0.08,-1 z m -2.96,0.08 h 0.01 c 0,0 0.85,-0.04 0.85,-0.04 l 0.06,0.5 v 0.5 c 0,0 -1.02,0.03 -1.02,0.03 h -0.06 c 0,0 0.15,-1 0.15,-1 z m -3.06,-0.09 1.02,0.04 -0.04,1 -0.98,-0.04 z m -2.68,0.03 0.69,0.03 -0.04,1 -0.66,-0.03 h -0.31 c 0,0 -0.02,-0.99 -0.02,-0.99 H 101 Z m -3.32,0.01 h 0.51 c 0,0 0.45,-0.03 0.45,-0.03 l 0.07,1 -0.49,0.03 h -0.55 c 0,0 0.01,-1 0.01,-1 z m -3,-0.07 1.03,0.04 -0.08,1 -0.97,-0.04 z m -2.17,0.03 h 0.15 c 0,0 0,1 0,1 h -0.15 c 0,0 -0.85,0 -0.85,0 v -1 c 0,0 0.85,0 0.85,0 z M 88.75,5.01 89.71,5.11 89.6,6.1 88.68,6 88.66,5 h 0.08 z m -2.89,0.02 h 0.79 c 0,0 0.01,0.99 0.01,0.99 L 85.71,6.06 85.6,5.07 85.85,5.04 Z m -3.19,-0.01 1.02,0.03 -0.04,1 -0.99,-0.03 v -1 z m -2.04,0.03 0.06,1 -1.02,0.03 v -1 c 0,0 0.97,-0.03 0.97,-0.03 z M 77.44,5 77.73,5.04 77.59,6.03 77.4,6 76.69,6.05 76.62,5.05 77.43,5 Z m -3.75,0.02 0.93,0.04 0.04,1 -1.02,-0.04 z m -3.02,0.06 h 0.16 c 0,0 0.79,-0.06 0.79,-0.06 l 0.07,1 -0.84,0.06 h -0.21 c 0,0 0.02,-1 0.02,-1 z m -2.96,0.02 0.33,0.03 0.58,-0.05 0.08,1 -0.66,0.05 -0.42,-0.03 z m -2.58,-0.08 0.6,0.06 -0.11,0.99 -0.5,-0.06 -0.4,0.04 -0.08,-1 0.5,-0.04 z m -3.45,0.04 h 0.67 c 0,0 0.29,0 0.29,0 l 0.07,1 -0.34,0.02 h -0.71 c 0,0 0.02,-1.01 0.02,-1.01 z M 59.45,5.01 h 0.26 c 0,0 -0.08,1.01 -0.08,1.01 h -0.16 c 0,0 -0.74,0.08 -0.74,0.08 L 58.62,5.11 59.45,5.02 Z m -3.76,0.01 1.01,0.05 -0.05,1 -0.94,-0.05 -0.07,-0.99 h 0.06 z m -2.95,0.08 0.22,0.02 0.67,-0.07 0.09,1 -0.77,0.07 -0.32,-0.03 z m -3.02,-0.01 0.39,0.02 0.53,-0.06 0.1,1 -0.61,0.06 -0.47,-0.02 z m -3,-0.06 0.56,0.03 0.38,-0.03 0.06,1 -0.44,0.03 -0.62,-0.03 z m -3,-0.01 0.73,0.05 h 0.24 c 0,0 0.01,1 0.01,1 h -0.27 c 0,0 -0.76,-0.04 -0.76,-0.04 l 0.06,-1 z m -3.02,0.02 1,0.03 -0.03,1 -1,-0.03 z m -2.99,0.05 h 0.98 c 0,0 0,1.01 0,1.01 h -1.02 c 0,0 0.05,-1.01 0.05,-1.01 z M 34.96,5.1 35.7,5.12 35.67,6.12 34.96,6.1 H 34.7 c 0,0 -0.02,-0.99 -0.02,-0.99 h 0.29 z m -2.83,0.01 h 0.55 c 0,0 0,1 0,1 h -0.54 c 0,0 -0.45,0 -0.45,0 l -0.02,-1 z M 29.27,5.04 h 0.41 c 0,0 0,1 0,1 H 29.3 c 0,0 -0.6,0.03 -0.6,0.03 l -0.05,-1 0.63,-0.03 z m -2.6,0.04 v 1 c 0,0 -0.99,0.02 -0.99,0.02 l -0.02,-1 z m -3.99,0.03 0.9,-0.08 0.08,0.5 v 0.5 c 0,0 -0.95,0.08 -0.95,0.08 L 22.66,5.61 V 5.11 Z M 20.67,5.08 v 1 c 0,0 -0.99,0.01 -0.99,0.01 v -1 c 0,0 0.99,-0.01 0.99,-0.01 z m -3.98,0 h 0.34 c 0,0 0.6,-0.04 0.6,-0.04 l 0.09,1 -0.66,0.06 h -0.4 c 0,0 0.04,-1.01 0.04,-1.01 z"
       id="path22" />
  </g>
</svg>
